<svg xmlns="http://www.w3.org/2000/svg" id="Layer_2" data-name="Layer 2" viewBox="0 0 62.44 62.44"><defs><style>      .cls-1 {        fill: #fff;        stroke-width: 0px;      }    </style></defs><g id="Capa_1" data-name="Capa 1"><path class="cls-1" d="M0,62.44h11.3S.79,47.17,0,40.44v22Z"></path><path class="cls-1" d="M52.91,0c5.38.71,9.53,5.31,9.53,10.88V0h-9.53Z"></path><path class="cls-1" d="M40.48,10.88c0-5.57,4.15-10.17,9.53-10.88h-23.92c5.38.71,9.53,5.31,9.53,10.88,0,6.06-10.98,22.01-10.98,22.01,0,0-10.98-15.94-10.98-22.01C13.65,5.31,17.8.71,23.18,0H0v38.63c.53-5.77,5.39-10.29,11.3-10.29,6.27,0,11.35,5.08,11.35,11.35s-11.35,22.75-11.35,22.75h27.64s-11.35-16.48-11.35-22.75,5.08-11.35,11.35-11.35,11.35,5.08,11.35,11.35-11.35,22.75-11.35,22.75h23.5V10.88c0,6.06-10.98,22.01-10.98,22.01,0,0-10.98-15.94-10.98-22.01"></path><polygon class="cls-1" points="22.29 14.18 24.64 12.94 27 14.18 26.55 11.55 28.46 9.69 25.82 9.31 24.64 6.92 23.47 9.31 20.83 9.69 22.74 11.55 22.29 14.18"></polygon><path class="cls-1" d="M16.85,10.88c0,4.3,3.48,7.78,7.78,7.78s7.78-3.48,7.78-7.78-3.48-7.78-7.78-7.78-7.78,3.48-7.78,7.78M24.64,4.85c3.34,0,6.05,2.71,6.05,6.05s-2.71,6.05-6.05,6.05-6.05-2.71-6.05-6.05,2.71-6.05,6.05-6.05"></path><polygon class="cls-1" points="49.11 14.18 51.47 12.94 53.83 14.18 53.38 11.55 55.28 9.69 52.65 9.31 51.47 6.92 50.29 9.31 47.65 9.69 49.56 11.55 49.11 14.18"></polygon><path class="cls-1" d="M43.68,10.88c0,4.3,3.48,7.78,7.78,7.78s7.78-3.48,7.78-7.78-3.48-7.78-7.78-7.78-7.78,3.48-7.78,7.78M51.47,4.85c3.34,0,6.05,2.71,6.05,6.05s-2.71,6.05-6.05,6.05-6.05-2.71-6.05-6.05,2.71-6.05,6.05-6.05"></path><path class="cls-1" d="M19.34,39.69c0-4.44-3.6-8.04-8.04-8.04s-8.04,3.6-8.04,8.04,3.6,8.04,8.04,8.04,8.04-3.6,8.04-8.04M5.06,39.7c0-3.45,2.8-6.25,6.25-6.25s6.25,2.8,6.25,6.25-2.8,6.25-6.25,6.25-6.25-2.8-6.25-6.25"></path><polygon class="cls-1" points="11.31 41.81 13.75 43.09 13.29 40.38 15.26 38.46 12.53 38.06 11.31 35.59 10.09 38.06 7.37 38.46 9.34 40.38 8.88 43.09 11.31 41.81"></polygon><polygon class="cls-1" points="40.17 38.06 38.95 35.59 37.74 38.06 35.01 38.46 36.98 40.38 36.52 43.09 38.95 41.81 41.39 43.09 40.93 40.38 42.9 38.46 40.17 38.06"></polygon><path class="cls-1" d="M38.94,31.65c-4.44,0-8.04,3.6-8.04,8.04s3.6,8.04,8.04,8.04,8.04-3.6,8.04-8.04-3.6-8.04-8.04-8.04M38.95,45.95c-3.45,0-6.25-2.8-6.25-6.25s2.8-6.25,6.25-6.25,6.25,2.8,6.25,6.25-2.8,6.25-6.25,6.25"></path></g></svg>