<svg xmlns="http://www.w3.org/2000/svg" id="Layer_2" data-name="Layer 2" viewBox="0 0 182.96 182.96"><defs><style>      .cls-1 {        fill: #ffb700;      }    </style></defs><g id="Capa_1" data-name="Capa 1"><g><path class="cls-1" d="M91.48,129.65c-45.75,0-68.61-38.14-68.61-38.14,0,0,22.86-38.14,68.61-38.14,51.47,0,68.61,38.14,68.61,38.14,0,0-17.14,38.14-68.61,38.14M0,182.96H182.96V0H0V182.96Z"></path><path class="cls-1" d="M90.98,105.76c-8.21,0-14.86-6.38-14.86-14.25s6.65-14.25,14.86-14.25,14.86,6.38,14.86,14.25-6.65,14.25-14.86,14.25m0-43.12c-16.63,0-30.11,12.92-30.11,28.85s13.48,28.85,30.11,28.85,30.11-12.92,30.11-28.85-13.48-28.85-30.11-28.85"></path></g></g></svg>