<svg xmlns="http://www.w3.org/2000/svg" viewBox="0 0 416.68 506.63"><defs><style>.cls-1{font-size:40px;font-family:Helvetica-Bold, Helvetica;font-weight:700;}.cls-1,.cls-3{fill:#fff;}.cls-2{fill:none;stroke:#fff;stroke-miterlimit:10;stroke-width:1.45px;}</style></defs><g id="Capa_2" data-name="Capa 2"><g id="Capa_1-2" data-name="Capa 1"><text class="cls-1" transform="translate(0 34.39)">Córdoba</text><path class="cls-2" d="M91.84,255.2l-.44,1.49-.09.65-.76.47-.77.22-9.07-.41L40,256.53,37.57,249l-5.8-12.71-.8-3.95h0V223.4L34.39,211l3.28-5.33a1.42,1.42,0,0,0,.08-.18L39,200.88l.28-2.6L39,189.73l1.69-3,2.81-4.38,4.82-9.63,4.4-6.34,5-5.83a.79.79,0,0,0,.17-.41l.27-4.1-.14-4.11-1.25-7.78a1,1,0,0,0-.11-.28l-3.06-4.58a.69.69,0,0,0-.11-.13L52,137.78a.59.59,0,0,0-.23-.14l-4.85-1.75-1.22-1.22L44,131.79l-2.14-3.08-1.53-7.46-.69-1.94a.65.65,0,0,0-.17-.26L37,116.59l.92-.84a.68.68,0,0,0,.23-.51v-.56a.7.7,0,0,0-.11-.37l-.37-.6.25-.2L43.51,112l.16-.07,2.09-1.17,1.52-.13a.68.68,0,0,0,.38-.16l.84-.69a.76.76,0,0,0,.17-.23l.35-.71.91-1.18,3.26-2.45a.52.52,0,0,0,.11-.1l.84-1a.7.7,0,0,0,.14-.62l-.78-3.13L54.36,98,56,96l3.11-2.83,1-1.11a.82.82,0,0,0,.12-.2l.55-1.39a.55.55,0,0,0,0-.17l1-7.8.45-.9h.12a.63.63,0,0,0,.27-.06l2.61-1.1,1.53-.55a.69.69,0,0,0,.41-.41l.42-1.11a.67.67,0,0,0,0-.24V76.54L67.77,75l.31-.63.87-1,.81-.59.72-.37,3.77-1.12,2.92-1,.13-.06L80,68.68l2.22-1.8a.71.71,0,0,0,.25-.46l.26-2.24.42-.84,1.36.18.81.81a.64.64,0,0,0,.52.2L89,64.38l3.2-.68-.09,0a.72.72,0,0,0-.24.14l-1.11,1A.7.7,0,0,0,90.92,66l1.25.7a.67.67,0,0,0,.5.06l.56-.13a.88.88,0,0,0,.22-.1l.36-.24.5.5v.55a.68.68,0,0,0,.37.61.7.7,0,0,0,.71,0L98.25,66l1.7-.92,1.87-.24,1.87.24,1.31.4-.13,5.31a.69.69,0,0,0,.44.66l2.43.95.77.51a.6.6,0,0,0,.22.09l2.65.65,4.83,2.29,1.21,1.72,1.66,1.81a.73.73,0,0,0,.35.2l3.16.76.27.55a.67.67,0,0,0,.4.34l.42.14.17,0,1.77.12,1.12.72.64,3.72a.81.81,0,0,0,.11.27l2.64,4a.64.64,0,0,0,.29.25L146.55,98l3.57,2.58-.6,1.29a.7.7,0,0,0,0,.55l.28.69a.83.83,0,0,0,.07.13l1.62,2.42.1.21-.49.78a.81.81,0,0,0-.1.31l-.39,4.26-.61.44-4.49,1.2-1.39.14a.46.46,0,0,0-.2,0l-1,.42a.52.52,0,0,0-.13.06l-1.39,1-.11.09-1.72,1.87-1.8,1.39a.63.63,0,0,0-.12.11l-.69.83a.71.71,0,0,0-.16.39l-.28,3.75a1.09,1.09,0,0,0,0,.26l1.75,5.66-.51,2.32a.77.77,0,0,0,0,.15v1.49l.3,2,1.78,6v4l.56,4.72a.35.35,0,0,0,0,.14l.6,1.78.7,1.25a.91.91,0,0,0,.11.16l1,1a.72.72,0,0,0,.2.14l3.79,1.75,3,2,3.43,3.56a.67.67,0,0,0,.8.14l9.77-4.82,4-1.26,5.05-1.77,1.94-.13h1l1.78,1.52,3.37,2.56,2.57,4.2a.58.58,0,0,0,.1.12l2.19,2.18,1.17.78,1,1.08.46,1.28-.13,5.15a.65.65,0,0,0,0,.2l.52,1.92-.08.35-1.3,1.45-1.11,1.52a.7.7,0,0,0-.14.41v1.1l-.49,1.09-1.34.33a.55.55,0,0,0-.24.12l-1.63,1.2L181,183.9l-2.48,3.85-2.55,3.45-4.86-.25-2,.15-1.39.27a.85.85,0,0,0-.22.09l-1.32.79-1,.34-2.83-.67-2.2-.14-7.07.72-2.43.72-1.39.55a.74.74,0,0,0-.32.26l-3.12,4.77L140,205l-3.43,4.39-2.52,2.14-5,3.41-1.53,1.53a.8.8,0,0,0-.15.21L124.6,223l-2.42,1.5L120.51,226a.64.64,0,0,0-.1.13l-1.12,1.67a.58.58,0,0,0-.09.23l-1.78,7.66-2.08,3.24-1.56,1-3.35,1.35-5.64,1.14-3.34,1.11a.87.87,0,0,0-.19.1l-2.64,1.94a.75.75,0,0,0-.15.16L91.94,255A.75.75,0,0,0,91.84,255.2Z"></path><circle class="cls-3" cx="102.67" cy="154.02" r="7"></circle><text class="cls-1" transform="translate(113 487.39)">Huila</text><path class="cls-2" d="M99.57,429l-7.08,6.26a.69.69,0,0,0-.11.13l-6.32,9.22-4.6,6.15-6.18,6.63-1.83,2.06a.5.5,0,0,0-.08.12l-1.23,2.13L70.9,463l-5,3.5-1.74,1.71L62.69,470,61.1,471.6l-1.76.73-2.16.36-2.34-.43-4.63-.17-5.87-1-3.23-1.52a.9.9,0,0,0-.27-.07l-3.5-.17-3.12-1.2-1.52-.84a.42.42,0,0,0-.14-.06l-6.84-2.13-3.17-1.89-2.36-2.4-4-6.56L11.42,448a.49.49,0,0,0-.12-.13l-6.64-5.25-1.77-3.24-.24-3.73.14-1,.61-1.44,2.42-2.24a.63.63,0,0,0,.19-.31l.29-1a1.09,1.09,0,0,0,0-.26l-.25-2.73L6,422.57,7.29,421l.92-.5,1.28.23,1,.63a.76.76,0,0,0,.3.1l1.46.16h1.58l1.73.42a.63.63,0,0,0,.36,0l2.66-.81.14-.07.7-.41a.66.66,0,0,0,.27-.28l.28-.55a.7.7,0,0,0,.06-.45l-.25-1.31-.1-1.39,1-1.2.86-.48a.69.69,0,0,0,.26-.25l1.47-2.48,1.27-3.55.39-.9.66-.9a.68.68,0,0,0,.14-.41V405a.72.72,0,0,0-.06-.29l-3.16-7.17,1.07-4.12,2.06.41,1.28,1.31L32,399.24a.55.55,0,0,0,.32.14l1.87.31,2.36.16a.5.5,0,0,0,.21,0l7.47-1.9,3.12-1.25,6.78-3.31,2.3-1.56,2.32-2,2.12-2.47.73-.23,3,2.13,3,2.81a1,1,0,0,0,.17.12l1.8.85a.91.91,0,0,0,.32.06l3.2-.11a.67.67,0,0,0,.58-.34l1.08-1.85,1-1L78,388.63a.69.69,0,0,0,.3-.93l-2.51-5,.15-2.46,1.82-3.7,2-6.51a.72.72,0,0,0-.06-.54l-1.2-2.18-1.09-2.51a.46.46,0,0,0-.09-.15l-1.09-1.4a.8.8,0,0,0-.13-.13l-1.65-1.26a.81.81,0,0,0-.18-.1l-1.4-.52-1.08-1-2.54-3-12-10.71-.41-1L59,344.08h.82l1.16.13,1.75,1.66a.53.53,0,0,0,.15.11l1.89,1,7.48,2.71a.58.58,0,0,0,.19,0l2.5.17.17,0,1.39-.26a.7.7,0,0,0,.43-.26l.91-1.21L80,344.12l3.36-3.58,9.24-7.41a.57.57,0,0,0,.11-.11L94.35,331a.67.67,0,0,0,.14-.28l.68-2.86,2.24-2.19a.76.76,0,0,0,.21-.44l.3-3.48,2-4.1,2.65-4.09,2.85-3.64,1.78-2.82,1.16-1,.78-.09,1.68.41.15,0h.84l.17,0,1.11-.27a.62.62,0,0,0,.28-.14l.88-.74,2.5-.76.16-.07.7-.41a.54.54,0,0,0,.19-.18l1.21-1.56.75-.53,2.52-.36.71.11,2.68,1.78,1.15.64,1.38,1.12a.68.68,0,0,0,.89,0l1.12-1,.11-.12L131,303l1.12-1.1.79-.19.34.06.39.8a.69.69,0,0,0,.37.34l1.8.71a.69.69,0,0,0,.61-.05.68.68,0,0,0,.33-.53l.13-1.3.61-.69,1-.49a.58.58,0,0,0,.23-.18l.42-.52,1.22-.32h0l8,.08-.74,2.14a.78.78,0,0,0,0,.22v.85l-.21.62-.77,1a.7.7,0,0,0-.13.24l-.16.67-.13,1.55-.87,3.33a.72.72,0,0,0,.05.48l.41.83a.59.59,0,0,0,.13.19l.68.7a.68.68,0,0,0,.32.18l4.43,1.18,4.44.32h.17l5.28-.92a.82.82,0,0,0,.37-.19L166.7,308l3.64-5.08,1.78-2.29L174,299a.68.68,0,0,0,.17-.21l.57-1.11a.73.73,0,0,0,.07-.41l-.16-1.09L174.3,295l-.11-1.21.4-1.89L175,291l.67-.55.84-.55a.74.74,0,0,0,.13-.12l1.21-1.34.42-.69a.75.75,0,0,0,.1-.36v-1a.75.75,0,0,0,0-.26l-.24-.61-.09-.82.83-1.49.24-.23,1.09-.36a.64.64,0,0,0,.32-.21l.7-.83a.56.56,0,0,0,.1-.15l1-2,.76-1,1.07-1.17,3.78-2.48,5.88-5.22a.64.64,0,0,0,.2-.32l.05-.14,2.34,2.91a.68.68,0,0,0,.12.12l3,2.27-.36,2.15-2.06,5-1.93,3.38-7,9.24a.69.69,0,0,0-.1.19l-1.14,3.18a.94.94,0,0,0,0,.16l-.46,3.92-.48,7.72-.42,2.93-1,3-2.72,4.52L180.21,321l-4.47,2.88-.13.1-2.29,2.38-2.66,1.17-.13.07-2.09,1.51a.44.44,0,0,0-.14.13l-1,1.32L164,336.23l-2.58,7.26-.06.2-1.25.45-.84.41a.57.57,0,0,0-.16.11l-5.12,4.61-4.28,5.34-1.88,3.4L146.62,361l-.57,1.8a.73.73,0,0,0,0,.44l.81,2.37a.71.71,0,0,0,.28.36l2.13,1.36,1.88,2,.58,2.39-.58,1.34-3,3.41-7.88,6-2.72.84-.79-.3L134,381.41a.68.68,0,0,0-.24-.08l-1.12-.15a.82.82,0,0,0-.27,0l-1,.27a.75.75,0,0,0-.3.17l-1.21,1.21-1.41,2.07a.66.66,0,0,0-.09.19l-3.12,10.44L124,398.19l-1.36,1.88-3.43,3.77-.94.53-4.38,3.05-2,1.65a.62.62,0,0,0-.16.2l-2.11,3.84-3,4.82L99.57,429"></path><circle class="cls-3" cx="61.67" cy="430.02" r="7"></circle><text class="cls-1" transform="translate(201.42 115.96)">Santander</text><path class="cls-2" d="M415.56,271.87l-1.51,7-3.45,6.35-.69,1.53a.72.72,0,0,0-.06.29h0v5.32l-.64.84-.77.57-1.8.83a.8.8,0,0,0-.21.15l-3.2,3.34-2.15.59-1.14-.29-1.84-4.58-1-2-1.53-2.09a.53.53,0,0,0-.13-.13l-3.15-2.47-1.81-1.67a.72.72,0,0,0-.47-.18h-.83a.58.58,0,0,0-.19,0l-1.95.55a.68.68,0,0,0-.42.34l-.83,1.53a.7.7,0,0,0,0,.6l.69,1.66a.77.77,0,0,0,.14.21l2.78,2.92.16.13.87.49.69.81.62,1.37.36,1.08-.66,3.43a1.34,1.34,0,0,0,0,.2l.41,3.88L390,309.57a.69.69,0,0,0,0,.47l1,2.75-.25,1.48a.43.43,0,0,0,0,.16l.13,1.69-.22.76-.58.92-1.21,1-1.12.43-1.66,1a.66.66,0,0,0-.3.36l-1.6,4.39-1.39,1-2.87.69-2.5,1a.69.69,0,0,0-.28.2l-1.31,1.62L375,331l-7.09,8.33a.7.7,0,0,0-.14.27l-1.2,4.41-.64.64h-1.27l-8.51-1.37-2.88-1.43-2.22-1.53a.88.88,0,0,0-.22-.1l-1.11-.28-.17,0H349a.68.68,0,0,0-.31.08l-1.67.83a.69.69,0,0,0-.34.39L345,345.89l-4.35,6.85-1.88.11-3.08-.93a.67.67,0,0,0-.37,0l-.56.14a.67.67,0,0,0-.41.29l-.27.41a.8.8,0,0,0-.11.25l-.38,2-.91,2.22-1.83,1.7a.71.71,0,0,0-.18.27l-1.1,2.94-.44.05-.94-.62L324.8,357l-.34-2.58,2.41-1.56a.7.7,0,0,0,.31-.44l.34-1.61,1.77-.82a.76.76,0,0,0,.3-.26l1.39-2.23.06-.13,1.42-4,.41-1.94a.77.77,0,0,0,0-.15v-1.67h0a.69.69,0,0,0-.05-.24l-.47-1.23-1.11-1.81-.12-.14-3.75-3.48-.17-.11-4.2-2-1.31-1.31a.71.71,0,0,0-.57-.2.74.74,0,0,0-.52.33l-3.05,5a.77.77,0,0,0-.08.19l-.22.89-3.85,3a1.37,1.37,0,0,0-.16.18l-1.11,1.81a.66.66,0,0,0-.09.28l-.4,3.18-1.73,2.79a1.42,1.42,0,0,0-.08.18l-.42,1.53a.69.69,0,0,0,0,.35l.4,1.59v3.82l-1,2.78-.85,4.84v2l-.45,1.58-.23.13-.4-.48-1.9-1.6-1.79-1-1.94-.7-.19,0-2.08-.14h-.15l-3,.43-6.12,1.53a.72.72,0,0,0-.2.09l-3,1.91.06-1a.72.72,0,0,0-.26-.58l-.7-.56a.42.42,0,0,0-.16-.09l-1-.42a.53.53,0,0,0-.18-.05l-1-.14h-.16l-1.53.14-.17,0-1.84.67-.81.17-1,.39-.8.1-2.88-1.63L272.1,360,270.43,357a.66.66,0,0,0-.21-.23l-1-.69a.84.84,0,0,0-.21-.11l-1-.27-.19,0h-1.15l-.69-2.41a.69.69,0,0,0-.15-.28l-1.25-1.39a.63.63,0,0,0-.33-.2l-3.87-1.07-1.82-1.69a.68.68,0,0,0-.86-.06L256,349.79a.8.8,0,0,0-.2.21l-1.19,2-1.22,1-1,.62-.44.09-1-.18-1-2.82.1-1.1.5-1.82,2.23-4.3a.71.71,0,0,0,.07-.32v-1.67h0a.69.69,0,0,0,0-.25l-.73-1.89L251,337.6l-1.11-2.78a.47.47,0,0,0-.07-.12l-.83-1.26a.8.8,0,0,0-.21-.2l-1.12-.69a.69.69,0,0,0-.44-.11l-1.25.14a.62.62,0,0,0-.26.09l-1.34.75-2.26,1.73-1,.31-2.16-.84-2-1.17-1.2-1.07-1.87-2-3.56-5.48-1.41-4.34-.94-1.74-.8-2.78-.47-2.48,2.83-2,.12-.11,2.42-2.72,4-6.07.59.23a.66.66,0,0,0,.44,0l1-.27a.71.71,0,0,0,.34-.23l.7-.83a.56.56,0,0,0,.11-.2l.42-1.11a.75.75,0,0,0,0-.33l-.14-1.11a.79.79,0,0,0-.08-.26l-.56-1-.09-.13L237.39,296l-.22-.94-.27-8.47,1.37-3.46.11-.57.42-1.07,1.12-.31,3.75-.55a.76.76,0,0,0,.2-.06l3.58-1.74L264.68,266l.14-.14,1.31-1.77,2.87-5.61,3.83-4.09a.71.71,0,0,0,.13-.22l.49-1.2.71-.52,7.75-3.81,2.22-1.67a.82.82,0,0,0,.2-.25l1.25-2.5a.64.64,0,0,0,.07-.41l-.56-3.89a.83.83,0,0,0-.06-.21l-.7-1.39a.83.83,0,0,0-.08-.12l-1.08-1.35-.89-1.28-.38-1.72-1-12,.64-4.29s0,0,0-.08l.54-3.8,1.08-3.81,1.11-2.64a.88.88,0,0,0,0-.15l.14-.84a.88.88,0,0,0,0-.28l-.28-1.11a.88.88,0,0,0-.1-.22l-.75-1.12-.1-.72v-3.52l.35-1.29,5.18-6.42a.48.48,0,0,0,.12-.22l.2-.57,1-.57a.66.66,0,0,0,.33-.4l.41-1.39a.48.48,0,0,0,0-.2v-3.09l.1-.32.44-1.36.12-.77,0-.2h0a.73.73,0,0,0-.06-.41l-.46-.91-.65-1,.13-.4.48-.59a.68.68,0,0,0,.13-.27l.29-1.17.84-5.42a.85.85,0,0,0,0-.16l-.15-2-1.11-5.69a.64.64,0,0,0-.06-.18l-.42-.83a.62.62,0,0,0-.17-.22l-.79-.68-1.17-5.31.12-.48.12-.47h0a.7.7,0,0,0,0-.38L287,150.74l-.14-1.61.13-1.7.66-2.83,1-2.5,0-.13,1.34-.57.42-.14a.7.7,0,0,0,.37-.29l1.29-2,.71-.71.8-.23a.72.72,0,0,0,.27-.15l.51,4.42a.75.75,0,0,0,0,.16l.74,2.06,3.82,6.67.12,1.51a.72.72,0,0,0,.17.4l.83,1a.65.65,0,0,0,.36.22l1,.26.36.18.6.72a.57.57,0,0,0,.16.15l1,.61.42.63.49,1.47v1.42l-.58,1.38-2.47,2.09-1.61,1.18-1.67,1.67a.8.8,0,0,0-.15.21l-.41,1a.75.75,0,0,0-.05.16l-.14.83a.7.7,0,0,0,0,.25l.51,2.92-.66,1.13-.19.33a.66.66,0,0,0-.09.31l-.14,2.78a.68.68,0,0,0,.18.5.69.69,0,0,0,.48.23l11.5.54,1.28,1.52,1.67,1.39.14.09,2.14,1.07,2.09,1.82,2.3,2.58.17.32v.67h0a.65.65,0,0,0,.1.36l1.11,1.81a.64.64,0,0,0,.1.13l.7.69a.69.69,0,0,0,.13.11l1.49.88,1.49.59,1.87.42,5,.68,1.35.79.33.76a.66.66,0,0,0,.44.39l1.06.3,1.94.29h0l3-.15,4.45.42a.69.69,0,0,0,.71-.43l.31-.8,1-4.19,1.27-2,.61-.51.41-.08.91.11,1.3.52a.67.67,0,0,0,.31.05l1.74-.13,2.94.41h2l.88.13.48.2.41.18a.59.59,0,0,0,.23,0l2.14.14,1.32.39a.68.68,0,0,0,.6-.1l.88-.63,1.53-.47,2.43.51-.24,1.32a.7.7,0,0,0,0,.25l.72,3.12.41,1.25a.61.61,0,0,0,.07.14l.83,1.39a1,1,0,0,0,.16.19l6.47,5.12.2,1-.24,1.11a.69.69,0,0,0,0,.35l.56,1.81a.38.38,0,0,0,.08.17l2.83,4.39.85,1,.1.64a.68.68,0,0,0,.41.52l.82.37-.12,4.57-3.32,4a.71.71,0,0,0,0,.85l2.64,3.75a.54.54,0,0,0,.15.15l.56.42.14.08.64.28.18.79-.13,1.28h0a.57.57,0,0,0,0,.29l.45,1.38-5.1,8a.68.68,0,0,0-.11.31.59.59,0,0,0,.05.32l.55,1.39a.74.74,0,0,0,.26.32l.52.33,2.5,1.12.19.05,2,.26,2.26.54.5.3.9,1,.16.13,1,.64,2.5,2.08a.7.7,0,0,0,.76.09l2.15-1.07.4-.1h1.1l1.08-.12.27.11.27.63.42,1.39a.66.66,0,0,0,.17.29l.28.28a.69.69,0,0,0,1,0l.7-.69a1,1,0,0,0,.12-.16l.55-1,1.9.38a.66.66,0,0,0,.28,0l2.77-.6.87-.37,1.05-.12,1.09.2.62,1.37.26,2.1.13,1.44L409,254h0a.81.81,0,0,0,0,.22l.42,2.5a.71.71,0,0,0,.74.58l1.8-.14a.73.73,0,0,0,.37-.14l.55-.42a.52.52,0,0,0,.11-.1l.84-1,0-.06,1.88,5-.6,1.7a.94.94,0,0,0,0,.16l-.14,1.33v1.53a.71.71,0,0,0,0,.2l.94,3.06Z"></path><circle class="cls-3" cx="332.1" cy="240.59" r="7"></circle></g></g></svg>