<svg xmlns="http://www.w3.org/2000/svg" id="Layer_2" data-name="Layer 2" viewBox="0 0 62.33 62.33"><defs><style>      .cls-1 {        fill: #fff;        stroke-width: 0px;      }    </style></defs><g id="Capa_1" data-name="Capa 1"><path class="cls-1" d="M0,0v50.97l6.23-7.1c1.28-1.57.43-8.87-.04-12.17-.16-1.15-.13-2.32.1-3.47.97-4.95,3.71-18.16,3.71-18.16.06-.39.28-.73.56-1.01.67-.67,1.85-1.07,3.09-.84,1.8.22,2.98,2.87,2.92,4.16l-1.01,15.96c0,.22.11.34.34.34q.11,0,.17-.06l7.92-6.57L41.85,2.83c1.46-1.57,3.54-2.08,4.72-1.12,1.18.95,1.12,3.03-.23,4.72l-14.89,18.82L53.54,5.64c1.74-1.52,3.76-1.74,4.77-.73l.06.06c1.01,1.12,1.24,2.7-.84,4.78l-20.17,20.73,19.72-13.32c1.69-1.12,3.48-1.24,4.44-.28.11.11.22.22.22.34.84,1.29.11,3.37-1.57,4.72l-20.73,16.46,17.92-9.72c1.74-1.07,3.65-.84,4.33.51h0c.73,1.4-.06,3.43-1.69,4.72l-20.73,14.1-14.5,9.55-4.93,4.77h42.49s0-62.33,0-62.33H0Z"></path></g></svg>