<svg xmlns="http://www.w3.org/2000/svg" id="Layer_2" data-name="Layer 2" viewBox="0 0 1923.61 330.08"><defs><style>      .cls-1 {        fill: #f7cac8;      }    </style></defs><g id="Capa_1" data-name="Capa 1"><g><path class="cls-1" d="M1540.09,267.1c-42.79,0-64.9,21.67-82.67,39.08-14.69,14.4-24.4,23.91-45.89,23.91-21.49,0-31.2-9.51-45.89-23.91-17.77-17.41-39.88-39.08-82.66-39.08s-64.9,21.67-82.66,39.08c-14.67,14.37-24.37,23.88-45.8,23.9v-77.98c42.72-.03,64.82-21.68,82.58-39.07,14.69-14.4,24.39-23.91,45.89-23.91,21.49,0,31.2,9.51,45.89,23.91,17.77,17.41,39.88,39.08,82.67,39.08,42.79,0,64.9-21.67,82.66-39.08,14.7-14.4,24.4-23.91,45.89-23.91l.09-.16v78.22s-.09-.08-.09-.08Z"></path><path class="cls-1" d="M1282.98,55.57c21.49,0,31.2,9.51,45.89,23.91,17.77,17.41,39.88,39.08,82.67,39.08,42.79,0,64.9-21.67,82.66-39.08,14.7-14.39,24.4-23.91,45.89-23.91l.09-.11v78.13s-.09-.04-.09-.04c-42.79,0-64.9,21.66-82.67,39.08-14.69,14.4-24.4,23.91-45.88,23.91-21.49,0-31.2-9.51-45.89-23.91-17.77-17.41-39.88-39.08-82.66-39.08s-64.9,21.66-82.66,39.08c-14.67,14.38-24.37,23.88-45.8,23.9V118.56c42.72-.03,64.82-21.68,82.58-39.08,14.69-14.39,24.4-23.91,45.88-23.91"></path><path class="cls-1" d="M1154.52,62.98V0h128.46c-42.79,0-64.9,21.67-82.66,39.08-14.67,14.38-24.37,23.88-45.8,23.9"></path><path class="cls-1" d="M1411.53,62.98c-21.49,0-31.2-9.51-45.89-23.91C1347.88,21.67,1325.77,0,1282.98,0h257.11c-42.79,0-64.9,21.67-82.67,39.08-14.69,14.4-24.4,23.91-45.89,23.91"></path><path class="cls-1" d="M1538.04,267.1c42.79,0,64.9,21.67,82.67,39.08,14.69,14.4,24.4,23.91,45.89,23.91s31.2-9.51,45.89-23.91c17.77-17.41,39.88-39.08,82.66-39.08s64.9,21.67,82.66,39.08c14.67,14.37,24.37,23.88,45.8,23.9v-77.98c-42.72-.03-64.82-21.68-82.58-39.07-14.69-14.4-24.39-23.91-45.89-23.91s-31.2,9.51-45.89,23.91c-17.77,17.41-39.88,39.08-82.67,39.08s-64.9-21.67-82.66-39.08c-14.7-14.4-24.4-23.91-45.89-23.91l-.09-.16v78.22l.09-.08Z"></path><path class="cls-1" d="M1795.15,55.57c-21.49,0-31.2,9.51-45.89,23.91-17.77,17.41-39.88,39.08-82.67,39.08s-64.9-21.67-82.66-39.08c-14.7-14.39-24.4-23.91-45.89-23.91l-.09-.11v78.13l.09-.04c42.79,0,64.9,21.66,82.67,39.08,14.69,14.4,24.4,23.91,45.88,23.91s31.2-9.51,45.89-23.91c17.77-17.41,39.88-39.08,82.66-39.08s64.9,21.66,82.66,39.08c14.67,14.38,24.37,23.88,45.8,23.9V118.56c-42.72-.03-64.82-21.68-82.58-39.08-14.69-14.39-24.4-23.91-45.88-23.91"></path><path class="cls-1" d="M1923.61,62.98V0h-128.46C1837.93,0,1860.04,21.67,1877.81,39.08c14.67,14.38,24.37,23.88,45.8,23.9"></path><path class="cls-1" d="M1666.59,62.98c21.49,0,31.2-9.51,45.89-23.91C1730.25,21.67,1752.36,0,1795.15,0h-257.11c42.79,0,64.9,21.67,82.67,39.08,14.69,14.4,24.4,23.91,45.89,23.91"></path><path class="cls-1" d="M771.11,267.1c-42.79,0-64.9,21.67-82.67,39.08-14.69,14.4-24.4,23.91-45.89,23.91-21.49,0-31.2-9.51-45.89-23.91-17.77-17.41-39.88-39.08-82.66-39.08s-64.9,21.67-82.66,39.08c-14.67,14.37-24.37,23.88-45.8,23.9v-77.98c42.72-.03,64.82-21.68,82.58-39.07,14.69-14.4,24.39-23.91,45.89-23.91,21.49,0,31.2,9.51,45.89,23.91,17.77,17.41,39.88,39.08,82.67,39.08,42.79,0,64.9-21.67,82.66-39.08,14.7-14.4,24.4-23.91,45.89-23.91l.09-.16v78.22s-.09-.08-.09-.08Z"></path><path class="cls-1" d="M514.01,55.57c21.49,0,31.2,9.51,45.89,23.91,17.77,17.41,39.88,39.08,82.67,39.08,42.79,0,64.9-21.67,82.66-39.08,14.7-14.39,24.4-23.91,45.89-23.91l.09-.11v78.13s-.09-.04-.09-.04c-42.79,0-64.9,21.66-82.67,39.08-14.69,14.4-24.4,23.91-45.88,23.91-21.49,0-31.2-9.51-45.89-23.91-17.77-17.41-39.88-39.08-82.66-39.08s-64.9,21.66-82.66,39.08c-14.67,14.38-24.37,23.88-45.8,23.9V118.56c42.72-.03,64.82-21.68,82.58-39.08,14.69-14.39,24.4-23.91,45.88-23.91"></path><path class="cls-1" d="M385.55,62.98V0h128.46c-42.79,0-64.9,21.67-82.66,39.08-14.67,14.38-24.37,23.88-45.8,23.9"></path><path class="cls-1" d="M642.56,62.98c-21.49,0-31.2-9.51-45.89-23.91C578.9,21.67,556.79,0,514.01,0h257.11c-42.79,0-64.9,21.67-82.67,39.08-14.69,14.4-24.4,23.91-45.89,23.91"></path><path class="cls-1" d="M769.06,267.1c42.79,0,64.9,21.67,82.67,39.08,14.69,14.4,24.4,23.91,45.89,23.91s31.2-9.51,45.89-23.91c17.77-17.41,39.88-39.08,82.66-39.08s64.9,21.67,82.66,39.08c14.67,14.37,24.37,23.88,45.8,23.9v-77.98c-42.72-.03-64.82-21.68-82.58-39.07-14.69-14.4-24.39-23.91-45.89-23.91s-31.2,9.51-45.89,23.91c-17.77,17.41-39.88,39.08-82.67,39.08s-64.9-21.67-82.66-39.08c-14.7-14.4-24.4-23.91-45.89-23.91l-.09-.16v78.22l.09-.08Z"></path><path class="cls-1" d="M1026.17,55.57c-21.49,0-31.2,9.51-45.89,23.91-17.77,17.41-39.88,39.08-82.67,39.08s-64.9-21.67-82.66-39.08c-14.7-14.39-24.4-23.91-45.89-23.91l-.09-.11v78.13l.09-.04c42.79,0,64.9,21.66,82.67,39.08,14.69,14.4,24.4,23.91,45.88,23.91s31.2-9.51,45.89-23.91c17.77-17.41,39.88-39.08,82.66-39.08s64.9,21.66,82.66,39.08c14.67,14.38,24.37,23.88,45.8,23.9V118.56c-42.72-.03-64.82-21.68-82.58-39.08-14.69-14.39-24.4-23.91-45.88-23.91"></path><path class="cls-1" d="M1154.63,62.98V0h-128.46C1068.96,0,1091.07,21.67,1108.84,39.08c14.67,14.38,24.37,23.88,45.8,23.9"></path><path class="cls-1" d="M897.62,62.98c21.49,0,31.2-9.51,45.89-23.91C961.28,21.67,983.38,0,1026.17,0h-257.11C811.85,0,833.96,21.67,851.73,39.08c14.69,14.4,24.4,23.91,45.89,23.91"></path><path class="cls-1" d="M.09,267.1c42.79,0,64.9,21.67,82.67,39.08,14.69,14.4,24.4,23.91,45.89,23.91s31.2-9.51,45.89-23.91c17.77-17.41,39.88-39.08,82.66-39.08s64.9,21.67,82.66,39.08c14.67,14.37,24.37,23.88,45.8,23.9v-77.98c-42.72-.03-64.82-21.68-82.58-39.07-14.69-14.4-24.39-23.91-45.89-23.91s-31.2,9.51-45.89,23.91c-17.77,17.41-39.88,39.08-82.67,39.08s-64.9-21.67-82.66-39.08c-14.7-14.4-24.4-23.91-45.89-23.91l-.09-.16v78.22l.09-.08Z"></path><path class="cls-1" d="M257.2,55.57c-21.49,0-31.2,9.51-45.89,23.91-17.77,17.41-39.88,39.08-82.67,39.08s-64.9-21.67-82.66-39.08C31.29,65.09,21.58,55.57,.09,55.57L0,55.46v78.13l.09-.04c42.79,0,64.9,21.66,82.67,39.08,14.69,14.4,24.4,23.91,45.88,23.91s31.2-9.51,45.89-23.91c17.77-17.41,39.88-39.08,82.66-39.08s64.9,21.66,82.66,39.08c14.67,14.38,24.37,23.88,45.8,23.9V118.56c-42.72-.03-64.82-21.68-82.58-39.08-14.69-14.39-24.4-23.91-45.88-23.91"></path><path class="cls-1" d="M385.66,62.98V0h-128.46C299.98,0,322.09,21.67,339.86,39.08c14.67,14.38,24.37,23.88,45.8,23.9"></path><path class="cls-1" d="M128.64,62.98c21.49,0,31.2-9.51,45.89-23.91C192.3,21.67,214.41,0,257.2,0H.09C42.88,0,64.99,21.67,82.76,39.08c14.69,14.4,24.4,23.91,45.89,23.91"></path></g></g></svg>