<svg xmlns="http://www.w3.org/2000/svg" id="Layer_2" data-name="Layer 2" viewBox="0 0 182.05 182.05"><defs><style>      .cls-1 {        fill: #3f80c8;      }    </style></defs><g id="Capa_1" data-name="Capa 1"><g><path class="cls-1" d="M119.05,141.56c2.95-4.05,4.99-8.46,6.01-12.99,1.49,2.58,3.43,7.02,3.68,12.99h-9.68Zm-.1,22.07c2.98-4.06,5.05-8.48,6.08-13.03,1.5,2.58,3.45,7.03,3.7,13.03h-9.78Zm-3.17,0h-.08v.09c-.68,.82-1.39,1.63-2.16,2.42-3.52-3.64-6.11-7.65-7.75-11.92,2.34-2.67,4.25-5.52,5.7-8.52,.38,.4,.76,.8,1.17,1.2l.88,.86,.88-.86c.93-.91,1.81-1.84,2.63-2.81h6.21c-.07,6.94-2.64,13.62-7.49,19.54m-11.31,11.08s-1.64,1.86-1.92,2.15c-.28-.29-2.1-2.36-2.1-2.36-2.23-2.7-4-5.59-5.27-8.61,2.56-3.01,4.59-6.23,6.03-9.63,.15,.15,.3,.31,.45,.46l.88,.86,.88-.86c.15-.15,.3-.31,.45-.46,1.45,3.4,3.47,6.62,6.04,9.62-1.31,3.1-3.13,6.05-5.45,8.82m-12.92-8.57c-3.52-3.64-6.11-7.65-7.75-11.92,2.34-2.67,4.25-5.52,5.7-8.52,.38,.4,.76,.8,1.17,1.2l.88,.86,.88-.86c.4-.39,.78-.8,1.17-1.2,1.45,3,3.36,5.85,5.7,8.52-1.64,4.27-4.23,8.28-7.75,11.92m-9.35,8.9s-1.37,1.53-1.65,1.82c-.28-.29-2.37-2.68-2.37-2.68-2.11-2.61-3.78-5.39-5-8.29,2.57-3.01,4.59-6.23,6.03-9.63,.15,.15,.3,.31,.46,.47l.88,.86,.88-.86c.15-.15,.3-.31,.45-.46,1.45,3.4,3.47,6.62,6.04,9.62-1.36,3.23-3.28,6.29-5.72,9.15m-12.64-8.9c-.76-.79-1.48-1.6-2.16-2.42v-.09h-.08c-4.85-5.92-7.41-12.6-7.49-19.54h6.21c.82,.96,1.7,1.9,2.63,2.81l.88,.86,.88-.86c.4-.39,.78-.8,1.17-1.2,1.45,3,3.36,5.85,5.7,8.52-1.64,4.28-4.23,8.28-7.75,11.92m-15.19-2.51c.25-5.97,2.21-10.44,3.7-13.02,1.04,4.55,3.1,8.96,6.08,13.02h-9.78Zm3.68-35.05c1.02,4.53,3.06,8.93,6,12.98h-9.68c.25-5.94,2.19-10.39,3.68-12.98m4.71-11.38c.68,1.14,1.36,2.12,2.14,3.08h-8.49c2.21-1.01,4.33-2.04,6.35-3.08m14.02-8.06c.17,.21,.33,.41,.49,.59-1.64,4.25-4.23,8.23-7.73,11.86-2.01-2.01-3.29-3.51-4.53-5.55,4.44-2.36,8.36-4.7,11.77-6.9m8.82-6.16c-1.4,2.27-3.08,4.45-5.07,6.5-.67-.65-1.12-1.12-1.63-1.74,2.59-1.74,4.83-3.35,6.7-4.76m5.95-4.84c.46,.46,1.11,1.1,1.89,1.84,1.31,2.78,3.28,6.38,5.88,9.59-1.64,4.31-4.24,8.34-7.78,12-3.52-3.64-6.11-7.65-7.75-11.92,2.85-3.26,5.07-6.78,6.59-10.51,.45-.39,.86-.74,1.17-1.01m11.77,10.44c-.26,.29-.51,.59-.78,.88-1.22-1.31-2.31-2.76-3.28-4.22,1.25,1.07,2.61,2.19,4.06,3.34m.54,3.12c1.44,3.38,3.44,6.57,5.98,9.56-1.65,3.87-4.1,7.51-7.31,10.83-3.21-3.32-5.66-6.96-7.31-10.83,2.54-2.99,4.54-6.19,5.98-9.57,.15,.16,.29,.32,.45,.47l.88,.86,.88-.86c.15-.15,.3-.31,.45-.46m12.76,6.12c-.97,1.44-1.79,2.44-3.09,3.76-3.19-3.3-5.62-6.9-7.27-10.73,3.15,2.36,6.64,4.77,10.36,6.97m2.2,1.26c.98,.55,1.98,1.08,2.99,1.59l-3.93-.26c.31-.41,.62-.85,.94-1.33m-13.05,13.2c2.46-2.81,4.45-5.81,5.93-8.97,.31,.32,.61,.65,.94,.97l.88,.86,.88-.86c.55-.53,1.01-1.01,1.44-1.46l7.37,.48c-.32,6.48-2.84,12.7-7.36,18.27h-.18v.22c-.68,.82-1.39,1.63-2.16,2.42-3.52-3.64-6.11-7.65-7.75-11.92m-4.58,2.04c.15,.15,.3,.31,.45,.46l.88,.86,.88-.86c.15-.15,.3-.31,.45-.46,1.4,3.29,3.33,6.41,5.78,9.33-1.65,3.7-4.03,7.18-7.11,10.37-3.08-3.19-5.46-6.67-7.11-10.37,2.45-2.92,4.38-6.05,5.78-9.33m-17.41-2.04c2.46-2.81,4.45-5.81,5.93-8.97,.31,.32,.61,.65,.94,.96l.88,.86,.88-.86c.32-.32,.63-.64,.94-.97,1.48,3.17,3.47,6.17,5.93,8.97-1.64,4.27-4.23,8.28-7.75,11.92-3.52-3.64-6.11-7.65-7.75-11.92m-4.58,2.04c.15,.15,.3,.31,.46,.47l.88,.86,.88-.86c.15-.15,.3-.31,.45-.46,1.4,3.29,3.33,6.41,5.78,9.33-1.65,3.7-4.03,7.18-7.11,10.37-3.08-3.19-5.46-6.67-7.11-10.37,2.45-2.93,4.38-6.05,5.77-9.34m-5.97-13.06c2.53-2.98,4.53-6.18,5.96-9.55,.02,.02,.04,.04,.07,.06l1.28,1.25,.88-.86c.15-.15,.3-.31,.45-.46,1.43,3.37,3.44,6.57,5.98,9.56-1.65,3.87-4.1,7.51-7.31,10.83-3.21-3.32-5.66-6.96-7.31-10.83m-6.02,20.31c-4.63-5.7-7.15-12.1-7.37-18.76h7.35c.46,.47,.94,.95,1.47,1.47l.88,.86,.88-.86c.32-.32,.63-.64,.94-.97,1.48,3.16,3.47,6.17,5.93,8.97-1.64,4.27-4.23,8.28-7.75,11.92-.76-.79-1.48-1.6-2.16-2.42v-.22h-.18Zm113.48-46.18c-7.26,3.54-23.45,10.3-42.48,10.82,17.57,7.62,30.92,18.07,36.75,23.06,1.44,1.24,.78,2.81-1.1,2.68-6.93-.54-21.29-2.26-37.13-7.77l.27,.02-7.77-2.98c-19.04-7.31-36.55-25.52-36.72-25.71l-.88-.92-.91,.89c-.14,.14-13.5,12.91-37.53,23.48,0-.01,0-.03,0-.04-18.45,7.6-36.09,9.76-44.01,10.36-1.88,.15-2.54-1.43-1.1-2.66,6.04-5.18,20.14-16.2,38.66-23.87,.7-.29,1.4-.58,2.09-.84-.89,.03-1.8,.04-2.72,.04-20.06,0-37.29-7.17-44.85-10.86-.69-.33-1.11-.91-1.28-1.54v92.52H54.77c.73-4.38,2.29-7.69,3.49-9.7,.84,3.34,2.24,6.6,4.15,9.7h2.98c-3.38-4.94-5.27-10.32-5.53-15.9h6.3c.79,.92,1.63,1.81,2.52,2.68l.88,.86,.88-.86c.3-.29,.58-.6,.87-.9,1.39,3,3.23,5.86,5.49,8.54-.83,1.92-1.86,3.78-3.08,5.58h2.99c.72-1.16,1.38-2.33,1.95-3.54,.33,.35,.66,.69,1.01,1.03l.88,.86,.88-.86c.35-.34,.68-.69,1.01-1.04,.57,1.21,1.23,2.38,1.95,3.54h2.98c-1.22-1.79-2.25-3.66-3.08-5.57,2.27-2.68,4.11-5.54,5.5-8.55,.29,.3,.57,.6,.87,.9l.88,.86,.88-.86c.3-.29,.58-.6,.87-.9,1.39,3,3.23,5.86,5.49,8.54-.83,1.92-1.86,3.78-3.08,5.58h2.98c.72-1.16,1.38-2.33,1.95-3.54,.33,.35,.66,.7,1.01,1.04l.88,.86,.88-.86c.35-.34,.68-.69,1.01-1.04,.57,1.21,1.23,2.38,1.95,3.54h2.98c-1.22-1.8-2.25-3.66-3.08-5.58,2.27-2.68,4.11-5.54,5.49-8.54,.29,.3,.57,.6,.87,.9l.88,.86,.88-.86c.89-.87,1.73-1.76,2.52-2.68h6.3c-.26,5.58-2.15,10.96-5.53,15.9h2.98c1.91-3.1,3.31-6.37,4.15-9.71,1.2,2,2.78,5.27,3.5,9.63v.09h53.7V93.23c0,.86-.45,1.72-1.35,2.15"></path><path class="cls-1" d="M1.28,86.76c6.3-3.08,19.3-8.55,35.05-10.31-13.34-6.93-23.38-14.84-28.23-19-1.44-1.24-.78-2.81,1.1-2.66,7.15,.55,22.26,2.36,38.72,8.32-11.75-13.3-17.88-28.24-20.36-35.48-.66-1.89,1.15-3.69,3.05-3.05,6.73,2.31,20.1,7.77,32.65,17.97-4.6-14.44-6.1-27.24-6.59-33.65-.15-1.89,1.43-2.55,2.66-1.11,4.57,5.33,13.69,16.93,21.03,32.3,.05-.91,.14-1.8,.23-2.68,1.61-16.2,7.25-29.64,10.39-36.07C91.42,.45,92.28,0,93.14,0H0V88.3c.17-.63,.59-1.21,1.28-1.54"></path><path class="cls-1" d="M95.31,1.35c3.19,6.54,8.96,20.28,10.48,36.84,.11-.25,.23-.49,.37-.74,6.97-13.51,14.98-23.66,19.17-28.54,1.24-1.44,2.81-.8,2.66,1.1-.52,6.87-2.22,21.1-7.65,36.82,12.95-11,27.1-16.78,34.09-19.19,1.89-.65,3.71,1.15,3.05,3.05-2.39,6.97-8.14,21.06-19.04,33.97,15.16-5.07,28.76-6.67,35.45-7.19,1.88-.14,2.54,1.44,1.1,2.66-5.19,4.46-16.34,13.23-31.12,20.47,16.56,1.51,30.31,7.3,36.85,10.49,.9,.44,1.35,1.3,1.35,2.16V0H93.14c.86,0,1.72,.45,2.17,1.35"></path></g></g></svg>