<svg xmlns="http://www.w3.org/2000/svg" id="Layer_2" data-name="Layer 2" viewBox="0 0 182.4 182.4"><defs><style>      .cls-1 {        fill: #ff801e;      }    </style></defs><g id="Capa_1" data-name="Capa 1"><path class="cls-1" d="M.08,95.69c7.87,12.79,19.5,22.35,19.5,57.38,0,8.58-10.37,18.65-19.5,29.33V95.69Z"></path><path class="cls-1" d="M0,0H71.76C31.49,0,9.81,18.4,0,40.74V0Z"></path><path class="cls-1" d="M182.4,0V182.4H100.44c2.65-4.59,5.63-8.01,8.68-10.18,0,0,9.59,2.5,22.87,2.5s23.36-3.25,23.36-10.99c0-4.24-1.48-5.24-1.48-8.48s6.89-5.25,6.89-9.48c0-2.75-4.18-3.5-4.18-5.25,0-2.74,6.64-3.49,6.64-7.74,0-3-6.89-5.49-6.89-10.23s12.54-3.5,12.54-11.98c0-7.49-8.61-11.23-12.29-17.97s-3.93-10.73-3.93-10.73c0,0,4.18-7.24,4.18-12.48C156.82,41.68,133.22,0,71.76,0h110.64Z"></path></g></svg>