<svg xmlns="http://www.w3.org/2000/svg" id="Layer_2" data-name="Layer 2" viewBox="0 0 182.03 182"><defs><style>      .cls-1 {        fill: #ededed;      }      .cls-2 {        fill: #26cb63;      }    </style></defs><g id="Capa_1" data-name="Capa 1"><g><rect class="cls-1" x=".03" width="182" height="182"></rect><g><path class="cls-2" d="M38.78,61.75c-9.34,0-16.91-7.57-16.91-16.9s7.57-16.91,16.91-16.91,16.9,7.57,16.9,16.91-7.57,16.9-16.9,16.9m0-37.69c-11.48,0-20.78,9.3-20.78,20.78s9.3,20.78,20.78,20.78,20.78-9.3,20.78-20.78-9.3-20.78-20.78-20.78"></path><path class="cls-2" d="M166.82,64.37h-31.34c0-5.35,5.47-4.01,5.47-4.01,0,0,1.43-9.37,9.46-9.37,10.88,0,11.06,8.83,11.06,8.83,6.25,0,5.35,4.55,5.35,4.55m-102.3-17.26c-.07,.83,5.09,2.34,4.95,3.15-.14,.82-5.51,.49-5.73,1.28-.21,.81,4.6,3.19,4.32,3.97-.28,.78-5.51-.49-5.86,.26-.35,.75,3.98,3.95,3.56,4.66-.42,.72-5.34-1.44-5.82-.76-.48,.68,3.23,4.58,2.7,5.21-.53,.63-5.01-2.35-5.6-1.76-.59,.59,2.39,5.06,1.76,5.6-.64,.53-4.53-3.18-5.21-2.7-.68,.48,1.48,5.4,.76,5.82-.72,.41-3.91-3.91-4.66-3.56-.75,.35,.52,5.58-.26,5.86-.78,.28-3.16-4.54-3.97-4.32-.8,.21-.46,5.58-1.28,5.73-.81,.14-2.32-5.02-3.15-4.95-.82,.07-1.42,5.42-2.26,5.42s-1.44-5.35-2.26-5.42c-.83-.07-2.34,5.09-3.15,4.95-.82-.14-.49-5.51-1.28-5.73-.81-.21-3.19,4.6-3.97,4.32-.78-.28,.49-5.51-.26-5.86-.75-.35-3.95,3.98-4.66,3.56-.72-.42,1.44-5.34,.76-5.82-.68-.48-4.57,3.23-5.21,2.7-.64-.53,2.34-5.01,1.76-5.6-.59-.59-5.06,2.39-5.6,1.76-.53-.64,3.18-4.53,2.7-5.21-.48-.68-5.4,1.48-5.82,.76-.42-.72,3.91-3.91,3.56-4.66-.35-.75-5.58,.52-5.86-.26-.28-.78,4.54-3.16,4.32-3.97-.21-.8-5.58-.46-5.73-1.28-.14-.81,5.02-2.32,4.95-3.15-.07-.82-5.42-1.42-5.42-2.26s5.35-1.44,5.42-2.26c.07-.83-5.09-2.34-4.95-3.15,.14-.82,5.51-.49,5.73-1.28,.22-.81-4.61-3.19-4.32-3.97,.28-.78,5.51,.49,5.86-.26,.35-.75-3.98-3.95-3.56-4.66,.42-.72,5.34,1.44,5.82,.76,.48-.68-3.23-4.57-2.7-5.21,.53-.63,5.01,2.35,5.6,1.76,.59-.59-2.39-5.06-1.76-5.6,.63-.53,4.53,3.18,5.21,2.7,.68-.48-1.48-5.4-.76-5.82,.72-.42,3.91,3.91,4.66,3.56,.75-.35-.52-5.58,.26-5.86,.78-.28,3.16,4.54,3.97,4.32,.8-.21,.46-5.58,1.28-5.73,.81-.14,2.32,5.02,3.15,4.95,.82-.07,1.42-5.42,2.26-5.42s1.44,5.35,2.26,5.42c.83,.07,2.34-5.09,3.15-4.95,.82,.14,.49,5.51,1.28,5.73,.81,.21,3.19-4.6,3.97-4.32,.78,.28-.49,5.51,.26,5.86,.75,.35,3.95-3.98,4.66-3.56,.72,.41-1.44,5.34-.76,5.82,.68,.48,4.58-3.23,5.21-2.7,.63,.53-2.35,5.01-1.76,5.6,.59,.59,5.07-2.39,5.6-1.76,.53,.64-3.18,4.53-2.7,5.21,.48,.68,5.4-1.48,5.82-.76,.41,.72-3.91,3.91-3.56,4.66,.35,.75,5.58-.52,5.86,.26,.28,.78-4.54,3.16-4.32,3.97,.21,.8,5.58,.46,5.73,1.28,.14,.81-5.02,2.32-4.95,3.15,.07,.82,5.42,1.42,5.42,2.26s-5.34,1.44-5.42,2.26M0,.03V91.06c.95,.13,1.86,.59,2.52,1.43l34.36,42.85,49.58-63.02c1.91-2.41,5.57-2.44,7.51-.03l88.03,86.98V.03H0Z"></path></g></g></g></svg>