<svg xmlns="http://www.w3.org/2000/svg" id="Layer_2" data-name="Layer 2" viewBox="0 0 182.05 182.05"><defs><style>      .cls-1 {        fill: #377e4c;      }    </style></defs><g id="Capa_1" data-name="Capa 1"><g><path class="cls-1" d="M182.05,0V80.62c0-4.31-2.75-7.97-6.59-9.3,.05-.61,.08-1.23,.08-1.86,0-9.93-5.78-18.52-14.16-22.55h0c.12-.81,.19-1.63,.19-2.46,0-8.85-7.17-16.01-16-16.01-1.71,0-3.34,.27-4.88,.76-.91-9.64-9.02-17.19-18.91-17.19-2.82,0-5.47,.61-7.87,1.71C109.8,5.58,101.35,0,91.61,0h90.44Z"></path><path class="cls-1" d="M82.71,151.19c0,30.81-82.71,30.86-82.71,30.86V96.75c1.58,3.37,5.01,5.7,8.97,5.7,.51,0,1.01-.04,1.5-.12,1.76,2.81,4.87,4.69,8.42,4.69,1.73,0,3.34-.44,4.75-1.21,2.58,1.79,5.72,2.83,9.09,2.83,5.52,0,10.37-2.79,13.27-7.03,11.82,4.8,36.71,18.58,36.71,49.6"></path><path class="cls-1" d="M91.17,0c-11.26,0-20.79,7.42-23.99,17.66-1.8-.57-3.72-.88-5.7-.88-10.55,0-19.1,8.58-19.1,19.17,0,1.77,.24,3.48,.69,5.11-2.34-1.33-5.03-2.09-7.91-2.09-8.89,0-16.09,7.23-16.09,16.15,0,3.39,1.05,6.55,2.82,9.15-.91-.22-1.85-.32-2.82-.32-7.13,0-12.9,5.79-12.9,12.94,0,2.28,.59,4.43,1.62,6.29-3.38,.44-6.21,2.61-7.61,5.59V0H91.17Z"></path><path class="cls-1" d="M182.05,80.79v101.27s-82.13-.05-82.13-30.86c0-26.25,17.81-40.15,30.45-46.71,3.5,4.38,8.87,7.17,14.88,7.17,8.72,0,16.07-5.86,18.35-13.87,.78,.44,1.68,.69,2.63,.69,3.03,0,5.49-2.47,5.49-5.5,0-.81-.17-1.58-.5-2.26,.27,.03,.52,.04,.79,.04,5.49,0,10.02-4.46,10.02-9.95"></path><path class="cls-1" d="M119.2,100.05c-9.15,6.06-18.12,14.84-23.52,26.72v-34.75c2.86,2.67,6.71,4.3,10.93,4.3,3.19,0,6.17-.93,8.68-2.55-.07,.31-.09,.65-.09,.98,0,2.52,1.69,4.63,4,5.29"></path><path class="cls-1" d="M86.29,107.11v18.26c-7.07-14.51-19.5-24.22-30.7-29.88,1.95-1.79,3.15-4.38,3.15-7.26,0-.92-.12-1.79-.36-2.63,7.45,3.08,19.72,9.59,27.9,21.5"></path><path class="cls-1" d="M86.29,75.3v17.39c-6.56-6.49-14.08-11.23-20.92-14.43,.16,.01,.32,.01,.48,.01,5.36,0,9.93-3.26,11.89-7.92,1.72,2.95,4.9,4.94,8.55,4.94"></path></g></g></svg>