<svg xmlns="http://www.w3.org/2000/svg" id="Layer_2" data-name="Layer 2" viewBox="0 0 182.4 182.4"><defs><style>      .cls-1 {        fill: #008046;      }    </style></defs><g id="Capa_1" data-name="Capa 1"><path class="cls-1" d="M154.11,67.5s9.76-15.75-2.83-11.87c0,0,7.35-10.52,6.45-15.16,0,0-16.19,7.86-22.51,5.73l28.3-13.58s12.84,19.3-9.41,34.87m-.15,8.7c-.38,.84-1.43,1.16-2.35,1.07-2.11-.2-3.2-1.99-3.17-2.6,.06-1.04,.99-1.91,2.02-2.07,1.03-.16,2.09,.31,2.82,1.05,.65,.67,1.07,1.69,.68,2.54m-1.68,28.42c-.16,1.34-1.32,2.5-2.66,2.66-1.34,.16-2.74-.68-3.22-1.95-1.1-3.09,.67-6.63,4.07-4.29,1.15,.8,1.99,2.17,1.82,3.57m-3.41,13.56c-.14,.85-.63,1.82-1.49,1.87-.87,.05-1.47-.86-1.77-1.68-.31-.84-.51-1.71-.62-2.6-.06-.5-.08-1.03,.11-1.5,.74-1.82,2.86-.01,3.39,1.03,.44,.88,.53,1.91,.38,2.88m-7.26-33.36c-.04-1.01,.62-1.95,1.48-2.49,.86-.53,1.89-.71,2.9-.77,1.01-.06,2.03-.01,3.03-.15-.4,1.4-.83,2.83-1.71,3.99-1.37,1.81-5.56,2.86-5.7-.59m-3.39-16.38c.77-.18,1.66,.16,1.88,.92,.22,.76-.23,1.85-1.02,1.89-3.1,.14-2.7-2.37-.86-2.81m2.04,29c-.44,1.09-1.54,1.89-2.71,1.9-.67,0-1.36-.25-1.79-.78-.55-.68-.56-1.63-.55-2.51,.01-.69,.03-1.4,.25-2.05,.76-2.19,3.2-1.34,4.31,.12,.71,.93,.92,2.24,.48,3.32m-2.81,18.46c-.43,1.53-1.74,2.8-3.31,3.12-1.56,.32-3.29-.36-4.17-1.69-1.62-2.47,.67-6.83,3.59-7.15,1.07-.11,2.11,.47,2.83,1.27,1.06,1.19,1.49,2.93,1.06,4.46m-9.17-12.92c-.53,.46-1.4,.73-1.91,.24-.45-.43-.33-1.17-.15-1.77,.4-1.33-1.44-4.82,1.68-3.87,2.09,.87,1.92,4.06,.38,5.39m-8.38-11.79c-4.44,0-8.04-3.6-8.04-8.04s3.6-8.04,8.04-8.04,8.04,3.6,8.04,8.04-3.6,8.04-8.04,8.04m.52,15.18c-.6,1.04-1.69,1.75-2.86,1.99-1.21,.25-2.56,0-3.46-.85-1.04-.98-1.15-2.35-.28-3.28,.76-.81,2.42-2.21,3.5-2.54,1.15-.34,2.47,.23,3.1,1.25,.63,1.02,.59,2.39-.01,3.42m-12.05-7.16c-.29,.55-.72,1.16-1.34,1.15-.71,0-1.14-.8-1.2-1.51-.17-2.02,1.94-4.43,4.04-3.59,2.89,1.5-.86,2.71-1.5,3.95m-12.85-.81c-.04,.55-.85,.55-.88,0-.66-12.44,2.14-38.73,38.8-33.44,.54,.08,.5,.87-.05,.87-11.89,.1-35.57,3.93-37.87,32.57m-.21,16.96c-3.39,.64-2.53,3.37-5.89,3.58v.02c-.07,0-.14,0-.21-.01-.07,0-.13,.01-.21,.01v-.02c-3.35-.21-2.5-2.94-5.89-3.58-1.92-.36-4.76,.26-4.12-4.89,.45-3.62,8.8-3.31,10.21-3.23,1.42-.08,9.76-.39,10.21,3.23,.64,5.15-2.19,4.53-4.12,4.89m-.94,25.44s7.08,6.05,11.2,6.05c0,0-2.06,13.12-16.15,13.12s-16.15-13.12-16.15-13.12c0,0,7.41-2.06,10.4-6.05h10.7ZM45.04,65.84c-.55,0-.59-.8-.05-.87,36.65-5.29,39.46,21,38.8,33.44-.03,.55-.83,.55-.88,0-2.31-28.64-25.98-32.47-37.87-32.57m20.67,32.51c-.61-.1-1.32-.33-1.51-.92-.21-.67,.41-1.33,1.06-1.6,1.87-.78,4.81,.47,4.67,2.73-.53,3.22-2.85,.02-4.22-.21m-1.38,9.17c-.9,.85-2.25,1.1-3.46,.85-1.17-.24-2.27-.95-2.86-1.99-.6-1.04-.64-2.4-.01-3.42,.63-1.02,1.95-1.59,3.1-1.25,1.08,.32,2.74,1.73,3.5,2.54,.87,.93,.76,2.3-.28,3.28m-12.01-24.36c0-4.44,3.6-8.04,8.04-8.04s8.04,3.6,8.04,8.04-3.6,8.04-8.04,8.04-8.04-3.6-8.04-8.04m-.11,18.31c.18,.6,.29,1.33-.16,1.77-.51,.49-1.38,.22-1.91-.24-1.53-1.33-1.71-4.53,.38-5.39,3.12-.95,1.28,2.54,1.68,3.87m-3.76,15.86c-.87,1.33-2.61,2.01-4.17,1.69-1.56-.32-2.87-1.58-3.3-3.12-.43-1.53,0-3.26,1.06-4.46,.71-.8,1.76-1.39,2.83-1.27,2.92,.32,5.21,4.68,3.59,7.15m-10.29-19.88c-.44-1.08-.22-2.39,.48-3.32,1.11-1.46,3.55-2.31,4.31-.12,.23,.65,.24,1.36,.25,2.05,.02,.87,0,1.83-.55,2.51-.42,.52-1.11,.78-1.79,.78-1.17,0-2.27-.81-2.71-1.9m-1.24-21.46c-3.1,.14-2.7-2.37-.86-2.81,.77-.18,1.66,.16,1.88,.92,.22,.76-.23,1.85-1.02,1.88m-5.81,9.43c-.88-1.16-1.3-2.6-1.7-3.99,1,.13,2.02,.09,3.03,.15,1.01,.06,2.04,.24,2.9,.77s1.52,1.48,1.48,2.49c-.14,3.45-4.33,2.41-5.7,.59m2.32,30.35c-.1,.89-.31,1.76-.62,2.6-.3,.82-.9,1.73-1.77,1.68-.86-.05-1.36-1.02-1.49-1.87-.15-.97-.06-2,.38-2.88,.53-1.05,2.64-2.86,3.39-1.03,.19,.47,.17,1,.11,1.5m-4.62-8.48c-1.34-.16-2.5-1.32-2.66-2.66-.17-1.39,.67-2.77,1.82-3.57,3.4-2.34,5.16,1.2,4.06,4.29-.48,1.26-1.88,2.11-3.22,1.95m-4.35-31.09c-.39-.85,.03-1.87,.68-2.54,.73-.75,1.79-1.21,2.82-1.05,1.03,.16,1.96,1.03,2.02,2.07,.03,.6-1.06,2.39-3.17,2.6-.92,.09-1.97-.23-2.35-1.07M14.92,32.63l28.3,13.58c-6.32,2.13-22.51-5.73-22.51-5.73-.9,4.64,6.45,15.16,6.45,15.16-12.59-3.89-2.83,11.87-2.83,11.87C2.07,51.93,14.92,32.63,14.92,32.63m30.99,47.18c-.18,.77-.89,1.41-1.67,1.27-.78-.14-1.55-1.04-1.23-1.76,1.27-2.84,3.33-1.35,2.9,.48m15.19-23.92c.04,1.37-1.94,2.46-3.08,2.55-1.82,.15-3.64-1.29-3.92-3.1-.15-.94,.2-2.07,1.09-2.41,.75-.29,1.59,.05,2.32,.4,1.08,.51,3.54,1.1,3.59,2.57m-.68-10.52c1.05,.24,2.24,.61,2.67,1.61,.38,.89-.08,1.97-.84,2.55-.77,.58-1.77,.76-2.74,.77-2.14,.02-4.28-.68-5.98-1.98-.71-.54-1.37-1.23-1.53-2.1-.73-3.93,6.81-1.22,8.43-.85m7.98,10.91c.24-.44,.68-.72,1.13-.94,2.84-1.43,6.74-1.31,8.51,1.74,.9,1.55,.77,3.71-.5,4.97-.6,.6-1.53,.98-2.31,.65-.81-.34-1.17-1.29-1.8-1.91-.6-.59-1.42-.88-2.22-1.14-.8-.26-1.63-.53-2.25-1.1-.62-.57-.96-1.53-.56-2.27m2.46-12.83c2.24-.89,6.06-.42,5.76,2.82-.11,1.23-1.01,2.3-2.14,2.79-1.13,.48-2.45,.4-3.59-.06-1.04-.42-2-1.25-2.18-2.36-.22-1.37,.86-2.67,2.15-3.18m17.94,18.93c.09,.75-.11,1.54-.59,2.11-.49,.58-1.28,.9-2.02,.77-1.15-.21-1.85-1.35-2.39-2.39-2.24-4.22,4.52-4.61,5-.5m.41,23.52c-.78,.14-1.49-.5-1.67-1.27-.43-1.84,1.63-3.32,2.89-.48,.32,.72-.45,1.61-1.23,1.76m1.16-12.37c-.45,.21-.98,.2-1.45,.03-1-.37-1.66-1.49-1.49-2.55,.17-1.05,1.27-3.2,3.03-1.78,.47,.38,.74,.97,.87,1.56,.24,1.02-.02,2.29-.97,2.74m-5.89-23.86c.64-.79,1.69-1.19,2.71-1.18,2.16,.02,4.14,1.47,4.72,3.56,.28,1.01,.15,2.15-.48,2.98-.63,.83-1.79,1.27-2.78,.93-.88-.31-1.46-1.12-2.2-1.69-.75-.58-1.71-.95-2.22-1.75-.55-.86-.39-2.06,.25-2.85m3.68-8.23c.39-.33,.9-.49,1.4-.52,.85-.05,2.47,.21,2.2,1.42-.08,.37-.33,.68-.6,.94-.54,.51-1.26,.89-2.01,.85-.75-.04-1.48-.6-1.57-1.34-.06-.51,.19-1.02,.58-1.35m9.71,7.6c.61-.47,1.19-.82,1.81-.23,.56,.52,.74,1.36,.56,2.09-.22,.9-.87,1.64-1.49,2.33-.35,.39-.72,.8-1.21,.99-.49,.19-1.13,.11-1.42-.34-.13-.2-.17-.45-.19-.69-.12-1.59,.67-3.19,1.93-4.15m7.96,9.47c.44,.22,.89,.5,1.13,.94,.4,.74,.06,1.7-.56,2.27-.62,.57-1.45,.84-2.24,1.1-.8,.26-1.62,.54-2.22,1.14-.63,.62-.98,1.56-1.8,1.91-.78,.33-1.71-.05-2.31-.64-1.27-1.26-1.4-3.42-.5-4.97,1.77-3.05,5.67-3.17,8.51-1.74m4.35-15.05c1.29,.51,2.37,1.82,2.15,3.18-.18,1.11-1.14,1.94-2.18,2.36-1.14,.47-2.46,.54-3.59,.06-1.13-.48-2.03-1.56-2.14-2.79-.3-3.24,3.52-3.71,5.76-2.82m5.83,11.45c.89,.35,1.24,1.47,1.09,2.41-.28,1.81-2.09,3.24-3.92,3.1-1.14-.09-3.12-1.18-3.08-2.55,.05-1.47,2.51-2.06,3.59-2.57,.73-.34,1.56-.69,2.32-.4m.58-7.22c.42-.99,1.61-1.36,2.66-1.61,1.62-.37,9.16-3.08,8.43,.85-.16,.87-.83,1.56-1.53,2.1-1.7,1.29-3.84,2-5.98,1.98-.96-.01-1.97-.18-2.74-.77-.77-.58-1.22-1.66-.84-2.55m12.79,10.32c-.18,.77-.89,1.41-1.67,1.27-.78-.14-1.55-1.03-1.23-1.76,1.27-2.84,3.33-1.35,2.9,.49m6.03,21.33c.32,.72-.45,1.61-1.23,1.76-.78,.14-1.49-.5-1.67-1.27-.43-1.84,1.63-3.32,2.9-.48M0,0V129.2l54.3-.75s0-.05,0-.08c0-11.48,11.54-12.93,16.41-13.04,1.3-.03,2.58,.36,3.65,1.11l1.8,1.26c1.19,.83,2.61,1.28,4.06,1.28h.92c1.62,0,3.2,.56,4.46,1.58,1.88,1.52,2.87,3.91,2.58,6.32-2.18,17.72-18.68,16.94-18.68,16.94,0,0-12.7-.76-14.86-12.02L2.43,146.2l48.62-14.9L.61,137.79l50.24-7.88-50.85-.71v53.2H182.4v-53.2l-50.85,.71,50.24,7.88-50.44-6.48,48.62,14.9-55.99-15.47c-1.55,12.27-15.03,13.07-15.03,13.07,0,0-16.5,.79-18.68-16.94-.3-2.4,.7-4.79,2.58-6.32,1.26-1.02,2.83-1.58,4.46-1.58h.92c1.45,0,2.87-.45,4.06-1.28l1.8-1.26c1.07-.75,2.34-1.13,3.65-1.11,4.87,.11,16.41,1.56,16.41,13.04,0,0,0,.02,0,.03l58.27,.81V0H0Z"></path></g></svg>