<svg xmlns="http://www.w3.org/2000/svg" id="Layer_2" data-name="Layer 2" viewBox="0 0 181.67 181.67"><defs><style>      .cls-1 {        fill: red;      }    </style></defs><g id="Capa_1" data-name="Capa 1"><g><path class="cls-1" d="M90.47,73.75h.05C91.15,7.36,145.59,0,169.66,0H11.34C35.41,0,89.83,7.36,90.47,73.75"></path><path class="cls-1" d="M169.66,0c6.84,0,11.23,.6,11.23,.6,0,78.37-68.39,76.64-86.19,74.87v52.67c17.8-54.58,86.19-45.33,86.19-45.33,0,78.39-68.39,76.66-86.19,74.87v23.98h86.97V0h-12.01Z"></path><path class="cls-1" d="M0,181.67H86.28v-23.98C68.48,159.48,.11,161.19,.11,82.82c0,0,68.37-9.25,86.17,45.33v-52.68C68.48,77.24,.11,78.97,.11,.6,.11,.6,4.49,0,11.34,0H0V181.67Z"></path></g></g></svg>