<svg xmlns="http://www.w3.org/2000/svg" id="Layer_2" data-name="Layer 2" viewBox="0 0 182.4 182.4"><defs><style>      .cls-1 {        fill: #e95528;      }    </style></defs><g id="Capa_1" data-name="Capa 1"><path class="cls-1" d="M0,0V149.16l18.23-20.77c3.76-4.58,1.25-25.96-.11-35.6-.48-3.38-.38-6.8,.28-10.15,2.85-14.49,10.84-53.13,10.84-53.13,.17-1.15,.82-2.14,1.65-2.96,1.97-1.97,5.43-3.12,9.04-2.47,5.26,.66,8.71,8.39,8.55,12.17l-2.96,46.7c0,.66,.33,.99,.99,.99q.33,0,.49-.17l23.18-19.24L122.48,8.29c4.28-4.6,10.36-6.08,13.81-3.29,3.45,2.79,3.29,8.88-.66,13.81l-43.57,55.08L156.68,16.52c5.09-4.44,11.01-5.1,13.97-2.14l.16,.16c2.96,3.29,3.62,7.89-2.47,13.98l-59.03,60.67,57.71-38.97c4.93-3.29,10.19-3.62,12.99-.82,.33,.33,.66,.66,.66,.99,2.47,3.78,.33,9.86-4.6,13.81l-60.67,48.17,52.45-28.44c5.1-3.12,10.69-2.47,12.66,1.48h0c2.14,4.11-.16,10.03-4.93,13.81l-60.67,41.27-42.42,27.95-14.43,13.95H0s182.4,0,182.4,0V0H0Z"></path></g></svg>