<svg xmlns="http://www.w3.org/2000/svg" id="Layer_2" data-name="Layer 2" viewBox="0 0 182 182"><defs><style>      .cls-1 {        fill: #007ae8;      }    </style></defs><g id="Capa_1" data-name="Capa 1"><g><path class="cls-1" d="M181.96,55.95c-20.19,0-30.63-10.22-39.01-18.44-6.93-6.79-11.51-11.28-21.66-11.28s-14.72,4.49-21.66,11.28c-8.38,8.22-18.82,18.44-39.01,18.44s-30.63-10.22-39.01-18.44C14.69,30.72,10.11,26.24,0,26.23V63.03c20.16,.01,30.59,10.23,38.97,18.44,6.93,6.79,11.51,11.28,21.65,11.28s14.72-4.49,21.65-11.28c8.39-8.22,18.82-18.44,39.01-18.44s30.63,10.23,39.01,18.44c6.93,6.79,11.51,11.28,21.66,11.28l.04,.08V55.91l-.04,.04Z"></path><path class="cls-1" d="M181.96,29.72l.04,.06V0h-60.71C141.48,0,151.92,10.23,160.3,18.44c6.93,6.79,11.51,11.28,21.66,11.28"></path><path class="cls-1" d="M60.62,155.77c10.14,0,14.72-4.49,21.66-11.28,8.39-8.22,18.82-18.44,39.01-18.44s30.63,10.23,39.01,18.44c6.93,6.79,11.51,11.28,21.66,11.28l.04,.05v-36.87l-.04,.02c-20.19,0-30.63-10.22-39.01-18.44-6.93-6.79-11.51-11.28-21.65-11.28s-14.72,4.49-21.66,11.28c-8.38,8.22-18.82,18.44-39.01,18.44s-30.63-10.22-39.01-18.44c-6.92-6.78-11.5-11.27-21.61-11.28v36.8c20.16,.01,30.59,10.23,38.97,18.44,6.93,6.79,11.51,11.28,21.65,11.28"></path><path class="cls-1" d="M0,152.28v29.72H60.62c-20.19,0-30.63-10.22-39.01-18.44C14.69,156.77,10.11,152.29,0,152.28"></path><path class="cls-1" d="M38.97,18.44c6.93,6.79,11.51,11.28,21.65,11.28s14.72-4.49,21.66-11.28C90.66,10.22,101.1,0,121.29,0H0C20.16,.02,30.59,10.23,38.97,18.44"></path><path class="cls-1" d="M121.29,152.28c-10.14,0-14.72,4.49-21.66,11.28-8.39,8.22-18.82,18.44-39.01,18.44h121.34c-20.19,0-30.63-10.22-39.01-18.44-6.93-6.79-11.51-11.28-21.66-11.28"></path></g></g></svg>