<svg xmlns="http://www.w3.org/2000/svg" id="Layer_2" data-name="Layer 2" viewBox="0 0 182.4 182.4"><defs><style>      .cls-1 {        fill: #367bf0;      }    </style></defs><g id="Capa_1" data-name="Capa 1"><g><polygon class="cls-1" points="182.4 0 182.4 19.22 19.22 182.4 0 182.4 182.4 0"></polygon><polygon class="cls-1" points="182.4 26.38 182.4 42.02 42.02 182.4 26.38 182.4 182.4 26.38"></polygon><polygon class="cls-1" points="182.4 49.18 182.4 64.82 64.82 182.4 49.18 182.4 182.4 49.18"></polygon><polygon class="cls-1" points="182.4 71.98 182.4 87.62 87.62 182.4 71.98 182.4 182.4 71.98"></polygon><polygon class="cls-1" points="182.4 94.78 182.4 110.42 110.42 182.4 94.78 182.4 182.4 94.78"></polygon><polygon class="cls-1" points="182.4 117.58 182.4 133.22 133.22 182.4 117.58 182.4 182.4 117.58"></polygon><polygon class="cls-1" points="182.4 140.38 182.4 156.02 156.02 182.4 140.38 182.4 182.4 140.38"></polygon><polygon class="cls-1" points="182.4 163.18 182.4 182.4 163.18 182.4 182.4 163.18"></polygon><g><path class="cls-1" d="M38.68,109.13l-17.28-17.28-9.86,9.86s3.62,1.6,7.55-2.32c2.5-2.5,2.66-4.01,2.66-4.01l16.94,13.74Z"></path><path class="cls-1" d="M38.68,109.13l-1.92-24.36-13.91,1.1s1.72,3.57,7.24,3.14c3.53-.28,4.62-1.32,4.62-1.32l3.97,21.45Z"></path><path class="cls-1" d="M45.54,119.97l-6.66,6.66-1.36-9.46h0c-.15-1.38,.29-2.81,1.35-3.86,1.84-1.84,4.82-1.84,6.66,0,1.84,1.84,1.84,4.82,0,6.66m5.56-12.22c-5.19-5.19-13.61-5.19-18.8,0-2.98,2.98-4.24,7.02-3.8,10.9h0s3.83,26.68,3.83,26.68l18.78-18.78c5.19-5.19,5.19-13.61,0-18.8"></path><path class="cls-1" d="M98.04,79.52c-10.38-10.38-27.21-10.38-37.59,0-10.38,10.38-10.38,27.21,0,37.59"></path><path class="cls-1" d="M120.56,56.99c-8.6-8.6-22.55-8.6-31.15,0-8.6,8.6-8.6,22.55,0,31.15"></path><path class="cls-1" d="M85.55,97.19c-.29,0-.57-.1-.81-.29l-30.02-24.92,4.55,17.47c.18,.68-.23,1.37-.91,1.54-.68,.17-1.37-.23-1.54-.91l-5.54-21.27c-.14-.53,.08-1.09,.55-1.39,.46-.3,1.06-.26,1.49,.09l33.05,27.43c.54,.45,.61,1.25,.17,1.78-.25,.3-.61,.46-.98,.46"></path><path class="cls-1" d="M67.68,115.06c-.39,0-.78-.18-1.03-.53l-23.49-32.48c-.33-.45-.32-1.06,.01-1.5,.33-.44,.92-.62,1.44-.43l15.4,5.51c.66,.24,1,.96,.77,1.62-.23,.66-.96,1-1.62,.77l-11.55-4.13,21.1,29.17c.41,.57,.28,1.36-.29,1.77-.22,.16-.48,.24-.74,.24"></path><path class="cls-1" d="M88.47,69.31c-.46,0-.91-.25-1.13-.69l-14.56-28.72c-.26-.51-.14-1.13,.29-1.52,.43-.38,1.06-.43,1.54-.11l41.19,27.03c.58,.38,.75,1.17,.36,1.75-.38,.59-1.17,.75-1.75,.36l-37.22-24.42,12.41,24.48c.32,.62,.07,1.39-.56,1.7-.18,.09-.38,.14-.57,.14"></path><path class="cls-1" d="M92.18,90.56c-.37,0-.73-.16-.98-.47l-26.41-32.48c-.36-.45-.38-1.08-.04-1.55,.34-.47,.95-.64,1.49-.43l21.25,8.37c.65,.26,.97,.99,.71,1.64-.26,.65-.99,.97-1.64,.71l-16.76-6.6,23.37,28.74c.44,.54,.36,1.34-.18,1.78-.23,.19-.52,.28-.8,.28"></path><path class="cls-1" d="M109.49,55.49c-.69,0-1.25-.55-1.27-1.24l-.67-28.32c-.01-.51,.28-.97,.74-1.18s1-.13,1.38,.21l24.61,22.14c.52,.47,.56,1.27,.1,1.79-.47,.52-1.27,.56-1.79,.1l-22.43-20.18,.6,25.39c.02,.7-.54,1.28-1.24,1.3h-.03"></path><path class="cls-1" d="M125.9,56.84c-.28,0-.55-.09-.79-.27l-24.82-19.68,6.24,18.16c.23,.66-.13,1.38-.79,1.61-.66,.23-1.38-.12-1.61-.79l-7.64-22.25c-.18-.53,0-1.12,.47-1.45,.46-.33,1.08-.31,1.52,.04l28.21,22.37c.55,.43,.64,1.23,.21,1.78-.25,.32-.62,.48-.99,.48"></path></g></g></g></svg>