<svg xmlns="http://www.w3.org/2000/svg" id="Layer_2" data-name="Layer 2" viewBox="0 0 182.85 182.85"><defs><style>      .cls-1 {        fill: #ff801e;      }    </style></defs><g id="Capa_1" data-name="Capa 1"><path class="cls-1" d="M155.99,64.01c-5.95,5.98-26.58,14.2-42.94,20.08,.01,.04,.03,.08,.05,.13-2.27-6.82-7.65-12.2-14.46-14.47,5.78-16.39,13.89-37.06,19.84-43.05,10.3-10.36,27.05-10.41,37.41-.1,10.36,10.3,10.41,27.05,.1,37.41m.15,54.47c10.36,10.3,10.4,27.05,.1,37.41-10.3,10.36-27.05,10.4-37.41,.1-5.99-5.95-14.2-26.58-20.08-42.94-.04,.01-.08,.03-.13,.05,6.82-2.27,12.2-7.65,14.47-14.46,16.39,5.78,37.06,13.89,43.05,19.84m-91.78,37.66c-10.3,10.36-27.05,10.41-37.41,.1-10.36-10.3-10.4-27.05-.1-37.41,5.95-5.99,26.58-14.2,42.94-20.08-.01-.04-.03-.08-.05-.13,2.27,6.82,7.65,12.2,14.46,14.47-5.78,16.39-13.89,37.06-19.84,43.05M26.7,64.37c-10.36-10.3-10.4-27.05-.1-37.41,10.3-10.36,27.05-10.41,37.41-.1,5.99,5.95,14.2,26.58,20.08,42.94,.04-.01,.08-.03,.13-.04-6.82,2.27-12.2,7.65-14.47,14.46-16.39-5.78-37.06-13.89-43.05-19.84M91.42,0c10.96,0,19.85,8.89,19.85,19.85,0,6.61-7.21,31.25-12.94,49.79-2.18-.69-4.5-1.07-6.91-1.07s-4.73,.38-6.91,1.07c-5.73-18.54-12.94-43.18-12.94-49.79,0-10.96,8.89-19.85,19.85-19.85H0V91.42c0-10.96,8.89-19.85,19.85-19.85,6.61,0,31.25,7.21,49.79,12.94-.69,2.18-1.07,4.5-1.07,6.91s.38,4.73,1.07,6.91c-18.54,5.73-43.18,12.94-49.79,12.94-10.96,0-19.85-8.89-19.85-19.85v91.42H91.42c-10.96,0-19.85-8.89-19.85-19.85,0-6.61,7.21-31.25,12.94-49.79,2.18,.69,4.5,1.07,6.91,1.07s4.73-.38,6.91-1.07c5.73,18.54,12.94,43.18,12.94,49.79,0,10.96-8.89,19.85-19.85,19.85h91.42V91.42c0,10.96-8.89,19.85-19.85,19.85-6.61,0-31.25-7.21-49.79-12.94,.69-2.18,1.07-4.5,1.07-6.91s-.38-4.73-1.07-6.91c18.54-5.73,43.18-12.94,49.79-12.94,10.96,0,19.85,8.89,19.85,19.85V0H91.42Z"></path></g></svg>