<svg xmlns="http://www.w3.org/2000/svg" id="Layer_2" data-name="Layer 2" viewBox="0 0 182.4 182.4"><defs><style>      .cls-1 {        fill: #60cf64;      }    </style></defs><g id="Capa_1" data-name="Capa 1"><g><path class="cls-1" d="M102.58,0C116.57,0,130.38,7.95,143.74,11.83c7.84,2.35,16.05,3.42,23.37,6.86,7.5,3.34,14.26,9.65,15.16,17.78,1.08,9.65-6.23,18.05-12.37,25.71-14.8,18.5-24.9,40.7-29.24,63.99-2.62,13.45-3.16,27.26-6.68,40.53-1.43,5.39-3.33,10.61-5.55,15.71h53.96V0H102.58Z"></path><path class="cls-1" d="M0,109.61v.26c.05-.04,.11-.07,.16-.11-.05-.05-.11-.1-.16-.15"></path><path class="cls-1" d="M124.09,24.03c0-3.79-3.07-6.77-6.77-6.77s-6.77,2.98-6.77,6.77,2.97,6.77,6.77,6.77c3.71,0,6.77-3.07,6.77-6.77"></path><path class="cls-1" d="M0,71.48v19.65c5.39,1.54,10.59,3.8,15.41,6.72,1.27-1.08,2.43-2.25,3.62-3.43-5.45-8.35-11.83-16.08-19.02-22.93"></path><path class="cls-1" d="M0,69.91c10.77,1.68,21.36,4.62,31.57,8.61,.81-1.45,1.71-2.89,2.61-4.33C23.79,66.15,12.6,59.11,.88,53.43c14.44-2.62,29.42-1.9,43.76,1.53,1.08-2.08,.9-1.8,1.98-3.98-10.02-8.39-21.48-15.07-33.75-19.4,13.98-3.25,28.34-1.54,42.5,1.71,1.01-1.63,2.08-3.33,3.26-4.96-8.21-5.86-16.88-11-26.08-15.34,12.99-2.26,26.35-1.62,39.17,1.26,5.23-4.5,10.92-8.48,16.78-11.28,4.69-2.17,9.4-2.98,14.08-2.98H0V69.91Z"></path></g></g></svg>