<svg xmlns="http://www.w3.org/2000/svg" id="Layer_2" data-name="Layer 2" viewBox="0 0 95.59 95.61"><defs><style>      .cls-1 {        fill: #d8d8d8;      }      .cls-2 {        fill: #26b663;      }    </style></defs><g id="Capa_1" data-name="Capa 1"><g><rect class="cls-1" x=".11" width="95.42" height="95.61"></rect><g><path class="cls-2" d="M62.51,74.33c1.55-2.13,2.62-4.44,3.15-6.82,.78,1.36,1.8,3.69,1.93,6.82h-5.08Zm-.05,11.59c1.57-2.13,2.65-4.45,3.19-6.84,.79,1.35,1.81,3.69,1.94,6.84h-5.14Zm-1.66,0h-.04v.05c-.35,.43-.73,.85-1.13,1.27-1.85-1.91-3.21-4.01-4.07-6.26,1.23-1.4,2.23-2.9,2.99-4.47,.2,.21,.4,.42,.61,.63l.46,.45,.46-.45c.49-.48,.95-.97,1.38-1.47h3.26c-.04,3.64-1.39,7.15-3.93,10.26m-5.94,5.82s-.86,.98-1.01,1.13c-.15-.15-1.1-1.24-1.1-1.24-1.17-1.42-2.1-2.93-2.77-4.52,1.35-1.58,2.41-3.27,3.17-5.05,.08,.08,.16,.16,.24,.24l.46,.45,.46-.45c.08-.08,.16-.16,.24-.24,.76,1.78,1.82,3.47,3.17,5.05-.69,1.63-1.64,3.18-2.86,4.63m-6.78-4.5c-1.85-1.91-3.21-4.02-4.07-6.26,1.23-1.4,2.23-2.9,2.99-4.47,.2,.21,.4,.42,.61,.63l.46,.45,.46-.45c.21-.21,.41-.42,.61-.63,.76,1.57,1.77,3.07,2.99,4.47-.86,2.24-2.22,4.35-4.07,6.26m-4.91,4.67s-.72,.8-.87,.96c-.15-.15-1.24-1.41-1.24-1.41-1.11-1.37-1.98-2.83-2.63-4.35,1.35-1.58,2.41-3.27,3.17-5.06,.08,.08,.16,.16,.24,.25l.46,.45,.46-.45c.08-.08,.16-.16,.24-.24,.76,1.78,1.82,3.47,3.17,5.05-.71,1.69-1.72,3.3-3,4.8m-6.64-4.67c-.4-.41-.78-.84-1.13-1.27v-.05h-.04c-2.55-3.11-3.89-6.61-3.93-10.26h3.26c.43,.5,.89,1,1.38,1.47l.46,.45,.46-.45c.21-.21,.41-.42,.61-.63,.76,1.57,1.77,3.07,2.99,4.47-.86,2.24-2.22,4.35-4.07,6.26m-7.97-1.32c.13-3.14,1.16-5.48,1.94-6.84,.54,2.39,1.63,4.71,3.19,6.84h-5.14Zm1.93-18.4c.53,2.38,1.6,4.69,3.15,6.82h-5.08c.13-3.12,1.15-5.46,1.93-6.82m2.47-5.98c.36,.6,.72,1.11,1.13,1.61h-4.46c1.16-.53,2.27-1.07,3.33-1.61m7.36-4.23c.09,.11,.17,.21,.26,.31-.86,2.23-2.22,4.32-4.06,6.23-1.05-1.05-1.73-1.84-2.38-2.91,2.33-1.24,4.39-2.47,6.18-3.62m4.63-3.23c-.73,1.19-1.62,2.33-2.66,3.41-.35-.34-.59-.59-.85-.91,1.36-.91,2.54-1.76,3.52-2.5m3.12-2.54c.24,.24,.58,.58,.99,.97,.69,1.46,1.72,3.35,3.09,5.04-.86,2.26-2.23,4.38-4.09,6.3-1.85-1.91-3.21-4.01-4.07-6.26,1.5-1.71,2.66-3.56,3.46-5.52,.24-.2,.45-.39,.61-.53m6.18,5.48c-.14,.15-.27,.31-.41,.46-.64-.69-1.21-1.45-1.72-2.22,.65,.56,1.37,1.15,2.13,1.76m.29,1.64c.75,1.77,1.81,3.45,3.14,5.02-.87,2.03-2.15,3.94-3.84,5.69-1.69-1.75-2.97-3.66-3.84-5.69,1.33-1.57,2.38-3.25,3.14-5.02,.08,.08,.15,.17,.24,.25l.46,.45,.46-.45c.08-.08,.16-.16,.24-.24m6.7,3.21c-.51,.75-.94,1.28-1.62,1.98-1.67-1.73-2.95-3.62-3.82-5.63,1.65,1.24,3.49,2.5,5.44,3.66m1.16,.66c.52,.29,1.04,.57,1.57,.84l-2.06-.14c.16-.22,.32-.45,.49-.7m-6.85,6.93c1.29-1.47,2.34-3.05,3.11-4.71,.16,.17,.32,.34,.49,.51l.46,.45,.46-.45c.29-.28,.53-.53,.76-.77l3.87,.25c-.17,3.4-1.49,6.67-3.86,9.59h-.09v.12c-.35,.43-.73,.85-1.13,1.27-1.85-1.91-3.21-4.01-4.07-6.26m-2.41,1.07c.08,.08,.16,.16,.24,.24l.46,.45,.46-.45c.08-.08,.16-.16,.24-.24,.73,1.73,1.75,3.37,3.03,4.9-.87,1.94-2.12,3.77-3.73,5.44-1.62-1.68-2.87-3.5-3.74-5.45,1.28-1.54,2.3-3.17,3.03-4.9m-9.14-1.07c1.29-1.47,2.34-3.05,3.11-4.71,.16,.17,.32,.34,.49,.51l.46,.45,.46-.45c.17-.17,.33-.34,.49-.51,.78,1.66,1.82,3.24,3.11,4.71-.86,2.24-2.22,4.35-4.07,6.26-1.85-1.91-3.21-4.01-4.07-6.26m-2.41,1.07c.08,.08,.16,.16,.24,.25l.46,.45,.46-.45c.08-.08,.16-.16,.24-.24,.73,1.73,1.75,3.37,3.03,4.9-.87,1.94-2.12,3.77-3.73,5.44-1.62-1.68-2.87-3.5-3.73-5.45,1.28-1.54,2.3-3.18,3.03-4.9m-3.14-6.86c1.33-1.57,2.38-3.24,3.13-5.01,.01,.01,.02,.02,.03,.03l.67,.66,.46-.45c.08-.08,.16-.16,.24-.24,.75,1.77,1.81,3.45,3.14,5.02-.87,2.03-2.15,3.94-3.84,5.69-1.68-1.75-2.97-3.66-3.84-5.69m-3.16,10.66c-2.43-2.99-3.75-6.35-3.87-9.85h3.86c.24,.25,.49,.5,.77,.77l.46,.45,.46-.45c.17-.17,.33-.34,.49-.51,.78,1.66,1.82,3.24,3.11,4.71-.86,2.24-2.22,4.35-4.07,6.26-.4-.41-.78-.84-1.13-1.27v-.12h-.09Zm59.58-24.25c-3.81,1.86-12.31,5.41-22.3,5.68,9.23,4,16.23,9.49,19.3,12.11,.76,.65,.41,1.48-.58,1.41-3.64-.28-11.18-1.19-19.49-4.08h.14s-4.08-1.56-4.08-1.56c-10-3.84-19.19-13.4-19.28-13.5l-.46-.48-.48,.46c-.07,.07-7.09,6.78-19.7,12.33,0,0,0-.01,0-.02-9.69,3.99-18.95,5.12-23.11,5.44-.99,.08-1.33-.75-.58-1.4,3.17-2.72,10.57-8.51,20.3-12.54,.37-.15,.73-.3,1.1-.44-.47,.01-.94,.02-1.43,.02-10.53,0-19.58-3.76-23.55-5.7-.36-.18-.58-.48-.67-.81v48.58H28.76c.38-2.3,1.2-4.04,1.83-5.09,.44,1.75,1.18,3.47,2.18,5.09h1.57c-1.77-2.59-2.77-5.42-2.9-8.35h3.31c.41,.48,.85,.95,1.32,1.41l.46,.45,.46-.45c.16-.15,.31-.31,.46-.47,.73,1.58,1.69,3.08,2.88,4.48-.44,1.01-.98,1.99-1.62,2.93h1.57c.38-.61,.72-1.22,1.02-1.86,.18,.18,.35,.36,.53,.54l.46,.45,.46-.45c.18-.18,.36-.36,.53-.55,.3,.63,.65,1.25,1.02,1.86h1.56c-.64-.94-1.18-1.92-1.62-2.93,1.19-1.41,2.16-2.91,2.89-4.49,.15,.16,.3,.32,.46,.47l.46,.45,.46-.45c.16-.15,.31-.31,.46-.47,.73,1.58,1.69,3.08,2.88,4.49-.44,1.01-.98,1.99-1.62,2.93h1.57c.38-.61,.72-1.23,1.02-1.86,.18,.18,.35,.37,.53,.54l.46,.45,.46-.45c.18-.18,.36-.36,.53-.54,.3,.63,.65,1.25,1.02,1.86h1.57c-.64-.94-1.18-1.92-1.62-2.93,1.19-1.41,2.16-2.91,2.88-4.49,.15,.16,.3,.32,.46,.47l.46,.45,.46-.45c.47-.46,.91-.92,1.32-1.41h3.31c-.14,2.93-1.13,5.75-2.9,8.35h1.57c1-1.63,1.74-3.34,2.18-5.1,.63,1.05,1.46,2.77,1.84,5.06v.05h28.2V48.95c0,.45-.24,.9-.71,1.13"></path><path class="cls-2" d="M.67,45.55c3.31-1.61,10.14-4.49,18.4-5.41-7.01-3.64-12.28-7.79-14.82-9.98-.76-.65-.41-1.48,.58-1.4,3.76,.29,11.69,1.24,20.33,4.37-6.17-6.99-9.39-14.83-10.69-18.63-.35-.99,.61-1.94,1.6-1.6,3.53,1.21,10.55,4.08,17.14,9.44-2.41-7.58-3.2-14.3-3.46-17.67-.08-.99,.75-1.34,1.4-.58,2.4,2.8,7.19,8.89,11.04,16.96,.03-.48,.07-.94,.12-1.41,.84-8.51,3.81-15.56,5.46-18.94C48,.24,48.45,0,48.9,0H0V46.36c.09-.33,.31-.63,.67-.81"></path><path class="cls-2" d="M50.04,.71c1.67,3.43,4.71,10.65,5.5,19.34,.06-.13,.12-.26,.19-.39,3.66-7.09,7.86-12.42,10.06-14.99,.65-.76,1.48-.42,1.4,.58-.27,3.6-1.17,11.08-4.02,19.33,6.8-5.77,14.23-8.81,17.9-10.08,.99-.34,1.95,.61,1.6,1.6-1.25,3.66-4.27,11.06-10,17.83,7.96-2.66,15.1-3.5,18.61-3.78,.99-.07,1.33,.76,.58,1.4-2.72,2.34-8.58,6.95-16.34,10.75,8.69,.79,15.92,3.83,19.35,5.51,.47,.23,.71,.68,.71,1.13V0H48.9c.45,0,.9,.24,1.14,.71"></path></g></g></g></svg>