<svg xmlns="http://www.w3.org/2000/svg" id="Layer_2" data-name="Layer 2" viewBox="0 0 181.69 181.7"><defs><style>      .cls-1 {        fill: #7a9c43;      }    </style></defs><g id="Capa_1" data-name="Capa 1"><g><path class="cls-1" d="M0,181.7V90.85c21.91,0,39.66,17.72,39.66,39.69,0,4.88-.87,9.54-2.47,13.84,4.29-1.6,8.94-2.47,13.8-2.47,21.91,0,39.85,17.81,39.85,39.79H0Z"></path><path class="cls-1" d="M90.84,181.7V90.85c21.91,0,39.66,17.72,39.66,39.69,0,4.88-.87,9.54-2.47,13.84,4.29-1.6,8.94-2.47,13.8-2.47,21.91,0,39.85,17.81,39.85,39.79H90.84Z"></path><path class="cls-1" d="M0,90.85V0C21.91,0,39.66,17.72,39.66,39.69c0,4.88-.87,9.54-2.47,13.84,4.29-1.6,8.94-2.48,13.8-2.48,21.91,0,39.85,17.81,39.85,39.79H0Z"></path><path class="cls-1" d="M90.84,90.85V0c21.91,0,39.66,17.72,39.66,39.69,0,4.88-.87,9.54-2.47,13.84,4.29-1.6,8.94-2.48,13.8-2.48,21.91,0,39.85,17.81,39.85,39.79H90.84Z"></path></g></g></svg>