<svg xmlns="http://www.w3.org/2000/svg" id="Layer_2" data-name="Layer 2" viewBox="0 0 183.27 183.27"><defs><style>      .cls-1 {        fill: #008046;      }    </style></defs><g id="Capa_1" data-name="Capa 1"><g><path class="cls-1" d="M0,183.27H33.17S2.31,138.45,0,118.69v64.59Z"></path><path class="cls-1" d="M155.31,0c15.78,2.09,27.96,15.59,27.96,31.94V0h-27.96Z"></path><path class="cls-1" d="M118.81,31.94c0-16.35,12.18-29.85,27.96-31.94H76.57c15.78,2.09,27.96,15.59,27.96,31.94,0,17.8-32.23,64.59-32.23,64.59,0,0-32.23-46.79-32.23-64.59,0-16.35,12.18-29.85,27.96-31.94H0V113.38c1.57-16.94,15.82-30.21,33.17-30.21,18.4,0,33.32,14.92,33.32,33.32s-33.32,66.78-33.32,66.78H114.31s-33.32-48.38-33.32-66.78,14.92-33.32,33.32-33.32,33.32,14.92,33.32,33.32-33.32,66.78-33.32,66.78h68.97V31.94c0,17.8-32.23,64.59-32.23,64.59,0,0-32.23-46.79-32.23-64.59"></path><polygon class="cls-1" points="65.42 41.61 72.34 37.97 79.26 41.61 77.93 33.91 83.54 28.45 75.8 27.32 72.34 20.31 68.88 27.32 61.14 28.45 66.74 33.91 65.42 41.61"></polygon><path class="cls-1" d="M49.47,31.94c0,12.61,10.22,22.83,22.83,22.83s22.83-10.22,22.83-22.83-10.22-22.83-22.83-22.83-22.83,10.22-22.83,22.83m22.87-17.72c9.8,0,17.75,7.95,17.75,17.75s-7.95,17.75-17.75,17.75-17.75-7.95-17.75-17.75,7.95-17.75,17.75-17.75"></path><polygon class="cls-1" points="144.15 41.61 151.08 37.97 158 41.61 156.67 33.91 162.27 28.45 154.54 27.32 151.08 20.31 147.61 27.32 139.88 28.45 145.48 33.91 144.15 41.61"></polygon><path class="cls-1" d="M128.21,31.94c0,12.61,10.22,22.83,22.83,22.83s22.83-10.22,22.83-22.83-10.22-22.83-22.83-22.83-22.83,10.22-22.83,22.83m22.87-17.72c9.8,0,17.75,7.95,17.75,17.75s-7.95,17.75-17.75,17.75-17.75-7.95-17.75-17.75,7.95-17.75,17.75-17.75"></path><path class="cls-1" d="M56.78,116.49c0-13.04-10.57-23.61-23.61-23.61s-23.61,10.57-23.61,23.61,10.57,23.61,23.61,23.61,23.61-10.57,23.61-23.61m-41.92,.03c0-10.13,8.21-18.35,18.35-18.35s18.35,8.21,18.35,18.35-8.21,18.35-18.35,18.35-18.35-8.21-18.35-18.35"></path><polygon class="cls-1" points="33.21 122.73 40.36 126.49 39 118.52 44.78 112.88 36.78 111.72 33.21 104.47 29.63 111.72 21.63 112.88 27.42 118.52 26.05 126.49 33.21 122.73"></polygon><polygon class="cls-1" points="117.92 111.72 114.34 104.47 110.76 111.72 102.76 112.88 108.55 118.52 107.18 126.49 114.34 122.73 121.5 126.49 120.13 118.52 125.92 112.88 117.92 111.72"></polygon><path class="cls-1" d="M114.31,92.89c-13.04,0-23.61,10.57-23.61,23.61s10.57,23.61,23.61,23.61,23.61-10.57,23.61-23.61-10.57-23.61-23.61-23.61m.03,41.99c-10.13,0-18.35-8.21-18.35-18.35s8.21-18.35,18.35-18.35,18.35,8.21,18.35,18.35-8.21,18.35-18.35,18.35"></path></g></g></svg>