<svg xmlns="http://www.w3.org/2000/svg" id="Layer_2" data-name="Layer 2" viewBox="0 0 182.4 182.4"><defs><style>      .cls-1 {        fill: #377e4b;      }    </style></defs><g id="Capa_1" data-name="Capa 1"><g><path class="cls-1" d="M136.8,45.6c0,25.18-20.42,45.6-45.6,45.6s-45.6-20.42-45.6-45.6S66.02,0,91.2,0s45.6,20.42,45.6,45.6"></path><path class="cls-1" d="M182.4,0V91.2c-25.19,0-45.6-20.42-45.6-45.6S157.21,0,182.4,0"></path><path class="cls-1" d="M182.4,91.2v91.2c-25.19,0-45.6-20.41-45.6-45.59s20.41-45.6,45.6-45.6"></path><path class="cls-1" d="M136.8,136.81c0,25.18-20.42,45.59-45.6,45.59s-45.6-20.41-45.6-45.59,20.42-45.6,45.6-45.6,45.6,20.41,45.6,45.6"></path><path class="cls-1" d="M45.6,136.81c0,25.18-20.41,45.59-45.6,45.59V91.2c25.19,0,45.6,20.41,45.6,45.6"></path><path class="cls-1" d="M45.6,45.6c0,25.18-20.41,45.6-45.6,45.6V0C25.19,0,45.6,20.42,45.6,45.6"></path></g></g></svg>