<svg xmlns="http://www.w3.org/2000/svg" viewBox="0 0 182.4 182.4"><defs><style>.cls-1{fill:#fff;}</style></defs><g id="Capa_2" data-name="Capa 2"><g id="Capa_1-2" data-name="Capa 1"><path class="cls-1" d="M84.6,166.55c-2.44-.21-6.86,14.89-9.23,14.48S74,164.9,71.61,164.27,62.27,177.75,60,176.92s1.42-16.13-.77-17.15S47.69,171.4,45.59,170.19s4.21-15.63,2.23-17-13.39,9.45-15.25,7.89,6.87-14.66,5.15-16.38-14.82,7-16.38,5.15,9.29-13.26,7.89-15.25-15.8,4.34-17,2.23,11.45-11.44,10.42-13.64-16.32,1.52-17.15-.77,13.28-9.26,12.65-11.61S1.79,109.44,1.37,107s14.69-6.79,14.48-9.23S0,93.65,0,91.2v91.2H91.2c-2.45,0-4.2-15.64-6.6-15.85"></path><path class="cls-1" d="M166.55,97.8c-.21,2.44,14.89,6.86,14.48,9.23s-16.13,1.42-16.75,3.76,13.47,9.34,12.64,11.61-16.13-1.42-17.15.77,11.63,11.55,10.42,13.64-15.63-4.21-17-2.23,9.45,13.39,7.9,15.25-14.67-6.87-16.39-5.15,7,14.82,5.15,16.39-13.26-9.3-15.25-7.9,4.34,15.8,2.23,17-11.43-11.45-13.64-10.42,1.52,16.32-.77,17.15-9.26-13.27-11.61-12.65S109.44,180.61,107,181s-6.79-14.69-9.23-14.48-4.15,15.85-6.6,15.85h91.2V91.2c0,2.45-15.64,4.21-15.85,6.6"></path><path class="cls-1" d="M15.85,84.6C16.06,82.16,1,77.74,1.37,75.37S17.5,74,18.13,71.61,4.65,62.27,5.48,60s16.13,1.42,17.15-.77S11,47.69,12.21,45.59s15.63,4.21,17,2.23-9.45-13.39-7.89-15.25S36,39.44,37.72,37.72s-7-14.82-5.14-16.38,13.25,9.29,15.24,7.89-4.34-15.8-2.23-17S57,23.66,59.23,22.63,57.71,6.31,60,5.48s9.26,13.27,11.61,12.65S73,1.79,75.37,1.37s6.79,14.69,9.23,14.48S88.75,0,91.2,0H0V91.2c0-2.45,15.64-4.2,15.85-6.6"></path><path class="cls-1" d="M91.2,140.67A49.47,49.47,0,1,1,140.67,91.2,49.47,49.47,0,0,1,91.2,140.67m0-110.29A60.82,60.82,0,1,0,152,91.2,60.81,60.81,0,0,0,91.2,30.38"></path><path class="cls-1" d="M91.2,0c2.45,0,4.21,15.64,6.61,15.85S104.66,1,107,1.37s1.43,16.13,3.76,16.76S120.13,4.65,122.4,5.48s-1.42,16.13.77,17.15S134.72,11,136.81,12.21s-4.21,15.63-2.23,17,13.39-9.45,15.25-7.89S143,36,144.68,37.72s14.82-7,16.39-5.15-9.3,13.26-7.9,15.25,15.8-4.34,17-2.23S158.74,57,159.77,59.23s16.32-1.52,17.15.77-13.27,9.26-12.64,11.61S180.61,73,181,75.37s-14.69,6.79-14.48,9.23,15.85,4.15,15.85,6.6V0Z"></path></g></g></svg>