<svg xmlns="http://www.w3.org/2000/svg" id="Layer_2" data-name="Layer 2" viewBox="0 0 242.7 242.7"><defs><style>      .cls-1 {        fill: #d8d8d8;      }    </style></defs><g id="Capa_1" data-name="Capa 1"><path class="cls-1" d="M121.35,187.17c36.35,0,65.82-29.47,65.82-65.82s-29.47-65.83-65.82-65.83S55.53,85,55.53,121.36s29.47,65.82,65.83,65.82Z"></path><path class="cls-1" d="M21.09,130.14c.28,3.24-19.82,9.12-19.27,12.28,.56,3.2,21.46,1.89,22.3,4.99,.84,3.14-17.93,12.43-16.83,15.45,1.11,3.05,21.46-1.89,22.82,1.02,1.37,2.93-15.48,15.37-13.86,18.15,1.62,2.8,20.8-5.61,22.65-2.97,1.86,2.65-12.58,17.81-10.5,20.29,2.08,2.47,19.51-9.13,21.79-6.85,2.29,2.28-9.32,19.72-6.84,21.8,2.48,2.08,17.64-12.36,20.29-10.51,2.64,1.85-5.77,21.04-2.97,22.66,2.79,1.61,15.22-15.24,18.16-13.87,2.91,1.37-2.02,21.72,1.02,22.82,3.02,1.1,12.32-17.66,15.46-16.83,3.1,.83,1.79,21.74,4.99,22.29,3.16,.55,9.04-19.54,12.28-19.26,3.19,.27,5.52,21.09,8.79,21.09s5.59-20.82,8.78-21.09c3.24-.28,9.12,19.81,12.28,19.26,3.21-.56,1.89-21.46,4.99-22.29,3.14-.84,12.43,17.93,15.45,16.83,3.05-1.11-1.89-21.46,1.03-22.82,2.93-1.37,15.37,15.48,18.15,13.87,2.8-1.62-5.61-20.81-2.97-22.66,2.65-1.85,17.81,12.58,20.29,10.51,2.47-2.08-9.13-19.52-6.85-21.8,2.28-2.29,19.72,9.32,21.8,6.85,2.07-2.47-12.36-17.64-10.51-20.29,1.85-2.64,21.04,5.77,22.66,2.97,1.61-2.79-15.24-15.22-13.87-18.15,1.37-2.92,21.72,2.02,22.82-1.02,1.1-3.02-17.66-12.32-16.82-15.45,.83-3.1,21.73-1.8,22.29-4.99,.55-3.16-19.55-9.04-19.27-12.28,.28-3.19,21.09-5.52,21.09-8.78s-20.81-5.6-21.09-8.78c-.28-3.25,19.81-9.13,19.27-12.28-.56-3.2-21.46-1.89-22.29-5-.84-3.14,17.92-12.43,16.82-15.45-1.11-3.05-21.46,1.89-22.82-1.02-1.37-2.93,15.48-15.37,13.87-18.16-1.62-2.8-20.8,5.61-22.66,2.97-1.85-2.65,12.58-17.82,10.51-20.29-2.07-2.47-19.52,9.13-21.8,6.85-2.29-2.28,9.32-19.72,6.85-21.8-2.47-2.08-17.64,12.37-20.29,10.51-2.64-1.85,5.77-21.04,2.97-22.65-2.79-1.62-15.22,15.24-18.15,13.87-2.92-1.36,2.02-21.72-1.03-22.82-3.02-1.1-12.32,17.66-15.45,16.83-3.1-.83-1.8-21.74-4.99-22.29-3.16-.55-9.04,19.54-12.28,19.27-3.19-.28-5.53-21.09-8.78-21.09s-5.6,20.82-8.79,21.09c-3.24,.27-9.12-19.82-12.28-19.27-3.2,.56-1.89,21.46-4.99,22.29-3.14,.84-12.44-17.93-15.46-16.83-3.04,1.11,1.89,21.46-1.02,22.82-2.93,1.37-15.37-15.48-18.16-13.87-2.8,1.61,5.61,20.8,2.97,22.65-2.65,1.86-17.82-12.59-20.29-10.51-2.47,2.08,9.13,19.51,6.84,21.8-2.28,2.29-19.72-9.32-21.79-6.85-2.08,2.48,12.36,17.64,10.5,20.29-1.85,2.64-21.03-5.77-22.65-2.97-1.62,2.79,15.24,15.22,13.86,18.16-1.36,2.91-21.72-2.03-22.82,1.02-1.1,3.02,17.67,12.32,16.83,15.45-.83,3.1-21.73,1.8-22.3,5-.55,3.16,19.55,9.04,19.27,12.28-.28,3.19-21.09,5.52-21.09,8.78s20.82,5.59,21.09,8.78ZM121.35,40.43c44.7,0,80.93,36.23,80.93,80.93s-36.23,80.92-80.93,80.92S40.43,166.05,40.43,121.36,76.66,40.43,121.35,40.43Z"></path></g></svg>