<svg xmlns="http://www.w3.org/2000/svg" id="Layer_2" data-name="Layer 2" viewBox="0 0 1923.61 518.93"><defs><style>      .cls-1 {        fill: #e9e9e9;        stroke-width: 0px;      }    </style></defs><g id="Capa_1" data-name="Capa 1"><g><path class="cls-1" d="M383.52,251.83c42.79,0,64.9-21.67,82.67-39.08,14.69-14.4,24.4-23.91,45.89-23.91,21.49,0,31.2,9.51,45.89,23.91,17.77,17.41,39.88,39.08,82.66,39.08s64.9-21.67,82.66-39.08c14.67-14.37,24.37-23.88,45.8-23.9v77.98c-42.72.03-64.82,21.68-82.58,39.07-14.69,14.4-24.39,23.91-45.89,23.91-21.49,0-31.2-9.51-45.89-23.91-17.77-17.41-39.88-39.08-82.67-39.08-42.79,0-64.9,21.67-82.66,39.08-14.7,14.4-24.4,23.91-45.89,23.91l-.09.16v-78.22s.09.08.09.08Z"></path><path class="cls-1" d="M640.63,463.36c-21.49,0-31.2-9.51-45.89-23.91-17.77-17.41-39.88-39.08-82.67-39.08-42.79,0-64.9,21.67-82.66,39.08-14.7,14.39-24.4,23.91-45.89,23.91l-.09.11v-78.13s.09.04.09.04c42.79,0,64.9-21.66,82.67-39.08,14.69-14.4,24.4-23.91,45.88-23.91,21.49,0,31.2,9.51,45.89,23.91,17.77,17.41,39.88,39.08,82.66,39.08,42.78,0,64.9-21.66,82.66-39.08,14.67-14.38,24.37-23.88,45.8-23.9v77.98c-42.72.03-64.82,21.68-82.58,39.08-14.69,14.39-24.4,23.91-45.88,23.91"></path><path class="cls-1" d="M769.08,455.95v62.98h-128.46c42.79,0,64.9-21.67,82.66-39.08,14.67-14.38,24.37-23.88,45.8-23.9"></path><path class="cls-1" d="M512.07,455.95c21.49,0,31.2,9.51,45.89,23.91,17.77,17.41,39.88,39.08,82.67,39.08h-257.11c42.79,0,64.9-21.67,82.67-39.08,14.69-14.4,24.4-23.91,45.89-23.91"></path><path class="cls-1" d="M385.57,251.83c-42.79,0-64.9-21.67-82.67-39.08-14.69-14.4-24.4-23.91-45.89-23.91s-31.2,9.51-45.89,23.91c-17.77,17.41-39.88,39.08-82.66,39.08s-64.9-21.67-82.66-39.08C31.13,198.38,21.43,188.88,0,188.85v77.98c42.72.03,64.82,21.68,82.58,39.07,14.69,14.4,24.39,23.91,45.89,23.91s31.2-9.51,45.89-23.91c17.77-17.41,39.88-39.08,82.67-39.08s64.9,21.67,82.66,39.08c14.7,14.4,24.4,23.91,45.89,23.91l.09.16v-78.22l-.09.08Z"></path><path class="cls-1" d="M128.46,463.36c21.49,0,31.2-9.51,45.89-23.91,17.77-17.41,39.88-39.08,82.67-39.08s64.9,21.67,82.66,39.08c14.7,14.39,24.4,23.91,45.89,23.91l.09.11v-78.13l-.09.04c-42.79,0-64.9-21.66-82.67-39.08-14.69-14.4-24.4-23.91-45.88-23.91s-31.2,9.51-45.89,23.91c-17.77,17.41-39.88,39.08-82.66,39.08s-64.9-21.66-82.66-39.08c-14.67-14.38-24.37-23.88-45.8-23.9v77.98c42.72.03,64.82,21.68,82.58,39.08,14.69,14.39,24.4,23.91,45.88,23.91"></path><path class="cls-1" d="M0,455.95v62.98h128.46c-42.79,0-64.9-21.67-82.66-39.08C31.13,465.48,21.43,455.98,0,455.95"></path><path class="cls-1" d="M257.01,455.95c-21.49,0-31.2,9.51-45.89,23.91-17.77,17.41-39.88,39.08-82.67,39.08h257.11c-42.79,0-64.9-21.67-82.67-39.08-14.69-14.4-24.4-23.91-45.89-23.91"></path><path class="cls-1" d="M1152.49,251.83c42.79,0,64.9-21.67,82.67-39.08,14.69-14.4,24.4-23.91,45.89-23.91,21.49,0,31.2,9.51,45.89,23.91,17.77,17.41,39.88,39.08,82.66,39.08s64.9-21.67,82.66-39.08c14.67-14.37,24.37-23.88,45.8-23.9v77.98c-42.72.03-64.82,21.68-82.58,39.07-14.69,14.4-24.39,23.91-45.89,23.91-21.49,0-31.2-9.51-45.89-23.91-17.77-17.41-39.88-39.08-82.67-39.08-42.79,0-64.9,21.67-82.66,39.08-14.7,14.4-24.4,23.91-45.89,23.91l-.09.16v-78.22s.09.08.09.08Z"></path><path class="cls-1" d="M1409.6,463.36c-21.49,0-31.2-9.51-45.89-23.91-17.77-17.41-39.88-39.08-82.67-39.08-42.79,0-64.9,21.67-82.66,39.08-14.7,14.39-24.4,23.91-45.89,23.91l-.09.11v-78.13s.09.04.09.04c42.79,0,64.9-21.66,82.67-39.08,14.69-14.4,24.4-23.91,45.88-23.91,21.49,0,31.2,9.51,45.89,23.91,17.77,17.41,39.88,39.08,82.66,39.08,42.78,0,64.9-21.66,82.66-39.08,14.67-14.38,24.37-23.88,45.8-23.9v77.98c-42.72.03-64.82,21.68-82.58,39.08-14.69,14.39-24.4,23.91-45.88,23.91"></path><path class="cls-1" d="M1538.06,455.95v62.98h-128.46c42.79,0,64.9-21.67,82.66-39.08,14.67-14.38,24.37-23.88,45.8-23.9"></path><path class="cls-1" d="M1281.05,455.95c21.49,0,31.2,9.51,45.89,23.91,17.77,17.41,39.88,39.08,82.67,39.08h-257.11c42.79,0,64.9-21.67,82.67-39.08,14.69-14.4,24.4-23.91,45.89-23.91"></path><path class="cls-1" d="M1154.54,251.83c-42.79,0-64.9-21.67-82.67-39.08-14.69-14.4-24.4-23.91-45.89-23.91s-31.2,9.51-45.89,23.91c-17.77,17.41-39.88,39.08-82.66,39.08s-64.9-21.67-82.66-39.08c-14.67-14.37-24.37-23.88-45.8-23.9v77.98c42.72.03,64.82,21.68,82.58,39.07,14.69,14.4,24.39,23.91,45.89,23.91s31.2-9.51,45.89-23.91c17.77-17.41,39.88-39.08,82.67-39.08s64.9,21.67,82.66,39.08c14.7,14.4,24.4,23.91,45.89,23.91l.09.16v-78.22l-.09.08Z"></path><path class="cls-1" d="M897.43,463.36c21.49,0,31.2-9.51,45.89-23.91,17.77-17.41,39.88-39.08,82.67-39.08s64.9,21.67,82.66,39.08c14.7,14.39,24.4,23.91,45.89,23.91l.09.11v-78.13l-.09.04c-42.79,0-64.9-21.66-82.67-39.08-14.69-14.4-24.4-23.91-45.88-23.91s-31.2,9.51-45.89,23.91c-17.77,17.41-39.88,39.08-82.66,39.08s-64.9-21.66-82.66-39.08c-14.67-14.38-24.37-23.88-45.8-23.9v77.98c42.72.03,64.82,21.68,82.58,39.08,14.69,14.39,24.4,23.91,45.88,23.91"></path><path class="cls-1" d="M768.97,455.95v62.98h128.46c-42.79,0-64.9-21.67-82.66-39.08-14.67-14.38-24.37-23.88-45.8-23.9"></path><path class="cls-1" d="M1025.99,455.95c-21.49,0-31.2,9.51-45.89,23.91-17.77,17.41-39.88,39.08-82.67,39.08h257.11c-42.79,0-64.9-21.67-82.67-39.08-14.69-14.4-24.4-23.91-45.89-23.91"></path><path class="cls-1" d="M1923.52,251.83c-42.79,0-64.9-21.67-82.67-39.08-14.69-14.4-24.4-23.91-45.89-23.91s-31.2,9.51-45.89,23.91c-17.77,17.41-39.88,39.08-82.66,39.08s-64.9-21.67-82.66-39.08c-14.67-14.37-24.37-23.88-45.8-23.9v77.98c42.72.03,64.82,21.68,82.58,39.07,14.69,14.4,24.39,23.91,45.89,23.91s31.2-9.51,45.89-23.91c17.77-17.41,39.88-39.08,82.67-39.08s64.9,21.67,82.66,39.08c14.7,14.4,24.4,23.91,45.89,23.91l.09.16v-78.22l-.09.08Z"></path><path class="cls-1" d="M1666.41,463.36c21.49,0,31.2-9.51,45.89-23.91,17.77-17.41,39.88-39.08,82.67-39.08s64.9,21.67,82.66,39.08c14.7,14.39,24.4,23.91,45.89,23.91l.09.11v-78.13l-.09.04c-42.79,0-64.9-21.66-82.67-39.08-14.69-14.4-24.4-23.91-45.88-23.91s-31.2,9.51-45.89,23.91c-17.77,17.41-39.88,39.08-82.66,39.08s-64.9-21.66-82.66-39.08c-14.67-14.38-24.37-23.88-45.8-23.9v77.98c42.72.03,64.82,21.68,82.58,39.08,14.69,14.39,24.4,23.91,45.88,23.91"></path><path class="cls-1" d="M1537.95,455.95v62.98h128.46c-42.79,0-64.9-21.67-82.66-39.08-14.67-14.38-24.37-23.88-45.8-23.9"></path><path class="cls-1" d="M1794.96,455.95c-21.49,0-31.2,9.51-45.89,23.91-17.77,17.41-39.88,39.08-82.67,39.08h257.11c-42.79,0-64.9-21.67-82.67-39.08-14.69-14.4-24.4-23.91-45.89-23.91"></path></g><path class="cls-1" d="M1031.42,191.82v-25.34c18.81,1.88,91.08,3.72,91.08-79.13,0,0-72.28-9.78-91.08,47.9v-55.67c18.81,1.87,91.08,3.7,91.08-79.13,0,0-1.98-.27-5.36-.46h-13.02c-27.57,1.43-76.5,13.08-77.12,77.77h-.05c-.63-64.69-49.55-76.34-77.12-77.77h-13.02c-3.38.19-5.36.46-5.36.46,0,82.83,72.26,81,91.07,79.13v55.67c-18.81-57.68-91.07-47.9-91.07-47.9,0,82.83,72.26,81.01,91.07,79.13v25.34"></path><path class="cls-1" d="M769.45,191.82v-19.8c14.69,1.47,71.14,2.9,71.14-61.8,0,0-56.45-7.64-71.14,37.42v-43.48c14.69,1.46,71.14,2.89,71.14-61.8,0,0-1.55-.21-4.19-.36h-10.17c-21.54,1.11-59.75,10.22-60.23,60.74h-.04c-.49-50.52-38.7-59.63-60.23-60.74h-10.17c-2.64.15-4.19.36-4.19.36,0,64.69,56.44,63.26,71.13,61.8v43.48c-14.69-45.05-71.13-37.42-71.13-37.42,0,64.69,56.44,63.27,71.13,61.8v19.79"></path><path class="cls-1" d="M1283.9,191.82v-16.62c12.34,1.24,59.75,2.44,59.75-51.9,0,0-47.41-6.41-59.75,31.42v-36.51c12.34,1.22,59.75,2.43,59.75-51.9,0,0-1.3-.18-3.52-.3h-8.54c-18.09.94-50.18,8.58-50.58,51.01h-.03c-.41-42.43-32.5-50.08-50.58-51.01h-8.54c-2.22.12-3.52.3-3.52.3,0,54.33,47.4,53.13,59.73,51.9v36.52c-12.34-37.84-59.73-31.42-59.73-31.42,0,54.33,47.4,53.14,59.73,51.9v16.62"></path></g></svg>