<svg xmlns="http://www.w3.org/2000/svg" id="Layer_2" data-name="Layer 2" viewBox="0 0 405.46 407.38"><defs><style>      .cls-1 {        fill: #e9e9e9;        stroke-width: 0px;      }    </style></defs><g id="Capa_1" data-name="Capa 1"><g><path class="cls-1" d="M287.79,0h-.04c-31.08.11-58.29,22.88-63.03,54.59l-5.6,37.46c-2.4,2.38-5.16,5.45-6.07,5.01-1.52-.73,1.45-11.77-.13-12.39-1.57-.62-6.9,9.49-8.52,8.99-1.61-.5-.33-11.85-1.98-12.23-1.64-.37-5.39,10.42-7.08,10.17-1.66-.25-2.09-11.67-3.79-11.79-1.68-.12-3.78,11.1-5.49,11.1s-3.81-11.23-5.49-11.1c-1.7.13-2.13,11.54-3.79,11.79-1.68.25-5.44-10.54-7.08-10.17-1.66.38-.38,11.73-1.98,12.23-1.62.5-6.95-9.6-8.52-8.99-1.58.62,1.39,11.65-.12,12.38-1.53.74-8.31-8.46-9.77-7.61-1.47.85,3.12,11.31,1.73,12.27-1.4.96-9.48-7.12-10.8-6.07-1.32,1.06,4.77,10.72,3.53,11.87-1.24,1.15-10.43-5.64-11.58-4.4-1.15,1.24,6.31,9.9,5.25,11.22-1.05,1.32-11.15-4.04-12.1-2.64-.95,1.39,7.71,8.85,6.86,10.31-.84,1.46-11.62-2.33-12.36-.8-.73,1.52,8.94,7.59,8.32,9.17-.14.38-.91.53-1.98.59-3.85-5.02-8.66-9.47-14.45-13.05-21.15-13.08-49.09-9.6-66.35,8.31-22.55,23.39-19.29,60.42,5.71,79.69l44.03,33.93c16.75,12.91,41.04,1.16,41.33-19.99l.25-18.26c2.95-1.56,6.34-3.57,7.06-2.9,1.24,1.15-4.85,10.82-3.53,11.87,1.32,1.06,9.4-7.02,10.8-6.07,1.4.95-3.19,11.42-1.73,12.27,1.46.84,8.25-8.35,9.77-7.61,1.52.73-1.46,11.76.12,12.38,1.57.62,6.9-9.49,8.52-8.99,1.61.49.33,11.85,1.98,12.23,1.64.37,5.39-10.42,7.08-10.17,1.66.25,2.09,11.67,3.79,11.79,1.67.13,3.78-11.1,5.49-11.1.46,0,.96.84,1.46,2.05,10.38,67.75,54,167.74,217.94,190.02v-17.07c-1.23-12.13-3.83-29.8-9.36-50.15-27.68,8.2-51.64,3.75-51.64,3.75,15.42-4.43,31.15-16.4,43.85-28.31-3.47-9.5-7.59-19.3-12.5-29.17-33.34,22.54-71.03,19.15-71.03,19.15,21.39-8.38,41.97-32.23,54.07-48.36-5.54-8.24-11.74-16.38-18.66-24.26-27.76,27.23-63.74,31.47-63.74,31.47,17.73-11.65,32.08-36.01,40.88-54.07-7.22-6.18-15.02-12.1-23.46-17.62-21.6,33.4-56.93,45.17-56.93,45.17,13.29-13.29,21.94-35.82,27.19-54.32l80.43-.21-.02-.02c18.82-.63,37.2-9.45,49.32-25.72,6.04-8.1,9.86-17.16,11.6-26.46v-23.53c-2.84-15.3-11.23-29.61-24.68-39.65-8.89-6.61-18.93-10.58-29.17-12.02-3.5-27.73-25.04-50.92-54.08-55.28-3.27-.49-6.52-.72-9.73-.71ZM100.38,161.46l-.27,20.29c-.1,7.48-8.7,11.63-14.62,7.07l-15.63-12.04c-8.44-6.5-9.89-18.72-3.1-27.02,6.2-7.59,17.62-9.14,25.62-3.47,5.16,3.66,7.9,9.37,8,15.17h0ZM136.8,194.2l.03-2.51c.27.01.49.06.6.19.28.35-.04,1.21-.63,2.31ZM256.6,162.33l10.72-14.36,29.33-39.37,10.15-13.63c5.26-7.04,12.27-11.98,19.97-14.67,7.53-2.64,15.75-3.13,23.6-1.29,5.53,1.26,10.9,3.68,15.75,7.29,18.77,13.99,22.65,40.54,8.66,59.31-8.03,10.76-20.19,16.6-32.65,17.01l.02.02-84.54.22c-.3-.18-.63-.36-1.01-.54ZM245.05,59.42c3.48-23.17,25.04-39.12,48.19-35.67,18,2.71,31.65,16.34,35.22,33.14-14.42,3.25-27.8,11.46-37.32,24.23l-37.03,49.69c-3.43-.13-9.69.73-10.14-.43-.62-1.58,9.06-7.65,8.32-9.17-.74-1.53-11.51,2.27-12.36.8-.85-1.47,7.81-8.92,6.86-10.31-.72-1.05-6.63,1.73-9.95,2.6l.94-6.28c1.42-2.24,2.68-4.34,2.16-4.9-.22-.24-.74-.18-1.43.06l6.54-43.76Z"></path><path class="cls-1" d="M41.05,37.28l22.21,71.57-28.73-54.52s-6.51,5.25-10.54,6.81c-12.02,4.68-20.61.36-24-1.93v-2.02s41.05-19.91,41.05-19.91Z"></path><path class="cls-1" d="M45.83,24.14l47.42-1.33-8.77,80.77-4.18-67.91s-8.09,2.11-12.41,1.88c-16.82-.88-22.06-13.42-22.06-13.42Z"></path></g></g></svg>