<svg xmlns="http://www.w3.org/2000/svg" id="Layer_2" data-name="Layer 2" viewBox="0 0 419.72 419.72"><defs><style>      .cls-1 {        fill: #e9e9e9;        stroke-width: 0px;      }    </style></defs><g id="Capa_1" data-name="Capa 1"><g><polygon class="cls-1" points="419.72 0 419.72 44.23 44.23 419.72 0 419.72 419.72 0"></polygon><polygon class="cls-1" points="419.72 60.7 419.72 96.69 96.69 419.72 60.7 419.72 419.72 60.7"></polygon><polygon class="cls-1" points="419.72 113.17 419.72 149.16 149.16 419.72 113.17 419.72 419.72 113.17"></polygon><polygon class="cls-1" points="419.72 165.64 419.72 201.62 201.62 419.72 165.64 419.72 419.72 165.64"></polygon><polygon class="cls-1" points="419.72 218.1 419.72 254.09 254.09 419.72 218.1 419.72 419.72 218.1"></polygon><polygon class="cls-1" points="419.72 270.57 419.72 306.55 306.55 419.72 270.57 419.72 419.72 270.57"></polygon><polygon class="cls-1" points="419.72 323.03 419.72 359.02 359.02 419.72 323.03 419.72 419.72 323.03"></polygon><polygon class="cls-1" points="419.72 375.5 419.72 419.72 375.5 419.72 419.72 375.5"></polygon><g><path class="cls-1" d="M89,251.11l-39.77-39.77-22.7,22.7s8.34,3.68,17.36-5.33c5.76-5.76,6.11-9.22,6.11-9.22l38.99,31.62Z"></path><path class="cls-1" d="M89,251.11l-4.43-56.06-32,2.53s3.95,8.22,16.67,7.21c8.11-.64,10.63-3.04,10.63-3.04l9.13,49.36Z"></path><path class="cls-1" d="M104.79,276.07l-15.31,15.31-3.12-21.76h0c-.36-3.16.67-6.46,3.1-8.88,4.23-4.23,11.1-4.23,15.33,0,4.23,4.23,4.23,11.1,0,15.33M117.58,247.95c-11.95-11.95-31.32-11.95-43.26,0-6.85,6.85-9.75,16.14-8.75,25.08h-.01s8.81,61.4,8.81,61.4l43.22-43.21c11.95-11.95,11.95-31.32,0-43.26"></path><path class="cls-1" d="M225.6,182.97c-23.89-23.89-62.61-23.89-86.5,0-23.89,23.89-23.89,62.61,0,86.5"></path><path class="cls-1" d="M277.42,131.15c-19.8-19.8-51.89-19.8-71.69,0-19.8,19.8-19.8,51.89,0,71.69"></path><path class="cls-1" d="M196.85,223.64c-.66,0-1.32-.22-1.86-.67l-69.08-57.33,10.46,40.19c.41,1.56-.53,3.15-2.09,3.56-1.57.4-3.15-.53-3.55-2.08l-12.74-48.95c-.32-1.22.19-2.52,1.26-3.19,1.06-.68,2.45-.59,3.42.21l76.04,63.11c1.24,1.03,1.41,2.87.38,4.1-.58.69-1.41,1.05-2.25,1.05"></path><path class="cls-1" d="M155.73,264.76c-.9,0-1.79-.42-2.36-1.21l-54.06-74.75c-.75-1.03-.73-2.43.03-3.46.77-1.02,2.11-1.43,3.31-1l35.43,12.67c1.52.54,2.31,2.21,1.76,3.73-.54,1.51-2.21,2.3-3.72,1.76l-26.58-9.51,48.55,67.13c.94,1.3.65,3.13-.66,4.07-.52.37-1.11.55-1.71.55"></path><path class="cls-1" d="M203.58,159.5c-1.06,0-2.09-.58-2.6-1.6l-33.5-66.08c-.6-1.18-.33-2.61.66-3.49.99-.88,2.43-.99,3.54-.26l94.79,62.2c1.34.88,1.72,2.69.84,4.04-.88,1.35-2.69,1.72-4.04.84l-85.65-56.2,28.55,56.33c.73,1.44.15,3.19-1.28,3.92-.42.21-.87.32-1.32.32"></path><path class="cls-1" d="M212.11,208.38c-.85,0-1.69-.37-2.26-1.08l-60.78-74.75c-.84-1.03-.87-2.49-.09-3.56.78-1.07,2.19-1.47,3.42-.99l48.9,19.26c1.5.59,2.23,2.28,1.64,3.78-.59,1.5-2.29,2.23-3.78,1.64l-38.56-15.18,53.77,66.12c1.01,1.25.83,3.09-.42,4.1-.54.44-1.19.65-1.84.65"></path><path class="cls-1" d="M251.94,127.68c-1.58,0-2.88-1.26-2.91-2.85l-1.55-65.17c-.03-1.16.64-2.23,1.7-2.72,1.06-.49,2.3-.3,3.17.48l56.64,50.95c1.2,1.08,1.3,2.92.22,4.12-1.07,1.19-2.92,1.3-4.12.22l-51.62-46.43,1.39,58.42c.04,1.61-1.24,2.95-2.84,2.98h-.07"></path><path class="cls-1" d="M289.7,130.79c-.63,0-1.27-.21-1.81-.63l-57.12-45.28,14.36,41.79c.52,1.52-.29,3.18-1.81,3.7-1.52.53-3.18-.29-3.7-1.81l-17.59-51.21c-.42-1.22.02-2.58,1.07-3.33,1.06-.75,2.48-.71,3.49.1l64.92,51.47c1.26,1,1.47,2.83.47,4.09-.58.72-1.43,1.1-2.29,1.1"></path></g></g></g></svg>