<svg xmlns="http://www.w3.org/2000/svg" id="Layer_2" data-name="Layer 2" viewBox="0 0 426.69 427.71"><defs><style>      .cls-1 {        fill: #6d9e6f;      }      .cls-1, .cls-2 {        stroke-width: 0px;      }      .cls-2 {        fill: #e9e9e9;      }    </style></defs><g id="Capa_1" data-name="Capa 1"><g><circle class="cls-2" cx="213.51" cy="213.6" r="54.48"></circle><g><path class="cls-1" d="M365.53,364.71c24.1-24.24,24-63.42-.24-87.52-14-13.93-62.36-32.89-100.7-46.42-5.28,15.85-17.74,28.37-33.55,33.73,13.74,38.27,32.97,86.53,46.97,100.46,24.23,24.1,63.42,24,87.52-.24Z"></path><path class="cls-1" d="M197.02,163.17c-.1.04-.19.07-.29.11-13.74-38.27-32.97-86.53-46.97-100.45-24.23-24.11-63.42-24-87.52.24-24.1,24.23-24,63.42.24,87.52,14,13.93,62.36,32.89,100.7,46.42,5.3-15.95,17.9-28.53,33.85-33.83Z"></path><path class="cls-1" d="M46.43,260.31c15.46,0,73.11-16.87,116.48-30.27-1.62-5.1-2.5-10.53-2.5-16.16s.88-11.06,2.5-16.16c-43.37-13.4-101.02-30.27-116.48-30.27-25.64,0-46.43,20.79-46.43,46.43s20.79,46.43,46.43,46.43Z"></path><path class="cls-1" d="M381.33,167.45c-15.46,0-73.11,16.87-116.48,30.27,1.62,5.1,2.5,10.53,2.5,16.16s-.88,11.06-2.5,16.16c43.37,13.4,101.02,30.27,116.48,30.27,22.25,0,40.83-15.67,45.36-36.57v-19.73c-4.53-20.9-23.1-36.57-45.36-36.57Z"></path><path class="cls-1" d="M264.49,196.73c38.27-13.74,86.53-32.97,100.46-46.97,24.1-24.24,23.99-63.42-.24-87.52-24.23-24.11-63.42-24-87.52.24-13.93,14-32.89,62.36-46.42,100.7,15.84,5.27,28.37,17.74,33.73,33.55Z"></path><path class="cls-1" d="M260.31,381.33c0-15.46-16.87-73.11-30.27-116.48-5.1,1.62-10.53,2.5-16.16,2.5s-11.06-.88-16.16-2.5c-13.4,43.37-30.27,101.02-30.27,116.48,0,25.31,20.26,45.85,45.44,46.38h1.98c25.18-.53,45.44-21.07,45.44-46.38Z"></path><path class="cls-1" d="M163.27,231.04c-38.27,13.74-86.53,32.97-100.46,46.97-24.1,24.23-24,63.42.24,87.52,24.24,24.11,63.42,24,87.53-.24,13.92-14,32.89-62.36,46.42-100.7-15.84-5.27-28.37-17.74-33.73-33.55Z"></path><path class="cls-1" d="M167.45,46.43c0,15.46,16.87,73.11,30.27,116.48,5.1-1.62,10.53-2.5,16.16-2.5s11.06.88,16.16,2.5c13.4-43.37,30.27-101.02,30.27-116.48,0-25.64-20.79-46.43-46.43-46.43s-46.43,20.79-46.43,46.43Z"></path></g></g></g></svg>