<svg xmlns="http://www.w3.org/2000/svg" id="Layer_2" data-name="Layer 2" viewBox="0 0 79.04 79.04"><defs><style>      .cls-1 {        fill: #6cc9d5;      }    </style></defs><g id="Capa_1" data-name="Capa 1"><g><path class="cls-1" d="M0,0V79.04H14.54l2.55-27.79c-5.3-5.42-8.57-12.84-8.57-21.02C8.52,13.61,21.99,.15,38.6,.15s26.91,11.77,30.08,30.08l5.06,23h-6.79v11.05c0,3.71-3.01,6.72-6.72,6.72h-10.04l-3.06,8.04h31.91V0H0Z"></path><polygon class="cls-1" points="45.95 29.52 53.4 22.25 43.1 20.76 38.49 11.42 33.88 20.76 23.57 22.25 31.03 29.52 29.27 39.79 38.49 34.94 47.71 39.79 45.95 29.52"></polygon></g></g></svg>