<svg xmlns="http://www.w3.org/2000/svg" id="Layer_2" data-name="Layer 2" viewBox="0 0 78.44 78.44"><defs><style>      .cls-1 {        fill: #6dbe6f;      }    </style></defs><g id="Capa_1" data-name="Capa 1"><path class="cls-1" d="M0,0V64.14l7.84-8.93c1.62-1.97,.54-11.16-.05-15.31-.2-1.45-.16-2.92,.12-4.36,1.23-6.23,4.66-22.85,4.66-22.85,.07-.49,.35-.92,.71-1.27,.85-.85,2.33-1.34,3.89-1.06,2.26,.28,3.75,3.61,3.68,5.23l-1.27,20.08c0,.28,.14,.42,.42,.42q.14,0,.21-.07l9.97-8.27L52.67,3.57c1.84-1.98,4.45-2.62,5.94-1.41,1.49,1.2,1.41,3.82-.28,5.94l-18.74,23.69L67.38,7.1c2.19-1.91,4.74-2.19,6.01-.92l.07,.07c1.27,1.41,1.56,3.39-1.06,6.01l-25.38,26.09,24.82-16.76c2.12-1.41,4.38-1.56,5.59-.35,.14,.14,.28,.28,.28,.42,1.06,1.63,.14,4.24-1.98,5.94l-26.09,20.72,22.56-12.23c2.19-1.34,4.6-1.06,5.44,.64h0c.92,1.77-.07,4.31-2.12,5.94l-26.09,17.75-18.24,12.02-6.2,6h53.47S78.44,0,78.44,0H0Z"></path></g></svg>