<svg xmlns="http://www.w3.org/2000/svg" id="Layer_2" data-name="Layer 2" viewBox="0 0 62.63 62.63"><defs><style>      .cls-1 {        fill: #fff;        stroke-width: 0px;      }    </style></defs><g id="Capa_1" data-name="Capa 1"><g><polygon class="cls-1" points="8.19 46.74 0 58.54 0 55.57 8.19 46.74"></polygon><polygon class="cls-1" points="13.8 45.59 5.11 62.63 2.27 62.63 13.8 45.59"></polygon><path class="cls-1" d="M46.74,23.9c-.86,0-1.56-.7-1.56-1.56s.7-1.56,1.56-1.56,1.55.7,1.55,1.56-.7,1.56-1.55,1.56"></path><polygon class="cls-1" points="16.45 24.79 3.05 0 5.66 0 16.45 24.79"></polygon><polygon class="cls-1" points="15.17 32.17 21.41 32.17 0 49.85 0 10.89 15.17 32.17"></polygon><polygon class="cls-1" points="18 0 23.16 16.08 16.07 0 18 0"></polygon><path class="cls-1" d="M62.63,0v23.6l-10.24-1.99s-3.21-4.08-7.45-4.51c-4.83-.49-9.66,3.61-9.66,3.61l-4.94,4.08L22.84,0h39.79Z"></path><path class="cls-1" d="M50.92,25.13l11.71-.22v37.72H19.24l.9-13.02c14,0,30.78-24.48,30.78-24.48"></path><path class="cls-1" d="M48.3,22.35c0,.86-.7,1.56-1.55,1.56s-1.56-.7-1.56-1.56.7-1.56,1.56-1.56,1.55.7,1.55,1.56"></path></g></g></svg>