<svg xmlns="http://www.w3.org/2000/svg" viewBox="0 0 194.99 194.99"><defs><style>.cls-1{fill:#fff;}</style></defs><g id="Capa_2" data-name="Capa 2"><g id="Capa_1-2" data-name="Capa 1"><path class="cls-1" d="M127.51,151.62a37.75,37.75,0,0,0,6.43-13.92,30.27,30.27,0,0,1,3.94,13.92Zm-.1,23.63a37.88,37.88,0,0,0,6.51-14,30.31,30.31,0,0,1,4,14Zm-3.4,0h-.08v.1c-.73.88-1.5,1.74-2.31,2.59a38,38,0,0,1-8.31-12.77,41,41,0,0,0,6.11-9.12c.41.43.82.86,1.25,1.28l1,.93.94-.93q1.5-1.46,2.82-3H132a33.36,33.36,0,0,1-8,20.92M111.9,187.12s-1.76,2-2.06,2.3c-.3-.31-2.25-2.52-2.25-2.52a37.11,37.11,0,0,1-5.64-9.23,40.29,40.29,0,0,0,6.46-10.31l.48.5,1,.92,1-.92.48-.5a40.29,40.29,0,0,0,6.46,10.31,37.28,37.28,0,0,1-5.83,9.45m-13.84-9.18a38.12,38.12,0,0,1-8.3-12.77,41,41,0,0,0,6.11-9.12c.41.43.81.86,1.25,1.28l.94.93,1-.93c.43-.42.84-.85,1.25-1.28a41.29,41.29,0,0,0,6.1,9.12,37.82,37.82,0,0,1-8.3,12.77m-10,9.53s-1.46,1.64-1.76,1.95c-.31-.31-2.54-2.87-2.54-2.87a36.82,36.82,0,0,1-5.36-8.88,40,40,0,0,0,6.46-10.31c.17.16.32.33.49.5l1,.92.94-.92.48-.5a40.06,40.06,0,0,0,6.47,10.31,37.47,37.47,0,0,1-6.13,9.8m-13.54-9.53c-.82-.85-1.59-1.71-2.31-2.59v-.1h-.09a33.36,33.36,0,0,1-8-20.92h6.66c.88,1,1.82,2,2.81,3l1,.93.95-.93c.43-.42.83-.85,1.24-1.28a41.34,41.34,0,0,0,6.11,9.12,37.82,37.82,0,0,1-8.3,12.77m-16.27-2.69a30.58,30.58,0,0,1,4-13.95,37.76,37.76,0,0,0,6.51,13.95Zm3.95-37.54a37.71,37.71,0,0,0,6.43,13.91H58.24a30.49,30.49,0,0,1,3.95-13.91m5-12.19a26.26,26.26,0,0,0,2.3,3.29h-9.1c2.37-1.08,4.63-2.18,6.8-3.29m15-8.63.53.63a37.94,37.94,0,0,1-8.28,12.7,29.67,29.67,0,0,1-4.85-5.94c4.76-2.53,8.95-5,12.6-7.39m9.45-6.6a40.81,40.81,0,0,1-5.43,7,22.31,22.31,0,0,1-1.74-1.86c2.78-1.86,5.17-3.58,7.17-5.1m6.37-5.19c.5.5,1.19,1.18,2,2a51.22,51.22,0,0,0,6.3,10.28,38.1,38.1,0,0,1-8.34,12.85,38.12,38.12,0,0,1-8.3-12.77,40.07,40.07,0,0,0,7.06-11.25c.49-.42.93-.79,1.25-1.09m12.61,11.19c-.28.31-.54.63-.83.94a35.9,35.9,0,0,1-3.52-4.52c1.34,1.14,2.8,2.34,4.35,3.58m.59,3.34a40,40,0,0,0,6.4,10.24,38.51,38.51,0,0,1-7.83,11.6,38.51,38.51,0,0,1-7.83-11.6,39.73,39.73,0,0,0,6.4-10.25l.48.51,1,.92,1-.92.48-.5m13.66,6.56a25.09,25.09,0,0,1-3.31,4,38.63,38.63,0,0,1-7.79-11.5,123.23,123.23,0,0,0,11.1,7.47m2.36,1.35c1,.58,2.12,1.16,3.2,1.7l-4.2-.27c.33-.45.65-.92,1-1.43m-14,14.13a40.42,40.42,0,0,0,6.35-9.61c.34.35.66.7,1,1l1,.92.94-.92c.59-.57,1.09-1.08,1.55-1.56l7.89.51a33.54,33.54,0,0,1-7.88,19.57h-.19v.23c-.73.88-1.5,1.75-2.31,2.59a38,38,0,0,1-8.31-12.77m-4.9,2.19.48.5,1,.93,1-.93.48-.49a40,40,0,0,0,6.19,10A38.88,38.88,0,0,1,109.84,165a38.88,38.88,0,0,1-7.62-11.11,40,40,0,0,0,6.19-10m-18.65-2.18a40.93,40.93,0,0,0,6.35-9.61c.33.34.66.69,1,1l.94.92,1-.92c.35-.34.67-.69,1-1a40.68,40.68,0,0,0,6.34,9.61,37.82,37.82,0,0,1-8.3,12.77,38.09,38.09,0,0,1-8.3-12.76m-4.91,2.18c.17.17.32.34.49.5l1,.93.94-.93c.17-.16.32-.33.48-.49a40.27,40.27,0,0,0,6.19,10A38.64,38.64,0,0,1,86.29,165a38.48,38.48,0,0,1-7.62-11.11,40,40,0,0,0,6.18-10m-6.4-14a39.76,39.76,0,0,0,6.39-10.23l.07.07,1.38,1.34.94-.92c.17-.16.32-.33.48-.5a40,40,0,0,0,6.41,10.24,38.76,38.76,0,0,1-7.83,11.6,38.73,38.73,0,0,1-7.84-11.6M72,151.62a33.41,33.41,0,0,1-7.9-20.1H72c.49.5,1,1,1.58,1.58l1,.92.95-.92c.34-.34.67-.69,1-1a41.3,41.3,0,0,0,6.35,9.62,37.88,37.88,0,0,1-8.3,12.76c-.82-.84-1.59-1.71-2.31-2.59v-.23Zm121.54-49.46c-7.78,3.79-25.12,11-45.5,11.59a161.89,161.89,0,0,1,39.37,24.7c1.54,1.32.83,3-1.18,2.87A163.52,163.52,0,0,1,146.47,133l.29,0-8.32-3.2c-20.39-7.83-39.15-27.34-39.33-27.53l-1-1-1,1C97,102.4,82.73,116.08,57,127.4v0A160.25,160.25,0,0,1,9.85,138.45c-2,.16-2.72-1.53-1.17-2.85A160.92,160.92,0,0,1,50.09,110c.75-.31,1.49-.62,2.23-.9-1,0-1.92,0-2.91,0-21.49,0-39.94-7.67-48-11.63A2.51,2.51,0,0,1,0,95.89V195H58.66a29.94,29.94,0,0,1,3.75-10.38A37,37,0,0,0,66.85,195H70a32.7,32.7,0,0,1-5.92-17h6.75c.84,1,1.74,1.94,2.69,2.87l1,.92.95-.92c.32-.32.62-.64.93-1A40.86,40.86,0,0,0,82.27,189a36.11,36.11,0,0,1-3.3,6h3.2a38,38,0,0,0,2.09-3.79c.35.37.71.75,1.08,1.11l1,.93.94-.93c.38-.36.73-.74,1.09-1.11A40.08,40.08,0,0,0,90.4,195h3.19a36.44,36.44,0,0,1-3.3-6,40.12,40.12,0,0,0,5.89-9.15c.31.32.61.64.94,1l.94.92,1-.92c.32-.32.62-.64.93-1a40.9,40.9,0,0,0,5.89,9.15,36.11,36.11,0,0,1-3.3,6h3.19a38,38,0,0,0,2.09-3.79c.36.37.71.75,1.08,1.11l1,.93,1-.93c.37-.36.72-.74,1.08-1.11A38,38,0,0,0,114,195h3.19a35.71,35.71,0,0,1-3.3-6,40.9,40.9,0,0,0,5.89-9.15c.31.32.61.64.93,1l1,.92.94-.92c1-.93,1.85-1.89,2.7-2.87H132a32.7,32.7,0,0,1-5.92,17h3.2a37.26,37.26,0,0,0,4.44-10.4,28.77,28.77,0,0,1,3.75,10.31V195H195V99.85a2.54,2.54,0,0,1-1.44,2.31"></path><path class="cls-1" d="M1.37,92.93A118,118,0,0,1,38.91,81.88,163,163,0,0,1,8.68,61.53c-1.55-1.32-.84-3,1.17-2.85a162.55,162.55,0,0,1,41.47,8.91c-12.59-14.25-19.14-30.25-21.81-38a2.57,2.57,0,0,1,3.27-3.26,117.81,117.81,0,0,1,35,19.24,163.08,163.08,0,0,1-7.06-36c-.16-2,1.53-2.73,2.85-1.19a162.41,162.41,0,0,1,22.53,34.6c.06-1,.15-1.92.25-2.86A117.1,117.1,0,0,1,97.45,1.45,2.53,2.53,0,0,1,99.76,0H0V94.57a2.51,2.51,0,0,1,1.37-1.64"></path><path class="cls-1" d="M102.08,1.45A117.37,117.37,0,0,1,113.3,40.9c.12-.27.25-.53.4-.8A164,164,0,0,1,134.23,9.53c1.32-1.54,3-.85,2.85,1.18a162.83,162.83,0,0,1-8.19,39.44A117.18,117.18,0,0,1,165.4,29.59a2.57,2.57,0,0,1,3.27,3.26,116.59,116.59,0,0,1-20.4,36.38,163.55,163.55,0,0,1,38-7.7c2-.15,2.72,1.54,1.18,2.85a162,162,0,0,1-33.34,21.93,117.31,117.31,0,0,1,39.47,11.23A2.54,2.54,0,0,1,195,99.85V0H99.76a2.56,2.56,0,0,1,2.32,1.45"></path></g></g></svg>