<svg xmlns="http://www.w3.org/2000/svg" id="Layer_2" data-name="Layer 2" viewBox="0 0 564.97 116.05"><defs><style>      .cls-1 {        fill: #fff;      }    </style></defs><g id="Capa_1" data-name="Capa 1"><g><g><path class="cls-1" d="M58.01,116.02v-29c6.99,0,12.65,5.68,12.65,12.69,0,1.55-.28,3.04-.79,4.42,1.37-.51,2.85-.79,4.4-.79,6.99,0,12.65,5.68,12.65,12.69h-28.92Z"></path><path class="cls-1" d="M86.93,116.02v-29c6.99,0,12.65,5.68,12.65,12.69,0,1.55-.28,3.04-.79,4.42,1.37-.51,2.85-.79,4.4-.79,6.99,0,12.65,5.68,12.65,12.69h-28.92Z"></path><path class="cls-1" d="M58.01,87.01v-29c6.99,0,12.65,5.68,12.65,12.69,0,1.55-.28,3.04-.79,4.42,1.37-.51,2.85-.79,4.4-.79,6.99,0,12.65,5.68,12.65,12.69h-28.92Z"></path><path class="cls-1" d="M86.93,87.01v-29c6.99,0,12.65,5.68,12.65,12.69,0,1.55-.28,3.04-.79,4.42,1.37-.51,2.85-.79,4.4-.79,6.99,0,12.65,5.68,12.65,12.69h-28.92Z"></path><path class="cls-1" d="M86.93,41.16c-14.46,0-21.69-12.06-21.69-12.06,0,0,7.23-12.06,21.69-12.06,16.27,0,21.69,12.06,21.69,12.06,0,0-5.42,12.06-21.69,12.06m-28.92,16.85h57.83V.18H58.01V58.01Z"></path><path class="cls-1" d="M86.77,33.61c-2.59,0-4.7-2.02-4.7-4.5s2.1-4.5,4.7-4.5,4.7,2.02,4.7,4.5-2.1,4.5-4.7,4.5m0-13.63c-5.26,0-9.52,4.08-9.52,9.12s4.26,9.12,9.52,9.12,9.52-4.08,9.52-9.12-4.26-9.12-9.52-9.12"></path></g><polygon class="cls-1" points="31.81 58.1 0 58.01 0 83.16 31.81 58.1"></polygon><g><path class="cls-1" d="M42.8,81.73c0-1.35-1.09-2.45-2.44-2.45s-2.45,1.09-2.45,2.45,1.09,2.45,2.45,2.45,2.44-1.1,2.44-2.45"></path><path class="cls-1" d="M35.61,57.92c.05,.1,1.1,2.07-.9,5.97l2.24,7.01s-2.48-1.36-4.86-.61l.32,1.45s-3.21,.19-5.4,3.15l1.93,.32s-2.67,1.84-2.67,5.73l1.93-.45s-.16,3.67,3,5.85l.26-1.54s.35,1.12,1.99,1.99c0,0-6.08-10.71,5.92-10.71,0,0,7,9.66,14.86,12.32,0,0,3.05,.68,1.38,4.54-.85,1.97-1.44,1.53-3.02,4.36-1.49,2.65-2.42,4.13-5.21,5.82-3.35,2.02-16.59,2.2-20.31,12.9h30.95V58.01l-22.4-.09Z"></path><path class="cls-1" d="M148.59,55.13c.83,5.2,2.89,8.96,6.18,11.28,3.29,2.32,8.19,3.48,14.71,3.48,3.26,0,5.98-.36,8.16-1.09,2.18-.73,3.93-1.7,5.25-2.91,1.32-1.21,2.25-2.63,2.81-4.26,.55-1.63,.83-3.34,.83-5.15,0-1.46-.17-2.86-.52-4.21-.35-1.35-1.02-2.58-2.03-3.69-1.01-1.11-2.39-2.08-4.16-2.91-1.77-.83-4.04-1.49-6.81-1.97l-9.36-1.66c-3.67-.62-6.93-1.46-9.77-2.49-2.84-1.04-5.25-2.37-7.22-4-1.97-1.63-3.47-3.65-4.47-6.08-1.01-2.42-1.51-5.37-1.51-8.84s.71-6.38,2.13-8.94c1.42-2.56,3.34-4.71,5.77-6.44,2.42-1.73,5.3-3.01,8.63-3.85,3.33-.83,6.93-1.25,10.81-1.25,4.92,0,9.03,.54,12.32,1.61,3.29,1.08,5.98,2.51,8.06,4.31,2.08,1.8,3.65,3.86,4.73,6.18,1.07,2.32,1.89,4.7,2.44,7.12l-8.94,1.77c-.56-2.08-1.27-3.93-2.13-5.56-.87-1.63-2.01-2.98-3.43-4.05-1.42-1.07-3.17-1.89-5.25-2.44-2.08-.55-4.61-.83-7.59-.83-3.4,0-6.24,.31-8.52,.94-2.29,.62-4.12,1.47-5.51,2.55-1.39,1.08-2.37,2.36-2.96,3.85-.59,1.49-.88,3.07-.88,4.73,0,1.8,.22,3.38,.68,4.73,.45,1.35,1.21,2.53,2.29,3.53,1.07,1.01,2.48,1.84,4.21,2.49,1.73,.66,3.88,1.23,6.44,1.72l10.39,1.87c7.69,1.46,13.34,3.86,16.94,7.22,3.6,3.36,5.41,8.3,5.41,14.81,0,2.98-.57,5.77-1.72,8.37-1.14,2.6-2.84,4.87-5.09,6.81-2.25,1.94-5.08,3.47-8.47,4.57-3.4,1.11-7.38,1.66-11.95,1.66s-8.33-.43-11.9-1.3c-3.57-.87-6.67-2.23-9.3-4.11-2.63-1.87-4.75-4.26-6.34-7.17-1.59-2.91-2.56-6.38-2.91-10.4h9.56Z"></path><path class="cls-1" d="M228.96,70.41c2.91,0,5.41-.52,7.48-1.56,2.08-1.04,3.79-2.49,5.15-4.37,1.35-1.87,2.34-4.11,2.96-6.7,.62-2.6,.94-5.46,.94-8.58s-.31-5.86-.94-8.42c-.62-2.56-1.61-4.76-2.96-6.6-1.35-1.84-3.07-3.27-5.15-4.31-2.08-1.04-4.57-1.56-7.48-1.56s-5.39,.52-7.43,1.56c-2.04,1.04-3.74,2.48-5.09,4.31-1.35,1.84-2.34,4.04-2.96,6.6-.62,2.56-.94,5.4-.94,8.52s.31,5.96,.94,8.52c.62,2.56,1.59,4.78,2.91,6.65,1.32,1.87,3.01,3.33,5.09,4.37,2.08,1.04,4.57,1.56,7.48,1.56m-.1,7.48c-4.09,0-7.73-.66-10.91-1.98-3.19-1.32-5.89-3.19-8.11-5.61-2.22-2.43-3.92-5.4-5.09-8.94-1.18-3.53-1.77-7.48-1.77-11.85s.62-8.32,1.87-11.85c1.25-3.53,3.01-6.55,5.3-9.04,2.29-2.49,5.04-4.42,8.26-5.77,3.22-1.35,6.81-2.03,10.76-2.03s7.62,.66,10.81,1.97c3.19,1.32,5.91,3.21,8.16,5.66,2.25,2.46,3.97,5.42,5.15,8.89,1.18,3.47,1.77,7.38,1.77,11.75s-.61,8.42-1.82,11.95c-1.21,3.53-2.95,6.55-5.2,9.04-2.25,2.49-5.01,4.42-8.26,5.77-3.26,1.35-6.9,2.03-10.91,2.03"></path></g><rect class="cls-1" x="263.39" y="2.02" width="9.04" height="74.22"></rect><polygon class="cls-1" points="284 2.02 293.45 2.02 331.19 60.96 331.19 2.02 340.44 2.02 340.44 76.24 331.29 76.24 293.25 17.61 293.25 76.24 284 76.24 284 2.02"></polygon><g><path class="cls-1" d="M383.58,49.31l-8.63,.31c-3.67,.14-6.72,.49-9.15,1.04-2.43,.56-4.35,1.3-5.77,2.23-1.42,.94-2.43,2.1-3.01,3.48-.59,1.39-.88,2.98-.88,4.78,0,2.7,.81,4.87,2.44,6.5,1.63,1.63,4.31,2.44,8.06,2.44,5.34,0,9.49-1.32,12.47-3.95,2.98-2.63,4.47-6.24,4.47-10.81v-6.03Zm.21,19.54c-1.94,2.36-4.4,4.38-7.38,6.08-2.98,1.7-6.69,2.55-11.12,2.55-2.7,0-5.18-.33-7.43-.99-2.25-.66-4.19-1.66-5.82-3.01-1.63-1.35-2.89-3.03-3.79-5.04-.9-2.01-1.35-4.37-1.35-7.07,0-3.67,.78-6.65,2.34-8.94,1.56-2.29,3.64-4.09,6.24-5.41,2.6-1.32,5.53-2.25,8.78-2.81,3.26-.55,6.62-.9,10.08-1.04l9.25-.31v-2.08c0-4.57-.97-7.86-2.91-9.87-1.94-2.01-5.09-3.01-9.46-3.01s-7.45,.71-9.46,2.13c-2.01,1.42-3.33,3.38-3.95,5.87l-8.21-.94c.97-4.92,3.29-8.51,6.96-10.76,3.67-2.25,8.66-3.38,14.97-3.38,3.88,0,7.15,.47,9.82,1.4,2.67,.94,4.83,2.27,6.5,4,1.66,1.73,2.86,3.88,3.59,6.45,.73,2.56,1.09,5.44,1.09,8.63v34.93h-8.73v-7.38Z"></path><path class="cls-1" d="M404.27,29.67h-8.32v-7.17h8.32V7.84h9.04v14.66h14.24v7.17h-14.24v31.5c0,2.63,.59,4.75,1.77,6.34,1.18,1.59,2.98,2.39,5.4,2.39,1.52,0,2.86-.1,4-.31,1.14-.21,2.2-.48,3.17-.83l1.56,6.96c-1.39,.49-2.89,.88-4.52,1.2-1.63,.31-3.55,.47-5.77,.47-3.05,0-5.51-.45-7.38-1.35-1.87-.9-3.36-2.18-4.47-3.85-1.11-1.66-1.86-3.64-2.23-5.92-.38-2.29-.57-4.78-.57-7.48V29.67Z"></path><path class="cls-1" d="M433.19,22.49h9.04V56.38c0,4.99,.81,8.52,2.44,10.6,1.63,2.08,4.28,3.12,7.95,3.12,4.02,0,7.66-1.46,10.91-4.37,1.73-1.52,3.05-3.14,3.95-4.83,.9-1.7,1.35-3.9,1.35-6.6V22.49h9.04v53.74h-8.94v-8.32c-2.63,3.47-5.47,5.99-8.52,7.59-3.05,1.59-6.34,2.39-9.87,2.39-6.1,0-10.52-1.65-13.25-4.94-2.74-3.29-4.11-8.23-4.11-14.81V22.49Z"></path><path class="cls-1" d="M488.18,22.49h8.94v8.32c2.01-2.98,4.37-5.26,7.07-6.86,2.7-1.59,5.58-2.39,8.63-2.39,1.87,0,3.46,.14,4.78,.42l-1.14,8.42c-.69-.14-1.39-.26-2.08-.36-.69-.1-1.46-.16-2.29-.16-1.66,0-3.36,.3-5.09,.88-1.73,.59-3.36,1.58-4.88,2.96-1.53,1.32-2.72,2.84-3.59,4.57-.87,1.73-1.3,3.74-1.3,6.03v31.91h-9.04V22.49Z"></path><path class="cls-1" d="M555.56,49.31l-8.63,.31c-3.67,.14-6.72,.49-9.15,1.04-2.43,.56-4.35,1.3-5.77,2.23-1.42,.94-2.43,2.1-3.01,3.48-.59,1.39-.88,2.98-.88,4.78,0,2.7,.81,4.87,2.44,6.5,1.63,1.63,4.31,2.44,8.06,2.44,5.34,0,9.49-1.32,12.47-3.95,2.98-2.63,4.47-6.24,4.47-10.81v-6.03Zm.21,19.54c-1.94,2.36-4.4,4.38-7.38,6.08-2.98,1.7-6.69,2.55-11.12,2.55-2.7,0-5.18-.33-7.43-.99-2.25-.66-4.19-1.66-5.82-3.01-1.63-1.35-2.89-3.03-3.79-5.04-.9-2.01-1.35-4.37-1.35-7.07,0-3.67,.78-6.65,2.34-8.94,1.56-2.29,3.64-4.09,6.24-5.41,2.6-1.32,5.53-2.25,8.78-2.81,3.26-.55,6.62-.9,10.08-1.04l9.25-.31v-2.08c0-4.57-.97-7.86-2.91-9.87-1.94-2.01-5.09-3.01-9.46-3.01s-7.45,.71-9.46,2.13c-2.01,1.42-3.33,3.38-3.95,5.87l-8.21-.94c.97-4.92,3.29-8.51,6.96-10.76,3.67-2.25,8.66-3.38,14.97-3.38,3.88,0,7.15,.47,9.82,1.4,2.67,.94,4.83,2.27,6.5,4,1.66,1.73,2.86,3.88,3.59,6.45,.73,2.56,1.09,5.44,1.09,8.63v34.93h-8.73v-7.38Z"></path><path class="cls-1" d="M140.73,110.22c.3,1.52,.96,2.61,1.96,3.29,1,.67,2.5,1.01,4.49,1.01,1.02,0,1.87-.11,2.55-.34,.67-.23,1.21-.53,1.61-.91,.4-.38,.68-.83,.85-1.34,.17-.51,.26-1.05,.26-1.62,0-.47-.05-.92-.16-1.35-.1-.43-.3-.82-.6-1.17-.3-.35-.72-.66-1.27-.92-.55-.27-1.27-.47-2.16-.63l-2.53-.43c-.99-.17-1.86-.39-2.63-.65-.77-.27-1.42-.61-1.95-1.04-.53-.43-.93-.96-1.21-1.61-.27-.64-.41-1.43-.41-2.36s.19-1.74,.58-2.42c.39-.68,.91-1.25,1.56-1.69,.65-.45,1.42-.78,2.3-1,.88-.22,1.82-.33,2.8-.33,1.27,0,2.33,.14,3.19,.41,.85,.28,1.55,.64,2.11,1.09,.55,.46,.98,.97,1.28,1.55,.3,.58,.54,1.16,.71,1.75l-1.59,.46c-.19-.59-.41-1.11-.67-1.58-.26-.46-.6-.86-1.02-1.18-.43-.32-.96-.57-1.61-.74-.64-.17-1.43-.26-2.36-.26-1.04,0-1.92,.1-2.62,.3-.7,.2-1.27,.47-1.71,.83-.44,.35-.75,.77-.94,1.25-.19,.48-.28,1-.28,1.55s.07,1.06,.2,1.48c.13,.42,.36,.78,.68,1.08,.32,.3,.75,.56,1.29,.77,.54,.21,1.22,.39,2.03,.54l2.87,.51c1.02,.19,1.91,.44,2.66,.74,.75,.3,1.37,.69,1.86,1.15,.49,.46,.86,1.02,1.09,1.66,.24,.64,.36,1.4,.36,2.28,0,.78-.15,1.51-.46,2.21-.3,.69-.75,1.29-1.35,1.81-.6,.51-1.34,.92-2.23,1.22-.89,.3-1.93,.46-3.13,.46-1.1,0-2.12-.1-3.06-.31-.94-.21-1.76-.54-2.47-1.01-.71-.46-1.29-1.07-1.75-1.81-.46-.74-.74-1.64-.85-2.7h1.71Z"></path><path class="cls-1" d="M163.18,114.57c.93,0,1.72-.17,2.36-.5,.65-.33,1.18-.78,1.59-1.35,.42-.57,.72-1.24,.91-2.02,.19-.78,.28-1.62,.28-2.53s-.09-1.69-.28-2.46c-.19-.77-.49-1.44-.91-2.01-.42-.57-.95-1.02-1.59-1.35-.64-.33-1.43-.5-2.36-.5s-1.69,.17-2.35,.5c-.65,.33-1.19,.78-1.59,1.35-.41,.57-.71,1.24-.9,2.01-.19,.77-.28,1.6-.28,2.49s.09,1.73,.28,2.5c.19,.78,.49,1.45,.9,2.02,.41,.57,.94,1.02,1.59,1.35,.65,.33,1.44,.5,2.35,.5m-.06,1.42c-1.08,0-2.04-.18-2.89-.54-.84-.36-1.56-.88-2.13-1.55-.58-.67-1.02-1.48-1.34-2.43-.31-.95-.47-2.01-.47-3.19s.17-2.28,.5-3.24,.8-1.79,1.39-2.48c.6-.68,1.32-1.21,2.18-1.58,.85-.37,1.81-.55,2.87-.55s2.02,.18,2.87,.54c.85,.36,1.57,.88,2.16,1.55,.59,.67,1.04,1.48,1.35,2.43,.31,.95,.47,2,.47,3.16s-.16,2.28-.48,3.24c-.32,.97-.78,1.8-1.38,2.49-.6,.69-1.33,1.22-2.19,1.59-.86,.37-1.83,.55-2.92,.55"></path></g><rect class="cls-1" x="172.63" y="95.23" width="1.65" height="20.31"></rect><g><path class="cls-1" d="M177.35,100.89h1.65v9.3c0,1.54,.24,2.64,.73,3.31,.48,.67,1.31,1.01,2.49,1.01,.59,0,1.18-.11,1.76-.34,.59-.23,1.15-.57,1.68-1.02,.55-.49,.97-1,1.25-1.52,.28-.52,.43-1.24,.43-2.15v-8.59h1.65v14.65h-1.65v-2.39c-1.54,1.9-3.31,2.84-5.32,2.84-1.67,0-2.86-.46-3.58-1.37-.72-.91-1.08-2.24-1.08-3.98v-9.76Z"></path><path class="cls-1" d="M204.35,110.76c-.28,1.65-.94,2.94-1.96,3.86-1.02,.92-2.42,1.38-4.18,1.38-1.06,0-2.01-.18-2.84-.53-.83-.35-1.54-.86-2.11-1.54-.57-.67-1.01-1.48-1.31-2.43-.3-.95-.45-2.02-.45-3.21s.16-2.28,.48-3.24c.32-.97,.78-1.79,1.37-2.48,.59-.68,1.3-1.21,2.15-1.58,.84-.37,1.8-.55,2.86-.55,1.61,0,2.9,.41,3.86,1.24,.96,.83,1.59,1.99,1.89,3.48l-1.59,.4c-.11-.53-.27-1.02-.48-1.48-.21-.46-.47-.84-.8-1.17-.32-.32-.73-.58-1.21-.77-.48-.19-1.06-.28-1.72-.28-.89,0-1.65,.16-2.28,.48-.63,.32-1.15,.76-1.56,1.32-.42,.56-.72,1.23-.91,2.01-.19,.78-.28,1.62-.28,2.53s.09,1.75,.28,2.53c.19,.78,.48,1.45,.88,2.02,.4,.57,.91,1.02,1.55,1.34,.64,.32,1.4,.48,2.29,.48,1.42,0,2.46-.35,3.11-1.04,.65-.69,1.1-1.62,1.32-2.77h1.65Z"></path></g><path class="cls-1" d="M206.62,100.89h1.65v14.65h-1.65v-14.65Zm-.11-5.66h1.88v2.48h-1.88v-2.48Z"></path><g><path class="cls-1" d="M217.66,114.57c.93,0,1.72-.17,2.36-.5,.64-.33,1.18-.78,1.59-1.35,.42-.57,.72-1.24,.91-2.02,.19-.78,.28-1.62,.28-2.53s-.1-1.69-.28-2.46c-.19-.77-.49-1.44-.91-2.01-.42-.57-.95-1.02-1.59-1.35-.64-.33-1.43-.5-2.36-.5s-1.69,.17-2.35,.5c-.65,.33-1.19,.78-1.59,1.35-.41,.57-.71,1.24-.9,2.01-.19,.77-.28,1.6-.28,2.49s.09,1.73,.28,2.5c.19,.78,.49,1.45,.9,2.02,.41,.57,.94,1.02,1.59,1.35,.65,.33,1.44,.5,2.35,.5m-.06,1.42c-1.08,0-2.04-.18-2.89-.54-.84-.36-1.55-.88-2.13-1.55-.58-.67-1.02-1.48-1.34-2.43-.31-.95-.47-2.01-.47-3.19s.17-2.28,.5-3.24,.8-1.79,1.39-2.48c.6-.68,1.32-1.21,2.18-1.58,.85-.37,1.81-.55,2.87-.55s2.02,.18,2.87,.54c.85,.36,1.57,.88,2.16,1.55,.59,.67,1.04,1.48,1.35,2.43,.31,.95,.47,2,.47,3.16s-.16,2.28-.48,3.24c-.32,.97-.78,1.8-1.38,2.49-.6,.69-1.33,1.22-2.19,1.59-.86,.37-1.83,.55-2.92,.55"></path><path class="cls-1" d="M227.03,100.89h1.65v2.39c.8-1,1.65-1.73,2.55-2.18,.9-.45,1.86-.67,2.89-.67,1.67,0,2.9,.46,3.7,1.39,.8,.93,1.19,2.25,1.19,3.95v9.76h-1.65v-9.3c0-1.54-.27-2.64-.82-3.31-.55-.67-1.42-1.01-2.62-1.01-.57,0-1.17,.11-1.81,.33-.64,.22-1.21,.56-1.72,1.04-.57,.49-1,1-1.28,1.52-.28,.52-.43,1.24-.43,2.15v8.59h-1.65v-14.65Z"></path><path class="cls-1" d="M252.68,107.2c0-.8-.09-1.53-.26-2.19-.17-.66-.44-1.24-.8-1.72-.36-.48-.83-.86-1.42-1.12-.59-.27-1.29-.4-2.11-.4-1.42,0-2.56,.45-3.41,1.34-.85,.89-1.37,2.26-1.54,4.1h9.53Zm1.45,4.49c-.23,1.27-.83,2.3-1.82,3.1-.99,.8-2.39,1.19-4.21,1.19-2.1,0-3.74-.68-4.91-2.03-1.17-1.36-1.75-3.22-1.75-5.59,0-1.29,.17-2.43,.5-3.41,.33-.99,.8-1.82,1.39-2.49,.6-.67,1.3-1.18,2.11-1.52,.81-.34,1.69-.51,2.66-.51,1.14,0,2.11,.18,2.9,.55,.8,.37,1.45,.87,1.95,1.51,.5,.64,.87,1.39,1.1,2.26,.23,.87,.34,1.81,.34,2.82v1.05h-11.27c0,.83,.1,1.62,.31,2.35,.21,.73,.52,1.37,.94,1.91,.42,.54,.94,.97,1.57,1.28,.63,.31,1.35,.47,2.16,.47,.74,0,1.37-.07,1.88-.21,.51-.14,.94-.35,1.28-.61,.34-.27,.61-.57,.81-.92,.2-.35,.36-.74,.47-1.18h1.59Z"></path><path class="cls-1" d="M257.59,111.47c.21,1.14,.69,1.94,1.45,2.42,.76,.47,1.84,.71,3.24,.71s2.43-.27,3.02-.8c.59-.53,.88-1.2,.88-1.99,0-.34-.04-.66-.11-.95-.08-.29-.22-.56-.44-.81-.22-.25-.53-.46-.94-.63-.41-.17-.93-.31-1.58-.43l-1.79-.28c-.78-.13-1.47-.29-2.09-.48-.62-.19-1.14-.44-1.57-.75-.43-.31-.75-.7-.97-1.17s-.33-1.04-.33-1.72c0-.64,.14-1.23,.43-1.75,.28-.52,.67-.96,1.17-1.31,.49-.35,1.08-.62,1.75-.81,.67-.19,1.4-.28,2.18-.28,1.01,0,1.84,.1,2.52,.3,.67,.2,1.22,.47,1.65,.81,.43,.34,.76,.74,1,1.19,.24,.46,.42,.94,.55,1.45l-1.51,.31c-.15-.44-.33-.82-.53-1.15-.2-.33-.45-.61-.75-.83-.3-.22-.68-.38-1.14-.5-.46-.11-1.02-.17-1.71-.17-.76,0-1.39,.07-1.91,.21-.51,.14-.92,.34-1.24,.58-.31,.25-.54,.53-.67,.85-.13,.32-.2,.65-.2,1s.04,.65,.11,.92c.08,.28,.23,.52,.46,.73,.23,.21,.54,.39,.95,.54,.41,.15,.94,.28,1.61,.4l2.25,.37c1.54,.27,2.68,.73,3.44,1.38,.76,.65,1.14,1.65,1.14,3,0,.57-.12,1.11-.36,1.62-.24,.51-.59,.95-1.05,1.32-.47,.37-1.05,.66-1.75,.88-.7,.22-1.51,.33-2.42,.33s-1.71-.09-2.46-.26c-.75-.17-1.4-.44-1.95-.8-.55-.36-1-.83-1.34-1.39-.34-.57-.55-1.26-.63-2.08h1.62Z"></path><path class="cls-1" d="M278.07,108.79c0,.65,.03,1.21,.1,1.69,.07,.48,.18,.92,.34,1.29,.16,.38,.37,.72,.61,1.01,.25,.29,.55,.56,.91,.81,.44,.34,.88,.59,1.34,.74,.46,.15,.98,.23,1.56,.23,.7,0,1.35-.12,1.93-.36,.59-.24,1.1-.61,1.52-1.12,.43-.51,.76-1.18,1.01-2.01,.25-.83,.37-1.82,.37-3s-.14-2.19-.41-2.99c-.28-.8-.63-1.44-1.07-1.92-.44-.48-.93-.83-1.48-1.02-.55-.2-1.09-.3-1.62-.3-.59,0-1.12,.07-1.59,.2-.47,.13-.95,.38-1.42,.74-.66,.49-1.18,1.11-1.55,1.86-.37,.75-.55,1.7-.55,2.86v1.28Zm-1.59-13.57h1.65v7.85c.66-.83,1.39-1.48,2.19-1.95,.8-.46,1.76-.7,2.9-.7,1.06,0,1.99,.19,2.79,.58,.8,.39,1.46,.92,1.98,1.61,.52,.68,.91,1.49,1.17,2.42,.26,.93,.38,1.93,.38,3.02,0,1.25-.16,2.37-.47,3.34-.31,.98-.75,1.81-1.32,2.49-.57,.68-1.26,1.2-2.06,1.56-.81,.36-1.71,.54-2.72,.54-.89,0-1.75-.18-2.57-.54-.82-.36-1.58-1-2.26-1.91v1.99h-1.65v-20.31Z"></path><path class="cls-1" d="M301.37,107.74l-2.7,.11c-1.1,.04-2.02,.14-2.76,.3-.74,.16-1.34,.39-1.79,.68-.46,.29-.78,.65-.98,1.08-.2,.43-.3,.93-.3,1.52,0,.89,.25,1.61,.75,2.15,.5,.54,1.38,.81,2.63,.81,.63,0,1.25-.07,1.86-.21,.62-.14,1.12-.37,1.52-.7,.34-.25,.62-.48,.84-.71,.22-.23,.4-.48,.54-.75,.14-.27,.24-.58,.3-.92,.06-.34,.08-.74,.08-1.2v-2.16Zm.03,5.72c-.25,.3-.54,.6-.88,.9-.34,.29-.73,.55-1.17,.78-.44,.23-.92,.41-1.44,.54-.52,.13-1.09,.2-1.72,.2-1.54,0-2.77-.37-3.7-1.11-.93-.74-1.39-1.84-1.39-3.3,0-.99,.21-1.79,.63-2.42,.42-.63,.97-1.12,1.66-1.48,.69-.36,1.48-.61,2.36-.75,.88-.14,1.8-.23,2.75-.27l2.84-.11v-.46c0-1.44-.28-2.49-.84-3.16-.56-.66-1.56-1-3-1-.7,0-1.29,.06-1.78,.17-.48,.11-.89,.28-1.21,.5-.32,.22-.58,.47-.77,.77-.19,.29-.33,.62-.43,.98l-1.51-.23c.53-2.39,2.45-3.58,5.75-3.58,1.02,0,1.89,.12,2.59,.37,.7,.25,1.27,.6,1.69,1.07,.43,.47,.74,1.03,.92,1.71,.19,.67,.28,1.45,.28,2.32v9.64h-1.65v-2.08Z"></path><path class="cls-1" d="M306.9,111.47c.21,1.14,.69,1.94,1.45,2.42,.76,.47,1.84,.71,3.24,.71s2.43-.27,3.02-.8c.59-.53,.88-1.2,.88-1.99,0-.34-.04-.66-.11-.95-.08-.29-.22-.56-.44-.81-.22-.25-.53-.46-.94-.63-.41-.17-.93-.31-1.58-.43l-1.79-.28c-.78-.13-1.47-.29-2.09-.48-.62-.19-1.14-.44-1.57-.75-.43-.31-.75-.7-.97-1.17s-.33-1.04-.33-1.72c0-.64,.14-1.23,.43-1.75,.28-.52,.67-.96,1.17-1.31,.49-.35,1.08-.62,1.75-.81,.67-.19,1.4-.28,2.18-.28,1.01,0,1.84,.1,2.52,.3,.67,.2,1.22,.47,1.65,.81,.43,.34,.76,.74,1,1.19,.24,.46,.42,.94,.55,1.45l-1.51,.31c-.15-.44-.33-.82-.53-1.15-.2-.33-.45-.61-.75-.83-.3-.22-.68-.38-1.14-.5-.46-.11-1.02-.17-1.71-.17-.76,0-1.39,.07-1.91,.21s-.92,.34-1.24,.58c-.31,.25-.54,.53-.67,.85-.13,.32-.2,.65-.2,1s.04,.65,.11,.92c.08,.28,.23,.52,.45,.73,.23,.21,.55,.39,.95,.54,.41,.15,.94,.28,1.61,.4l2.25,.37c1.54,.27,2.68,.73,3.44,1.38,.76,.65,1.14,1.65,1.14,3,0,.57-.12,1.11-.36,1.62-.24,.51-.59,.95-1.05,1.32-.47,.37-1.05,.66-1.75,.88-.7,.22-1.51,.33-2.42,.33s-1.71-.09-2.46-.26c-.75-.17-1.4-.44-1.95-.8-.55-.36-1-.83-1.34-1.39-.34-.57-.55-1.26-.63-2.08h1.62Z"></path><path class="cls-1" d="M329.11,107.74l-2.7,.11c-1.1,.04-2.02,.14-2.76,.3-.74,.16-1.34,.39-1.79,.68-.45,.29-.78,.65-.98,1.08-.2,.43-.3,.93-.3,1.52,0,.89,.25,1.61,.75,2.15,.5,.54,1.38,.81,2.63,.81,.63,0,1.25-.07,1.86-.21,.62-.14,1.12-.37,1.52-.7,.34-.25,.62-.48,.84-.71s.4-.48,.54-.75c.14-.27,.24-.58,.3-.92,.06-.34,.09-.74,.09-1.2v-2.16Zm.03,5.72c-.25,.3-.54,.6-.88,.9-.34,.29-.73,.55-1.17,.78-.44,.23-.92,.41-1.44,.54-.52,.13-1.1,.2-1.72,.2-1.54,0-2.77-.37-3.7-1.11-.93-.74-1.39-1.84-1.39-3.3,0-.99,.21-1.79,.63-2.42,.42-.63,.97-1.12,1.66-1.48,.69-.36,1.48-.61,2.36-.75,.88-.14,1.8-.23,2.74-.27l2.84-.11v-.46c0-1.44-.28-2.49-.84-3.16-.56-.66-1.56-1-3-1-.7,0-1.29,.06-1.78,.17-.48,.11-.89,.28-1.21,.5-.32,.22-.58,.47-.77,.77-.19,.29-.33,.62-.43,.98l-1.51-.23c.53-2.39,2.45-3.58,5.75-3.58,1.02,0,1.89,.12,2.59,.37,.7,.25,1.27,.6,1.69,1.07,.43,.47,.73,1.03,.92,1.71,.19,.67,.28,1.45,.28,2.32v9.64h-1.65v-2.08Z"></path><path class="cls-1" d="M344.68,107.63c0-.66-.04-1.24-.11-1.72-.08-.48-.19-.91-.34-1.28s-.36-.7-.61-.98c-.26-.28-.55-.56-.9-.83-.46-.34-.91-.59-1.35-.74-.45-.15-.95-.23-1.52-.23-.7,0-1.35,.12-1.93,.36-.59,.24-1.1,.61-1.52,1.12-.43,.51-.76,1.18-1.01,1.99-.25,.82-.37,1.81-.37,2.99s.14,2.2,.41,3c.28,.81,.63,1.45,1.07,1.93,.44,.48,.92,.83,1.47,1.02,.54,.2,1.09,.3,1.64,.3,.59,0,1.11-.07,1.58-.2,.46-.13,.94-.38,1.44-.74,.66-.49,1.18-1.12,1.54-1.88,.36-.76,.54-1.71,.54-2.84v-1.28Zm-.09,5.72c-.63,.82-1.34,1.46-2.15,1.93-.81,.47-1.79,.71-2.94,.71-1.08,0-2.01-.21-2.8-.63-.79-.42-1.44-.98-1.95-1.68-.51-.7-.89-1.51-1.14-2.43-.25-.92-.37-1.88-.37-2.89,0-2.5,.58-4.45,1.75-5.85,1.17-1.39,2.77-2.09,4.82-2.09,.8,0,1.61,.17,2.45,.51,.83,.34,1.61,.99,2.33,1.93v-7.65h1.65v20.31h-1.65v-2.19Z"></path><path class="cls-1" d="M358.7,107.74l-2.7,.11c-1.1,.04-2.02,.14-2.76,.3-.74,.16-1.34,.39-1.79,.68-.45,.29-.78,.65-.98,1.08-.2,.43-.3,.93-.3,1.52,0,.89,.25,1.61,.75,2.15,.5,.54,1.38,.81,2.63,.81,.63,0,1.25-.07,1.86-.21,.62-.14,1.12-.37,1.52-.7,.34-.25,.62-.48,.84-.71,.22-.23,.4-.48,.54-.75,.14-.27,.24-.58,.3-.92,.06-.34,.09-.74,.09-1.2v-2.16Zm.03,5.72c-.25,.3-.54,.6-.88,.9-.34,.29-.73,.55-1.17,.78-.44,.23-.92,.41-1.44,.54-.52,.13-1.1,.2-1.72,.2-1.54,0-2.77-.37-3.7-1.11-.93-.74-1.39-1.84-1.39-3.3,0-.99,.21-1.79,.63-2.42,.42-.63,.97-1.12,1.66-1.48,.69-.36,1.48-.61,2.36-.75,.88-.14,1.8-.23,2.74-.27l2.84-.11v-.46c0-1.44-.28-2.49-.84-3.16-.56-.66-1.56-1-3-1-.7,0-1.29,.06-1.78,.17-.48,.11-.89,.28-1.21,.5-.32,.22-.58,.47-.77,.77-.19,.29-.33,.62-.43,.98l-1.51-.23c.53-2.39,2.45-3.58,5.75-3.58,1.02,0,1.89,.12,2.59,.37,.7,.25,1.27,.6,1.69,1.07,.43,.47,.73,1.03,.92,1.71,.19,.67,.28,1.45,.28,2.32v9.64h-1.65v-2.08Z"></path><path class="cls-1" d="M364.22,111.47c.21,1.14,.69,1.94,1.45,2.42,.76,.47,1.84,.71,3.24,.71s2.43-.27,3.02-.8c.59-.53,.88-1.2,.88-1.99,0-.34-.04-.66-.11-.95-.08-.29-.22-.56-.44-.81-.22-.25-.53-.46-.94-.63-.41-.17-.93-.31-1.58-.43l-1.79-.28c-.78-.13-1.48-.29-2.09-.48-.62-.19-1.14-.44-1.56-.75-.43-.31-.75-.7-.97-1.17-.22-.46-.33-1.04-.33-1.72,0-.64,.14-1.23,.43-1.75,.28-.52,.67-.96,1.17-1.31,.49-.35,1.08-.62,1.75-.81,.67-.19,1.4-.28,2.18-.28,1.01,0,1.84,.1,2.52,.3,.67,.2,1.22,.47,1.65,.81,.43,.34,.76,.74,1,1.19,.24,.46,.42,.94,.55,1.45l-1.51,.31c-.15-.44-.33-.82-.53-1.15-.2-.33-.45-.61-.75-.83-.3-.22-.68-.38-1.14-.5-.45-.11-1.02-.17-1.71-.17-.76,0-1.39,.07-1.91,.21-.51,.14-.92,.34-1.24,.58-.31,.25-.54,.53-.67,.85-.13,.32-.2,.65-.2,1s.04,.65,.11,.92c.08,.28,.23,.52,.45,.73,.23,.21,.55,.39,.95,.54,.41,.15,.94,.28,1.61,.4l2.25,.37c1.54,.27,2.68,.73,3.44,1.38,.76,.65,1.14,1.65,1.14,3,0,.57-.12,1.11-.36,1.62-.24,.51-.59,.95-1.05,1.32-.46,.37-1.05,.66-1.75,.88-.7,.22-1.51,.33-2.42,.33s-1.71-.09-2.46-.26c-.75-.17-1.4-.44-1.95-.8-.55-.36-1-.83-1.34-1.39-.34-.57-.55-1.26-.63-2.08h1.62Z"></path><path class="cls-1" d="M393.89,107.2c0-.8-.08-1.53-.26-2.19-.17-.66-.44-1.24-.8-1.72-.36-.48-.83-.86-1.42-1.12-.59-.27-1.29-.4-2.11-.4-1.42,0-2.56,.45-3.41,1.34-.85,.89-1.37,2.26-1.54,4.1h9.53Zm1.45,4.49c-.23,1.27-.83,2.3-1.82,3.1-.99,.8-2.39,1.19-4.21,1.19-2.1,0-3.74-.68-4.91-2.03-1.17-1.36-1.75-3.22-1.75-5.59,0-1.29,.17-2.43,.5-3.41s.8-1.82,1.39-2.49c.6-.67,1.3-1.18,2.11-1.52,.81-.34,1.69-.51,2.66-.51,1.14,0,2.11,.18,2.9,.55,.8,.37,1.45,.87,1.95,1.51,.5,.64,.87,1.39,1.09,2.26,.23,.87,.34,1.81,.34,2.82v1.05h-11.27c0,.83,.1,1.62,.31,2.35,.21,.73,.52,1.37,.94,1.91,.42,.54,.94,.97,1.56,1.28,.63,.31,1.35,.47,2.16,.47,.74,0,1.37-.07,1.88-.21,.51-.14,.94-.35,1.28-.61,.34-.27,.61-.57,.81-.92,.2-.35,.36-.74,.47-1.18h1.59Z"></path><path class="cls-1" d="M398.11,100.89h1.65v2.39c.8-1,1.64-1.73,2.55-2.18,.9-.45,1.86-.67,2.89-.67,1.67,0,2.9,.46,3.7,1.39,.8,.93,1.19,2.25,1.19,3.95v9.76h-1.65v-9.3c0-1.54-.28-2.64-.83-3.31-.55-.67-1.42-1.01-2.62-1.01-.57,0-1.17,.11-1.81,.33-.64,.22-1.21,.56-1.72,1.04-.57,.49-1,1-1.28,1.52-.28,.52-.43,1.24-.43,2.15v8.59h-1.65v-14.65Z"></path></g><rect class="cls-1" x="419.21" y="95.23" width="1.65" height="20.31"></rect><path class="cls-1" d="M433.34,107.74l-2.7,.11c-1.1,.04-2.02,.14-2.76,.3-.74,.16-1.34,.39-1.79,.68-.45,.29-.78,.65-.98,1.08-.2,.43-.3,.93-.3,1.52,0,.89,.25,1.61,.75,2.15,.5,.54,1.38,.81,2.63,.81,.63,0,1.25-.07,1.86-.21,.62-.14,1.12-.37,1.52-.7,.34-.25,.62-.48,.84-.71s.4-.48,.54-.75c.14-.27,.24-.58,.3-.92,.06-.34,.09-.74,.09-1.2v-2.16Zm.03,5.72c-.25,.3-.54,.6-.88,.9-.34,.29-.73,.55-1.17,.78-.44,.23-.92,.41-1.44,.54-.52,.13-1.1,.2-1.72,.2-1.54,0-2.77-.37-3.7-1.11-.93-.74-1.39-1.84-1.39-3.3,0-.99,.21-1.79,.63-2.42,.42-.63,.97-1.12,1.66-1.48,.69-.36,1.48-.61,2.36-.75,.88-.14,1.8-.23,2.74-.27l2.84-.11v-.46c0-1.44-.28-2.49-.84-3.16-.56-.66-1.56-1-3-1-.7,0-1.29,.06-1.78,.17-.48,.11-.89,.28-1.21,.5-.32,.22-.58,.47-.77,.77-.19,.29-.33,.62-.43,.98l-1.51-.23c.53-2.39,2.45-3.58,5.75-3.58,1.02,0,1.89,.12,2.59,.37,.7,.25,1.27,.6,1.69,1.07,.43,.47,.73,1.03,.92,1.71,.19,.67,.28,1.45,.28,2.32v9.64h-1.65v-2.08Z"></path><polygon class="cls-1" points="444.46 95.23 446.37 95.23 457.75 112.81 457.75 95.23 459.43 95.23 459.43 115.54 457.55 115.54 446.14 97.9 446.14 115.54 444.46 115.54 444.46 95.23"></polygon><g><path class="cls-1" d="M472.17,107.74l-2.7,.11c-1.1,.04-2.02,.14-2.76,.3-.74,.16-1.34,.39-1.79,.68-.45,.29-.78,.65-.98,1.08-.2,.43-.3,.93-.3,1.52,0,.89,.25,1.61,.75,2.15,.5,.54,1.38,.81,2.63,.81,.63,0,1.25-.07,1.86-.21,.62-.14,1.12-.37,1.52-.7,.34-.25,.62-.48,.84-.71,.22-.23,.4-.48,.54-.75,.14-.27,.24-.58,.3-.92,.06-.34,.09-.74,.09-1.2v-2.16Zm.03,5.72c-.25,.3-.54,.6-.88,.9-.34,.29-.73,.55-1.17,.78-.44,.23-.92,.41-1.44,.54-.52,.13-1.1,.2-1.72,.2-1.54,0-2.77-.37-3.7-1.11-.93-.74-1.39-1.84-1.39-3.3,0-.99,.21-1.79,.63-2.42,.42-.63,.97-1.12,1.66-1.48,.69-.36,1.48-.61,2.36-.75,.88-.14,1.8-.23,2.74-.27l2.84-.11v-.46c0-1.44-.28-2.49-.84-3.16-.56-.66-1.56-1-3-1-.7,0-1.29,.06-1.78,.17-.48,.11-.89,.28-1.21,.5-.32,.22-.58,.47-.77,.77-.19,.29-.33,.62-.43,.98l-1.51-.23c.53-2.39,2.45-3.58,5.75-3.58,1.02,0,1.89,.12,2.59,.37,.7,.25,1.27,.6,1.69,1.07,.43,.47,.73,1.03,.92,1.71,.19,.67,.28,1.45,.28,2.32v9.64h-1.65v-2.08Z"></path><path class="cls-1" d="M477.43,102.25h-2.28v-1.37h2.28v-4.04h1.65v4.04h4.15v1.37h-4.15v9.59c0,.72,.15,1.33,.46,1.84,.3,.5,.83,.75,1.59,.75,.49,0,.91-.04,1.25-.11,.34-.08,.65-.16,.91-.26l.34,1.34c-.28,.11-.63,.22-1.04,.31-.41,.09-.94,.14-1.61,.14-.83,0-1.49-.14-1.96-.43-.47-.28-.83-.66-1.07-1.12-.24-.46-.38-1-.44-1.61-.06-.61-.09-1.24-.09-1.91v-8.53Z"></path><path class="cls-1" d="M484.95,100.89h1.65v9.3c0,1.54,.24,2.64,.73,3.31,.48,.67,1.31,1.01,2.49,1.01,.59,0,1.18-.11,1.76-.34,.59-.23,1.15-.57,1.68-1.02,.55-.49,.97-1,1.25-1.52,.28-.52,.43-1.24,.43-2.15v-8.59h1.65v14.65h-1.65v-2.39c-1.54,1.9-3.31,2.84-5.32,2.84-1.67,0-2.86-.46-3.58-1.37-.72-.91-1.08-2.24-1.08-3.98v-9.76Z"></path><path class="cls-1" d="M499.66,100.89h1.65v2.39c.59-.83,1.26-1.48,2.02-1.93,.76-.46,1.57-.68,2.42-.68,.21,0,.4,0,.58,.01,.18,0,.37,.03,.58,.07l-.2,1.56c-.34-.06-.65-.09-.94-.09-.49,0-1,.09-1.51,.27-.51,.18-1,.49-1.45,.92-.44,.38-.8,.84-1.08,1.38-.28,.54-.43,1.18-.43,1.92v8.82h-1.65v-14.65Z"></path><path class="cls-1" d="M517.57,107.74l-2.7,.11c-1.1,.04-2.02,.14-2.76,.3-.74,.16-1.34,.39-1.79,.68-.45,.29-.78,.65-.98,1.08-.2,.43-.3,.93-.3,1.52,0,.89,.25,1.61,.75,2.15,.5,.54,1.38,.81,2.63,.81,.63,0,1.25-.07,1.86-.21,.62-.14,1.12-.37,1.52-.7,.34-.25,.62-.48,.84-.71,.22-.23,.4-.48,.54-.75,.14-.27,.24-.58,.3-.92,.06-.34,.08-.74,.08-1.2v-2.16Zm.03,5.72c-.25,.3-.54,.6-.88,.9-.34,.29-.73,.55-1.17,.78-.44,.23-.92,.41-1.44,.54-.52,.13-1.09,.2-1.72,.2-1.54,0-2.77-.37-3.7-1.11-.93-.74-1.39-1.84-1.39-3.3,0-.99,.21-1.79,.63-2.42,.42-.63,.97-1.12,1.66-1.48,.69-.36,1.48-.61,2.36-.75,.88-.14,1.8-.23,2.75-.27l2.84-.11v-.46c0-1.44-.28-2.49-.84-3.16-.56-.66-1.56-1-3-1-.7,0-1.29,.06-1.78,.17-.48,.11-.89,.28-1.21,.5-.32,.22-.58,.47-.77,.77-.19,.29-.33,.62-.43,.98l-1.51-.23c.53-2.39,2.45-3.58,5.75-3.58,1.02,0,1.89,.12,2.59,.37,.7,.25,1.27,.6,1.69,1.07,.43,.47,.74,1.03,.92,1.71,.19,.67,.28,1.45,.28,2.32v9.64h-1.65v-2.08Z"></path></g><rect class="cls-1" x="522.32" y="95.23" width="1.65" height="20.31"></rect><path class="cls-1" d="M537.79,107.2c0-.8-.09-1.53-.26-2.19-.17-.66-.44-1.24-.8-1.72-.36-.48-.83-.86-1.42-1.12-.59-.27-1.29-.4-2.11-.4-1.42,0-2.56,.45-3.41,1.34-.85,.89-1.37,2.26-1.54,4.1h9.53Zm1.45,4.49c-.23,1.27-.83,2.3-1.82,3.1-.99,.8-2.39,1.19-4.21,1.19-2.1,0-3.74-.68-4.91-2.03-1.17-1.36-1.75-3.22-1.75-5.59,0-1.29,.17-2.43,.5-3.41,.33-.99,.8-1.82,1.39-2.49,.6-.67,1.3-1.18,2.11-1.52,.81-.34,1.69-.51,2.66-.51,1.14,0,2.11,.18,2.9,.55,.8,.37,1.45,.87,1.95,1.51,.5,.64,.87,1.39,1.09,2.26,.23,.87,.34,1.81,.34,2.82v1.05h-11.27c0,.83,.1,1.62,.31,2.35,.21,.73,.52,1.37,.94,1.91,.42,.54,.94,.97,1.56,1.28,.63,.31,1.35,.47,2.16,.47,.74,0,1.37-.07,1.88-.21,.51-.14,.94-.35,1.28-.61,.34-.27,.61-.57,.81-.92,.2-.35,.36-.74,.47-1.18h1.59Z"></path><polygon class="cls-1" points="540.44 114.14 549.74 102.28 540.64 102.28 540.64 100.89 551.7 100.89 551.7 102.28 542.4 114.14 552.19 114.14 551.9 115.54 540.44 115.54 540.44 114.14"></polygon><g><path class="cls-1" d="M563.29,107.74l-2.7,.11c-1.1,.04-2.02,.14-2.76,.3-.74,.16-1.34,.39-1.79,.68-.45,.29-.78,.65-.98,1.08-.2,.43-.3,.93-.3,1.52,0,.89,.25,1.61,.75,2.15,.5,.54,1.38,.81,2.63,.81,.63,0,1.25-.07,1.86-.21,.62-.14,1.12-.37,1.52-.7,.34-.25,.62-.48,.84-.71,.22-.23,.4-.48,.54-.75,.14-.27,.24-.58,.3-.92,.06-.34,.09-.74,.09-1.2v-2.16Zm.03,5.72c-.25,.3-.54,.6-.88,.9-.34,.29-.73,.55-1.17,.78-.44,.23-.92,.41-1.44,.54-.52,.13-1.1,.2-1.72,.2-1.54,0-2.77-.37-3.7-1.11-.93-.74-1.39-1.84-1.39-3.3,0-.99,.21-1.79,.63-2.42,.42-.63,.97-1.12,1.66-1.48,.69-.36,1.48-.61,2.36-.75,.88-.14,1.8-.23,2.74-.27l2.84-.11v-.46c0-1.44-.28-2.49-.84-3.16-.56-.66-1.56-1-3-1-.7,0-1.29,.06-1.78,.17-.48,.11-.89,.28-1.21,.5-.32,.22-.58,.47-.77,.77-.19,.29-.33,.62-.43,.98l-1.51-.23c.53-2.39,2.45-3.58,5.75-3.58,1.02,0,1.89,.12,2.59,.37,.7,.25,1.27,.6,1.69,1.07,.43,.47,.73,1.03,.92,1.71,.19,.67,.28,1.45,.28,2.32v9.64h-1.65v-2.08Z"></path><path class="cls-1" d="M26.37,48.21C26.37,57.99,0,58.01,0,58.01V30.91c.5,1.07,1.6,1.81,2.86,1.81,.16,0,.32-.01,.48-.04,.56,.89,1.55,1.49,2.68,1.49,.55,0,1.07-.14,1.51-.39,.82,.57,1.82,.9,2.9,.9,1.76,0,3.31-.89,4.23-2.23,3.77,1.52,11.7,5.9,11.7,15.76"></path><path class="cls-1" d="M29.01,0c-3.59,0-6.63,2.36-7.65,5.61-.57-.18-1.19-.28-1.82-.28-3.36,0-6.09,2.73-6.09,6.09,0,.56,.08,1.1,.22,1.62-.74-.42-1.6-.66-2.52-.66-2.83,0-5.13,2.3-5.13,5.13,0,1.08,.33,2.08,.9,2.91-.29-.07-.59-.1-.9-.1-2.27,0-4.11,1.84-4.11,4.11,0,.72,.19,1.41,.52,2-1.08,.14-1.98,.83-2.43,1.78V0H29.01Z"></path><path class="cls-1" d="M58.01,.18V25.84c0-1.37-.88-2.54-2.1-2.96,.02-.2,.03-.39,.03-.59,0-3.16-1.84-5.89-4.51-7.18h0c.04-.26,.06-.52,.06-.78,0-2.82-2.28-5.1-5.1-5.1-.54,0-1.06,.09-1.55,.24-.29-3.07-2.87-5.47-6.02-5.47-.9,0-1.74,.2-2.51,.54C35,1.95,32.31,.18,29.21,.18h28.8Z"></path><path class="cls-1" d="M58.01,25.84V58.01s-26.15-.02-26.15-9.8c0-8.34,5.68-12.76,9.71-14.84,1.12,1.39,2.83,2.28,4.75,2.28,2.78,0,5.12-1.86,5.85-4.41,.25,.14,.54,.22,.84,.22,.97,0,1.75-.78,1.75-1.75,0-.26-.06-.5-.16-.72,.09,0,.17,.01,.25,.01,1.75,0,3.17-1.42,3.17-3.16"></path><path class="cls-1" d="M38,31.96c-2.92,1.93-5.78,4.72-7.5,8.49v-11.04c.91,.85,2.14,1.36,3.48,1.36,1.02,0,1.97-.3,2.77-.81-.02,.1-.03,.21-.03,.31,0,.8,.54,1.47,1.28,1.68"></path><path class="cls-1" d="M27.51,34.2v5.8c-2.26-4.61-6.22-7.69-9.79-9.49,.62-.57,1.01-1.39,1.01-2.31,0-.29-.04-.57-.12-.83,2.37,.98,6.29,3.05,8.9,6.83"></path><path class="cls-1" d="M27.51,24.1v5.52c-2.09-2.06-4.49-3.57-6.67-4.58,.05,0,.1,0,.15,0,1.71,0,3.17-1.04,3.79-2.52,.55,.94,1.56,1.57,2.73,1.57"></path></g></g></g></svg>