<svg xmlns="http://www.w3.org/2000/svg" id="Layer_2" data-name="Layer 2" viewBox="0 0 63.93 63.93"><defs><style>      .cls-1 {        fill: #fff;        stroke-width: 0px;      }    </style></defs><g id="Capa_1" data-name="Capa 1"><g><path class="cls-1" d="M0,0v25.04C0,11.39,11.06.33,24.71.33s24.71,11.06,24.71,24.71c0,5.37-1.72,10.33-4.63,14.38l17.53,17.53c1.57,1.57,1.57,4.13,0,5.7-1.57,1.57-4.13,1.57-5.7,0l-17.53-17.53c-4.05,2.91-9.02,4.62-14.38,4.62C11.06,49.75,0,38.69,0,25.04v38.89h63.93V0H0Z"></path><path class="cls-1" d="M24.7,16.5s0,0,.01,0,0,0,.01,0c10.32,0,18.69,8.54,18.69,8.54h0c0-10.33-8.37-18.7-18.7-18.7S6.01,14.71,6.01,25.04h0s8.37-8.54,18.69-8.54Z"></path><path class="cls-1" d="M24.71,33.58c-10.33,0-18.7-8.54-18.7-8.54h0c0,10.33,8.37,18.7,18.7,18.7s18.7-8.37,18.7-18.7h0s-8.37,8.54-18.7,8.54Z"></path><rect class="cls-1" x="43.41" y="25.04" width="0" height="0"></rect><path class="cls-1" d="M16.17,25.04c0,4.72,3.82,8.54,8.54,8.54s8.54-3.82,8.54-8.54-3.82-8.54-8.53-8.54c0,0,0,0-.01,0,0,0,0,0-.01,0-4.71,0-8.53,3.83-8.53,8.54ZM24.71,22.04c1.68,0,3.04,1.36,3.04,3.04s-1.36,3.04-3.04,3.04-3.04-1.36-3.04-3.04,1.36-3.04,3.04-3.04Z"></path><polygon class="cls-1" points="24.72 16.5 24.71 16.5 24.7 16.5 24.71 16.5 24.72 16.5"></polygon></g></g></svg>