<svg xmlns="http://www.w3.org/2000/svg" id="Layer_2" data-name="Layer 2" viewBox="0 0 79 79"><defs><style>      .cls-1 {        fill: #f9ccca;      }    </style></defs><g id="Capa_1" data-name="Capa 1"><g><path class="cls-1" d="M35.91,65.65c0,13.33-35.91,13.35-35.91,13.35V42.1c.69,1.46,2.17,2.46,3.89,2.46,.22,0,.44-.02,.65-.05,.76,1.22,2.12,2.03,3.65,2.03,.75,0,1.45-.19,2.06-.52,1.12,.78,2.48,1.22,3.94,1.22,2.4,0,4.5-1.21,5.76-3.04,5.13,2.07,15.94,8.04,15.94,21.46"></path><path class="cls-1" d="M39.5,0c-4.89,0-9.03,3.21-10.41,7.64-.78-.24-1.61-.38-2.48-.38-4.58,0-8.29,3.71-8.29,8.29,0,.76,.1,1.5,.3,2.21-1.01-.58-2.19-.9-3.43-.9-3.86,0-6.99,3.13-6.99,6.99,0,1.47,.45,2.83,1.22,3.96-.4-.09-.8-.14-1.22-.14-3.09,0-5.6,2.51-5.6,5.6,0,.98,.26,1.92,.7,2.72C1.84,36.18,.61,37.11,0,38.4V0H39.5Z"></path><path class="cls-1" d="M79,.24V35.19c0-1.87-1.19-3.46-2.86-4.03,.02-.27,.03-.53,.03-.8,0-4.31-2.51-8.03-6.14-9.77h0c.05-.35,.08-.71,.08-1.06,0-3.84-3.11-6.94-6.94-6.94-.74,0-1.45,.12-2.12,.33-.39-4.18-3.91-7.45-8.2-7.45-1.22,0-2.37,.27-3.41,.74C47.66,2.66,44,.24,39.77,.24h39.23Z"></path><path class="cls-1" d="M79,35.19v43.81s-35.62-.02-35.62-13.35c0-11.36,7.73-17.37,13.22-20.21,1.52,1.89,3.85,3.1,6.46,3.1,3.79,0,6.98-2.53,7.97-6,.34,.19,.73,.3,1.14,.3,1.32,0,2.38-1.07,2.38-2.38,0-.35-.08-.68-.22-.98,.12,.01,.23,.02,.34,.02,2.38,0,4.31-1.93,4.31-4.31"></path><path class="cls-1" d="M51.75,43.52c-3.97,2.62-7.87,6.42-10.21,11.56v-15.03c1.24,1.15,2.91,1.86,4.74,1.86,1.39,0,2.68-.4,3.77-1.1-.03,.13-.04,.28-.04,.43,0,1.09,.73,2,1.74,2.29"></path><path class="cls-1" d="M37.46,46.58v7.9c-3.07-6.28-8.47-10.48-13.33-12.92,.85-.78,1.37-1.89,1.37-3.14,0-.4-.05-.77-.16-1.14,3.23,1.33,8.56,4.15,12.11,9.3"></path><path class="cls-1" d="M37.46,32.82v7.52c-2.85-2.81-6.11-4.86-9.08-6.24,.07,0,.14,0,.21,0,2.32,0,4.31-1.41,5.16-3.43,.75,1.28,2.13,2.14,3.71,2.14"></path></g></g></svg>