<svg xmlns="http://www.w3.org/2000/svg" id="Layer_2" data-name="Layer 2" viewBox="0 0 182.05 182.05"><defs><style>      .cls-1 {        fill: #ff801e;      }    </style></defs><g id="Capa_1" data-name="Capa 1"><g><polygon class="cls-1" points="23.79 135.87 0 170.16 0 161.53 23.79 135.87"></polygon><polygon class="cls-1" points="40.12 132.52 14.84 182.05 6.61 182.05 40.12 132.52"></polygon><path class="cls-1" d="M135.88,69.48c-2.5,0-4.53-2.02-4.53-4.53s2.02-4.53,4.53-4.53,4.51,2.04,4.51,4.53-2.02,4.53-4.51,4.53"></path><polygon class="cls-1" points="47.83 72.06 8.88 0 16.46 0 47.83 72.06"></polygon><polygon class="cls-1" points="44.1 93.52 62.23 93.52 0 144.92 0 31.64 44.1 93.52"></polygon><polygon class="cls-1" points="52.33 0 67.33 46.75 46.71 0 52.33 0"></polygon><path class="cls-1" d="M182.05,0V68.6l-29.76-5.78s-9.34-11.85-21.66-13.1c-14.03-1.43-28.08,10.48-28.08,10.48l-14.36,11.86L66.39,0h115.67Z"></path><path class="cls-1" d="M148.02,73.05l34.03-.65v109.65H55.92l2.62-37.85c40.7,0,89.48-71.15,89.48-71.15"></path><path class="cls-1" d="M140.4,64.96c0,2.5-2.02,4.53-4.51,4.53s-4.53-2.02-4.53-4.53,2.02-4.53,4.53-4.53,4.51,2.04,4.51,4.53"></path></g></g></svg>