<svg xmlns="http://www.w3.org/2000/svg" id="Layer_2" data-name="Layer 2" viewBox="0 0 402.96 108.71"><defs><style>      .cls-1 {        fill: #eee;      }    </style></defs><g id="Capa_1" data-name="Capa 1"><path class="cls-1" d="M80.34,52.75c8.96,0,13.6-4.54,17.32-8.19,3.08-3.02,5.11-5.01,9.61-5.01s6.54,1.99,9.61,5.01c3.72,3.65,8.35,8.19,17.32,8.19s13.6-4.54,17.32-8.19c3.07-3.01,5.1-5,9.59-5.01v16.33c-8.95,0-13.58,4.54-17.3,8.19-3.08,3.02-5.11,5.01-9.61,5.01s-6.54-1.99-9.61-5.01c-3.72-3.65-8.35-8.19-17.32-8.19s-13.6,4.54-17.32,8.19c-3.08,3.02-5.11,5.01-9.61,5.01l-.02.03v-16.39l.02.02Z"></path><path class="cls-1" d="M134.2,97.06c-4.5,0-6.54-1.99-9.61-5.01-3.72-3.65-8.35-8.19-17.32-8.19s-13.59,4.54-17.32,8.19c-3.08,3.02-5.11,5.01-9.61,5.01l-.02.02v-16.37h.02c8.96,0,13.6-4.53,17.32-8.18,3.08-3.01,5.11-5.01,9.61-5.01s6.54,1.99,9.61,5.01c3.72,3.65,8.35,8.19,17.32,8.19s13.6-4.54,17.32-8.19c3.07-3.01,5.1-5,9.59-5.01v16.34c-8.95,0-13.58,4.54-17.3,8.18-3.08,3.02-5.11,5.01-9.61,5.01"></path><path class="cls-1" d="M161.11,95.51v13.19h-26.91c8.96,0,13.6-4.54,17.32-8.19,3.07-3.01,5.1-5,9.59-5.01"></path><path class="cls-1" d="M107.27,95.51c4.5,0,6.54,1.99,9.61,5.01,3.72,3.65,8.35,8.19,17.32,8.19h-53.86c8.96,0,13.6-4.54,17.32-8.19,3.08-3.02,5.11-5.01,9.61-5.01"></path><path class="cls-1" d="M80.77,52.75c-8.96,0-13.6-4.54-17.32-8.19-3.08-3.02-5.11-5.01-9.61-5.01s-6.53,1.99-9.61,5.01c-3.72,3.65-8.35,8.19-17.32,8.19s-13.6-4.54-17.32-8.19C6.52,41.56,4.49,39.57,0,39.56v16.33c8.95,0,13.58,4.54,17.3,8.19,3.08,3.02,5.11,5.01,9.61,5.01s6.53-1.99,9.61-5.01c3.72-3.65,8.35-8.19,17.32-8.19s13.6,4.54,17.32,8.19c3.08,3.02,5.11,5.01,9.61,5.01l.02.03v-16.39l-.02.02Z"></path><path class="cls-1" d="M26.91,97.06c4.5,0,6.53-1.99,9.61-5.01,3.72-3.65,8.35-8.19,17.32-8.19s13.59,4.54,17.32,8.19c3.08,3.02,5.11,5.01,9.61,5.01l.02.02v-16.37h-.02c-8.96,0-13.6-4.53-17.32-8.18-3.08-3.01-5.11-5.01-9.61-5.01s-6.54,1.99-9.61,5.01c-3.72,3.65-8.35,8.19-17.32,8.19s-13.6-4.54-17.32-8.19c-3.07-3.01-5.11-5-9.59-5.01v16.34c8.95,0,13.58,4.54,17.3,8.18,3.08,3.02,5.11,5.01,9.61,5.01"></path><path class="cls-1" d="M0,95.51v13.19h26.91c-8.96,0-13.59-4.54-17.32-8.19C6.52,97.51,4.49,95.52,0,95.51"></path><path class="cls-1" d="M53.84,95.51c-4.5,0-6.53,1.99-9.61,5.01-3.72,3.65-8.35,8.19-17.32,8.19h53.86c-8.96,0-13.6-4.54-17.32-8.19-3.08-3.02-5.11-5.01-9.61-5.01"></path><path class="cls-1" d="M241.42,52.75c8.96,0,13.6-4.54,17.32-8.19,3.08-3.02,5.11-5.01,9.61-5.01s6.54,1.99,9.61,5.01c3.72,3.65,8.35,8.19,17.32,8.19s13.6-4.54,17.32-8.19c3.07-3.01,5.11-5,9.59-5.01v16.33c-8.95,0-13.58,4.54-17.3,8.19-3.08,3.02-5.11,5.01-9.61,5.01s-6.54-1.99-9.61-5.01c-3.72-3.65-8.35-8.19-17.32-8.19s-13.59,4.54-17.32,8.19c-3.08,3.02-5.11,5.01-9.61,5.01l-.02.03v-16.39l.02.02Z"></path><path class="cls-1" d="M295.28,97.06c-4.5,0-6.54-1.99-9.61-5.01-3.72-3.65-8.35-8.19-17.32-8.19s-13.59,4.54-17.32,8.19c-3.08,3.02-5.11,5.01-9.61,5.01l-.02.02v-16.37h.02c8.96,0,13.6-4.53,17.32-8.18,3.08-3.01,5.11-5.01,9.61-5.01s6.54,1.99,9.61,5.01c3.72,3.65,8.35,8.19,17.32,8.19s13.6-4.54,17.32-8.19c3.07-3.01,5.11-5,9.59-5.01v16.34c-8.95,0-13.58,4.54-17.3,8.18-3.08,3.02-5.11,5.01-9.61,5.01"></path><path class="cls-1" d="M322.19,95.51v13.19h-26.91c8.96,0,13.6-4.54,17.32-8.19,3.07-3.01,5.1-5,9.59-5.01"></path><path class="cls-1" d="M268.35,95.51c4.5,0,6.54,1.99,9.61,5.01,3.72,3.65,8.35,8.19,17.32,8.19h-53.86c8.96,0,13.59-4.54,17.32-8.19,3.08-3.02,5.11-5.01,9.61-5.01"></path><path class="cls-1" d="M241.85,52.75c-8.96,0-13.6-4.54-17.32-8.19-3.08-3.02-5.11-5.01-9.61-5.01s-6.54,1.99-9.61,5.01c-3.72,3.65-8.35,8.19-17.32,8.19s-13.6-4.54-17.32-8.19c-3.07-3.01-5.11-5-9.59-5.01v16.33c8.95,0,13.58,4.54,17.3,8.19,3.08,3.02,5.11,5.01,9.61,5.01s6.54-1.99,9.61-5.01c3.72-3.65,8.36-8.19,17.32-8.19s13.59,4.54,17.32,8.19c3.08,3.02,5.11,5.01,9.61,5.01l.02.03v-16.39l-.02.02Z"></path><path class="cls-1" d="M188,97.06c4.5,0,6.54-1.99,9.61-5.01,3.72-3.65,8.35-8.19,17.32-8.19s13.59,4.54,17.32,8.19c3.08,3.02,5.11,5.01,9.61,5.01l.02.02v-16.37h-.02c-8.96,0-13.6-4.53-17.32-8.18-3.08-3.01-5.11-5.01-9.61-5.01s-6.54,1.99-9.61,5.01c-3.72,3.65-8.35,8.19-17.32,8.19s-13.6-4.54-17.32-8.19c-3.07-3.01-5.1-5-9.59-5.01v16.34c8.95,0,13.58,4.54,17.3,8.18,3.08,3.02,5.11,5.01,9.61,5.01"></path><path class="cls-1" d="M161.09,95.51v13.19h26.91c-8.96,0-13.6-4.54-17.32-8.19-3.07-3.01-5.1-5-9.59-5.01"></path><path class="cls-1" d="M214.92,95.51c-4.5,0-6.54,1.99-9.61,5.01-3.72,3.65-8.35,8.19-17.32,8.19h53.86c-8.96,0-13.6-4.54-17.32-8.19-3.08-3.02-5.11-5.01-9.61-5.01"></path><path class="cls-1" d="M402.94,52.75c-8.96,0-13.6-4.54-17.32-8.19-3.08-3.02-5.11-5.01-9.61-5.01s-6.54,1.99-9.61,5.01c-3.72,3.65-8.35,8.19-17.32,8.19s-13.6-4.54-17.32-8.19c-3.07-3.01-5.11-5-9.59-5.01v16.33c8.95,0,13.58,4.54,17.3,8.19,3.08,3.02,5.11,5.01,9.61,5.01s6.54-1.99,9.61-5.01c3.72-3.65,8.36-8.19,17.32-8.19s13.6,4.54,17.32,8.19c3.08,3.02,5.11,5.01,9.61,5.01l.02.03v-16.39l-.02.02Z"></path><path class="cls-1" d="M349.08,97.06c4.5,0,6.54-1.99,9.61-5.01,3.72-3.65,8.36-8.19,17.32-8.19s13.59,4.54,17.32,8.19c3.08,3.02,5.11,5.01,9.61,5.01l.02.02v-16.37h-.02c-8.96,0-13.6-4.53-17.32-8.18-3.08-3.01-5.11-5.01-9.61-5.01s-6.54,1.99-9.61,5.01c-3.72,3.65-8.35,8.19-17.32,8.19s-13.6-4.54-17.32-8.19c-3.07-3.01-5.11-5-9.59-5.01v16.34c8.95,0,13.58,4.54,17.3,8.18,3.08,3.02,5.11,5.01,9.61,5.01"></path><path class="cls-1" d="M322.17,95.51v13.19h26.91c-8.96,0-13.6-4.54-17.32-8.19-3.07-3.01-5.1-5-9.59-5.01"></path><path class="cls-1" d="M376.01,95.51c-4.5,0-6.54,1.99-9.61,5.01-3.72,3.65-8.35,8.19-17.32,8.19h53.86c-8.96,0-13.6-4.54-17.32-8.19-3.08-3.02-5.11-5.01-9.61-5.01"></path><path class="cls-1" d="M216.06,40.18v-5.31c3.94.39,19.08.78,19.08-16.58,0,0-15.14-2.05-19.08,10.04v-11.66c3.94.39,19.08.78,19.08-16.58,0,0-.41-.06-1.12-.1h-2.73c-5.78.3-16.03,2.74-16.15,16.29h0c-.13-13.55-10.38-15.99-16.15-16.29h-2.73c-.71.04-1.12.1-1.12.1,0,17.35,15.14,16.97,19.08,16.58v11.66c-3.94-12.08-19.08-10.04-19.08-10.04,0,17.35,15.14,16.97,19.08,16.58v5.31"></path><path class="cls-1" d="M161.19,40.18v-4.15c3.08.31,14.9.61,14.9-12.95,0,0-11.83-1.6-14.9,7.84v-9.11c3.08.31,14.9.61,14.9-12.95,0,0-.32-.04-.88-.08h-2.13c-4.51.23-12.52,2.14-12.62,12.72h0c-.1-10.58-8.11-12.49-12.62-12.72h-2.13c-.55.03-.88.08-.88.08,0,13.55,11.82,13.25,14.9,12.95v9.11c-3.08-9.44-14.9-7.84-14.9-7.84,0,13.55,11.82,13.25,14.9,12.95v4.15"></path><path class="cls-1" d="M268.95,40.18v-3.48c2.58.26,12.52.51,12.52-10.87,0,0-9.93-1.34-12.52,6.58v-7.65c2.58.26,12.52.51,12.52-10.87,0,0-.27-.04-.74-.06h-1.79c-3.79.2-10.51,1.8-10.6,10.69h0c-.09-8.89-6.81-10.49-10.6-10.69h-1.79c-.47.03-.74.06-.74.06,0,11.38,9.93,11.13,12.51,10.87v7.65c-2.58-7.93-12.51-6.58-12.51-6.58,0,11.38,9.93,11.13,12.51,10.87v3.48"></path></g></svg>