<svg xmlns="http://www.w3.org/2000/svg" id="Layer_2" data-name="Layer 2" viewBox="0 0 1094.26 908.21"><defs><style>      .cls-1 {        fill: #fff;      }      .cls-2 {        fill: #7d9780;      }      .cls-3 {        fill: #8ec08f;      }      .cls-4 {        fill: #b4d2b4;      }      .cls-5 {        fill: #6da86f;      }      .cls-6, .cls-7 {        fill: #a1bba9;      }      .cls-8 {        fill: #86bd88;      }      .cls-9, .cls-10 {        fill: #49805c;      }      .cls-11 {        fill: #377e4c;      }      .cls-10, .cls-7, .cls-12 {        opacity: .66;      }      .cls-12 {        fill: #aecfaf;      }    </style></defs><g id="Capa_1" data-name="Capa 1"><rect class="cls-1" x="547.92" y="724.26" width="182.05" height="182.05"></rect><rect class="cls-1" x="181.32" y="361.8" width="729.33" height="365"></rect><path class="cls-9" d="M364.1,726.16v-91.03c21.95,0,39.74,17.75,39.74,39.77,0,4.88-.87,9.55-2.47,13.87,4.3-1.61,8.96-2.48,13.83-2.48,21.95,0,39.92,17.84,39.92,39.86h-91.02Z"></path><path class="cls-9" d="M455.12,726.16v-91.03c21.95,0,39.74,17.75,39.74,39.77,0,4.88-.87,9.55-2.47,13.87,4.3-1.61,8.96-2.48,13.83-2.48,21.95,0,39.92,17.84,39.92,39.86h-91.02Z"></path><path class="cls-9" d="M364.1,635.13v-91.03c21.95,0,39.74,17.75,39.74,39.77,0,4.88-.87,9.55-2.47,13.87,4.3-1.61,8.96-2.48,13.83-2.48,21.95,0,39.92,17.84,39.92,39.86h-91.02Z"></path><path class="cls-9" d="M455.12,635.13v-91.03c21.95,0,39.74,17.75,39.74,39.77,0,4.88-.87,9.55-2.47,13.87,4.3-1.61,8.96-2.48,13.83-2.48,21.95,0,39.92,17.84,39.92,39.86h-91.02Z"></path><path class="cls-4" d="M455.13,491.06c-45.53,0-68.27-37.95-68.27-37.95,0,0,22.74-37.95,68.27-37.95,51.22,0,68.27,37.95,68.27,37.95,0,0-17.05,37.95-68.27,37.95m-91.03,53.04h182.05v-182.05h-182.05v182.05Z"></path><path class="cls-4" d="M454.63,467.29c-8.16,0-14.78-6.35-14.78-14.18s6.62-14.18,14.78-14.18,14.78,6.35,14.78,14.18-6.62,14.18-14.78,14.18m0-42.91c-16.55,0-29.96,12.86-29.96,28.71s13.41,28.71,29.96,28.71,29.96-12.86,29.96-28.71-13.41-28.71-29.96-28.71"></path><polygon class="cls-8" points="281.89 544.1 182.05 544.1 182.05 622.93 281.89 544.1"></polygon><g><path class="cls-8" d="M316.36,618.7c0-4.24-3.43-7.67-7.66-7.67s-7.68,3.42-7.68,7.67,3.43,7.67,7.68,7.67,7.66-3.44,7.66-7.67"></path><path class="cls-8" d="M293.79,544.1c.16,.3,3.44,6.48-2.81,18.71l7.03,21.96s-7.79-4.26-15.26-1.92l1.01,4.54s-10.06,.58-16.95,9.88l6.05,1.01s-8.37,5.76-8.37,17.95l6.05-1.42s-.51,11.52,9.4,18.35l.81-4.83s1.09,3.52,6.26,6.25c0,0-19.08-33.57,18.58-33.57,0,0,21.97,30.29,46.65,38.6,0,0,9.56,2.13,4.33,14.23-2.67,6.18-4.52,4.78-9.48,13.66-4.66,8.31-7.6,12.95-16.35,18.24-10.52,6.34-52.07,6.88-63.74,40.43h97.12v-182.05h-70.31Z"></path><path class="cls-11" d="M364.1,362.05v80.62c0-4.31-2.75-7.97-6.59-9.3,.05-.61,.08-1.23,.08-1.86,0-9.93-5.78-18.52-14.16-22.55h0c.12-.81,.19-1.63,.19-2.46,0-8.85-7.17-16.01-16-16.01-1.71,0-3.34,.27-4.88,.76-.91-9.64-9.02-17.19-18.91-17.19-2.82,0-5.47,.61-7.87,1.71-4.11-8.14-12.56-13.72-22.3-13.72h90.44Z"></path><path class="cls-11" d="M264.76,513.24c0,30.81-82.71,30.86-82.71,30.86v-85.31c1.58,3.37,5.01,5.7,8.97,5.7,.51,0,1.01-.04,1.5-.12,1.76,2.81,4.87,4.69,8.42,4.69,1.73,0,3.34-.44,4.75-1.21,2.58,1.79,5.72,2.83,9.09,2.83,5.52,0,10.37-2.79,13.27-7.03,11.82,4.8,36.71,18.58,36.71,49.6"></path><path class="cls-11" d="M273.22,362.05c-11.26,0-20.79,7.42-23.99,17.66-1.8-.57-3.72-.88-5.7-.88-10.55,0-19.1,8.58-19.1,19.17,0,1.77,.24,3.48,.69,5.11-2.34-1.33-5.03-2.09-7.91-2.09-8.89,0-16.09,7.23-16.09,16.15,0,3.39,1.05,6.55,2.82,9.15-.91-.22-1.85-.32-2.82-.32-7.13,0-12.9,5.79-12.9,12.94,0,2.28,.59,4.43,1.62,6.29-3.38,.44-6.21,2.61-7.61,5.59v-88.77h90.99Z"></path><path class="cls-11" d="M364.1,442.84v101.27s-82.13-.05-82.13-30.86c0-26.25,17.81-40.15,30.45-46.71,3.5,4.38,8.87,7.17,14.88,7.17,8.72,0,16.07-5.86,18.35-13.87,.78,.44,1.68,.69,2.63,.69,3.03,0,5.49-2.47,5.49-5.5,0-.81-.17-1.58-.5-2.26,.27,.03,.52,.04,.79,.04,5.49,0,10.02-4.46,10.02-9.95"></path><path class="cls-11" d="M301.25,462.1c-9.15,6.06-18.12,14.84-23.52,26.72v-34.75c2.86,2.67,6.71,4.3,10.93,4.3,3.19,0,6.17-.93,8.68-2.55-.07,.31-.09,.65-.09,.98,0,2.52,1.69,4.63,4,5.29"></path><path class="cls-11" d="M268.34,469.16v18.26c-7.07-14.51-19.5-24.22-30.7-29.88,1.95-1.79,3.15-4.38,3.15-7.26,0-.92-.12-1.79-.36-2.63,7.45,3.08,19.72,9.59,27.9,21.5"></path><path class="cls-11" d="M268.34,437.36v17.39c-6.56-6.49-14.08-11.23-20.92-14.43,.16,.01,.32,.01,.48,.01,5.36,0,9.93-3.26,11.89-7.92,1.72,2.95,4.9,4.94,8.55,4.94"></path></g><polygon class="cls-5" points="182.05 180 182.05 199.18 19.19 362.05 0 362.05 182.05 180"></polygon><polygon class="cls-5" points="182.05 206.33 182.05 221.94 41.94 362.05 26.33 362.05 182.05 206.33"></polygon><polygon class="cls-5" points="182.05 229.09 182.05 244.7 64.7 362.05 49.09 362.05 182.05 229.09"></polygon><polygon class="cls-5" points="182.05 251.84 182.05 267.45 87.46 362.05 71.85 362.05 182.05 251.84"></polygon><polygon class="cls-5" points="182.05 274.6 182.05 290.21 110.21 362.05 94.6 362.05 182.05 274.6"></polygon><polygon class="cls-5" points="182.05 297.36 182.05 312.97 132.97 362.05 117.36 362.05 182.05 297.36"></polygon><polygon class="cls-5" points="182.05 320.11 182.05 335.72 155.72 362.05 140.11 362.05 182.05 320.11"></polygon><polygon class="cls-5" points="182.05 342.87 182.05 362.05 162.87 362.05 182.05 342.87"></polygon><g><path class="cls-5" d="M38.61,288.92l-17.25-17.25-9.84,9.84s3.62,1.6,7.53-2.31c2.5-2.5,2.65-4,2.65-4l16.91,13.71Z"></path><path class="cls-5" d="M38.61,288.92l-1.92-24.32-13.88,1.1s1.71,3.56,7.23,3.13c3.52-.28,4.61-1.32,4.61-1.32l3.96,21.41Z"></path><path class="cls-5" d="M45.45,299.74l-6.64,6.64-1.35-9.44h0c-.15-1.37,.29-2.8,1.34-3.85,1.84-1.84,4.81-1.84,6.65,0,1.84,1.84,1.84,4.81,0,6.65m5.55-12.2c-5.18-5.18-13.58-5.18-18.77,0-2.97,2.97-4.23,7-3.79,10.88h0s3.82,26.63,3.82,26.63l18.74-18.74c5.18-5.18,5.18-13.58,0-18.77"></path><path class="cls-5" d="M97.85,259.36c-10.36-10.36-27.16-10.36-37.52,0-10.36,10.36-10.36,27.16,0,37.52"></path><path class="cls-5" d="M120.33,236.89c-8.59-8.59-22.51-8.59-31.09,0-8.59,8.59-8.59,22.51,0,31.09"></path><path class="cls-5" d="M85.39,277c-.28,0-.57-.1-.81-.29l-29.96-24.87,4.54,17.43c.18,.68-.23,1.37-.9,1.54-.68,.18-1.37-.23-1.54-.9l-5.53-21.23c-.14-.53,.08-1.09,.54-1.39,.46-.3,1.06-.26,1.49,.09l32.98,27.37c.54,.45,.61,1.24,.17,1.78-.25,.3-.61,.46-.97,.46"></path><path class="cls-5" d="M67.55,294.84c-.39,0-.78-.18-1.03-.52l-23.45-32.42c-.32-.45-.32-1.06,.01-1.5,.33-.44,.92-.62,1.44-.43l15.37,5.5c.66,.24,1,.96,.76,1.62-.24,.66-.96,1-1.62,.76l-11.53-4.12,21.06,29.12c.41,.57,.28,1.36-.28,1.77-.22,.16-.48,.24-.74,.24"></path><path class="cls-5" d="M88.3,249.18c-.46,0-.91-.25-1.13-.69l-14.53-28.66c-.26-.51-.14-1.13,.28-1.51,.43-.38,1.06-.43,1.54-.11l41.11,26.98c.58,.38,.75,1.17,.36,1.75-.38,.58-1.17,.75-1.75,.36l-37.15-24.38,12.38,24.43c.32,.62,.07,1.38-.56,1.7-.18,.09-.38,.14-.57,.14"></path><path class="cls-5" d="M92.01,270.38c-.37,0-.73-.16-.98-.47l-26.36-32.42c-.36-.45-.38-1.08-.04-1.54,.34-.46,.95-.64,1.48-.43l21.21,8.35c.65,.25,.97,.99,.71,1.64-.26,.65-.99,.97-1.64,.71l-16.72-6.58,23.32,28.68c.44,.54,.36,1.34-.18,1.78-.23,.19-.52,.28-.8,.28"></path><path class="cls-5" d="M109.28,235.38c-.68,0-1.25-.55-1.26-1.23l-.67-28.27c-.01-.51,.28-.97,.74-1.18,.46-.21,1-.13,1.37,.21l24.57,22.1c.52,.47,.56,1.27,.09,1.79-.47,.52-1.27,.56-1.79,.09l-22.39-20.14,.6,25.34c.02,.7-.54,1.28-1.23,1.29h-.03"></path><path class="cls-5" d="M125.66,236.73c-.28,0-.55-.09-.78-.27l-24.77-19.64,6.23,18.13c.23,.66-.13,1.38-.79,1.61-.66,.23-1.38-.13-1.61-.78l-7.63-22.21c-.18-.53,0-1.12,.47-1.44,.46-.32,1.07-.31,1.52,.04l28.16,22.32c.55,.43,.64,1.23,.21,1.78-.25,.31-.62,.48-.99,.48"></path></g><path class="cls-6" d="M0,362.05v148.87l18.2-20.73c3.75-4.57,1.25-25.91-.11-35.53-.48-3.37-.38-6.79,.28-10.13,2.85-14.47,10.82-53.03,10.82-53.03,.16-1.15,.82-2.13,1.64-2.95,1.97-1.97,5.42-3.12,9.03-2.46,5.25,.66,8.7,8.37,8.53,12.14l-2.95,46.61c0,.66,.33,.98,.98,.98q.33,0,.49-.17l23.14-19.2,52.19-56.12c4.27-4.6,10.34-6.07,13.79-3.28,3.45,2.79,3.28,8.86-.66,13.78l-43.49,54.98,64.49-57.27c5.08-4.43,10.99-5.09,13.95-2.13l.16,.16c2.95,3.28,3.61,7.88-2.46,13.95l-58.91,60.56,57.6-38.89c4.92-3.28,10.17-3.61,12.96-.82,.33,.33,.66,.66,.66,.98,2.46,3.77,.33,9.85-4.59,13.79l-60.56,48.08,52.35-28.39c5.09-3.12,10.67-2.46,12.63,1.48,2.13,4.1-.16,10.01-4.92,13.79l-60.56,41.19-42.34,27.9-14.4,13.93H0s182.05,0,182.05,0v-182.05H0Z"></path><path class="cls-5" d="M630.59,528.29c-2.43-.21-6.84,14.86-9.21,14.45-2.4-.42-1.42-16.1-3.75-16.72-2.35-.63-9.33,13.45-11.59,12.62-2.28-.83,1.42-16.1-.76-17.12-2.2-1.03-11.53,11.61-13.62,10.41-2.1-1.22,4.21-15.61,2.23-16.99-1.99-1.39-13.36,9.44-15.22,7.88-1.86-1.56,6.85-14.63,5.13-16.35-1.71-1.71-14.79,6.99-16.35,5.14-1.56-1.86,9.27-13.23,7.88-15.22-1.39-1.98-15.78,4.33-16.99,2.23-1.21-2.09,11.43-11.42,10.4-13.62-1.02-2.19-16.29,1.52-17.12-.77-.82-2.27,13.25-9.24,12.62-11.59-.62-2.33-16.3-1.35-16.72-3.75-.41-2.37,14.66-6.78,14.45-9.21-.21-2.39-15.82-4.14-15.82-6.58v91.02h91.03c-2.45,0-4.2-15.62-6.59-15.82"></path><path class="cls-5" d="M712.39,459.67c-.21,2.43,14.86,6.84,14.45,9.21-.42,2.4-16.1,1.42-16.72,3.75-.63,2.35,13.44,9.33,12.62,11.59-.83,2.29-16.1-1.42-17.12,.77-1.03,2.2,11.61,11.53,10.41,13.62-1.22,2.1-15.61-4.21-16.99-2.23-1.39,1.98,9.44,13.36,7.88,15.22-1.56,1.86-14.64-6.85-16.35-5.14-1.71,1.71,6.99,14.79,5.14,16.35-1.86,1.55-13.23-9.27-15.22-7.88-1.98,1.39,4.33,15.78,2.23,17-2.09,1.21-11.41-11.43-13.62-10.41-2.19,1.02,1.52,16.29-.77,17.12-2.27,.82-9.24-13.25-11.59-12.62-2.33,.62-1.34,16.3-3.75,16.72-2.37,.41-6.78-14.66-9.21-14.45-2.39,.2-4.15,15.82-6.59,15.82h91.02v-91.02c0,2.44-15.61,4.19-15.82,6.59"></path><path class="cls-5" d="M561.98,446.49c.21-2.43-14.87-6.85-14.45-9.21,.42-2.4,16.1-1.42,16.72-3.75,.63-2.35-13.45-9.33-12.62-11.59,.83-2.29,16.1,1.42,17.12-.76,1.03-2.2-11.61-11.53-10.4-13.62,1.21-2.1,15.6,4.21,16.99,2.23,1.39-1.98-9.44-13.36-7.88-15.22,1.56-1.86,14.64,6.85,16.35,5.14,1.71-1.71-6.99-14.79-5.13-16.35,1.85-1.56,13.23,9.27,15.22,7.88,1.98-1.39-4.33-15.78-2.23-16.99,2.09-1.21,11.42,11.43,13.62,10.4,2.18-1.02-1.52-16.29,.76-17.12,2.27-.82,9.24,13.25,11.59,12.62,2.33-.62,1.35-16.3,3.75-16.72,2.37-.41,6.78,14.66,9.21,14.45,2.39-.21,4.14-15.82,6.59-15.82h-91.03v91.03c0-2.45,15.61-4.2,15.82-6.59"></path><path class="cls-5" d="M637.18,502.45c-27.27,0-49.38-22.11-49.38-49.37s22.1-49.38,49.38-49.38,49.37,22.11,49.37,49.38-22.11,49.37-49.37,49.37m0-110.07c-33.52,0-60.7,27.18-60.7,60.7s27.18,60.7,60.7,60.7,60.7-27.18,60.7-60.7-27.18-60.7-60.7-60.7"></path><path class="cls-5" d="M637.18,362.05c2.44,0,4.19,15.61,6.59,15.82,2.43,.21,6.84-14.87,9.21-14.45,2.4,.42,1.42,16.1,3.75,16.72,2.35,.63,9.33-13.45,11.59-12.62,2.29,.83-1.42,16.1,.77,17.12,2.2,1.03,11.53-11.61,13.62-10.4,2.1,1.21-4.21,15.6-2.23,16.99,1.99,1.39,13.37-9.44,15.22-7.88,1.86,1.56-6.85,14.63-5.13,16.35,1.71,1.71,14.79-6.99,16.35-5.13,1.55,1.86-9.27,13.23-7.89,15.22,1.39,1.98,15.78-4.33,17-2.23,1.21,2.09-11.43,11.42-10.41,13.62,1.02,2.18,16.29-1.52,17.12,.76,.82,2.27-13.25,9.24-12.62,11.59,.62,2.33,16.3,1.35,16.72,3.75,.41,2.37-14.66,6.78-14.45,9.21,.21,2.39,15.82,4.14,15.82,6.59v-91.03h-91.02Z"></path><path class="cls-6" d="M728.17,600.07c-20.2,0-30.64-10.23-39.02-18.45-6.93-6.8-11.52-11.28-21.66-11.28s-14.73,4.49-21.66,11.28c-8.39,8.22-18.82,18.45-39.02,18.45s-30.64-10.23-39.02-18.45c-6.92-6.79-11.5-11.27-21.62-11.28v36.81c20.17,.01,30.6,10.23,38.98,18.44,6.93,6.8,11.52,11.29,21.66,11.29s14.73-4.49,21.66-11.29c8.39-8.22,18.83-18.45,39.02-18.45s30.64,10.23,39.02,18.45c6.94,6.8,11.52,11.29,21.66,11.29l.04,.08v-36.92l-.04,.04Z"></path><path class="cls-6" d="M728.17,573.84l.04,.06v-29.79h-60.73c20.2,0,30.64,10.23,39.02,18.45,6.94,6.8,11.52,11.28,21.66,11.28"></path><path class="cls-6" d="M606.8,699.92c10.14,0,14.73-4.49,21.66-11.28,8.39-8.22,18.83-18.45,39.02-18.45s30.63,10.23,39.02,18.45c6.94,6.8,11.52,11.28,21.66,11.28l.04,.05v-36.88l-.04,.02c-20.2,0-30.64-10.23-39.02-18.45-6.93-6.8-11.52-11.29-21.66-11.29s-14.73,4.49-21.66,11.29c-8.39,8.22-18.82,18.45-39.02,18.45s-30.64-10.23-39.02-18.45c-6.92-6.79-11.5-11.27-21.62-11.28v36.81c20.17,.01,30.6,10.23,38.98,18.45,6.94,6.8,11.52,11.28,21.66,11.28"></path><path class="cls-6" d="M546.16,696.43v29.73h60.64c-20.2,0-30.64-10.23-39.02-18.45-6.92-6.79-11.5-11.27-21.62-11.28"></path><path class="cls-6" d="M585.14,562.55c6.93,6.8,11.52,11.28,21.66,11.28s14.73-4.49,21.66-11.28c8.39-8.22,18.83-18.45,39.02-18.45h-121.32c20.17,.02,30.6,10.23,38.98,18.45"></path><polygon class="cls-6" points="728.17 726.16 728.21 726.16 728.21 726.11 728.17 726.16"></polygon><path class="cls-6" d="M667.48,696.42c-10.14,0-14.73,4.49-21.66,11.28-8.39,8.22-18.82,18.45-39.02,18.45h121.37c-20.2,0-30.64-10.23-39.02-18.45-6.94-6.8-11.52-11.28-21.66-11.28"></path><path class="cls-3" d="M848.7,629.74c-.12,0-.22,.03-.27,.09-.12,.16,.02,.54,.28,1.03v-1.12Z"></path><path class="cls-3" d="M871.63,628.45l6.98-5.38c3.77-2.91,4.42-8.36,1.39-12.07-2.77-3.39-7.87-4.08-11.45-1.55-2.31,1.63-3.53,4.18-3.57,6.78h0s.12,9.06,.12,9.06c.04,3.34,3.88,5.2,6.53,3.16"></path><path class="cls-3" d="M777.31,592.62l-4.53-6.09c-2.35-3.14-5.48-5.35-8.92-6.55-3.37-1.18-7.03-1.4-10.54-.57-2.47,.56-4.87,1.64-7.03,3.26-8.38,6.25-10.12,18.11-3.87,26.5,3.59,4.81,9.02,7.42,14.58,7.6h-.01s37.76,.11,37.76,.11c.13-.08,.28-.16,.45-.24l-4.79-6.42-13.1-17.59Z"></path><path class="cls-3" d="M873.95,560.04l-1.87,30.34-3.92-36.08,21.18,.59s-2.34,5.6-9.85,6c-1.93,.1-5.54-.84-5.54-.84m25.15,11.38c-1.8-.7-4.71-3.04-4.71-3.04l-12.84,24.35,9.92-31.97,18.78,9.11v-25.76h-182.05v182.05s0-12.91,4.67-30.1c12.37,3.66,23.07,1.67,23.07,1.67-6.89-1.98-13.92-7.32-19.59-12.65,1.55-4.24,3.39-8.62,5.58-13.03,14.89,10.07,31.73,8.55,31.73,8.55-9.55-3.75-18.75-14.4-24.15-21.6,2.48-3.68,5.25-7.32,8.33-10.83,12.4,12.17,28.47,14.06,28.47,14.06-7.92-5.2-14.33-16.09-18.26-24.15,3.22-2.76,6.71-5.4,10.48-7.87,9.65,14.92,25.43,20.18,25.43,20.18-5.94-5.94-9.8-16-12.15-24.27l-35.93-.09h.01c-8.41-.29-16.62-4.23-22.03-11.5-9.44-12.67-6.82-30.6,5.85-40.04,3.97-2.95,8.46-4.73,13.03-5.37,1.56-12.39,11.19-22.75,24.16-24.69,15.62-2.34,30.18,8.44,32.52,24.07l2.5,16.74c1.07,1.07,2.31,2.43,2.71,2.24,.68-.33-.65-5.26,.06-5.53,.7-.28,3.08,4.24,3.81,4.02,.72-.22,.15-5.29,.89-5.46,.73-.17,2.41,4.65,3.16,4.54,.74-.11,.93-5.21,1.69-5.27,.75-.06,1.69,4.96,2.45,4.96s1.7-5.02,2.45-4.96c.76,.06,.95,5.16,1.69,5.27,.75,.11,2.43-4.71,3.16-4.54,.74,.17,.17,5.24,.89,5.46,.73,.22,3.11-4.29,3.81-4.02,.71,.28-.62,5.2,.06,5.53,.68,.33,3.71-3.78,4.37-3.4,.66,.38-1.39,5.05-.77,5.48,.62,.43,4.23-3.18,4.82-2.71,.59,.47-2.13,4.79-1.58,5.3s4.66-2.52,5.17-1.97c.51,.55-2.82,4.42-2.35,5.01,.47,.59,4.98-1.8,5.41-1.18,.43,.62-3.44,3.95-3.06,4.61,.38,.65,5.19-1.04,5.52-.36,.33,.68-4,3.39-3.72,4.1,.07,.17,.41,.24,.88,.26,1.72-2.24,3.87-4.23,6.45-5.83,9.45-5.84,21.93-4.29,29.64,3.71,10.07,10.45,8.62,26.99-2.55,35.6l-19.67,15.16c-7.48,5.77-18.34,.52-18.46-8.93l-.11-8.16c-1.32-.7-2.83-1.59-3.15-1.29-.55,.51,2.17,4.83,1.58,5.3-.59,.47-4.2-3.14-4.82-2.71-.62,.43,1.43,5.1,.77,5.48-.65,.38-3.68-3.73-4.37-3.4-.68,.33,.65,5.26-.06,5.53-.7,.28-3.08-4.24-3.81-4.02-.72,.22-.15,5.29-.89,5.46-.73,.17-2.41-4.65-3.16-4.54-.74,.11-.93,5.21-1.69,5.27-.75,.06-1.69-4.96-2.45-4.96-.21,0-.43,.38-.65,.91-4.65,30.33-24.21,75.14-97.85,84.96h182.05v-155.91c-1.07,.83-5.17,3.51-11.16,1.18"></path><path class="cls-3" d="M804.02,595.16l-.42-2.81c-.64-1-1.2-1.94-.96-2.19,.1-.11,.33-.08,.64,.03l-2.92-19.55c-1.55-10.35-11.19-17.48-21.53-15.93-8.04,1.21-14.14,7.3-15.73,14.81,6.44,1.45,12.42,5.12,16.67,10.82l16.54,22.2c1.53-.06,4.33,.33,4.53-.19,.28-.71-4.05-3.42-3.72-4.1,.33-.68,5.14,1.01,5.52,.36,.38-.65-3.49-3.98-3.06-4.61,.32-.47,2.96,.77,4.44,1.16"></path><path class="cls-2" d="M584.94,787.93c-9.34,0-16.91-7.57-16.91-16.91s7.57-16.91,16.91-16.91,16.91,7.57,16.91,16.91-7.57,16.91-16.91,16.91m0-37.7c-11.48,0-20.79,9.31-20.79,20.79s9.31,20.79,20.79,20.79,20.79-9.31,20.79-20.79-9.31-20.79-20.79-20.79"></path><path class="cls-2" d="M713.03,790.54h-31.35c0-5.35,5.47-4.01,5.47-4.01,0,0,1.43-9.37,9.46-9.37,10.89,0,11.07,8.83,11.07,8.83,6.25,0,5.35,4.55,5.35,4.55m-102.33-17.27c-.07,.83,5.09,2.34,4.95,3.16-.14,.82-5.51,.49-5.73,1.28-.21,.81,4.6,3.19,4.32,3.97-.28,.78-5.51-.49-5.86,.26-.35,.75,3.98,3.95,3.56,4.66-.42,.72-5.34-1.44-5.82-.76-.48,.68,3.23,4.58,2.7,5.21-.53,.63-5.01-2.35-5.6-1.76-.59,.59,2.39,5.06,1.76,5.6-.64,.53-4.53-3.18-5.21-2.7-.68,.48,1.48,5.4,.76,5.82-.72,.41-3.91-3.92-4.66-3.56-.75,.35,.52,5.58-.26,5.86-.78,.28-3.16-4.54-3.97-4.32-.8,.21-.46,5.58-1.28,5.73-.81,.14-2.32-5.02-3.15-4.95-.82,.07-1.42,5.42-2.26,5.42s-1.44-5.35-2.26-5.42c-.83-.07-2.34,5.09-3.15,4.95-.82-.14-.49-5.51-1.28-5.73-.81-.21-3.19,4.61-3.97,4.32-.78-.28,.49-5.51-.26-5.86-.75-.35-3.95,3.98-4.66,3.56-.72-.42,1.44-5.35,.76-5.82-.68-.48-4.58,3.23-5.21,2.7-.64-.53,2.35-5.01,1.76-5.6-.59-.59-5.07,2.39-5.6,1.76-.53-.64,3.18-4.53,2.7-5.21-.48-.68-5.4,1.48-5.82,.76-.42-.72,3.91-3.91,3.56-4.66-.35-.75-5.58,.52-5.86-.26-.28-.78,4.54-3.16,4.32-3.97-.21-.8-5.58-.46-5.73-1.28-.14-.81,5.02-2.32,4.95-3.16-.07-.82-5.42-1.42-5.42-2.26s5.35-1.44,5.42-2.26c.07-.83-5.09-2.34-4.95-3.16,.14-.82,5.51-.49,5.73-1.28,.22-.81-4.61-3.19-4.32-3.97,.28-.78,5.51,.49,5.86-.26,.35-.75-3.98-3.95-3.56-4.66,.42-.72,5.34,1.44,5.82,.76,.48-.68-3.23-4.58-2.7-5.21,.53-.63,5.01,2.35,5.6,1.76,.59-.59-2.39-5.06-1.76-5.6,.63-.53,4.53,3.18,5.21,2.7,.68-.48-1.48-5.4-.76-5.82,.72-.42,3.91,3.91,4.66,3.56,.75-.35-.52-5.58,.26-5.86,.78-.28,3.17,4.54,3.97,4.32,.8-.21,.46-5.58,1.28-5.73,.81-.14,2.32,5.02,3.15,4.95,.82-.07,1.42-5.42,2.26-5.42s1.44,5.35,2.26,5.42c.83,.07,2.34-5.09,3.15-4.95,.82,.14,.49,5.51,1.28,5.73,.81,.21,3.19-4.61,3.97-4.32,.78,.28-.49,5.51,.26,5.86,.75,.35,3.95-3.98,4.66-3.56,.72,.41-1.44,5.34-.76,5.82,.68,.48,4.58-3.23,5.21-2.7,.63,.53-2.35,5.01-1.76,5.6,.59,.59,5.07-2.39,5.6-1.76,.53,.64-3.18,4.53-2.7,5.21,.48,.68,5.4-1.48,5.82-.76,.41,.72-3.92,3.91-3.56,4.66,.35,.75,5.58-.52,5.86,.26,.28,.78-4.54,3.16-4.32,3.97,.21,.8,5.58,.46,5.73,1.28,.14,.81-5.02,2.32-4.95,3.16,.07,.82,5.42,1.42,5.42,2.26s-5.35,1.44-5.42,2.26m-64.54-47.09v91.06c.95,.13,1.86,.59,2.52,1.43l34.37,42.86,49.6-63.04c1.91-2.41,5.58-2.44,7.51-.03l88.05,87.01v-159.3h-182.05Z"></path><g><path class="cls-2" d="M830.59,362.05c13.96,0,27.74,7.93,41.08,11.8,7.83,2.34,16.02,3.42,23.33,6.85,7.49,3.33,14.24,9.64,15.14,17.74,1.08,9.63-6.21,18.02-12.35,25.67-14.77,18.46-24.85,40.63-29.19,63.86-2.61,13.43-3.16,27.21-6.67,40.45-1.43,5.38-3.32,10.59-5.54,15.68h53.85v-182.05h-79.67Z"></path><path class="cls-2" d="M728.21,471.45v.26c.05-.04,.11-.07,.16-.11-.05-.05-.11-.1-.16-.15"></path><path class="cls-2" d="M852.06,386.03c0-3.78-3.07-6.76-6.76-6.76s-6.76,2.98-6.76,6.76,2.97,6.76,6.76,6.76c3.7,0,6.76-3.07,6.76-6.76"></path><path class="cls-2" d="M728.21,433.4v19.61c5.38,1.54,10.57,3.79,15.38,6.71,1.27-1.08,2.43-2.25,3.61-3.42-5.44-8.33-11.81-16.05-18.99-22.89"></path><path class="cls-2" d="M728.21,431.83c10.75,1.68,21.32,4.61,31.51,8.6,.81-1.44,1.71-2.88,2.61-4.32-10.37-8.02-21.53-15.05-33.24-20.72,14.41-2.61,29.36-1.9,43.68,1.53,1.08-2.08,.9-1.8,1.98-3.97-10-8.37-21.44-15.04-33.68-19.36,13.95-3.24,28.29-1.53,42.41,1.71,1.01-1.62,2.08-3.33,3.25-4.95-8.19-5.85-16.85-10.98-26.03-15.31,12.96-2.26,26.3-1.62,39.09,1.26,5.22-4.49,10.9-8.46,16.75-11.25,4.69-2.16,9.38-2.98,14.05-2.98h-102.39v69.77Z"></path></g><rect class="cls-12" x="364.95" y="180" width="182.05" height="182.05"></rect><rect class="cls-7" x="544.95" y="0" width="182.05" height="182.05"></rect><rect class="cls-9" x="728.21" y="726.16" width="182.05" height="182.05"></rect><rect class="cls-10" x="912.21" y="363.16" width="182.05" height="182.05"></rect></g></svg>