<svg xmlns="http://www.w3.org/2000/svg" id="Layer_2" data-name="Layer 2" viewBox="0 0 181.3 181.3"><defs><style>      .cls-1 {        fill: #007aea;      }    </style></defs><g id="Capa_1" data-name="Capa 1"><path class="cls-1" d="M153.17,67.09s9.7-15.66-2.82-11.79c0,0,7.3-10.45,6.41-15.07,0,0-16.1,7.82-22.37,5.7l28.13-13.5s12.77,19.19-9.35,34.66m-.15,8.65c-.38,.84-1.42,1.16-2.34,1.07-2.09-.2-3.18-1.98-3.15-2.58,.06-1.03,.98-1.9,2-2.06,1.02-.16,2.08,.3,2.8,1.05,.65,.66,1.06,1.68,.68,2.52m-1.67,28.25c-.16,1.34-1.31,2.49-2.65,2.65-1.34,.16-2.73-.68-3.21-1.93-1.09-3.07,.66-6.59,4.04-4.26,1.15,.79,1.98,2.16,1.81,3.55m-3.38,13.48c-.13,.85-.63,1.81-1.48,1.86-.87,.05-1.46-.86-1.76-1.68-.3-.83-.51-1.7-.61-2.58-.06-.5-.08-1.02,.11-1.49,.74-1.81,2.84-.01,3.37,1.03,.44,.87,.53,1.9,.38,2.86m-7.21-33.15c-.04-1,.61-1.94,1.47-2.47,.85-.53,1.88-.7,2.88-.76,1-.06,2.01-.01,3.01-.15-.4,1.39-.82,2.82-1.69,3.97-1.36,1.8-5.53,2.84-5.67-.59m-3.37-16.28c.76-.18,1.65,.16,1.87,.92,.22,.75-.23,1.84-1.01,1.87-3.09,.14-2.68-2.35-.86-2.79m2.02,28.83c-.44,1.08-1.53,1.88-2.7,1.88-.67,0-1.35-.25-1.77-.77-.55-.67-.56-1.62-.54-2.49,.01-.69,.03-1.39,.25-2.04,.75-2.18,3.18-1.33,4.28,.12,.7,.93,.92,2.22,.48,3.3m-2.8,18.35c-.43,1.52-1.73,2.78-3.28,3.1-1.55,.32-3.27-.36-4.14-1.69-1.61-2.45,.67-6.79,3.57-7.11,1.06-.11,2.1,.46,2.81,1.26,1.05,1.19,1.48,2.91,1.05,4.43m-9.11-12.84c-.53,.46-1.39,.73-1.9,.24-.45-.43-.33-1.16-.15-1.75,.4-1.32-1.43-4.8,1.67-3.85,2.08,.86,1.9,4.04,.38,5.36m-8.33-11.72c-4.41,0-7.99-3.58-7.99-7.99s3.58-7.99,7.99-7.99,7.99,3.58,7.99,7.99-3.58,7.99-7.99,7.99m.52,15.09c-.59,1.03-1.68,1.74-2.85,1.98-1.2,.25-2.54,0-3.44-.84-1.03-.97-1.14-2.34-.27-3.26,.75-.81,2.4-2.2,3.48-2.52,1.14-.34,2.46,.23,3.08,1.24,.63,1.01,.58,2.37-.01,3.4m-11.98-7.12c-.29,.55-.72,1.15-1.34,1.15-.7,0-1.13-.8-1.19-1.5-.16-2.01,1.93-4.41,4.02-3.57,2.88,1.49-.85,2.7-1.49,3.92m-12.78-.8c-.04,.54-.84,.55-.87,0-.66-12.37,2.13-38.5,38.56-33.24,.54,.08,.49,.86-.05,.87-11.82,.09-35.35,3.9-37.64,32.37m-.2,16.85c-3.36,.64-2.52,3.35-5.85,3.56v.02c-.07,0-.14,0-.21-.01-.07,0-.13,.01-.21,.01v-.02c-3.33-.21-2.49-2.93-5.85-3.56-1.91-.36-4.73,.26-4.09-4.86,.45-3.6,8.74-3.29,10.15-3.21,1.41-.08,9.7-.39,10.15,3.21,.64,5.12-2.18,4.5-4.09,4.86m-.93,25.28s7.04,6.01,11.13,6.01c0,0-2.05,13.05-16.05,13.05s-16.05-13.05-16.05-13.05c0,0,7.37-2.05,10.34-6.01h10.63ZM44.77,65.45c-.54,0-.58-.79-.05-.87,36.43-5.26,39.22,20.87,38.56,33.24-.03,.55-.83,.54-.87,0-2.29-28.47-25.82-32.28-37.64-32.37m20.55,32.32c-.61-.1-1.32-.32-1.5-.91-.21-.67,.41-1.32,1.06-1.59,1.86-.78,4.78,.47,4.64,2.72-.53,3.2-2.83,.02-4.19-.21m-1.38,9.11c-.89,.84-2.24,1.09-3.44,.84-1.17-.24-2.25-.95-2.85-1.98-.59-1.03-.64-2.39-.01-3.4,.63-1.01,1.94-1.58,3.08-1.24,1.08,.32,2.73,1.72,3.48,2.52,.86,.92,.76,2.29-.27,3.26m-11.93-24.22c0-4.41,3.58-7.99,7.99-7.99s7.99,3.58,7.99,7.99-3.58,7.99-7.99,7.99-7.99-3.58-7.99-7.99m-.11,18.2c.18,.59,.29,1.32-.15,1.75-.51,.49-1.37,.22-1.9-.24-1.52-1.32-1.7-4.5,.38-5.36,3.1-.94,1.27,2.53,1.67,3.85m-3.73,15.76c-.87,1.32-2.59,2-4.14,1.69-1.55-.32-2.85-1.58-3.28-3.1-.43-1.52,0-3.25,1.05-4.43,.71-.8,1.75-1.38,2.81-1.26,2.9,.31,5.18,4.66,3.57,7.11m-10.23-19.76c-.44-1.08-.22-2.37,.48-3.3,1.1-1.45,3.53-2.3,4.28-.12,.23,.65,.24,1.35,.25,2.04,.02,.87,0,1.82-.54,2.49-.42,.52-1.11,.78-1.77,.77-1.16,0-2.26-.81-2.7-1.88m-1.24-21.33c-3.09,.14-2.68-2.35-.86-2.79,.76-.18,1.65,.16,1.87,.92,.22,.75-.23,1.84-1.01,1.87m-5.77,9.37c-.87-1.15-1.29-2.58-1.69-3.97,1,.13,2.01,.09,3.01,.15,1,.06,2.03,.24,2.88,.76,.86,.53,1.51,1.47,1.47,2.47-.14,3.43-4.3,2.39-5.67,.59m2.31,30.16c-.1,.88-.31,1.75-.61,2.58-.3,.82-.89,1.72-1.76,1.68-.86-.05-1.35-1.01-1.48-1.86-.15-.97-.06-1.99,.38-2.86,.53-1.04,2.63-2.84,3.37-1.03,.19,.47,.17,.99,.11,1.49m-4.59-8.43c-1.34-.16-2.49-1.31-2.65-2.65-.17-1.39,.66-2.75,1.81-3.55,3.38-2.33,5.13,1.19,4.04,4.26-.48,1.26-1.87,2.1-3.21,1.93m-4.32-30.9c-.38-.84,.03-1.86,.68-2.52,.72-.74,1.78-1.2,2.8-1.05,1.02,.16,1.95,1.02,2,2.06,.03,.6-1.05,2.38-3.15,2.58-.92,.09-1.96-.23-2.34-1.07M14.83,32.43l28.13,13.5c-6.28,2.12-22.37-5.7-22.37-5.7-.89,4.61,6.41,15.07,6.41,15.07-12.52-3.86-2.82,11.79-2.82,11.79C2.06,51.61,14.83,32.43,14.83,32.43m30.8,46.9c-.18,.76-.89,1.4-1.66,1.26-.77-.14-1.54-1.03-1.22-1.74,1.26-2.82,3.31-1.34,2.88,.48m15.09-23.77c.04,1.36-1.92,2.44-3.06,2.53-1.81,.14-3.62-1.28-3.89-3.08-.14-.94,.2-2.05,1.09-2.4,.75-.29,1.58,.05,2.3,.39,1.07,.5,3.52,1.09,3.57,2.55m-.67-10.46c1.05,.24,2.23,.61,2.65,1.6,.37,.88-.07,1.96-.84,2.53-.76,.58-1.76,.75-2.72,.76-2.12,.02-4.25-.68-5.94-1.96-.7-.53-1.36-1.22-1.52-2.09-.72-3.9,6.77-1.21,8.38-.84m7.93,10.84c.24-.43,.68-.71,1.12-.93,2.82-1.42,6.7-1.3,8.45,1.73,.89,1.54,.77,3.68-.5,4.94-.6,.59-1.52,.97-2.29,.64-.81-.34-1.16-1.28-1.79-1.9-.59-.59-1.41-.87-2.21-1.13-.79-.26-1.62-.52-2.23-1.09-.61-.57-.95-1.52-.56-2.26m2.45-12.75c2.23-.88,6.02-.42,5.73,2.8-.11,1.22-1,2.29-2.13,2.77-1.12,.48-2.44,.4-3.57-.06-1.03-.42-1.99-1.25-2.17-2.34-.22-1.36,.86-2.66,2.14-3.16m17.84,18.81c.09,.74-.11,1.53-.59,2.1-.48,.57-1.27,.9-2,.76-1.14-.21-1.84-1.35-2.38-2.37-2.23-4.2,4.49-4.59,4.97-.49m.41,23.37c-.77,.14-1.48-.5-1.66-1.26-.43-1.83,1.62-3.3,2.88-.48,.32,.72-.45,1.6-1.22,1.74m1.15-12.3c-.45,.21-.98,.2-1.44,.03-.99-.36-1.65-1.48-1.48-2.53,.17-1.05,1.26-3.18,3.02-1.77,.47,.38,.73,.97,.87,1.55,.24,1.02-.02,2.28-.97,2.72m-5.86-23.71c.64-.79,1.68-1.18,2.7-1.17,2.14,.02,4.11,1.46,4.69,3.54,.28,1,.15,2.14-.48,2.96-.63,.83-1.78,1.26-2.76,.92-.88-.3-1.46-1.12-2.19-1.68-.75-.58-1.7-.94-2.21-1.74-.54-.86-.39-2.05,.25-2.83m3.66-8.18c.39-.33,.89-.49,1.4-.52,.85-.05,2.45,.21,2.19,1.41-.08,.37-.33,.67-.6,.93-.54,.51-1.26,.89-2,.84-.74-.04-1.48-.59-1.56-1.33-.06-.5,.19-1.01,.57-1.34m9.66,7.55c.61-.47,1.18-.82,1.8-.23,.55,.52,.73,1.35,.55,2.07-.22,.9-.86,1.63-1.48,2.32-.35,.39-.72,.79-1.2,.99s-1.13,.11-1.41-.33c-.13-.2-.17-.45-.18-.68-.12-1.58,.67-3.17,1.92-4.13m7.92,9.41c.44,.22,.88,.5,1.12,.93,.4,.73,.06,1.69-.56,2.26-.61,.57-1.44,.83-2.23,1.09-.79,.26-1.61,.54-2.21,1.13-.62,.62-.98,1.56-1.79,1.9-.78,.33-1.7-.05-2.29-.64-1.26-1.25-1.39-3.4-.5-4.94,1.76-3.03,5.63-3.15,8.45-1.73m4.32-14.95c1.28,.51,2.36,1.8,2.14,3.16-.18,1.1-1.14,1.92-2.17,2.34-1.13,.46-2.45,.54-3.57,.06-1.12-.48-2.01-1.55-2.13-2.77-.3-3.22,3.49-3.68,5.73-2.8m5.8,11.38c.88,.34,1.23,1.46,1.09,2.4-.28,1.8-2.08,3.22-3.89,3.08-1.14-.09-3.1-1.17-3.06-2.53,.05-1.46,2.5-2.05,3.57-2.55,.73-.34,1.56-.69,2.3-.39m.57-7.18c.42-.99,1.6-1.36,2.65-1.6,1.61-.37,9.1-3.06,8.38,.84-.16,.87-.82,1.55-1.52,2.09-1.69,1.28-3.82,1.99-5.94,1.96-.96-.01-1.96-.18-2.72-.76-.76-.58-1.21-1.65-.84-2.53m12.71,10.25c-.18,.76-.89,1.4-1.66,1.26-.77-.14-1.54-1.03-1.22-1.74,1.26-2.82,3.31-1.34,2.88,.48m5.99,21.2c.32,.72-.45,1.6-1.22,1.74-.77,.14-1.48-.5-1.66-1.26-.43-1.83,1.62-3.3,2.88-.48M0,0V128.42l53.97-.75s0-.05,0-.08c0-11.41,11.47-12.85,16.31-12.96,1.3-.03,2.56,.36,3.62,1.1l1.79,1.25c1.18,.83,2.59,1.27,4.03,1.27h.92c1.61,0,3.18,.55,4.43,1.57,1.87,1.52,2.85,3.89,2.56,6.28-2.16,17.62-18.57,16.84-18.57,16.84,0,0-12.62-.76-14.77-11.95L2.41,145.32l48.33-14.81L.61,136.95l49.94-7.83-50.54-.7v52.88H181.3v-52.88l-50.54,.7,49.93,7.83-50.13-6.44,48.33,14.81-55.65-15.37c-1.54,12.19-14.94,12.99-14.94,12.99,0,0-16.4,.78-18.57-16.84-.29-2.39,.69-4.76,2.56-6.28,1.25-1.02,2.82-1.57,4.43-1.57h.92c1.44,0,2.85-.44,4.03-1.27l1.79-1.25c1.06-.74,2.33-1.13,3.62-1.1,4.84,.1,16.31,1.55,16.31,12.96,0,0,0,.02,0,.03l57.91,.8V0H0Z"></path></g></svg>