<svg xmlns="http://www.w3.org/2000/svg" id="Layer_2" data-name="Layer 2" viewBox="0 0 1272.7 910.16"><defs><style>      .cls-1, .cls-2 {        fill: #fff;      }      .cls-3 {        fill: #80ab80;      }      .cls-4, .cls-5 {        fill: #7d8580;      }      .cls-6 {        fill: #8fa997;      }      .cls-7 {        fill: #bacbbb;      }      .cls-8, .cls-9 {        fill: #6d966f;      }      .cls-10 {        fill: #a2c0a2;      }      .cls-11 {        fill: #49805c;      }      .cls-12 {        fill: #377e4c;      }      .cls-9 {        opacity: .88;      }      .cls-5 {        opacity: .77;      }      .cls-13, .cls-2 {        opacity: .44;      }      .cls-13, .cls-14 {        fill: #9cbd9d;      }      .cls-14 {        opacity: .66;      }    </style></defs><g id="Capa_1" data-name="Capa 1"><g><rect class="cls-1" x="181.7" y="364.45" width="545" height="364"></rect><rect class="cls-1" x="727.96" y="364.92" width="180.74" height="180.53"></rect><rect class="cls-2" x="908.96" y="545.92" width="182.74" height="182.53"></rect><polygon class="cls-5" points="1272.7 546.45 1090.7 545.45 1090.7 364.45 1272.7 365.45 1272.7 546.45"></polygon><path class="cls-11" d="M545.16,910.16v-91.03c21.95,0,39.74,17.75,39.74,39.77,0,4.88-.87,9.55-2.47,13.87,4.3-1.61,8.96-2.48,13.83-2.48,21.95,0,39.92,17.84,39.92,39.86h-91.02Z"></path><path class="cls-11" d="M636.18,910.16v-91.03c21.95,0,39.74,17.75,39.74,39.77,0,4.88-.87,9.55-2.47,13.87,4.3-1.61,8.96-2.48,13.83-2.48,21.95,0,39.92,17.84,39.92,39.86h-91.02Z"></path><path class="cls-11" d="M545.16,819.13v-91.03c21.95,0,39.74,17.75,39.74,39.77,0,4.88-.87,9.55-2.47,13.87,4.3-1.61,8.96-2.48,13.83-2.48,21.95,0,39.92,17.84,39.92,39.86h-91.02Z"></path><path class="cls-11" d="M636.18,819.13v-91.03c21.95,0,39.74,17.75,39.74,39.77,0,4.88-.87,9.55-2.47,13.87,4.3-1.61,8.96-2.48,13.83-2.48,21.95,0,39.92,17.84,39.92,39.86h-91.02Z"></path><path class="cls-10" d="M636.18,675.06c-45.53,0-68.27-37.95-68.27-37.95,0,0,22.74-37.95,68.27-37.95,51.22,0,68.27,37.95,68.27,37.95,0,0-17.05,37.95-68.27,37.95m-91.03,53.04h182.05v-182.05h-182.05v182.05Z"></path><path class="cls-10" d="M635.69,651.29c-8.16,0-14.78-6.35-14.78-14.18s6.62-14.18,14.78-14.18,14.78,6.35,14.78,14.18-6.62,14.18-14.78,14.18m0-42.91c-16.55,0-29.96,12.86-29.96,28.71s13.41,28.71,29.96,28.71,29.96-12.86,29.96-28.71-13.41-28.71-29.96-28.71"></path><polygon class="cls-3" points="462.94 728.1 363.1 728.1 363.1 806.93 462.94 728.1"></polygon><g><path class="cls-3" d="M497.42,802.7c0-4.24-3.43-7.67-7.66-7.67s-7.68,3.42-7.68,7.67,3.43,7.67,7.68,7.67,7.66-3.44,7.66-7.67"></path><path class="cls-3" d="M474.84,728.1c.16,.3,3.44,6.48-2.81,18.71l7.03,21.96s-7.79-4.26-15.26-1.92l1.01,4.54s-10.06,.58-16.95,9.88l6.05,1.01s-8.37,5.76-8.37,17.95l6.05-1.42s-.51,11.52,9.4,18.35l.81-4.83s1.09,3.52,6.26,6.25c0,0-19.08-33.57,18.58-33.57,0,0,21.97,30.29,46.65,38.6,0,0,9.56,2.13,4.33,14.23-2.67,6.18-4.52,4.78-9.48,13.66-4.66,8.31-7.6,12.95-16.35,18.24-10.52,6.34-52.07,6.88-63.74,40.43h97.12v-182.05h-70.31Z"></path><path class="cls-12" d="M545.16,546.05v80.62c0-4.31-2.75-7.97-6.59-9.3,.05-.61,.08-1.23,.08-1.86,0-9.93-5.78-18.52-14.16-22.55h0c.12-.81,.19-1.63,.19-2.46,0-8.85-7.17-16.01-16-16.01-1.71,0-3.34,.27-4.88,.76-.91-9.64-9.02-17.19-18.91-17.19-2.82,0-5.47,.61-7.87,1.71-4.11-8.14-12.56-13.72-22.3-13.72h90.44Z"></path><path class="cls-12" d="M445.81,697.24c0,30.81-82.71,30.86-82.71,30.86v-85.31c1.58,3.37,5.01,5.7,8.97,5.7,.51,0,1.01-.04,1.5-.12,1.76,2.81,4.87,4.69,8.42,4.69,1.73,0,3.34-.44,4.75-1.21,2.58,1.79,5.72,2.83,9.09,2.83,5.52,0,10.37-2.79,13.27-7.03,11.82,4.8,36.71,18.58,36.71,49.6"></path><path class="cls-12" d="M454.27,546.05c-11.26,0-20.79,7.42-23.99,17.66-1.8-.57-3.72-.88-5.7-.88-10.55,0-19.1,8.58-19.1,19.17,0,1.77,.24,3.48,.69,5.11-2.34-1.33-5.03-2.09-7.91-2.09-8.89,0-16.09,7.23-16.09,16.15,0,3.39,1.05,6.55,2.82,9.15-.91-.22-1.85-.32-2.82-.32-7.13,0-12.9,5.79-12.9,12.94,0,2.28,.59,4.43,1.62,6.29-3.38,.44-6.21,2.61-7.61,5.59v-88.77h90.99Z"></path><path class="cls-12" d="M545.16,626.84v101.27s-82.13-.05-82.13-30.86c0-26.25,17.81-40.15,30.45-46.71,3.5,4.38,8.87,7.17,14.88,7.17,8.72,0,16.07-5.86,18.35-13.87,.78,.44,1.68,.69,2.63,.69,3.03,0,5.49-2.47,5.49-5.5,0-.81-.17-1.58-.5-2.26,.27,.03,.52,.04,.79,.04,5.49,0,10.02-4.46,10.02-9.95"></path><path class="cls-12" d="M482.3,646.1c-9.15,6.06-18.12,14.84-23.52,26.72v-34.75c2.86,2.67,6.71,4.3,10.93,4.3,3.19,0,6.17-.93,8.68-2.55-.07,.31-.09,.65-.09,.98,0,2.52,1.69,4.63,4,5.29"></path><path class="cls-12" d="M449.39,653.16v18.26c-7.07-14.51-19.5-24.22-30.7-29.88,1.95-1.79,3.15-4.38,3.15-7.26,0-.92-.12-1.79-.36-2.63,7.45,3.08,19.72,9.59,27.9,21.5"></path><path class="cls-12" d="M449.39,621.36v17.39c-6.56-6.49-14.08-11.23-20.92-14.43,.16,.01,.32,.01,.48,.01,5.36,0,9.93-3.26,11.89-7.92,1.72,2.95,4.9,4.94,8.55,4.94"></path></g><polygon class="cls-8" points="363.11 364 363.11 383.18 200.24 546.05 181.05 546.05 363.11 364"></polygon><polygon class="cls-8" points="363.11 390.33 363.11 405.94 222.99 546.05 207.38 546.05 363.11 390.33"></polygon><polygon class="cls-8" points="363.11 413.09 363.11 428.7 245.75 546.05 230.14 546.05 363.11 413.09"></polygon><polygon class="cls-8" points="363.11 435.84 363.11 451.45 268.51 546.05 252.9 546.05 363.11 435.84"></polygon><polygon class="cls-8" points="363.11 458.6 363.11 474.21 291.26 546.05 275.65 546.05 363.11 458.6"></polygon><polygon class="cls-8" points="363.11 481.36 363.11 496.97 314.02 546.05 298.41 546.05 363.11 481.36"></polygon><polygon class="cls-8" points="363.11 504.11 363.11 519.72 336.78 546.05 321.17 546.05 363.11 504.11"></polygon><polygon class="cls-8" points="363.11 526.87 363.11 546.05 343.92 546.05 363.11 526.87"></polygon><g><path class="cls-8" d="M219.66,472.92l-17.25-17.25-9.84,9.84s3.62,1.6,7.53-2.31c2.5-2.5,2.65-4,2.65-4l16.91,13.71Z"></path><path class="cls-8" d="M219.66,472.92l-1.92-24.32-13.88,1.1s1.71,3.56,7.23,3.13c3.52-.28,4.61-1.32,4.61-1.32l3.96,21.41Z"></path><path class="cls-8" d="M226.51,483.74l-6.64,6.64-1.35-9.44h0c-.15-1.37,.29-2.8,1.34-3.85,1.84-1.84,4.81-1.84,6.65,0,1.84,1.84,1.84,4.81,0,6.65m5.55-12.2c-5.18-5.18-13.58-5.18-18.77,0-2.97,2.97-4.23,7-3.79,10.88h0s3.82,26.63,3.82,26.63l18.74-18.74c5.18-5.18,5.18-13.58,0-18.77"></path><path class="cls-8" d="M278.91,443.36c-10.36-10.36-27.16-10.36-37.52,0-10.36,10.36-10.36,27.16,0,37.52"></path><path class="cls-8" d="M301.38,420.89c-8.59-8.59-22.51-8.59-31.09,0-8.59,8.59-8.59,22.51,0,31.09"></path><path class="cls-8" d="M266.44,461c-.28,0-.57-.1-.81-.29l-29.96-24.87,4.54,17.43c.18,.68-.23,1.37-.9,1.54-.68,.18-1.37-.23-1.54-.9l-5.53-21.23c-.14-.53,.08-1.09,.54-1.39,.46-.3,1.06-.26,1.49,.09l32.98,27.37c.54,.45,.61,1.24,.17,1.78-.25,.3-.61,.46-.97,.46"></path><path class="cls-8" d="M248.6,478.84c-.39,0-.78-.18-1.03-.52l-23.45-32.42c-.32-.45-.32-1.06,.01-1.5,.33-.44,.92-.62,1.44-.43l15.37,5.5c.66,.24,1,.96,.76,1.62-.24,.66-.96,1-1.62,.76l-11.53-4.12,21.06,29.12c.41,.57,.28,1.36-.28,1.77-.22,.16-.48,.24-.74,.24"></path><path class="cls-8" d="M269.36,433.18c-.46,0-.91-.25-1.13-.69l-14.53-28.66c-.26-.51-.14-1.13,.28-1.51,.43-.38,1.06-.43,1.54-.11l41.11,26.98c.58,.38,.75,1.17,.36,1.75-.38,.58-1.17,.75-1.75,.36l-37.15-24.38,12.38,24.43c.32,.62,.07,1.38-.56,1.7-.18,.09-.38,.14-.57,.14"></path><path class="cls-8" d="M273.06,454.38c-.37,0-.73-.16-.98-.47l-26.36-32.42c-.36-.45-.38-1.08-.04-1.54,.34-.46,.95-.64,1.48-.43l21.21,8.35c.65,.25,.97,.99,.71,1.64-.26,.65-.99,.97-1.64,.71l-16.72-6.58,23.32,28.68c.44,.54,.36,1.34-.18,1.78-.23,.19-.52,.28-.8,.28"></path><path class="cls-8" d="M290.33,419.38c-.68,0-1.25-.55-1.26-1.23l-.67-28.27c-.01-.51,.28-.97,.74-1.18,.46-.21,1-.13,1.37,.21l24.57,22.1c.52,.47,.56,1.27,.09,1.79-.47,.52-1.27,.56-1.79,.09l-22.39-20.14,.6,25.34c.02,.7-.54,1.28-1.23,1.29h-.03"></path><path class="cls-8" d="M306.71,420.73c-.28,0-.55-.09-.78-.27l-24.77-19.64,6.23,18.13c.23,.66-.13,1.38-.79,1.61-.66,.23-1.38-.13-1.61-.78l-7.63-22.21c-.18-.53,0-1.12,.47-1.44,.46-.32,1.07-.31,1.52,.04l28.16,22.32c.55,.43,.64,1.23,.21,1.78-.25,.31-.62,.48-.99,.48"></path></g><path class="cls-7" d="M880.87,431.53s9.74-15.72-2.83-11.84c0,0,7.33-10.5,6.44-15.13,0,0-16.16,7.85-22.47,5.72l28.25-13.56s12.82,19.27-9.39,34.81m-.15,8.69c-.38,.84-1.43,1.16-2.35,1.07-2.1-.2-3.19-1.99-3.16-2.59,.06-1.04,.99-1.91,2.01-2.07,1.03-.16,2.09,.31,2.81,1.05,.65,.67,1.07,1.69,.68,2.53m-1.68,28.37c-.16,1.34-1.32,2.5-2.66,2.66-1.34,.16-2.74-.68-3.22-1.94-1.1-3.08,.67-6.62,4.06-4.28,1.15,.8,1.99,2.17,1.82,3.56m-3.4,13.53c-.13,.85-.63,1.82-1.49,1.87-.87,.05-1.47-.86-1.77-1.68-.31-.84-.51-1.71-.61-2.59-.06-.5-.08-1.03,.11-1.5,.74-1.82,2.85-.01,3.38,1.03,.44,.88,.53,1.9,.38,2.88m-7.25-33.29c-.04-1.01,.62-1.95,1.48-2.48,.86-.53,1.89-.71,2.9-.77,1.01-.06,2.02-.01,3.02-.15-.4,1.4-.82,2.83-1.7,3.99-1.37,1.81-5.55,2.85-5.69-.59m-3.38-16.35c.77-.18,1.66,.16,1.88,.92,.22,.76-.23,1.85-1.02,1.88-3.1,.14-2.69-2.36-.86-2.8m2.03,28.95c-.44,1.08-1.54,1.88-2.71,1.89-.67,0-1.36-.25-1.78-.77-.55-.68-.56-1.63-.55-2.5,.01-.69,.03-1.4,.25-2.05,.76-2.19,3.19-1.34,4.3,.12,.7,.93,.92,2.23,.48,3.31m-2.81,18.42c-.43,1.53-1.74,2.79-3.3,3.11-1.56,.32-3.29-.36-4.16-1.69-1.62-2.46,.67-6.82,3.58-7.14,1.07-.11,2.11,.46,2.82,1.27,1.05,1.19,1.49,2.92,1.05,4.45m-9.15-12.9c-.53,.46-1.4,.73-1.91,.24-.45-.43-.33-1.17-.15-1.76,.4-1.33-1.43-4.82,1.68-3.87,2.09,.87,1.91,4.05,.38,5.38m-8.37-11.77c-4.43,0-8.02-3.59-8.02-8.02s3.59-8.02,8.02-8.02,8.02,3.59,8.02,8.02-3.59,8.02-8.02,8.02m.52,15.15c-.59,1.04-1.69,1.75-2.86,1.99-1.21,.25-2.56,0-3.45-.85-1.03-.98-1.14-2.35-.27-3.28,.76-.81,2.41-2.21,3.5-2.53,1.15-.34,2.47,.23,3.1,1.25,.63,1.02,.59,2.38-.01,3.42m-12.03-7.15c-.29,.55-.72,1.16-1.34,1.15-.7,0-1.14-.8-1.19-1.51-.17-2.02,1.93-4.42,4.03-3.59,2.89,1.49-.86,2.71-1.5,3.94m-12.83-.81c-.04,.55-.84,.55-.87,0-.66-12.42,2.14-38.66,38.72-33.38,.54,.08,.49,.87-.05,.87-11.87,.1-35.5,3.92-37.8,32.51m-.21,16.92c-3.38,.64-2.53,3.36-5.88,3.58v.02c-.07,0-.14,0-.21-.01-.07,0-.13,.01-.21,.01v-.02c-3.35-.21-2.5-2.94-5.88-3.58-1.92-.36-4.75,.26-4.11-4.88,.45-3.61,8.78-3.3,10.2-3.22,1.41-.08,9.74-.39,10.19,3.22,.64,5.14-2.19,4.52-4.11,4.88m-.94,25.39s7.07,6.04,11.18,6.04c0,0-2.05,13.1-16.12,13.1s-16.12-13.1-16.12-13.1c0,0,7.4-2.05,10.38-6.04h10.68Zm-49.24-74.82c-.54,0-.59-.79-.05-.87,36.58-5.28,39.38,20.96,38.72,33.38-.03,.55-.83,.55-.87,0-2.3-28.59-25.93-32.41-37.8-32.51m20.63,32.45c-.61-.1-1.32-.33-1.51-.92-.21-.67,.41-1.33,1.06-1.6,1.87-.78,4.8,.47,4.66,2.73-.53,3.21-2.84,.02-4.21-.21m-1.38,9.15c-.89,.85-2.24,1.1-3.45,.85-1.17-.24-2.26-.95-2.86-1.99-.6-1.04-.64-2.4-.01-3.42,.63-1.02,1.95-1.59,3.1-1.25,1.08,.32,2.74,1.72,3.5,2.53,.87,.93,.76,2.3-.27,3.28m-11.98-24.32c0-4.43,3.59-8.02,8.02-8.02s8.02,3.59,8.02,8.02-3.59,8.02-8.02,8.02-8.02-3.59-8.02-8.02m-.11,18.27c.18,.6,.29,1.33-.15,1.76-.51,.49-1.37,.22-1.91-.24-1.53-1.33-1.7-4.52,.38-5.38,3.11-.95,1.28,2.54,1.68,3.87m-3.75,15.83c-.87,1.33-2.6,2.01-4.16,1.69-1.56-.32-2.87-1.58-3.3-3.11s0-3.26,1.05-4.45c.71-.8,1.76-1.38,2.82-1.27,2.91,.32,5.2,4.68,3.58,7.14m-10.27-19.84c-.44-1.08-.22-2.38,.48-3.31,1.1-1.46,3.54-2.31,4.3-.12,.23,.65,.24,1.36,.25,2.05,.02,.87,0,1.82-.54,2.5-.42,.52-1.11,.78-1.78,.77-1.17,0-2.27-.81-2.71-1.89m-1.24-21.42c-3.1,.14-2.69-2.36-.86-2.8,.77-.18,1.66,.16,1.88,.92,.22,.76-.23,1.85-1.02,1.88m-5.8,9.41c-.88-1.16-1.3-2.59-1.7-3.99,1,.13,2.01,.09,3.02,.15,1.01,.06,2.04,.24,2.9,.77,.86,.53,1.52,1.47,1.48,2.48-.14,3.45-4.32,2.4-5.69,.59m2.32,30.29c-.1,.88-.31,1.76-.61,2.59-.3,.82-.89,1.73-1.77,1.68-.86-.05-1.35-1.01-1.49-1.87-.15-.97-.06-2,.38-2.88,.53-1.04,2.64-2.85,3.38-1.03,.19,.47,.17,.99,.11,1.5m-4.61-8.46c-1.34-.16-2.5-1.32-2.66-2.66-.17-1.39,.67-2.76,1.82-3.56,3.39-2.34,5.15,1.19,4.06,4.28-.48,1.26-1.88,2.11-3.22,1.94m-4.34-31.03c-.38-.85,.03-1.87,.68-2.53,.73-.75,1.79-1.21,2.81-1.05,1.03,.16,1.95,1.03,2.01,2.07,.03,.6-1.06,2.39-3.16,2.59-.92,.09-1.97-.23-2.35-1.07m-9.54-43.49l28.25,13.56c-6.3,2.13-22.47-5.72-22.47-5.72-.9,4.63,6.44,15.13,6.44,15.13-12.57-3.88-2.83,11.84-2.83,11.84-22.21-15.54-9.39-34.81-9.39-34.81m30.93,47.09c-.18,.77-.89,1.41-1.66,1.27-.77-.14-1.55-1.03-1.23-1.75,1.26-2.83,3.32-1.35,2.89,.48m15.16-23.87c.04,1.36-1.93,2.45-3.07,2.54-1.82,.14-3.63-1.29-3.91-3.09-.14-.94,.2-2.06,1.09-2.41,.75-.29,1.58,.05,2.31,.4,1.07,.5,3.54,1.09,3.58,2.56m-.67-10.5c1.05,.24,2.24,.61,2.66,1.6,.38,.89-.07,1.96-.84,2.55-.77,.58-1.77,.75-2.73,.76-2.13,.02-4.27-.68-5.97-1.97-.7-.53-1.37-1.22-1.53-2.1-.73-3.92,6.8-1.22,8.41-.84m7.96,10.88c.24-.44,.68-.72,1.12-.94,2.83-1.43,6.72-1.31,8.49,1.73,.9,1.55,.77,3.7-.5,4.96-.6,.6-1.52,.97-2.3,.64-.81-.34-1.17-1.28-1.79-1.91-.6-.59-1.42-.87-2.22-1.13-.8-.26-1.62-.53-2.24-1.09s-.96-1.53-.56-2.26m2.46-12.81c2.24-.89,6.05-.42,5.75,2.81-.11,1.22-1.01,2.3-2.14,2.78-1.13,.48-2.45,.4-3.59-.06-1.04-.42-2-1.25-2.18-2.35-.22-1.36,.86-2.67,2.15-3.18m17.91,18.89c.09,.75-.11,1.54-.59,2.11-.49,.57-1.27,.9-2.01,.77-1.15-.21-1.84-1.35-2.39-2.38-2.24-4.21,4.51-4.61,4.99-.5m.41,23.47c-.77,.14-1.48-.5-1.66-1.27-.43-1.83,1.63-3.32,2.89-.48,.32,.72-.45,1.61-1.23,1.75m1.16-12.35c-.45,.21-.98,.2-1.44,.03-1-.37-1.66-1.49-1.49-2.54,.17-1.05,1.26-3.19,3.03-1.78,.47,.38,.73,.97,.87,1.56,.24,1.02-.02,2.29-.97,2.74m-5.88-23.81c.64-.79,1.69-1.18,2.71-1.17,2.15,.02,4.13,1.47,4.71,3.56,.28,1,.15,2.15-.48,2.98-.63,.83-1.79,1.27-2.77,.93-.88-.31-1.46-1.12-2.2-1.69-.75-.58-1.71-.95-2.22-1.75-.55-.86-.39-2.06,.25-2.85m3.67-8.22c.39-.33,.9-.49,1.4-.52,.85-.05,2.46,.21,2.19,1.42-.08,.37-.33,.68-.6,.94-.54,.51-1.26,.89-2.01,.85-.75-.04-1.48-.6-1.57-1.34-.06-.5,.19-1.01,.58-1.34m9.7,7.58c.61-.47,1.18-.82,1.81-.23,.55,.52,.73,1.36,.55,2.08-.22,.9-.87,1.63-1.49,2.32-.35,.39-.72,.8-1.21,.99s-1.13,.11-1.42-.33c-.13-.2-.17-.45-.18-.69-.12-1.59,.67-3.19,1.93-4.14m7.95,9.45c.44,.22,.89,.5,1.12,.94,.4,.74,.06,1.7-.56,2.27-.62,.57-1.44,.83-2.24,1.09-.8,.26-1.62,.54-2.22,1.13-.63,.62-.98,1.56-1.79,1.91-.78,.33-1.7-.05-2.3-.64-1.27-1.26-1.39-3.41-.5-4.96,1.76-3.04,5.65-3.16,8.49-1.73m4.34-15.02c1.28,.51,2.37,1.81,2.15,3.18-.18,1.1-1.14,1.93-2.18,2.35-1.14,.46-2.46,.54-3.59,.06-1.13-.48-2.02-1.56-2.14-2.78-.3-3.23,3.51-3.7,5.75-2.81m5.82,11.43c.89,.35,1.23,1.47,1.09,2.41-.28,1.81-2.09,3.24-3.91,3.09-1.14-.09-3.12-1.18-3.07-2.54,.05-1.47,2.51-2.06,3.58-2.56,.73-.34,1.56-.69,2.31-.39m.58-7.21c.42-.99,1.61-1.36,2.66-1.6,1.62-.37,9.14-3.07,8.41,.85-.16,.87-.82,1.56-1.53,2.1-1.7,1.29-3.83,1.99-5.97,1.97-.96-.01-1.97-.18-2.73-.76-.77-.58-1.22-1.66-.84-2.55m12.77,10.3c-.18,.77-.89,1.41-1.66,1.27-.77-.14-1.55-1.03-1.23-1.75,1.26-2.83,3.32-1.35,2.89,.48m6.02,21.29c.32,.72-.45,1.61-1.23,1.75-.77,.14-1.48-.5-1.66-1.27-.43-1.83,1.63-3.32,2.89-.48m-135.16-79.17v128.95l54.19-.75s0-.05,0-.08c0-11.45,11.52-12.91,16.38-13.01,1.3-.03,2.57,.36,3.64,1.1l1.79,1.26c1.19,.83,2.6,1.28,4.05,1.28h.92c1.62,0,3.19,.56,4.45,1.58,1.88,1.52,2.87,3.91,2.57,6.3-2.17,17.69-18.64,16.91-18.64,16.91,0,0-12.68-.76-14.84-12l-52.09,14.39,48.53-14.87-50.34,6.47,50.14-7.86-50.75-.7v53.1h182.05v-53.1l-50.75,.7,50.14,7.86-50.34-6.47,48.53,14.87-55.88-15.44c-1.55,12.24-15.01,13.05-15.01,13.05,0,0-16.47,.78-18.64-16.91-.29-2.4,.69-4.78,2.57-6.3,1.26-1.02,2.83-1.58,4.45-1.58h.92c1.45,0,2.86-.45,4.05-1.28l1.79-1.26c1.07-.75,2.34-1.13,3.64-1.1,4.86,.1,16.38,1.56,16.38,13.01,0,0,0,.02,0,.03l58.15,.81v-128.95h-182.05Z"></path><path class="cls-12" d="M317.59,773.62c0,25.13-20.38,45.51-45.51,45.51s-45.51-20.38-45.51-45.51,20.38-45.51,45.51-45.51,45.51,20.38,45.51,45.51"></path><path class="cls-12" d="M363.1,728.1v91.03c-25.14,0-45.51-20.38-45.51-45.52s20.37-45.51,45.51-45.51"></path><path class="cls-12" d="M363.1,819.13v91.02c-25.14,0-45.51-20.37-45.51-45.51s20.37-45.51,45.51-45.51"></path><path class="cls-12" d="M317.59,864.65c0,25.13-20.38,45.51-45.51,45.51s-45.51-20.37-45.51-45.51,20.38-45.51,45.51-45.51,45.51,20.37,45.51,45.51"></path><path class="cls-12" d="M226.56,864.65c0,25.13-20.37,45.51-45.51,45.51v-91.02c25.14,0,45.51,20.37,45.51,45.51"></path><path class="cls-12" d="M226.56,773.62c0,25.13-20.37,45.51-45.51,45.51v-91.03c25.14,0,45.51,20.38,45.51,45.51"></path><path class="cls-6" d="M181.05,546.05v148.87l18.2-20.73c3.75-4.57,1.25-25.91-.11-35.53-.48-3.37-.38-6.79,.28-10.13,2.85-14.47,10.82-53.03,10.82-53.03,.16-1.15,.82-2.13,1.64-2.95,1.97-1.97,5.42-3.12,9.03-2.46,5.25,.66,8.7,8.37,8.53,12.14l-2.95,46.61c0,.66,.33,.98,.98,.98q.33,0,.49-.17l23.14-19.2,52.19-56.12c4.27-4.6,10.34-6.07,13.79-3.28,3.45,2.79,3.28,8.86-.66,13.78l-43.49,54.98,64.49-57.27c5.08-4.43,10.99-5.09,13.95-2.13l.16,.16c2.95,3.28,3.61,7.88-2.46,13.95l-58.91,60.56,57.6-38.89c4.92-3.28,10.17-3.61,12.96-.82,.33,.33,.66,.66,.66,.98,2.46,3.77,.33,9.85-4.59,13.79l-60.56,48.08,52.35-28.39c5.09-3.12,10.67-2.46,12.63,1.48,2.13,4.1-.16,10.01-4.92,13.79l-60.56,41.19-42.34,27.9-14.4,13.93h-57.95s182.05,0,182.05,0v-182.05H181.05Z"></path><path class="cls-7" d="M518.42,427.73c-5.93,5.96-26.46,14.14-42.75,19.99,.01,.04,.03,.08,.05,.13-2.26-6.79-7.61-12.15-14.4-14.4,5.76-16.32,13.83-36.9,19.75-42.86,10.26-10.31,26.94-10.36,37.25-.1,10.31,10.26,10.36,26.93,.1,37.25m.15,54.23c10.31,10.26,10.36,26.93,.1,37.25-10.26,10.31-26.94,10.36-37.25,.1-5.96-5.93-14.14-26.46-19.99-42.75-.04,.01-.08,.03-.13,.05,6.79-2.26,12.15-7.61,14.4-14.4,16.32,5.76,36.9,13.83,42.86,19.76m-91.38,37.5c-10.26,10.31-26.94,10.36-37.25,.1-10.31-10.26-10.36-26.94-.1-37.25,5.93-5.96,26.46-14.14,42.75-19.99-.01-.04-.03-.08-.05-.13,2.26,6.79,7.61,12.15,14.4,14.4-5.76,16.32-13.83,36.9-19.75,42.86m-37.5-91.38c-10.31-10.26-10.36-26.94-.1-37.25,10.26-10.31,26.94-10.36,37.25-.1,5.96,5.93,14.14,26.46,19.99,42.75,.04-.01,.08-.03,.13-.04-6.79,2.26-12.15,7.61-14.4,14.4-16.32-5.76-36.9-13.83-42.86-19.76m64.44-64.09c10.91,0,19.76,8.85,19.76,19.76,0,6.58-7.18,31.11-12.88,49.57-2.17-.69-4.48-1.06-6.88-1.06s-4.71,.38-6.88,1.06c-5.7-18.46-12.88-42.99-12.88-49.57,0-10.91,8.85-19.76,19.76-19.76h-91.03v91.03c0-10.91,8.85-19.76,19.76-19.76,6.58,0,31.11,7.18,49.57,12.88-.69,2.17-1.06,4.48-1.06,6.88s.38,4.71,1.06,6.88c-18.46,5.7-42.99,12.88-49.57,12.88-10.91,0-19.76-8.85-19.76-19.76v91.03h91.03c-10.91,0-19.76-8.85-19.76-19.76,0-6.58,7.18-31.12,12.88-49.57,2.17,.69,4.48,1.06,6.88,1.06s4.71-.38,6.88-1.06c5.7,18.46,12.88,42.99,12.88,49.57,0,10.91-8.85,19.76-19.76,19.76h91.03v-91.03c0,10.91-8.85,19.76-19.76,19.76-6.58,0-31.11-7.18-49.57-12.88,.69-2.17,1.06-4.48,1.06-6.88s-.38-4.71-1.06-6.88c18.46-5.7,42.99-12.88,49.57-12.88,10.91,0,19.76,8.85,19.76,19.76v-91.03h-91.03Z"></path><path class="cls-4" d="M664.2,505.56c2.95-4.05,4.99-8.46,6.01-12.99,1.49,2.58,3.43,7.02,3.68,12.99h-9.68Zm-.1,22.07c2.98-4.06,5.05-8.48,6.08-13.03,1.5,2.58,3.45,7.03,3.7,13.03h-9.78Zm-3.17,0h-.08v.09c-.68,.82-1.39,1.63-2.16,2.42-3.52-3.64-6.11-7.65-7.75-11.92,2.34-2.67,4.25-5.52,5.7-8.52,.38,.4,.76,.8,1.17,1.2l.88,.86,.88-.86c.93-.91,1.81-1.84,2.63-2.81h6.21c-.07,6.94-2.64,13.62-7.49,19.54m-11.31,11.08s-1.64,1.86-1.92,2.15c-.28-.29-2.1-2.36-2.1-2.36-2.23-2.7-4-5.59-5.27-8.61,2.56-3.01,4.59-6.23,6.03-9.63,.15,.15,.3,.31,.45,.46l.88,.86,.88-.86c.15-.15,.3-.31,.45-.46,1.45,3.4,3.47,6.62,6.04,9.62-1.31,3.1-3.13,6.05-5.45,8.82m-12.92-8.57c-3.52-3.64-6.11-7.65-7.75-11.92,2.34-2.67,4.25-5.52,5.7-8.52,.38,.4,.76,.8,1.17,1.2l.88,.86,.88-.86c.4-.39,.78-.8,1.17-1.2,1.45,3,3.36,5.85,5.7,8.52-1.64,4.27-4.23,8.28-7.75,11.92m-9.35,8.9s-1.37,1.53-1.65,1.82c-.28-.29-2.37-2.68-2.37-2.68-2.11-2.61-3.78-5.39-5-8.29,2.57-3.01,4.59-6.23,6.03-9.63,.15,.15,.3,.31,.46,.47l.88,.86,.88-.86c.15-.15,.3-.31,.45-.46,1.45,3.4,3.47,6.62,6.04,9.62-1.36,3.23-3.28,6.29-5.72,9.15m-12.64-8.9c-.76-.79-1.48-1.6-2.16-2.42v-.09h-.08c-4.85-5.92-7.41-12.6-7.49-19.54h6.21c.82,.96,1.7,1.9,2.63,2.81l.88,.86,.88-.86c.4-.39,.78-.8,1.17-1.2,1.45,3,3.36,5.85,5.7,8.52-1.64,4.28-4.23,8.28-7.75,11.92m-15.19-2.51c.25-5.97,2.21-10.44,3.7-13.02,1.04,4.55,3.1,8.96,6.08,13.02h-9.78Zm3.68-35.05c1.02,4.53,3.06,8.93,6,12.98h-9.68c.25-5.94,2.19-10.39,3.68-12.98m4.71-11.38c.68,1.14,1.36,2.12,2.14,3.08h-8.49c2.21-1.01,4.33-2.04,6.35-3.08m14.02-8.06c.17,.21,.33,.41,.49,.59-1.64,4.25-4.23,8.23-7.73,11.86-2.01-2.01-3.29-3.51-4.53-5.55,4.44-2.36,8.36-4.7,11.77-6.9m8.82-6.16c-1.4,2.27-3.08,4.45-5.07,6.5-.67-.65-1.12-1.12-1.63-1.74,2.59-1.74,4.83-3.35,6.7-4.76m5.95-4.84c.46,.46,1.11,1.1,1.89,1.84,1.31,2.78,3.28,6.38,5.88,9.59-1.64,4.31-4.24,8.34-7.78,12-3.52-3.64-6.11-7.65-7.75-11.92,2.85-3.26,5.07-6.78,6.59-10.51,.45-.39,.86-.74,1.17-1.01m11.77,10.44c-.26,.29-.51,.59-.78,.88-1.22-1.31-2.31-2.76-3.28-4.22,1.25,1.07,2.61,2.19,4.06,3.34m.54,3.12c1.44,3.38,3.44,6.57,5.98,9.56-1.65,3.87-4.1,7.51-7.31,10.83-3.21-3.32-5.66-6.96-7.31-10.83,2.54-2.99,4.54-6.19,5.98-9.57,.15,.16,.29,.32,.45,.47l.88,.86,.88-.86c.15-.15,.3-.31,.45-.46m12.76,6.12c-.97,1.44-1.79,2.44-3.09,3.76-3.19-3.3-5.62-6.9-7.27-10.73,3.15,2.36,6.64,4.77,10.36,6.97m2.2,1.26c.98,.55,1.98,1.08,2.99,1.59l-3.93-.26c.31-.41,.62-.85,.94-1.33m-13.05,13.2c2.46-2.81,4.45-5.81,5.93-8.97,.31,.32,.61,.65,.94,.97l.88,.86,.88-.86c.55-.53,1.01-1.01,1.44-1.46l7.37,.48c-.32,6.48-2.84,12.7-7.36,18.27h-.18v.22c-.68,.82-1.39,1.63-2.16,2.42-3.52-3.64-6.11-7.65-7.75-11.92m-4.58,2.04c.15,.15,.3,.31,.45,.46l.88,.86,.88-.86c.15-.15,.3-.31,.45-.46,1.4,3.29,3.33,6.41,5.78,9.33-1.65,3.7-4.03,7.18-7.11,10.37-3.08-3.19-5.46-6.67-7.11-10.37,2.45-2.92,4.38-6.05,5.78-9.33m-17.41-2.04c2.46-2.81,4.45-5.81,5.93-8.97,.31,.32,.61,.65,.94,.96l.88,.86,.88-.86c.32-.32,.63-.64,.94-.97,1.48,3.17,3.47,6.17,5.93,8.97-1.64,4.27-4.23,8.28-7.75,11.92-3.52-3.64-6.11-7.65-7.75-11.92m-4.58,2.04c.15,.15,.3,.31,.46,.47l.88,.86,.88-.86c.15-.15,.3-.31,.45-.46,1.4,3.29,3.33,6.41,5.78,9.33-1.65,3.7-4.03,7.18-7.11,10.37-3.08-3.19-5.46-6.67-7.11-10.37,2.45-2.93,4.38-6.05,5.77-9.34m-5.97-13.06c2.53-2.98,4.53-6.18,5.96-9.55,.02,.02,.04,.04,.07,.06l1.28,1.25,.88-.86c.15-.15,.3-.31,.45-.46,1.43,3.37,3.44,6.57,5.98,9.56-1.65,3.87-4.1,7.51-7.31,10.83-3.21-3.32-5.66-6.96-7.31-10.83m-6.02,20.31c-4.63-5.7-7.15-12.1-7.37-18.76h7.35c.46,.47,.94,.95,1.47,1.47l.88,.86,.88-.86c.32-.32,.63-.64,.94-.97,1.48,3.16,3.47,6.17,5.93,8.97-1.64,4.27-4.23,8.28-7.75,11.92-.76-.79-1.48-1.6-2.16-2.42v-.22h-.18Zm113.48-46.18c-7.26,3.54-23.45,10.3-42.48,10.82,17.57,7.62,30.92,18.07,36.75,23.06,1.44,1.24,.78,2.81-1.1,2.68-6.93-.54-21.29-2.26-37.13-7.77l.27,.02-7.77-2.98c-19.04-7.31-36.55-25.52-36.72-25.71l-.88-.92-.91,.89c-.14,.14-13.5,12.91-37.53,23.48,0-.01,0-.03,0-.04-18.45,7.6-36.09,9.76-44.01,10.36-1.88,.15-2.54-1.43-1.1-2.66,6.04-5.18,20.14-16.2,38.66-23.87,.7-.29,1.4-.58,2.09-.84-.89,.03-1.8,.04-2.72,.04-20.06,0-37.29-7.17-44.85-10.86-.69-.33-1.11-.91-1.28-1.54v92.52h54.77c.73-4.38,2.29-7.69,3.49-9.7,.84,3.34,2.24,6.6,4.15,9.7h2.98c-3.38-4.94-5.27-10.32-5.53-15.9h6.3c.79,.92,1.63,1.81,2.52,2.68l.88,.86,.88-.86c.3-.29,.58-.6,.87-.9,1.39,3,3.23,5.86,5.49,8.54-.83,1.92-1.86,3.78-3.08,5.58h2.99c.72-1.16,1.38-2.33,1.95-3.54,.33,.35,.66,.69,1.01,1.03l.88,.86,.88-.86c.35-.34,.68-.69,1.01-1.04,.57,1.21,1.23,2.38,1.95,3.54h2.98c-1.22-1.79-2.25-3.66-3.08-5.57,2.27-2.68,4.11-5.54,5.5-8.55,.29,.3,.57,.6,.87,.9l.88,.86,.88-.86c.3-.29,.58-.6,.87-.9,1.39,3,3.23,5.86,5.49,8.54-.83,1.92-1.86,3.78-3.08,5.58h2.98c.72-1.16,1.38-2.33,1.95-3.54,.33,.35,.66,.7,1.01,1.04l.88,.86,.88-.86c.35-.34,.68-.69,1.01-1.04,.57,1.21,1.23,2.38,1.95,3.54h2.98c-1.22-1.8-2.25-3.66-3.08-5.58,2.27-2.68,4.11-5.54,5.49-8.54,.29,.3,.57,.6,.87,.9l.88,.86,.88-.86c.89-.87,1.73-1.76,2.52-2.68h6.3c-.26,5.58-2.15,10.96-5.53,15.9h2.98c1.91-3.1,3.31-6.37,4.15-9.71,1.2,2,2.78,5.27,3.5,9.63v.09h53.7v-88.83c0,.86-.45,1.72-1.35,2.15"></path><path class="cls-4" d="M546.43,450.76c6.3-3.08,19.3-8.55,35.05-10.31-13.34-6.93-23.38-14.84-28.23-19-1.44-1.24-.78-2.81,1.1-2.66,7.15,.55,22.26,2.36,38.72,8.32-11.75-13.3-17.88-28.24-20.36-35.48-.66-1.89,1.15-3.69,3.05-3.05,6.73,2.31,20.1,7.77,32.65,17.97-4.6-14.44-6.1-27.24-6.59-33.65-.15-1.89,1.43-2.55,2.66-1.11,4.57,5.33,13.69,16.93,21.03,32.3,.05-.91,.14-1.8,.23-2.68,1.61-16.2,7.25-29.64,10.39-36.07,.44-.9,1.3-1.35,2.16-1.35h-93.14v88.3c.17-.63,.59-1.21,1.28-1.54"></path><path class="cls-4" d="M640.46,365.35c3.19,6.54,8.96,20.28,10.48,36.84,.11-.25,.23-.49,.37-.74,6.97-13.51,14.98-23.66,19.17-28.54,1.24-1.44,2.81-.8,2.66,1.1-.52,6.87-2.22,21.1-7.65,36.82,12.95-11,27.1-16.78,34.09-19.19,1.89-.65,3.71,1.15,3.05,3.05-2.39,6.97-8.14,21.06-19.04,33.97,15.16-5.07,28.76-6.67,35.45-7.19,1.88-.14,2.54,1.44,1.1,2.66-5.19,4.46-16.34,13.23-31.12,20.47,16.56,1.51,30.31,7.3,36.85,10.49,.9,.44,1.35,1.3,1.35,2.16v-93.22h-88.91c.86,0,1.72,.45,2.17,1.35"></path><rect class="cls-14" x="909" y="182" width="182.05" height="182.05"></rect><rect class="cls-13" x="727" width="182.05" height="182.05"></rect><rect class="cls-13" y="364" width="182.05" height="182.05"></rect><rect class="cls-9" x="727" y="182.16" width="182.05" height="182.05"></rect></g></g></svg>