<svg xmlns="http://www.w3.org/2000/svg" id="Layer_2" data-name="Layer 2" viewBox="0 0 232.37 233.31"><defs><style>      .cls-1 {        fill: #6ca1ad;      }    </style></defs><g id="Capa_1" data-name="Capa 1"><path class="cls-1" d="M121.59,233.31v-30.83c22.88,2.29,110.78,4.52,110.78-96.24,0,0-87.91-11.89-110.78,58.27V96.8c22.88,2.27,110.78,4.5,110.78-96.24,0,0-2.41-.33-6.52-.55h-15.84c-33.54,1.73-93.05,15.91-93.8,94.59h-.06C115.39,15.91,55.89,1.73,22.36,0H6.52C2.41,.23,0,.55,0,.55,0,101.3,87.89,99.07,110.76,96.8v67.71C87.89,94.35,0,106.24,0,106.24c0,100.74,87.89,98.53,110.76,96.24v30.82"></path></g></svg>