<svg xmlns="http://www.w3.org/2000/svg" id="Layer_2" data-name="Layer 2" viewBox="0 0 181.69 181.69"><defs><style>      .cls-1 {        fill: #ff6917;      }    </style></defs><g id="Capa_1" data-name="Capa 1"><g><path class="cls-1" d="M120.25,85.46c-.12,0-.22,.03-.27,.09-.12,.16,.02,.54,.28,1.03v-1.12Z"></path><path class="cls-1" d="M143.14,84.18l6.97-5.37c3.76-2.9,4.41-8.34,1.38-12.05-2.77-3.39-7.86-4.08-11.42-1.55-2.3,1.63-3.52,4.18-3.57,6.77h0s.12,9.05,.12,9.05c.04,3.33,3.88,5.19,6.52,3.15"></path><path class="cls-1" d="M49,48.42l-4.53-6.08c-2.34-3.14-5.47-5.34-8.9-6.54-3.36-1.18-7.02-1.4-10.52-.57-2.46,.56-4.86,1.64-7.02,3.25-8.37,6.24-10.1,18.07-3.86,26.44,3.58,4.8,9,7.4,14.55,7.58h-.01s37.69,.11,37.69,.11c.13-.08,.28-.16,.45-.24l-4.78-6.4-13.08-17.55Z"></path><path class="cls-1" d="M145.45,15.9l-1.86,30.28-3.91-36.01,21.14,.59s-2.33,5.59-9.83,5.98c-1.92,.1-5.53-.84-5.53-.84m25.1,11.36c-1.79-.7-4.7-3.04-4.7-3.04l-12.81,24.31,9.9-31.91,18.74,9.09V0H0V181.69S0,168.81,4.66,151.65c12.34,3.65,23.02,1.67,23.02,1.67-6.87-1.97-13.89-7.31-19.55-12.62,1.55-4.23,3.39-8.6,5.57-13.01,14.86,10.05,31.67,8.54,31.67,8.54-9.54-3.74-18.71-14.37-24.1-21.56,2.47-3.67,5.23-7.3,8.32-10.81,12.38,12.14,28.42,14.03,28.42,14.03-7.91-5.19-14.3-16.06-18.22-24.11,3.22-2.76,6.7-5.39,10.46-7.86,9.63,14.89,25.38,20.14,25.38,20.14-5.92-5.92-9.78-15.97-12.12-24.22l-35.86-.09h.01c-8.39-.29-16.59-4.22-21.99-11.48C-3.76,57.64-1.15,39.75,11.49,30.32c3.96-2.95,8.44-4.72,13.01-5.36C26.06,12.6,35.66,2.26,48.61,.32c15.59-2.33,30.12,8.42,32.46,24.02l2.5,16.7c1.07,1.06,2.3,2.43,2.71,2.24,.68-.33-.65-5.25,.06-5.52,.7-.27,3.07,4.23,3.8,4.01,.72-.22,.15-5.28,.88-5.45,.73-.17,2.4,4.64,3.15,4.53,.74-.11,.93-5.2,1.69-5.26,.75-.05,1.69,4.95,2.45,4.95s1.7-5.01,2.45-4.95c.76,.06,.95,5.15,1.69,5.26,.75,.11,2.42-4.7,3.15-4.53,.74,.17,.17,5.23,.88,5.45,.72,.22,3.1-4.28,3.8-4.01,.7,.28-.62,5.19,.06,5.52,.68,.33,3.71-3.77,4.36-3.39,.65,.38-1.39,5.04-.77,5.47,.62,.43,4.22-3.18,4.81-2.71,.59,.47-2.13,4.78-1.57,5.29s4.65-2.51,5.16-1.96c.51,.55-2.81,4.41-2.34,5,.47,.59,4.97-1.8,5.39-1.18,.42,.62-3.44,3.94-3.06,4.6,.38,.65,5.18-1.04,5.51-.36,.33,.68-3.99,3.39-3.71,4.09,.07,.17,.41,.24,.88,.26,1.72-2.24,3.86-4.22,6.44-5.82,9.43-5.83,21.89-4.28,29.58,3.7,10.05,10.43,8.6,26.94-2.55,35.53l-19.63,15.13c-7.47,5.75-18.3,.52-18.43-8.91l-.11-8.14c-1.31-.7-2.83-1.59-3.15-1.29-.55,.51,2.16,4.82,1.57,5.29-.59,.47-4.19-3.13-4.81-2.71-.62,.42,1.42,5.09,.77,5.47-.65,.38-3.68-3.72-4.36-3.39-.68,.33,.65,5.24-.06,5.52-.7,.27-3.07-4.23-3.8-4.01-.72,.22-.15,5.28-.88,5.45-.73,.17-2.4-4.64-3.15-4.53-.74,.11-.93,5.2-1.69,5.26-.75,.06-1.69-4.95-2.45-4.95-.21,0-.43,.38-.65,.91C93.01,127.18,73.49,171.89,0,181.69H181.69V26.09c-1.07,.83-5.16,3.5-11.13,1.18"></path><path class="cls-1" d="M75.66,50.96l-.42-2.8c-.64-1-1.19-1.93-.96-2.18,.1-.11,.33-.08,.64,.03l-2.92-19.51c-1.55-10.33-11.16-17.44-21.48-15.9-8.03,1.21-14.11,7.28-15.7,14.78,6.43,1.45,12.39,5.11,16.64,10.8l16.51,22.15c1.53-.06,4.32,.33,4.52-.19,.28-.7-4.04-3.41-3.71-4.09,.33-.68,5.13,1.01,5.51,.36,.38-.65-3.48-3.98-3.06-4.6,.32-.47,2.96,.77,4.44,1.16"></path></g></g></svg>