<svg xmlns="http://www.w3.org/2000/svg" id="Layer_2" data-name="Layer 2" viewBox="0 0 182.62 182.62"><defs><style>      .cls-1 {        fill: #008046;      }    </style></defs><g id="Capa_1" data-name="Capa 1"><path class="cls-1" d="M0,0V149.34l18.26-20.8c3.76-4.59,1.25-25.99-.11-35.65-.48-3.38-.38-6.81,.28-10.16,2.86-14.51,10.86-53.2,10.86-53.2,.16-1.15,.82-2.14,1.65-2.96,1.98-1.98,5.43-3.13,9.05-2.47,5.27,.66,8.73,8.4,8.56,12.18l-2.96,46.75c0,.66,.33,.99,.99,.99q.33,0,.49-.17l23.21-19.26L122.63,8.31c4.28-4.61,10.37-6.09,13.83-3.29,3.46,2.8,3.29,8.89-.66,13.83l-43.62,55.15L156.87,16.54c5.1-4.44,11.03-5.1,13.99-2.14l.16,.16c2.96,3.29,3.62,7.9-2.47,13.99l-59.1,60.75,57.78-39.02c4.94-3.29,10.21-3.62,13.01-.82,.33,.33,.66,.66,.66,.99,2.47,3.79,.33,9.88-4.61,13.83l-60.75,48.23,52.52-28.48c5.1-3.13,10.7-2.47,12.67,1.48,2.14,4.12-.16,10.04-4.94,13.83l-60.75,41.32-42.47,27.99-14.44,13.97H0s182.62,0,182.62,0V0H0Z"></path></g></svg>