<svg xmlns="http://www.w3.org/2000/svg" id="Layer_2" data-name="Layer 2" viewBox="0 0 179.52 179.69"><defs><style>      .cls-1 {        fill: #008046;      }    </style></defs><g id="Capa_1" data-name="Capa 1"><g><path class="cls-1" d="M168.11,112.23v18.95c0,6.37-5.16,11.53-11.53,11.53h-17.21l-11.38,36.81h51.54V112.23h-11.41Z"></path><path class="cls-1" d="M23.47,32.95c-11.26,0-20.4,9.13-20.4,20.4s9.13,20.4,20.4,20.4,20.4-9.13,20.4-20.4-9.13-20.4-20.4-20.4m0,33.25h0c-1.42-6.42-6.43-11.44-12.85-12.85,6.42-1.42,11.44-6.43,12.85-12.85,1.42,6.42,6.43,11.44,12.85,12.85-6.42,1.42-11.44,6.43-12.85,12.85"></path><path class="cls-1" d="M68.82,44.66v6.82c0,5.82,4.72,10.54,10.54,10.54s10.54-4.72,10.54-10.54v-6.82c-5.82,0-10.54,4.72-10.54,10.54,0-5.82-4.72-10.54-10.54-10.54"></path><path class="cls-1" d="M136.44,32.95c-11.26,0-20.4,9.13-20.4,20.4s9.13,20.4,20.4,20.4,20.39-9.13,20.39-20.4-9.13-20.4-20.39-20.4m-12.15,27.81l7.32-8.19h-4.95l9.86-11.04,9.71,11.04h-4.84l7.2,8.19h-24.3Z"></path><path class="cls-1" d="M0,0V21.63c2.2-.29,4.43-.46,6.71-.46,10.98,0,20.35,3.01,28.03,8.5,12.25,8.75,20.22,23.8,23.57,43.11l8.67,39.46h-11.65v18.95c0,6.37-5.16,11.53-11.53,11.53H26.59l-11.38,36.81h.61l.55-3.75-.57,3.92h55.75l.88-2.83-.82,2.66h.61l.55-3.74,10.22-33.07h17.21c6.37,0,11.53-5.16,11.53-11.53v-18.95h11.65l-8.67-39.46c-3.35-19.3-11.32-34.36-23.57-43.11,8.14-5.36,17.88-8.5,28.35-8.5,28.5,0,46.15,20.19,51.6,51.6l8.44,38.41V0H0ZM99.76,53.34c0,11.26-9.13,20.4-20.4,20.4s-20.39-9.13-20.39-20.4,9.13-20.4,20.39-20.4,20.4,9.13,20.4,20.4M66.71,21.29c.27,.02,.54,.04,.8,.05-.27-.02-.53-.04-.8-.05m4.27,.43c.07,0,.14,.02,.2,.03-.07,0-.13-.02-.2-.03m3.46,.63c.18,.04,.37,.08,.55,.12-.18-.04-.36-.08-.55-.12m3.87,1s.08,.03,.12,.04c-.04-.01-.08-.03-.12-.04m6.73,2.67s.01,0,.02,0c0,0-.01,0-.02,0m-3.39-1.5c.06,.02,.13,.05,.19,.07-.06-.03-.13-.05-.19-.07"></path></g></g></svg>