<svg xmlns="http://www.w3.org/2000/svg" id="Layer_2" data-name="Layer 2" viewBox="0 0 267.27 133.63"><defs><style>      .cls-1 {        fill: #4af2f2;      }      .cls-1, .cls-2, .cls-3, .cls-4, .cls-5, .cls-6, .cls-7, .cls-8 {        stroke-width: 0px;      }      .cls-2 {        fill: #26cc63;      }      .cls-3 {        fill: #ffaf00;      }      .cls-4 {        fill: red;      }      .cls-5 {        fill: #ffbc00;      }      .cls-6 {        fill: #ffc9c9;      }      .cls-7 {        fill: #007aef;      }      .cls-8 {        fill: #007d4a;      }    </style></defs><g id="Capa_1" data-name="Capa 1"><g><path class="cls-5" d="M233.86,114.17c-16.71,0-25.06-13.93-25.06-13.93,0,0,8.35-13.93,25.06-13.93,18.8,0,25.06,13.93,25.06,13.93,0,0-6.26,13.93-25.06,13.93M200.45,133.63h66.82v-66.82h-66.82v66.82Z"></path><path class="cls-5" d="M233.68,105.44c-3,0-5.43-2.33-5.43-5.2s2.43-5.2,5.43-5.2,5.43,2.33,5.43,5.2-2.43,5.2-5.43,5.2M233.68,89.69c-6.07,0-11,4.72-11,10.54s4.92,10.54,11,10.54,11-4.72,11-10.54-4.92-10.54-11-10.54"></path><g><path class="cls-8" d="M200.45,66.82v29.59c0-1.58-1.01-2.92-2.42-3.41.02-.23.03-.45.03-.68,0-3.65-2.12-6.8-5.2-8.28h0c.04-.3.07-.6.07-.9,0-3.25-2.63-5.87-5.87-5.87-.63,0-1.22.1-1.79.28-.33-3.54-3.31-6.31-6.94-6.31-1.03,0-2.01.23-2.89.63-1.51-2.99-4.61-5.04-8.18-5.04h33.19Z"></path><path class="cls-8" d="M163.99,122.31c0,11.31-30.35,11.33-30.35,11.33v-31.31c.58,1.24,1.84,2.09,3.29,2.09.19,0,.37-.01.55-.04.65,1.03,1.79,1.72,3.09,1.72.64,0,1.23-.16,1.74-.45.95.66,2.1,1.04,3.34,1.04,2.02,0,3.81-1.02,4.87-2.58,4.34,1.76,13.47,6.82,13.47,18.2"></path><path class="cls-8" d="M167.09,66.82c-4.13,0-7.63,2.72-8.8,6.48-.66-.21-1.36-.32-2.09-.32-3.87,0-7.01,3.15-7.01,7.03,0,.65.09,1.28.25,1.87-.86-.49-1.85-.77-2.9-.77-3.26,0-5.91,2.65-5.91,5.93,0,1.25.38,2.4,1.03,3.36-.33-.08-.68-.12-1.03-.12-2.62,0-4.73,2.13-4.73,4.75,0,.84.22,1.63.6,2.31-1.24.16-2.28.96-2.79,2.05v-32.58h33.39Z"></path><path class="cls-8" d="M200.45,96.47v37.17s-30.14-.02-30.14-11.33c0-9.64,6.54-14.74,11.18-17.14,1.29,1.61,3.26,2.63,5.46,2.63,3.2,0,5.9-2.15,6.73-5.09.29.16.62.25.97.25,1.11,0,2.01-.9,2.01-2.02,0-.3-.06-.58-.18-.83.1,0,.19.01.29.01,2.01,0,3.68-1.64,3.68-3.65"></path><path class="cls-8" d="M177.38,103.54c-3.36,2.22-6.65,5.45-8.63,9.81v-12.75c1.05.98,2.46,1.58,4.01,1.58,1.17,0,2.27-.34,3.19-.93-.02.11-.03.24-.03.36,0,.92.62,1.7,1.47,1.94"></path><path class="cls-8" d="M165.3,106.13v6.7c-2.6-5.32-7.16-8.89-11.27-10.96.71-.66,1.16-1.61,1.16-2.66,0-.34-.04-.66-.13-.96,2.73,1.13,7.24,3.52,10.24,7.89"></path><path class="cls-8" d="M165.3,94.45v6.38c-2.41-2.38-5.17-4.12-7.68-5.29.06,0,.12,0,.18,0,1.97,0,3.65-1.2,4.36-2.91.63,1.08,1.8,1.81,3.14,1.81"></path></g><polygon class="cls-4" points="133.63 0 133.63 7.04 73.86 66.82 66.82 66.82 133.63 0"></polygon><polygon class="cls-4" points="133.63 9.66 133.63 15.39 82.21 66.82 76.48 66.82 133.63 9.66"></polygon><polygon class="cls-4" points="133.63 18.02 133.63 23.74 90.56 66.82 84.83 66.82 133.63 18.02"></polygon><polygon class="cls-4" points="133.63 26.37 133.63 32.1 98.91 66.82 93.18 66.82 133.63 26.37"></polygon><polygon class="cls-4" points="133.63 34.72 133.63 40.45 107.27 66.82 101.54 66.82 133.63 34.72"></polygon><polygon class="cls-4" points="133.63 43.07 133.63 48.8 115.62 66.82 109.89 66.82 133.63 43.07"></polygon><polygon class="cls-4" points="133.63 51.42 133.63 57.15 123.97 66.82 118.24 66.82 133.63 51.42"></polygon><polygon class="cls-4" points="133.63 59.78 133.63 66.82 126.59 66.82 133.63 59.78"></polygon><g><path class="cls-4" d="M80.99,39.98l-6.33-6.33-3.61,3.61s1.33.59,2.76-.85c.92-.92.97-1.47.97-1.47l6.21,5.03Z"></path><path class="cls-4" d="M80.99,39.98l-.7-8.92-5.09.4s.63,1.31,2.65,1.15c1.29-.1,1.69-.48,1.69-.48l1.45,7.86Z"></path><path class="cls-4" d="M83.5,43.95l-2.44,2.44-.5-3.46h0c-.06-.5.11-1.03.49-1.41.67-.67,1.77-.67,2.44,0,.67.67.67,1.77,0,2.44M85.53,39.47c-1.9-1.9-4.99-1.9-6.89,0-1.09,1.09-1.55,2.57-1.39,3.99h0s1.4,9.77,1.4,9.77l6.88-6.88c1.9-1.9,1.9-4.99,0-6.89"></path><path class="cls-4" d="M102.73,29.13c-3.8-3.8-9.97-3.8-13.77,0-3.8,3.8-3.8,9.97,0,13.77"></path><path class="cls-4" d="M110.98,20.88c-3.15-3.15-8.26-3.15-11.41,0-3.15,3.15-3.15,8.26,0,11.41"></path><path class="cls-4" d="M98.15,35.6c-.1,0-.21-.03-.3-.11l-11-9.13,1.66,6.4c.06.25-.08.5-.33.57-.25.06-.5-.08-.57-.33l-2.03-7.79c-.05-.2.03-.4.2-.51.17-.11.39-.09.55.03l12.1,10.05c.2.16.22.46.06.65-.09.11-.22.17-.36.17"></path><path class="cls-4" d="M91.61,42.15c-.14,0-.29-.07-.38-.19l-8.6-11.9c-.12-.17-.12-.39,0-.55.12-.16.34-.23.53-.16l5.64,2.02c.24.09.37.35.28.59-.09.24-.35.37-.59.28l-4.23-1.51,7.73,10.69c.15.21.1.5-.1.65-.08.06-.18.09-.27.09"></path><path class="cls-4" d="M99.23,25.39c-.17,0-.33-.09-.41-.25l-5.33-10.52c-.09-.19-.05-.42.1-.56.16-.14.39-.16.56-.04l15.09,9.9c.21.14.27.43.13.64-.14.21-.43.27-.64.13l-13.63-8.95,4.55,8.97c.12.23.02.51-.2.62-.07.03-.14.05-.21.05"></path><path class="cls-4" d="M100.58,33.17c-.13,0-.27-.06-.36-.17l-9.68-11.9c-.13-.16-.14-.4-.01-.57.12-.17.35-.24.54-.16l7.78,3.07c.24.09.36.36.26.6-.09.24-.36.36-.6.26l-6.14-2.42,8.56,10.53c.16.2.13.49-.07.65-.09.07-.19.1-.29.1"></path><path class="cls-4" d="M106.92,20.33c-.25,0-.46-.2-.46-.45l-.25-10.38c0-.19.1-.36.27-.43.17-.08.37-.05.5.08l9.02,8.11c.19.17.21.46.03.66-.17.19-.46.21-.66.03l-8.22-7.39.22,9.3c0,.26-.2.47-.45.48h-.01"></path><path class="cls-4" d="M112.94,20.82c-.1,0-.2-.03-.29-.1l-9.09-7.21,2.29,6.65c.08.24-.05.51-.29.59-.24.08-.51-.05-.59-.29l-2.8-8.15c-.07-.19,0-.41.17-.53.17-.12.39-.11.56.02l10.33,8.19c.2.16.23.45.08.65-.09.12-.23.18-.36.18"></path></g><polygon class="cls-7" points="14.57 66.82 0 81.39 0 66.82 14.57 66.82"></polygon><polygon class="cls-7" points="41.61 66.82 .11 108.32 .11 93.2 26.49 66.82 41.61 66.82"></polygon><polygon class="cls-7" points="66.82 66.82 66.82 68.43 1.61 133.63 0 133.63 0 120.13 53.31 66.82 66.82 66.82"></polygon><polygon class="cls-7" points="66.92 79.77 66.92 94.89 28.18 133.63 13.06 133.63 66.92 79.77"></polygon><polygon class="cls-7" points="66.92 106.23 66.92 121.35 54.64 133.63 39.52 133.63 66.92 106.23"></polygon><path class="cls-1" d="M66.82,66.82v54.64l6.68-7.61c1.38-1.68.46-9.51-.04-13.04-.17-1.24-.14-2.49.1-3.72,1.05-5.31,3.97-19.46,3.97-19.46.06-.42.3-.78.6-1.08.72-.72,1.99-1.14,3.31-.9,1.93.24,3.19,3.07,3.13,4.46l-1.08,17.11c0,.24.12.36.36.36q.12,0,.18-.06l8.49-7.05,19.15-20.6c1.57-1.69,3.79-2.23,5.06-1.2,1.27,1.02,1.2,3.25-.24,5.06l-15.96,20.18,23.67-21.02c1.87-1.63,4.03-1.87,5.12-.78l.06.06c1.08,1.2,1.33,2.89-.9,5.12l-21.62,22.22,21.14-14.27c1.81-1.2,3.73-1.33,4.76-.3.12.12.24.24.24.36.9,1.39.12,3.61-1.69,5.06l-22.23,17.65,19.21-10.42c1.87-1.14,3.91-.9,4.64.54.78,1.51-.06,3.67-1.81,5.06l-22.22,15.12-15.54,10.24-5.28,5.11h-21.27s66.82,0,66.82,0v-66.82h-66.82Z"></path><path class="cls-6" d="M190.64,23.39c-2.18,2.19-9.71,5.19-15.69,7.34,0,.02.01.03.02.05-.83-2.49-2.79-4.46-5.28-5.29,2.11-5.99,5.08-13.54,7.25-15.73,3.76-3.79,9.89-3.8,13.67-.04,3.79,3.76,3.8,9.89.04,13.67M190.69,43.3c3.79,3.76,3.8,9.89.04,13.67-3.76,3.79-9.89,3.8-13.67.04-2.19-2.18-5.19-9.71-7.34-15.69-.02,0-.03.01-.05.02,2.49-.83,4.46-2.79,5.29-5.28,5.99,2.11,13.54,5.08,15.73,7.25M157.15,57.06c-3.76,3.79-9.89,3.8-13.67.04-3.79-3.76-3.8-9.89-.04-13.67,2.18-2.19,9.71-5.19,15.69-7.34,0-.02-.01-.03-.02-.05.83,2.49,2.79,4.46,5.28,5.29-2.11,5.99-5.08,13.54-7.25,15.73M143.39,23.52c-3.79-3.76-3.8-9.89-.04-13.67,3.76-3.79,9.89-3.8,13.67-.04,2.19,2.18,5.19,9.71,7.34,15.69.02,0,.03-.01.05-.02-2.49.83-4.46,2.79-5.29,5.28-5.99-2.11-13.54-5.08-15.73-7.25M167.04,0c4.01,0,7.25,3.25,7.25,7.25,0,2.41-2.63,11.42-4.73,18.19-.8-.25-1.64-.39-2.52-.39s-1.73.14-2.52.39c-2.09-6.77-4.73-15.78-4.73-18.19C159.79,3.25,163.04,0,167.04,0h-33.41v33.41c0-4.01,3.25-7.25,7.25-7.25,2.41,0,11.42,2.63,18.19,4.73-.25.8-.39,1.64-.39,2.52s.14,1.73.39,2.52c-6.77,2.09-15.78,4.73-18.19,4.73-4.01,0-7.25-3.25-7.25-7.25v33.41h33.41c-4.01,0-7.25-3.25-7.25-7.25,0-2.41,2.63-11.42,4.73-18.19.8.25,1.64.39,2.52.39s1.73-.14,2.52-.39c2.09,6.77,4.73,15.78,4.73,18.19,0,4.01-3.25,7.25-7.25,7.25h33.41v-33.41c0,4.01-3.25,7.25-7.25,7.25-2.41,0-11.42-2.63-18.19-4.73.25-.8.39-1.64.39-2.52s-.14-1.73-.39-2.52c6.77-2.09,15.78-4.73,18.19-4.73,4.01,0,7.25,3.25,7.25,7.25V0h-33.41Z"></path><g><path class="cls-2" d="M244.14,51.95c1.08-1.49,1.83-3.1,2.2-4.77.55.95,1.26,2.58,1.35,4.77h-3.55ZM244.11,60.05c1.09-1.49,1.85-3.11,2.23-4.78.55.95,1.27,2.58,1.36,4.78h-3.59ZM242.94,60.05h-.03v.03c-.25.3-.51.6-.79.89-1.29-1.34-2.24-2.81-2.84-4.38.86-.98,1.56-2.03,2.09-3.13.14.15.28.3.43.44l.32.32.32-.32c.34-.33.66-.68.96-1.03h2.28c-.03,2.55-.97,5-2.75,7.17M238.79,64.12s-.6.68-.71.79c-.1-.11-.77-.87-.77-.87-.82-.99-1.47-2.05-1.94-3.16.94-1.1,1.68-2.29,2.21-3.53.06.06.11.11.17.17l.32.32.32-.32c.06-.06.11-.11.17-.17.53,1.25,1.27,2.43,2.22,3.53-.48,1.14-1.15,2.22-2,3.24M234.05,60.97c-1.29-1.34-2.24-2.81-2.84-4.38.86-.98,1.56-2.03,2.09-3.13.14.15.28.3.43.44l.32.32.32-.32c.15-.14.29-.29.43-.44.53,1.1,1.23,2.15,2.09,3.13-.6,1.57-1.55,3.04-2.85,4.38M230.62,64.24s-.5.56-.6.67c-.1-.11-.87-.98-.87-.98-.77-.96-1.39-1.98-1.84-3.04.94-1.1,1.68-2.29,2.21-3.53.06.06.11.12.17.17l.32.32.32-.32c.06-.06.11-.11.17-.17.53,1.25,1.27,2.43,2.21,3.53-.5,1.18-1.2,2.31-2.1,3.36M225.98,60.97c-.28-.29-.54-.59-.79-.89v-.03h-.03c-1.78-2.17-2.72-4.62-2.75-7.17h2.28c.3.35.62.7.96,1.03l.32.32.32-.32c.15-.14.29-.29.43-.44.53,1.1,1.23,2.15,2.09,3.13-.6,1.57-1.55,3.04-2.85,4.38M220.41,60.05c.09-2.19.81-3.83,1.36-4.78.38,1.67,1.14,3.29,2.23,4.78h-3.59ZM221.76,47.19c.37,1.66,1.12,3.28,2.2,4.76h-3.55c.09-2.18.8-3.81,1.35-4.76M223.49,43.01c.25.42.5.78.79,1.13h-3.12c.81-.37,1.59-.75,2.33-1.13M228.63,40.05c.06.08.12.15.18.22-.6,1.56-1.55,3.02-2.84,4.35-.74-.74-1.21-1.29-1.66-2.04,1.63-.86,3.07-1.72,4.32-2.53M231.87,37.79c-.51.83-1.13,1.63-1.86,2.39-.24-.24-.41-.41-.6-.64.95-.64,1.77-1.23,2.46-1.75M234.05,36.02c.17.17.41.4.69.68.48,1.02,1.2,2.34,2.16,3.52-.6,1.58-1.56,3.06-2.86,4.4-1.29-1.34-2.24-2.81-2.84-4.38,1.05-1.2,1.86-2.49,2.42-3.86.17-.14.32-.27.43-.37M238.38,39.85c-.1.11-.19.22-.29.32-.45-.48-.85-1.01-1.2-1.55.46.39.96.8,1.49,1.23M238.58,40.99c.53,1.24,1.26,2.41,2.19,3.51-.61,1.42-1.5,2.75-2.68,3.98-1.18-1.22-2.08-2.56-2.68-3.98.93-1.1,1.67-2.27,2.19-3.51.06.06.11.12.16.17l.32.32.32-.32c.06-.06.11-.11.17-.17M243.26,43.24c-.36.53-.66.89-1.13,1.38-1.17-1.21-2.06-2.53-2.67-3.94,1.16.87,2.44,1.75,3.8,2.56M244.07,43.7c.36.2.73.4,1.1.58l-1.44-.09c.11-.15.23-.31.34-.49M239.28,48.55c.9-1.03,1.63-2.13,2.18-3.29.11.12.23.24.34.35l.32.32.32-.32c.2-.19.37-.37.53-.53l2.7.18c-.12,2.38-1.04,4.66-2.7,6.7h-.07v.08c-.25.3-.51.6-.79.89-1.29-1.34-2.24-2.81-2.84-4.38M237.6,49.3c.06.06.11.11.17.17l.32.32.32-.32c.06-.06.11-.11.17-.17.51,1.21,1.22,2.35,2.12,3.42-.6,1.36-1.48,2.63-2.61,3.81-1.13-1.17-2.01-2.45-2.61-3.81.9-1.07,1.61-2.22,2.12-3.43M231.21,48.55c.9-1.03,1.63-2.13,2.18-3.29.11.12.23.24.34.35l.32.32.32-.32c.12-.12.23-.24.35-.35.54,1.16,1.27,2.26,2.18,3.29-.6,1.57-1.55,3.04-2.85,4.38-1.29-1.34-2.24-2.81-2.84-4.38M229.52,49.3c.06.06.11.12.17.17l.32.32.32-.32c.06-.06.11-.11.17-.17.51,1.21,1.22,2.35,2.12,3.43-.61,1.36-1.48,2.63-2.61,3.8-1.13-1.17-2.01-2.45-2.61-3.81.9-1.07,1.61-2.22,2.12-3.43M227.33,44.5c.93-1.1,1.66-2.27,2.19-3.5,0,0,.02.02.02.02l.47.46.32-.32c.06-.06.11-.11.17-.17.53,1.24,1.26,2.41,2.19,3.51-.61,1.42-1.51,2.76-2.68,3.98-1.18-1.22-2.08-2.56-2.68-3.98M225.12,51.95c-1.7-2.09-2.62-4.44-2.7-6.89h2.7c.17.17.34.35.54.54l.32.32.32-.32c.12-.12.23-.24.34-.35.54,1.16,1.27,2.26,2.18,3.29-.6,1.57-1.55,3.04-2.85,4.38-.28-.29-.54-.59-.79-.89v-.08h-.07ZM266.77,35.01c-2.67,1.3-8.61,3.78-15.59,3.97,6.45,2.8,11.35,6.63,13.49,8.47.53.45.29,1.03-.4.98-2.54-.2-7.82-.83-13.63-2.85h.1s-2.85-1.09-2.85-1.09c-6.99-2.68-13.41-9.37-13.48-9.44l-.32-.34-.34.32c-.05.05-4.95,4.74-13.77,8.62,0,0,0-.01,0-.02-6.77,2.79-13.25,3.58-16.15,3.8-.69.06-.93-.52-.4-.98,2.22-1.9,7.39-5.95,14.19-8.76.26-.11.51-.21.77-.31-.33.01-.66.02-1,.02-7.36,0-13.69-2.63-16.46-3.99-.25-.12-.41-.33-.47-.57v33.96h20.1c.27-1.61.84-2.82,1.28-3.56.31,1.23.82,2.42,1.52,3.56h1.09c-1.24-1.81-1.93-3.79-2.03-5.84h2.31c.29.34.6.66.92.98l.32.32.32-.32c.11-.11.21-.22.32-.33.51,1.1,1.18,2.15,2.02,3.13-.3.7-.68,1.39-1.13,2.05h1.1c.26-.42.51-.86.71-1.3.12.13.24.25.37.38l.32.32.32-.32c.13-.13.25-.25.37-.38.21.44.45.87.71,1.3h1.09c-.45-.66-.83-1.34-1.13-2.05.83-.99,1.51-2.03,2.02-3.14.11.11.21.22.32.33l.32.32.32-.32c.11-.11.21-.22.32-.33.51,1.1,1.18,2.15,2.02,3.14-.3.7-.68,1.39-1.13,2.05h1.1c.26-.42.51-.86.71-1.3.12.13.24.26.37.38l.32.32.32-.32c.13-.13.25-.25.37-.38.21.44.45.87.71,1.3h1.1c-.45-.66-.83-1.34-1.13-2.05.83-.99,1.51-2.03,2.02-3.14.11.11.21.22.32.33l.32.32.32-.32c.33-.32.63-.65.92-.98h2.31c-.1,2.05-.79,4.02-2.03,5.84h1.09c.7-1.14,1.21-2.34,1.52-3.57.44.73,1.02,1.93,1.28,3.53v.03h19.71v-32.6c0,.31-.17.63-.5.79"></path><path class="cls-2" d="M200.92,31.84c2.31-1.13,7.08-3.14,12.86-3.78-4.9-2.54-8.58-5.45-10.36-6.97-.53-.45-.29-1.03.4-.98,2.63.2,8.17.87,14.21,3.05-4.31-4.88-6.56-10.36-7.47-13.02-.24-.7.42-1.36,1.12-1.12,2.47.85,7.38,2.85,11.98,6.6-1.69-5.3-2.24-10-2.42-12.35-.06-.7.52-.94.98-.41,1.68,1.95,5.02,6.21,7.72,11.86.02-.33.05-.66.09-.98.59-5.95,2.66-10.88,3.81-13.24.16-.33.48-.5.79-.5h-34.18v32.41c.06-.23.22-.44.47-.57"></path><path class="cls-2" d="M235.43.5c1.17,2.4,3.29,7.44,3.84,13.52.04-.09.09-.18.14-.27,2.56-4.96,5.5-8.68,7.03-10.48.45-.53,1.03-.29.98.4-.19,2.52-.82,7.74-2.81,13.51,4.75-4.04,9.95-6.16,12.51-7.04.7-.24,1.36.42,1.12,1.12-.88,2.56-2.99,7.73-6.99,12.47,5.56-1.86,10.56-2.45,13.01-2.64.69-.05.93.53.4.98-1.9,1.64-6,4.86-11.42,7.51,6.08.55,11.13,2.68,13.52,3.85.33.16.5.48.5.79V0h-32.63c.32,0,.63.17.8.5"></path></g><rect class="cls-3" x="0" y="0" width="66.82" height="66.82"></rect></g></g></svg>