<svg xmlns="http://www.w3.org/2000/svg" id="Layer_2" data-name="Layer 2" viewBox="0 0 139.08 139.08"><defs><style>      .cls-1 {        fill: #007d4a;        stroke-width: 0px;      }    </style></defs><g id="Capa_1" data-name="Capa 1"><g><path class="cls-1" d="M52.63,112.47h51.38c0-2.77-2.24-5.02-5.02-5.02h-26.47c-2.01-5.12-6.98-8.75-12.81-8.75-4.67,0-8.8,2.33-11.29,5.9-1.29-.72-2.77-1.13-4.35-1.13-4.97,0-9,4.03-9,9h17.56Z"></path><path class="cls-1" d="M54.83,127.79h0c3.33,0,6.08-2.53,6.42-5.77h42.76v-4.11h-59.06c-5.46,0-9.88,4.42-9.88,9.88h19.76Z"></path><path class="cls-1" d="M65.6,138.59h38.41c0-4.97-4.03-9-9-9-1.58,0-3.07.41-4.36,1.13-2.49-3.56-6.61-5.9-11.29-5.9-5.83,0-10.81,3.63-12.81,8.75h-26.47c-2.77,0-5.01,2.25-5.01,5.02h30.53Z"></path><path class="cls-1" d="M0,0v139.08l43.67-64c5.38-7.88,13.45-12.34,21.89-13.41V5.02h6.41l40.72,21.17-40.72,21.17v14.16c6.95.53,13.74,3.36,19.1,8.46-1.11-.24-2.25-.37-3.43-.37-9.04,0-16.37,7.33-16.37,16.37s7.33,16.37,16.37,16.37c8.51,0,15.49-6.49,16.29-14.79l35.15,51.51V0H0Z"></path></g></g></svg>