<svg xmlns="http://www.w3.org/2000/svg" id="Layer_2" data-name="Layer 2" viewBox="0 0 138.58 138.58"><defs><style>      .cls-1 {        fill: #e16e45;        stroke-width: 0px;      }    </style></defs><g id="Capa_1" data-name="Capa 1"><path class="cls-1" d="M117.09,51.28s7.42-11.97-2.15-9.02c0,0,5.58-7.99,4.9-11.52,0,0-12.3,5.98-17.1,4.36l21.5-10.32s9.76,14.67-7.15,26.5M116.97,57.9c-.29.64-1.09.88-1.79.82-1.6-.15-2.43-1.51-2.41-1.97.04-.79.75-1.45,1.53-1.57.78-.12,1.59.23,2.14.8.49.51.81,1.28.52,1.93M115.69,79.49c-.12,1.02-1,1.9-2.02,2.02-1.02.12-2.09-.52-2.45-1.48-.84-2.35.51-5.04,3.09-3.26.88.61,1.51,1.65,1.39,2.71M113.11,89.79c-.1.65-.48,1.38-1.13,1.42-.66.04-1.12-.66-1.35-1.28-.23-.64-.39-1.3-.47-1.97-.04-.38-.06-.78.08-1.14.57-1.38,2.17,0,2.57.79.34.67.41,1.45.29,2.19M107.59,64.45c-.03-.77.47-1.49,1.12-1.89.65-.4,1.44-.54,2.2-.58.77-.05,1.54-.01,2.3-.11-.31,1.06-.63,2.15-1.3,3.04-1.04,1.38-4.23,2.17-4.33-.45M105.02,52.01c.58-.14,1.26.12,1.43.7.17.57-.17,1.41-.77,1.43-2.36.11-2.05-1.8-.66-2.13M106.57,74.04c-.33.82-1.17,1.43-2.06,1.44-.51,0-1.04-.19-1.36-.59-.42-.52-.43-1.24-.42-1.9,0-.53.02-1.06.19-1.56.58-1.67,2.43-1.02,3.27.09.54.71.7,1.7.37,2.52M104.43,88.06c-.33,1.16-1.32,2.13-2.51,2.37-1.19.24-2.5-.28-3.17-1.29-1.23-1.87.51-5.19,2.73-5.43.81-.09,1.61.35,2.15.97.8.91,1.13,2.22.8,3.39M97.46,78.25c-.41.35-1.06.56-1.45.19-.34-.33-.25-.89-.12-1.34.3-1.01-1.09-3.67,1.28-2.94,1.59.66,1.46,3.09.29,4.1M91.09,69.29c-3.37,0-6.11-2.73-6.11-6.11s2.74-6.11,6.11-6.11,6.11,2.73,6.11,6.11-2.73,6.11-6.11,6.11M91.49,80.82c-.45.79-1.28,1.33-2.17,1.51-.92.19-1.95,0-2.63-.64-.79-.74-.87-1.79-.21-2.49.58-.62,1.84-1.68,2.66-1.93.87-.26,1.88.18,2.36.95.48.77.45,1.81,0,2.6M82.34,75.38c-.22.42-.55.88-1.02.88-.54,0-.86-.61-.91-1.15-.13-1.54,1.47-3.37,3.07-2.73,2.2,1.14-.65,2.06-1.14,3M72.57,74.77c-.03.42-.64.42-.66,0-.5-9.45,1.63-29.43,29.48-25.41.41.06.38.66-.04.66-9.04.07-27.02,2.98-28.77,24.74M72.41,87.65c-2.57.49-1.93,2.56-4.47,2.72v.02c-.06,0-.1,0-.16,0-.05,0-.1,0-.16,0v-.02c-2.55-.16-1.9-2.24-4.47-2.72-1.46-.28-3.62.2-3.13-3.72.34-2.75,6.68-2.51,7.76-2.45,1.08-.06,7.42-.3,7.76,2.45.49,3.91-1.67,3.44-3.13,3.72M71.7,106.98s5.38,4.6,8.51,4.6c0,0-1.56,9.97-12.27,9.97s-12.27-9.97-12.27-9.97c0,0,5.63-1.56,7.9-4.6h8.13ZM34.22,50.03c-.41,0-.45-.6-.04-.66,27.85-4.02,29.98,15.95,29.48,25.41-.02.42-.63.42-.66,0-1.75-21.76-19.74-24.67-28.78-24.74M49.92,74.73c-.47-.08-1.01-.25-1.15-.7-.16-.51.31-1.01.81-1.22,1.42-.59,3.66.36,3.55,2.08-.4,2.44-2.16.02-3.21-.16M48.87,81.69c-.68.64-1.71.84-2.63.64-.89-.18-1.72-.72-2.17-1.51-.45-.79-.49-1.83,0-2.6.48-.77,1.48-1.21,2.36-.95.82.25,2.09,1.31,2.66,1.93.66.71.58,1.75-.21,2.49M39.75,63.18c0-3.37,2.73-6.11,6.11-6.11s6.11,2.73,6.11,6.11-2.73,6.11-6.11,6.11-6.11-2.73-6.11-6.11M39.67,77.09c.14.45.22,1.01-.12,1.34-.39.37-1.05.17-1.45-.19-1.16-1.01-1.3-3.44.29-4.1,2.37-.72.97,1.93,1.28,2.94M36.82,89.14c-.66,1.01-1.98,1.53-3.17,1.29-1.19-.24-2.18-1.2-2.51-2.37-.33-1.16,0-2.48.8-3.39.54-.61,1.34-1.05,2.15-.97,2.22.24,3.96,3.56,2.73,5.43M29,74.04c-.33-.82-.17-1.81.37-2.52.84-1.11,2.7-1.76,3.27-.09.17.5.18,1.03.19,1.56.01.66,0,1.39-.41,1.9-.32.4-.85.59-1.36.59-.89,0-1.73-.62-2.06-1.44M28.06,57.74c-2.36.11-2.05-1.8-.66-2.13.58-.14,1.26.13,1.43.7.17.58-.17,1.41-.77,1.43M23.64,64.9c-.67-.88-.99-1.97-1.3-3.04.76.1,1.53.07,2.3.11.77.05,1.55.18,2.2.58.65.4,1.15,1.12,1.12,1.89-.1,2.62-3.29,1.83-4.33.45M25.4,87.96c-.08.67-.23,1.34-.47,1.97-.23.62-.68,1.32-1.35,1.28-.65-.04-1.03-.77-1.13-1.42-.12-.74-.05-1.52.29-2.19.4-.79,2.01-2.17,2.57-.79.15.36.13.76.09,1.14M21.89,81.52c-1.02-.12-1.9-1-2.02-2.02-.13-1.06.51-2.1,1.39-2.71,2.58-1.78,3.92.91,3.09,3.26-.37.96-1.43,1.6-2.45,1.48M18.59,57.9c-.29-.64.03-1.42.52-1.93.55-.57,1.36-.92,2.14-.8.78.12,1.49.78,1.53,1.57.03.46-.8,1.82-2.41,1.97-.7.07-1.5-.18-1.79-.82M11.33,24.79l21.5,10.32c-4.8,1.62-17.1-4.36-17.1-4.36-.68,3.53,4.9,11.52,4.9,11.52-9.57-2.95-2.15,9.02-2.15,9.02-16.9-11.83-7.15-26.5-7.15-26.5M34.88,60.64c-.14.58-.68,1.07-1.27.97-.59-.11-1.18-.79-.93-1.33.96-2.16,2.53-1.03,2.2.37M46.42,42.47c.03,1.04-1.47,1.87-2.34,1.94-1.39.11-2.76-.98-2.98-2.35-.11-.72.15-1.57.83-1.83.57-.22,1.2.04,1.76.3.82.38,2.69.83,2.73,1.95M45.9,34.47c.8.18,1.7.47,2.02,1.22.29.67-.06,1.49-.64,1.94-.58.44-1.35.57-2.08.58-1.62.02-3.25-.52-4.54-1.5-.54-.41-1.04-.93-1.16-1.59-.55-2.98,5.17-.93,6.4-.64M51.97,42.76c.18-.33.52-.54.86-.71,2.16-1.09,5.12-1,6.46,1.32.68,1.18.58,2.82-.38,3.77-.46.45-1.16.74-1.75.49-.62-.26-.89-.98-1.37-1.45-.45-.45-1.08-.67-1.69-.86-.61-.2-1.24-.4-1.71-.83s-.73-1.16-.42-1.72M53.84,33.01c1.71-.68,4.6-.32,4.38,2.14-.09.93-.77,1.75-1.63,2.12-.86.37-1.86.31-2.73-.05-.79-.32-1.52-.95-1.66-1.79-.17-1.04.66-2.03,1.63-2.42M67.47,47.39c.07.57-.08,1.17-.45,1.61-.37.44-.97.69-1.53.58-.87-.16-1.4-1.03-1.82-1.81-1.7-3.21,3.44-3.51,3.8-.38M67.78,65.25c-.59.11-1.13-.38-1.27-.97-.33-1.4,1.24-2.52,2.2-.37.24.55-.34,1.23-.93,1.33M68.67,55.86c-.34.16-.75.15-1.1.02-.76-.28-1.26-1.13-1.13-1.93.13-.8.96-2.43,2.3-1.36.36.29.56.74.66,1.19.18.78-.02,1.74-.74,2.08M64.19,37.73c.49-.6,1.29-.9,2.06-.89,1.64.01,3.14,1.12,3.58,2.71.21.76.11,1.63-.37,2.27-.48.63-1.36.97-2.11.7-.67-.23-1.11-.85-1.67-1.29-.57-.44-1.3-.72-1.69-1.33-.42-.65-.3-1.57.19-2.17M66.98,31.47c.29-.25.68-.37,1.07-.4.65-.04,1.88.16,1.67,1.08-.06.28-.25.52-.46.71-.41.39-.96.68-1.53.64-.57-.03-1.13-.45-1.19-1.02-.04-.38.14-.77.44-1.02M74.36,37.25c.47-.36.9-.62,1.38-.18.42.4.56,1.03.42,1.58-.17.69-.66,1.24-1.13,1.77-.27.3-.55.61-.92.75s-.86.08-1.08-.25c-.1-.15-.13-.34-.14-.52-.09-1.21.51-2.42,1.47-3.15M80.42,44.44c.34.17.68.38.86.71.3.56.04,1.29-.42,1.72-.47.43-1.1.64-1.71.83-.61.2-1.23.41-1.69.86-.48.47-.75,1.19-1.37,1.45-.59.25-1.3-.04-1.75-.49-.96-.96-1.06-2.6-.38-3.77,1.34-2.32,4.3-2.41,6.46-1.32M83.72,33.01c.98.39,1.8,1.38,1.63,2.42-.14.84-.87,1.47-1.66,1.79-.86.35-1.87.41-2.73.05-.86-.37-1.54-1.19-1.63-2.12-.23-2.46,2.67-2.82,4.38-2.14M88.15,41.71c.68.26.94,1.12.83,1.83-.21,1.38-1.59,2.46-2.98,2.35-.87-.07-2.37-.9-2.34-1.94.03-1.12,1.91-1.57,2.73-1.95.56-.26,1.19-.52,1.76-.3M88.59,36.22c.32-.75,1.23-1.04,2.02-1.22,1.23-.28,6.96-2.34,6.4.64-.12.66-.63,1.19-1.16,1.59-1.29.98-2.92,1.52-4.54,1.5-.73,0-1.5-.14-2.08-.58-.58-.44-.93-1.26-.64-1.94M98.31,44.06c-.14.58-.68,1.07-1.27.97-.59-.11-1.18-.79-.93-1.33.96-2.16,2.53-1.03,2.2.37M102.89,60.27c.24.55-.34,1.23-.93,1.33-.59.11-1.13-.38-1.27-.97-.33-1.4,1.24-2.52,2.2-.37M0,0v98.16l41.25-.57s0-.04,0-.06c0-8.72,8.77-9.83,12.47-9.91.99-.02,1.96.27,2.77.84l1.37.96c.9.63,1.98.97,3.08.97h.7c1.23,0,2.43.42,3.39,1.2,1.43,1.16,2.18,2.97,1.96,4.8-1.65,13.47-14.19,12.87-14.19,12.87,0,0-9.65-.58-11.29-9.13L1.84,111.08l36.94-11.32L.46,104.69l38.17-5.99-38.63-.54v40.42h138.58v-40.42l-38.63.54,38.17,5.99-38.32-4.92,36.94,11.32-42.54-11.75c-1.18,9.32-11.42,9.93-11.42,9.93,0,0-12.54.6-14.19-12.87-.22-1.83.53-3.64,1.96-4.8.96-.78,2.15-1.2,3.39-1.2h.7c1.1,0,2.18-.34,3.08-.97l1.37-.96c.81-.57,1.78-.86,2.77-.84,3.7.08,12.47,1.19,12.47,9.91,0,0,0,.01,0,.02l44.27.61V0H0Z"></path></g></svg>