<svg xmlns="http://www.w3.org/2000/svg" id="Layer_2" data-name="Layer 2" viewBox="0 0 1820 334"><defs><style>      .cls-1 {        fill: #e16e45;      }      .cls-1, .cls-2 {        stroke-width: 0px;      }      .cls-2 {        fill: #e8e8e8;      }    </style></defs><g id="Layer_1-2" data-name="Layer 1"><rect class="cls-1" x="0" y="0" width="1820" height="261"></rect><g><path class="cls-2" d="M362.86,259.14c40.48,0,61.4-20.76,78.22-37.44,13.9-13.79,23.08-22.9,43.42-22.9,20.33,0,29.52,9.11,43.42,22.9,16.81,16.68,37.73,37.44,78.21,37.44,40.48,0,61.4-20.76,78.21-37.44,13.88-13.77,23.06-22.88,43.33-22.9v74.71c-40.42.03-61.33,20.77-78.13,37.44-13.9,13.79-23.08,22.91-43.41,22.91-20.33,0-29.52-9.11-43.42-22.91-16.81-16.68-37.73-37.44-78.21-37.44-40.48,0-61.4,20.76-78.21,37.44-13.9,13.79-23.09,22.91-43.42,22.91l-.08.16v-74.94s.08.08.08.08Z"></path><path class="cls-2" d="M364.8,259.14c-40.48,0-61.4-20.76-78.22-37.44-13.9-13.79-23.08-22.9-43.42-22.9s-29.52,9.11-43.42,22.9c-16.81,16.68-37.73,37.44-78.21,37.44s-61.4-20.76-78.21-37.44C29.45,207.93,20.27,198.82,0,198.8v74.71c40.42.03,61.33,20.77,78.13,37.44,13.9,13.79,23.08,22.91,43.41,22.91s29.52-9.11,43.42-22.91c16.81-16.68,37.73-37.44,78.21-37.44s61.4,20.76,78.21,37.44c13.9,13.79,23.09,22.91,43.42,22.91l.08.16v-74.94l-.08.08Z"></path><path class="cls-2" d="M1090.42,259.14c40.48,0,61.4-20.76,78.22-37.44,13.9-13.79,23.08-22.9,43.42-22.9,20.33,0,29.52,9.11,43.42,22.9,16.81,16.68,37.73,37.44,78.21,37.44,40.48,0,61.4-20.76,78.21-37.44,13.88-13.77,23.06-22.88,43.33-22.9v74.71c-40.42.03-61.33,20.77-78.13,37.44-13.9,13.79-23.08,22.91-43.41,22.91-20.33,0-29.52-9.11-43.42-22.91-16.81-16.68-37.73-37.44-78.21-37.44-40.48,0-61.4,20.76-78.21,37.44-13.9,13.79-23.09,22.91-43.42,22.91l-.08.16v-74.94s.08.08.08.08Z"></path><path class="cls-2" d="M1092.36,259.14c-40.48,0-61.4-20.76-78.22-37.44-13.9-13.79-23.08-22.9-43.42-22.9s-29.52,9.11-43.42,22.9c-16.81,16.68-37.73,37.44-78.21,37.44s-61.4-20.76-78.21-37.44c-13.88-13.77-23.06-22.88-43.33-22.9v74.71c40.42.03,61.33,20.77,78.13,37.44,13.9,13.79,23.08,22.91,43.41,22.91s29.52-9.11,43.42-22.91c16.81-16.68,37.73-37.44,78.21-37.44s61.4,20.76,78.21,37.44c13.9,13.79,23.09,22.91,43.42,22.91l.08.16v-74.94l-.08.08Z"></path><path class="cls-2" d="M1819.92,259.14c-40.48,0-61.4-20.76-78.22-37.44-13.9-13.79-23.08-22.9-43.42-22.9s-29.52,9.11-43.42,22.9c-16.81,16.68-37.73,37.44-78.21,37.44s-61.4-20.76-78.21-37.44c-13.88-13.77-23.06-22.88-43.33-22.9v74.71c40.42.03,61.33,20.77,78.13,37.44,13.9,13.79,23.08,22.91,43.41,22.91s29.52-9.11,43.42-22.91c16.81-16.68,37.73-37.44,78.21-37.44s61.4,20.76,78.21,37.44c13.9,13.79,23.09,22.91,43.42,22.91l.08.16v-74.94l-.08.08Z"></path></g></g></svg>