<svg xmlns="http://www.w3.org/2000/svg" id="Layer_2" data-name="Layer 2" viewBox="0 0 367.78 306.99"><defs><style>      .cls-1, .cls-2 {        opacity: .55;      }      .cls-2, .cls-3, .cls-4, .cls-5 {        stroke-width: 0px;      }      .cls-2, .cls-5 {        fill: #eee;      }      .cls-3 {        fill: #f2c144;      }      .cls-4 {        fill: #ff1d25;      }    </style></defs><g id="Capa_1" data-name="Capa 1"><g><path class="cls-5" d="M329.34,131.36c-19.22,0-28.83-16.03-28.83-16.03,0,0,9.6-16.03,28.83-16.03,21.63,0,28.83,16.03,28.83,16.03,0,0-7.2,16.03-28.83,16.03M290.9,153.76h76.88v-76.88h-76.88v76.88Z"></path><path class="cls-5" d="M329.13,121.32c-3.45,0-6.24-2.68-6.24-5.99s2.79-5.99,6.24-5.99,6.24,2.68,6.24,5.99-2.8,5.99-6.24,5.99M329.13,103.2c-6.99,0-12.65,5.43-12.65,12.12s5.66,12.12,12.65,12.12,12.65-5.43,12.65-12.12-5.66-12.12-12.65-12.12"></path><polygon class="cls-5" points="214.02 0 214.02 8.1 145.25 76.88 137.15 76.88 214.02 0"></polygon><polygon class="cls-5" points="214.02 11.12 214.02 17.71 154.86 76.88 148.27 76.88 214.02 11.12"></polygon><polygon class="cls-5" points="214.02 20.73 214.02 27.32 164.47 76.88 157.88 76.88 214.02 20.73"></polygon><polygon class="cls-5" points="214.02 30.34 214.02 36.93 174.08 76.88 167.49 76.88 214.02 30.34"></polygon><polygon class="cls-5" points="214.02 39.95 214.02 46.54 183.69 76.88 177.1 76.88 214.02 39.95"></polygon><polygon class="cls-5" points="214.02 49.56 214.02 56.15 193.3 76.88 186.7 76.88 214.02 49.56"></polygon><polygon class="cls-5" points="214.02 59.17 214.02 65.76 202.91 76.88 196.31 76.88 214.02 59.17"></polygon><polygon class="cls-5" points="214.02 68.78 214.02 76.88 205.92 76.88 214.02 68.78"></polygon><path class="cls-5" d="M153.45,45.99l-7.28-7.28-4.16,4.16s1.53.67,3.18-.98c1.05-1.05,1.12-1.69,1.12-1.69l7.14,5.79Z"></path><path class="cls-5" d="M153.45,45.99l-.81-10.27-5.86.46s.72,1.51,3.05,1.32c1.49-.12,1.95-.56,1.95-.56l1.67,9.04Z"></path><path class="cls-5" d="M156.34,50.57l-2.8,2.8-.57-3.99h0c-.07-.58.12-1.18.57-1.63.78-.78,2.03-.78,2.81,0,.78.78.78,2.03,0,2.81M158.68,45.42c-2.19-2.19-5.74-2.19-7.92,0-1.26,1.25-1.79,2.96-1.6,4.59h0s1.61,11.25,1.61,11.25l7.92-7.92c2.19-2.19,2.19-5.74,0-7.92"></path><path class="cls-5" d="M178.47,33.51c-4.38-4.38-11.47-4.38-15.84,0-4.38,4.38-4.38,11.47,0,15.84"></path><path class="cls-5" d="M187.96,24.02c-3.63-3.63-9.5-3.63-13.13,0s-3.63,9.5,0,13.13"></path><path class="cls-5" d="M173.2,40.96c-.12,0-.24-.04-.34-.12l-12.65-10.5,1.92,7.36c.07.29-.1.58-.38.65-.29.07-.58-.1-.65-.38l-2.33-8.97c-.06-.22.03-.46.23-.59.2-.12.45-.11.63.04l13.93,11.56c.23.19.26.52.07.75-.11.13-.26.19-.41.19"></path><path class="cls-5" d="M165.67,48.49c-.17,0-.33-.08-.43-.22l-9.9-13.69c-.14-.19-.13-.45,0-.63.14-.19.39-.26.61-.18l6.49,2.32c.28.1.42.4.32.68-.1.28-.41.42-.68.32l-4.87-1.74,8.89,12.3c.17.24.12.57-.12.75-.09.07-.2.1-.31.1"></path><path class="cls-5" d="M174.44,29.21c-.19,0-.38-.11-.48-.29l-6.14-12.1c-.11-.22-.06-.48.12-.64.18-.16.45-.18.65-.05l17.36,11.39c.25.16.32.49.15.74-.16.25-.49.32-.74.15l-15.69-10.29,5.23,10.32c.13.26.03.58-.23.72-.08.04-.16.06-.24.06"></path><path class="cls-5" d="M176,38.17c-.15,0-.31-.07-.41-.2l-11.13-13.69c-.15-.19-.16-.46-.02-.65.14-.2.4-.27.63-.18l8.96,3.53c.27.11.41.42.3.69-.11.27-.42.41-.69.3l-7.06-2.78,9.85,12.11c.19.23.15.56-.08.75-.1.08-.22.12-.34.12"></path><path class="cls-5" d="M183.29,23.39c-.29,0-.53-.23-.53-.52l-.28-11.94c0-.21.12-.41.31-.5.19-.09.42-.05.58.09l10.37,9.33c.22.2.24.53.04.75-.2.22-.53.24-.75.04l-9.45-8.5.26,10.7c0,.29-.23.54-.52.55h-.01"></path><path class="cls-5" d="M190.21,23.96c-.12,0-.23-.04-.33-.12l-10.46-8.29,2.63,7.65c.1.28-.05.58-.33.68-.28.1-.58-.05-.68-.33l-3.22-9.38c-.08-.22,0-.47.2-.61.19-.14.45-.13.64.02l11.89,9.43c.23.18.27.52.09.75-.11.13-.26.2-.42.2"></path><polygon class="cls-5" points="77.04 76.88 60.27 93.64 60.27 76.88 77.04 76.88"></polygon><polygon class="cls-5" points="108.14 76.88 60.39 124.63 60.39 107.23 90.75 76.88 108.14 76.88"></polygon><polygon class="cls-5" points="137.15 76.88 137.15 78.74 62.13 153.76 60.27 153.76 60.27 138.22 121.61 76.88 137.15 76.88"></polygon><polygon class="cls-5" points="137.27 91.78 137.27 109.18 92.69 153.76 75.29 153.76 137.27 91.78"></polygon><polygon class="cls-5" points="137.27 122.22 137.27 139.62 123.13 153.76 105.74 153.76 137.27 122.22"></polygon><g class="cls-1"><path class="cls-5" d="M290.9,76.88v34.04c0-1.82-1.16-3.37-2.78-3.93.02-.26.03-.52.03-.78,0-4.19-2.44-7.82-5.98-9.52h0c.05-.34.08-.69.08-1.04,0-3.74-3.03-6.76-6.76-6.76-.72,0-1.41.11-2.06.32-.38-4.07-3.81-7.26-7.98-7.26-1.19,0-2.31.26-3.32.72-1.74-3.44-5.3-5.8-9.42-5.8h38.19Z"></path><path class="cls-5" d="M248.95,140.72c0,13.01-34.93,13.03-34.93,13.03v-36.02c.67,1.42,2.11,2.41,3.79,2.41.22,0,.43-.02.63-.05.74,1.19,2.06,1.98,3.55,1.98.73,0,1.41-.19,2.01-.51,1.09.76,2.41,1.2,3.84,1.2,2.33,0,4.38-1.18,5.61-2.97,4.99,2.03,15.5,7.84,15.5,20.94"></path><path class="cls-5" d="M252.52,76.88c-4.76,0-8.78,3.13-10.13,7.46-.76-.24-1.57-.37-2.41-.37-4.45,0-8.07,3.62-8.07,8.09,0,.75.1,1.47.29,2.16-.99-.56-2.13-.88-3.34-.88-3.75,0-6.8,3.05-6.8,6.82,0,1.43.44,2.76,1.19,3.86-.39-.09-.78-.14-1.19-.14-3.01,0-5.45,2.45-5.45,5.47,0,.96.25,1.87.69,2.66-1.43.19-2.62,1.1-3.21,2.36v-37.48h38.42Z"></path><path class="cls-5" d="M290.9,110.99v42.76s-34.68-.02-34.68-13.03c0-11.09,7.52-16.96,12.86-19.73,1.48,1.85,3.75,3.03,6.29,3.03,3.68,0,6.78-2.47,7.75-5.86.33.19.71.29,1.11.29,1.28,0,2.32-1.04,2.32-2.32,0-.34-.07-.67-.21-.96.11.01.22.02.33.02,2.32,0,4.23-1.88,4.23-4.2"></path><path class="cls-5" d="M264.36,119.13c-3.87,2.56-7.65,6.27-9.93,11.29v-14.68c1.21,1.13,2.83,1.81,4.61,1.81,1.35,0,2.61-.39,3.67-1.08-.03.13-.04.27-.04.42,0,1.06.71,1.96,1.69,2.24"></path><path class="cls-5" d="M250.46,122.11v7.71c-2.99-6.13-8.24-10.23-12.96-12.62.82-.76,1.33-1.85,1.33-3.07,0-.39-.05-.76-.15-1.11,3.15,1.3,8.33,4.05,11.78,9.08"></path><path class="cls-5" d="M250.46,108.68v7.34c-2.77-2.74-5.95-4.74-8.84-6.09.07,0,.14,0,.2,0,2.26,0,4.19-1.38,5.02-3.34.73,1.25,2.07,2.09,3.61,2.09"></path><path class="cls-5" d="M137.15,76.88v62.87l7.68-8.75c1.58-1.93.53-10.94-.05-15.01-.2-1.42-.16-2.87.12-4.28,1.2-6.11,4.57-22.39,4.57-22.39.07-.48.35-.9.69-1.25.83-.83,2.29-1.32,3.81-1.04,2.22.28,3.67,3.53,3.6,5.13l-1.25,19.68c0,.28.14.42.42.42q.14,0,.21-.07l9.77-8.11,22.04-23.7c1.8-1.94,4.37-2.56,5.82-1.39,1.46,1.18,1.39,3.74-.28,5.82l-18.36,23.22,27.24-24.19c2.15-1.87,4.64-2.15,5.89-.9l.07.07c1.25,1.39,1.52,3.33-1.04,5.89l-24.88,25.57,24.32-16.42c2.08-1.39,4.3-1.52,5.47-.35.14.14.28.28.28.42,1.04,1.59.14,4.16-1.94,5.82l-25.57,20.3,22.11-11.99c2.15-1.32,4.5-1.04,5.34.62.9,1.73-.07,4.23-2.08,5.82l-25.57,17.39-17.88,11.78-6.08,5.88h-24.47s76.88,0,76.88,0v-76.88h-76.88Z"></path></g><path class="cls-5" d="M279.61,26.91c-2.5,2.52-11.18,5.97-18.05,8.44,0,.02.01.04.02.05-.95-2.87-3.22-5.13-6.08-6.08,2.43-6.89,5.84-15.58,8.34-18.1,4.33-4.36,11.37-4.38,15.73-.04,4.36,4.33,4.38,11.37.04,15.73M279.67,49.81c4.36,4.33,4.37,11.37.04,15.73-4.33,4.36-11.37,4.37-15.73.04-2.52-2.5-5.97-11.18-8.44-18.05-.02,0-.04.01-.05.02,2.87-.95,5.13-3.21,6.08-6.08,6.89,2.43,15.58,5.84,18.1,8.34M241.09,65.65c-4.33,4.36-11.37,4.38-15.73.04-4.36-4.33-4.37-11.37-.04-15.73,2.5-2.52,11.18-5.97,18.05-8.44,0-.02-.01-.04-.02-.05.95,2.87,3.22,5.13,6.08,6.08-2.43,6.89-5.84,15.58-8.34,18.1M225.25,27.06c-4.36-4.33-4.37-11.37-.04-15.73,4.33-4.36,11.37-4.38,15.73-.04,2.52,2.5,5.97,11.18,8.44,18.05.02,0,.04-.01.05-.02-2.87.95-5.13,3.21-6.08,6.08-6.89-2.43-15.58-5.84-18.1-8.34M252.46,0c4.61,0,8.34,3.74,8.34,8.34,0,2.78-3.03,13.14-5.44,20.93-.92-.29-1.89-.45-2.9-.45s-1.99.16-2.9.45c-2.41-7.79-5.44-18.16-5.44-20.93,0-4.61,3.74-8.34,8.34-8.34h-38.44v38.44c0-4.61,3.74-8.34,8.34-8.34,2.78,0,13.14,3.03,20.93,5.44-.29.92-.45,1.89-.45,2.9s.16,1.99.45,2.9c-7.79,2.41-18.16,5.44-20.93,5.44-4.61,0-8.34-3.74-8.34-8.34v38.44h38.44c-4.61,0-8.34-3.74-8.34-8.34,0-2.78,3.03-13.14,5.44-20.93.92.29,1.89.45,2.9.45s1.99-.16,2.9-.45c2.41,7.79,5.44,18.16,5.44,20.93,0,4.61-3.74,8.34-8.34,8.34h38.44v-38.44c0,4.61-3.74,8.34-8.34,8.34-2.78,0-13.14-3.03-20.93-5.44.29-.92.45-1.89.45-2.9s-.16-1.99-.45-2.9c7.79-2.41,18.16-5.44,20.93-5.44,4.61,0,8.34,3.74,8.34,8.34V0h-38.44Z"></path><rect class="cls-2" y=".62" width="76.88" height="76.88"></rect><rect class="cls-3" x="137.44" y="153.54" width="76.88" height="76.88" transform="translate(-16.67 367.24) rotate(-89.81)"></rect><g><path class="cls-4" d="M348.32,249.26c0,10.63-8.62,19.24-19.24,19.24s-19.24-8.62-19.24-19.24,8.62-19.24,19.24-19.24,19.24,8.62,19.24,19.24"></path><path class="cls-4" d="M367.56,230.02v38.49c-10.63,0-19.24-8.62-19.24-19.24s8.61-19.24,19.24-19.24"></path><path class="cls-4" d="M367.56,268.51v38.48c-10.63,0-19.24-8.61-19.24-19.24s8.61-19.24,19.24-19.24"></path><path class="cls-4" d="M348.32,287.75c0,10.63-8.62,19.24-19.24,19.24s-19.24-8.61-19.24-19.24,8.62-19.24,19.24-19.24,19.24,8.61,19.24,19.24"></path><path class="cls-4" d="M309.84,287.75c0,10.63-8.61,19.24-19.24,19.24v-38.48c10.63,0,19.24,8.61,19.24,19.24"></path><path class="cls-4" d="M309.84,249.26c0,10.63-8.61,19.24-19.24,19.24v-38.49c10.63,0,19.24,8.62,19.24,19.24"></path><path class="cls-5" d="M251.95,261.27h.02c.27-28.13,23.33-31.25,33.53-31.25h-67.08c10.2,0,33.26,3.12,33.53,31.25"></path><path class="cls-5" d="M285.5,230.02c2.9,0,4.76.25,4.76.25,0,33.21-28.97,32.47-36.52,31.72v22.32c7.54-23.12,36.52-19.2,36.52-19.2,0,33.21-28.97,32.48-36.52,31.72v10.16h36.85v-76.97h-5.09Z"></path><path class="cls-5" d="M213.62,306.99h36.56v-10.16c-7.54.75-36.51,1.48-36.51-31.72,0,0,28.97-3.92,36.51,19.2v-22.32c-7.54.75-36.51,1.48-36.51-31.72,0,0,1.86-.25,4.76-.25h-4.8v76.97Z"></path></g></g></g></svg>