<svg xmlns="http://www.w3.org/2000/svg" id="Layer_2" data-name="Layer 2" viewBox="0 0 138.01 138.14"><defs><style>      .cls-1 {        fill: #e8e8e8;        stroke-width: 0px;      }    </style></defs><g id="Capa_1" data-name="Capa 1"><path class="cls-1" d="M129.24,86.28v14.57c0,4.89-3.97,8.86-8.86,8.86h-13.23l-8.75,28.3h39.62v-51.73h-8.78Z"></path><path class="cls-1" d="M18.04,25.33c-8.66,0-15.68,7.02-15.68,15.68s7.02,15.68,15.68,15.68,15.68-7.02,15.68-15.68-7.02-15.68-15.68-15.68M18.04,50.89h0c-1.09-4.94-4.94-8.79-9.88-9.88,4.94-1.09,8.79-4.94,9.88-9.88,1.09,4.94,4.94,8.79,9.88,9.88-4.94,1.09-8.79,4.94-9.88,9.88"></path><path class="cls-1" d="M52.91,34.34v5.24c0,4.47,3.63,8.1,8.1,8.1s8.1-3.63,8.1-8.1v-5.24c-4.48,0-8.1,3.63-8.1,8.1,0-4.48-3.63-8.1-8.1-8.1"></path><path class="cls-1" d="M104.89,25.33c-8.66,0-15.68,7.02-15.68,15.68s7.02,15.68,15.68,15.68,15.68-7.02,15.68-15.68-7.02-15.68-15.68-15.68M95.55,46.71l5.62-6.3h-3.81l7.58-8.49,7.46,8.49h-3.72l5.54,6.3h-18.68Z"></path><path class="cls-1" d="M0,0v16.63c1.69-.22,3.41-.35,5.16-.35,8.44,0,15.64,2.32,21.55,6.53,9.42,6.72,15.54,18.3,18.12,33.14l6.67,30.34h-8.95v14.57c0,4.89-3.97,8.86-8.86,8.86h-13.23l-8.75,28.3h.47l.42-2.88-.44,3.01h42.86l.67-2.18-.63,2.05h.47l.42-2.88,7.86-25.42h13.23c4.89,0,8.86-3.97,8.86-8.86v-14.57h8.95l-6.67-30.34c-2.58-14.84-8.7-26.41-18.12-33.14,6.26-4.12,13.74-6.53,21.8-6.53,21.91,0,35.48,15.53,39.67,39.67l6.49,29.52V0H0ZM76.69,41.01c0,8.66-7.02,15.68-15.68,15.68s-15.68-7.02-15.68-15.68,7.02-15.68,15.68-15.68,15.68,7.02,15.68,15.68M51.28,16.37c.21.01.41.03.62.04-.21-.01-.41-.03-.62-.04M54.57,16.7c.05,0,.1.02.16.03-.05,0-.1-.02-.16-.03M57.23,17.18c.14.03.28.06.42.09-.14-.03-.28-.06-.42-.09M60.2,17.95s.06.02.09.03c-.03-.01-.06-.02-.09-.03M65.38,20s0,0,.01,0c0,0,0,0-.01,0M62.77,18.85s.1.04.15.06c-.05-.02-.1-.04-.15-.06"></path></g></svg>