<svg xmlns="http://www.w3.org/2000/svg" id="Layer_2" data-name="Layer 2" viewBox="0 0 195.01 195.01"><defs><style>      .cls-1 {        fill: #e16e45;      }      .cls-1, .cls-2 {        stroke-width: 0px;      }      .cls-2 {        fill: #eee;      }    </style></defs><g id="Capa_1" data-name="Capa 1"><g><rect class="cls-2" y="0" width="195" height="195"></rect><g><path class="cls-1" d="M90.45,178.05c-2.61-.23-7.33,15.92-9.87,15.48-2.57-.45-1.52-17.25-4.01-17.91-2.52-.67-9.99,14.4-12.42,13.52-2.45-.89,1.52-17.24-.82-18.34-2.36-1.1-12.35,12.44-14.59,11.14-2.25-1.3,4.51-16.71,2.39-18.2-2.13-1.49-14.31,10.11-16.3,8.44-1.99-1.67,7.34-15.67,5.5-17.51-1.83-1.83-15.84,7.49-17.51,5.5-1.67-1.99,9.93-14.17,8.44-16.3-1.49-2.12-16.9,4.64-18.2,2.38-1.3-2.24,12.24-12.23,11.14-14.58-1.09-2.34-17.45,1.63-18.34-.82-.88-2.43,14.2-9.9,13.52-12.42-.67-2.49-17.46-1.44-17.91-4.01-.44-2.54,15.7-7.26,15.48-9.87C16.74,101.99.01,100.12.01,97.5v97.49h97.5c-2.62,0-4.5-16.72-7.06-16.94"></path><path class="cls-1" d="M178.07,104.55c-.23,2.61,15.92,7.33,15.48,9.87-.45,2.57-17.24,1.52-17.91,4.01-.67,2.52,14.4,9.99,13.52,12.42-.89,2.45-17.24-1.52-18.34.82-1.1,2.36,12.44,12.35,11.15,14.58-1.3,2.25-16.71-4.51-18.2-2.39-1.49,2.13,10.11,14.32,8.45,16.3-1.67,1.99-15.68-7.34-17.52-5.5-1.83,1.83,7.49,15.84,5.5,17.51-1.99,1.66-14.17-9.93-16.3-8.45-2.12,1.49,4.64,16.9,2.39,18.2-2.24,1.29-12.23-12.24-14.58-11.14-2.34,1.1,1.63,17.45-.82,18.34-2.43.88-9.9-14.19-12.42-13.52-2.49.67-1.44,17.46-4.01,17.91-2.54.44-7.26-15.7-9.86-15.48-2.56.22-4.44,16.94-7.06,16.94h97.49v-97.49c0,2.62-16.72,4.49-16.94,7.05"></path><path class="cls-1" d="M16.96,90.44c.22-2.61-15.93-7.33-15.48-9.87.45-2.57,17.25-1.52,17.91-4.01.67-2.52-14.4-9.99-13.52-12.42.89-2.45,17.25,1.52,18.34-.82,1.1-2.36-12.44-12.35-11.14-14.59,1.3-2.25,16.71,4.51,18.2,2.39,1.49-2.13-10.11-14.31-8.44-16.3,1.67-1.99,15.68,7.34,17.51,5.5,1.84-1.84-7.48-15.84-5.5-17.51,1.98-1.67,14.17,9.93,16.3,8.44,2.12-1.49-4.64-16.9-2.39-18.2,2.24-1.3,12.23,12.24,14.59,11.14,2.34-1.1-1.63-17.45.82-18.34,2.43-.88,9.9,14.19,12.42,13.52,2.49-.67,1.44-17.46,4.01-17.91,2.54-.44,7.26,15.7,9.87,15.48C93.02,16.72,94.89,0,97.51,0H.01v97.5c0-2.62,16.72-4.5,16.95-7.06"></path><path class="cls-1" d="M97.51,150.38c-29.21,0-52.89-23.68-52.89-52.88s23.68-52.89,52.89-52.89,52.88,23.68,52.88,52.89-23.68,52.88-52.88,52.88M97.51,32.48c-35.91,0-65.02,29.11-65.02,65.02s29.11,65.02,65.02,65.02,65.02-29.11,65.02-65.02-29.11-65.02-65.02-65.02"></path><path class="cls-1" d="M97.51,0c2.62,0,4.49,16.72,7.06,16.95,2.6.22,7.33-15.92,9.86-15.48,2.57.45,1.52,17.25,4.01,17.91,2.52.67,9.99-14.4,12.42-13.52,2.45.89-1.52,17.24.82,18.34,2.36,1.1,12.35-12.44,14.59-11.14,2.25,1.3-4.51,16.71-2.39,18.2,2.13,1.49,14.32-10.11,16.3-8.44,1.99,1.67-7.33,15.67-5.5,17.51,1.83,1.83,15.85-7.49,17.52-5.5,1.66,1.99-9.93,14.17-8.45,16.3,1.49,2.12,16.9-4.64,18.2-2.39,1.29,2.24-12.24,12.23-11.14,14.59,1.09,2.34,17.44-1.63,18.34.82.88,2.43-14.19,9.9-13.52,12.42.67,2.49,17.46,1.44,17.91,4.01.44,2.54-15.7,7.26-15.48,9.87.22,2.56,16.94,4.44,16.94,7.06V0h-97.49Z"></path></g></g></g></svg>