<svg xmlns="http://www.w3.org/2000/svg" id="Layer_2" data-name="Layer 2" viewBox="0 0 138.73 138.73"><defs><style>      .cls-1 {        fill: #e8e8e8;        stroke-width: 0px;      }    </style></defs><g id="Capa_1" data-name="Capa 1"><g><rect class="cls-1" x="32.6" y="75.56" width="85.62" height="3.55"></rect><rect class="cls-1" x="48.96" y="61.04" width="69.26" height="3.55"></rect><rect class="cls-1" x="32.6" y="17.45" width="85.62" height="3.55"></rect><rect class="cls-1" x="55.27" y="46.51" width="62.95" height="3.55"></rect><path class="cls-1" d="M23.64,81.55v-11.89c10.03-.01,18.15-8.14,18.15-18.17s-8.12-18.16-18.15-18.17V9.19c0-5.08,4.11-9.19,9.19-9.19H0v138.73h32.83c-5.08,0-9.19-4.11-9.19-9.19v-11.64c10.03-.01,18.15-8.15,18.15-18.17s-8.12-18.16-18.15-18.18ZM16.5,49.36l3.51,3.51,10.04-10.04,3.3,3.3-13.34,13.34-6.81-6.81,3.3-3.3ZM32.17,104.9l-3.38,3.38-5.14-5.14-5.14,5.14-3.38-3.38,5.15-5.14-5.15-5.15,3.38-3.38,5.15,5.15,5.14-5.15,3.38,3.38-5.15,5.15,5.15,5.14Z"></path><rect class="cls-1" x="48.96" y="31.98" width="69.26" height="3.55"></rect><rect class="cls-1" x="49.51" y="90.09" width="68.71" height="3.55"></rect><rect class="cls-1" x="49.51" y="119.15" width="68.71" height="3.55"></rect><path class="cls-1" d="M129.63,9.1v120.53c0,5.03,4.07,9.1,9.1,9.1V0c-5.03,0-9.1,4.07-9.1,9.1Z"></path><rect class="cls-1" x="55.27" y="104.62" width="62.95" height="3.55"></rect></g></g></svg>