<svg xmlns="http://www.w3.org/2000/svg" id="Layer_2" data-name="Layer 2" viewBox="0 0 303.32 190.14"><defs><style>      .cls-1 {        fill: #e16e45;      }      .cls-1, .cls-2, .cls-3 {        stroke-width: 0px;      }      .cls-2 {        fill: #f2c144;      }      .cls-3 {        fill: #ff1d25;      }    </style></defs><g id="Capa_1" data-name="Capa 1"><g><path class="cls-1" d="M271.62,108.34c-15.86,0-23.78-13.22-23.78-13.22,0,0,7.92-13.22,23.78-13.22,17.84,0,23.78,13.22,23.78,13.22,0,0-5.94,13.22-23.78,13.22M239.92,126.81h63.4v-63.4h-63.4v63.4Z"></path><path class="cls-1" d="M271.45,100.06c-2.84,0-5.15-2.21-5.15-4.94s2.31-4.94,5.15-4.94,5.15,2.21,5.15,4.94-2.31,4.94-5.15,4.94M271.45,85.11c-5.76,0-10.43,4.48-10.43,10s4.67,10,10.43,10,10.43-4.48,10.43-10-4.67-10-10.43-10"></path><path class="cls-2" d="M239.92,63.4v28.08c0-1.5-.96-2.78-2.3-3.24.02-.21.03-.43.03-.65,0-3.46-2.01-6.45-4.93-7.85h0c.04-.28.07-.57.07-.86,0-3.08-2.5-5.57-5.57-5.57-.59,0-1.16.09-1.7.27-.32-3.36-3.14-5.99-6.58-5.99-.98,0-1.91.21-2.74.6-1.43-2.84-4.37-4.78-7.77-4.78h31.5Z"></path><path class="cls-2" d="M205.32,116.06c0,10.73-28.8,10.75-28.8,10.75v-29.71c.55,1.17,1.74,1.98,3.12,1.98.18,0,.35-.01.52-.04.61.98,1.7,1.63,2.93,1.63.6,0,1.16-.15,1.65-.42.9.62,1.99.99,3.16.99,1.92,0,3.61-.97,4.62-2.45,4.12,1.67,12.78,6.47,12.78,17.27"></path><path class="cls-2" d="M208.27,63.4c-3.92,0-7.24,2.58-8.35,6.15-.63-.2-1.29-.3-1.99-.3-3.67,0-6.65,2.99-6.65,6.68,0,.61.08,1.21.24,1.78-.81-.46-1.75-.73-2.75-.73-3.09,0-5.6,2.52-5.6,5.62,0,1.18.36,2.28.98,3.19-.32-.08-.65-.11-.98-.11-2.48,0-4.49,2.02-4.49,4.51,0,.79.21,1.54.57,2.19-1.18.15-2.16.91-2.65,1.95v-30.92h31.69Z"></path><path class="cls-2" d="M239.92,91.54v35.27s-28.6-.02-28.6-10.75c0-9.14,6.2-13.98,10.61-16.27,1.22,1.52,3.09,2.5,5.18,2.5,3.04,0,5.6-2.04,6.39-4.83.27.15.58.24.92.24,1.06,0,1.91-.86,1.91-1.91,0-.28-.06-.55-.17-.79.09,0,.18.01.28.01,1.91,0,3.49-1.55,3.49-3.47"></path><path class="cls-2" d="M218.03,98.25c-3.19,2.11-6.31,5.17-8.19,9.31v-12.1c1,.93,2.34,1.5,3.81,1.5,1.11,0,2.15-.32,3.02-.89-.02.11-.03.23-.03.34,0,.88.59,1.61,1.39,1.84"></path><path class="cls-2" d="M206.57,100.71v6.36c-2.46-5.05-6.79-8.43-10.69-10.4.68-.62,1.1-1.52,1.1-2.53,0-.32-.04-.62-.13-.91,2.59,1.07,6.87,3.34,9.72,7.49"></path><path class="cls-2" d="M206.57,89.63v6.06c-2.29-2.26-4.9-3.91-7.29-5.02.06,0,.11,0,.17,0,1.87,0,3.46-1.14,4.14-2.76.6,1.03,1.71,1.72,2.98,1.72"></path><polygon class="cls-2" points="176.52 0 176.52 6.68 119.79 63.4 113.11 63.4 176.52 0"></polygon><polygon class="cls-2" points="176.52 9.17 176.52 14.61 127.72 63.4 122.28 63.4 176.52 9.17"></polygon><polygon class="cls-2" points="176.52 17.1 176.52 22.53 135.64 63.4 130.21 63.4 176.52 17.1"></polygon><polygon class="cls-2" points="176.52 25.02 176.52 30.46 143.57 63.4 138.13 63.4 176.52 25.02"></polygon><polygon class="cls-2" points="176.52 32.95 176.52 38.38 151.49 63.4 146.06 63.4 176.52 32.95"></polygon><polygon class="cls-2" points="176.52 40.87 176.52 46.31 159.42 63.4 153.98 63.4 176.52 40.87"></polygon><polygon class="cls-2" points="176.52 48.8 176.52 54.23 167.35 63.4 161.91 63.4 176.52 48.8"></polygon><polygon class="cls-2" points="176.52 56.72 176.52 63.4 169.83 63.4 176.52 56.72"></polygon><path class="cls-2" d="M126.56,37.93l-6.01-6.01-3.43,3.43s1.26.56,2.62-.81c.87-.87.92-1.39.92-1.39l5.89,4.78Z"></path><path class="cls-2" d="M126.56,37.93l-.67-8.47-4.83.38s.6,1.24,2.52,1.09c1.23-.1,1.61-.46,1.61-.46l1.38,7.46Z"></path><path class="cls-2" d="M128.94,41.7l-2.31,2.31-.47-3.29h0c-.05-.48.1-.98.47-1.34.64-.64,1.68-.64,2.32,0,.64.64.64,1.68,0,2.32M130.87,37.46c-1.8-1.8-4.73-1.8-6.54,0-1.04,1.03-1.47,2.44-1.32,3.79h0s1.33,9.28,1.33,9.28l6.53-6.53c1.8-1.8,1.8-4.73,0-6.54"></path><path class="cls-2" d="M147.19,27.64c-3.61-3.61-9.46-3.61-13.07,0-3.61,3.61-3.61,9.46,0,13.07"></path><path class="cls-2" d="M155.02,19.81c-2.99-2.99-7.84-2.99-10.83,0-2.99,2.99-2.99,7.84,0,10.83"></path><path class="cls-2" d="M142.85,33.78c-.1,0-.2-.03-.28-.1l-10.44-8.66,1.58,6.07c.06.24-.08.48-.32.54-.24.06-.48-.08-.54-.32l-1.92-7.39c-.05-.19.03-.38.19-.48.16-.1.37-.09.52.03l11.49,9.53c.19.16.21.43.06.62-.09.1-.21.16-.34.16"></path><path class="cls-2" d="M136.64,40c-.14,0-.27-.06-.36-.18l-8.17-11.29c-.11-.16-.11-.37,0-.52.12-.15.32-.22.5-.15l5.35,1.91c.23.08.35.33.27.56-.08.23-.33.35-.56.27l-4.02-1.44,7.33,10.14c.14.2.1.47-.1.61-.08.06-.17.08-.26.08"></path><path class="cls-2" d="M143.86,24.09c-.16,0-.32-.09-.39-.24l-5.06-9.98c-.09-.18-.05-.39.1-.53.15-.13.37-.15.54-.04l14.32,9.4c.2.13.26.41.13.61-.13.2-.41.26-.61.13l-12.94-8.49,4.31,8.51c.11.22.02.48-.19.59-.06.03-.13.05-.2.05"></path><path class="cls-2" d="M145.15,31.48c-.13,0-.25-.06-.34-.16l-9.18-11.29c-.13-.16-.13-.38-.01-.54.12-.16.33-.22.52-.15l7.39,2.91c.23.09.34.34.25.57-.09.23-.35.34-.57.25l-5.82-2.29,8.12,9.99c.15.19.12.47-.06.62-.08.07-.18.1-.28.1"></path><path class="cls-2" d="M151.17,19.29c-.24,0-.43-.19-.44-.43l-.23-9.85c0-.18.1-.34.26-.41.16-.07.35-.05.48.07l8.56,7.7c.18.16.2.44.03.62-.16.18-.44.2-.62.03l-7.8-7.01.21,8.82c0,.24-.19.45-.43.45h-.01"></path><path class="cls-2" d="M156.87,19.76c-.1,0-.19-.03-.27-.1l-8.63-6.84,2.17,6.31c.08.23-.04.48-.27.56-.23.08-.48-.04-.56-.27l-2.66-7.74c-.06-.19,0-.39.16-.5.16-.11.37-.11.53.01l9.81,7.77c.19.15.22.43.07.62-.09.11-.22.17-.35.17"></path><polygon class="cls-1" points="63.53 63.4 49.71 77.23 49.71 63.4 63.53 63.4"></polygon><polygon class="cls-1" points="89.19 63.4 49.81 102.79 49.81 88.44 74.84 63.4 89.19 63.4"></polygon><polygon class="cls-1" points="113.11 63.4 113.11 64.94 51.24 126.81 49.71 126.81 49.71 114 100.3 63.4 113.11 63.4"></polygon><polygon class="cls-1" points="113.21 75.69 113.21 90.04 76.45 126.81 62.1 126.81 113.21 75.69"></polygon><polygon class="cls-1" points="113.21 100.8 113.21 115.15 101.55 126.81 87.21 126.81 113.21 100.8"></polygon><path class="cls-3" d="M113.11,63.4v51.85l6.34-7.22c1.31-1.59.44-9.02-.04-12.38-.17-1.17-.13-2.36.1-3.53.99-5.04,3.77-18.47,3.77-18.47.06-.4.29-.74.57-1.03.69-.69,1.89-1.09,3.14-.86,1.83.23,3.03,2.92,2.97,4.23l-1.03,16.23c0,.23.11.34.34.34q.11,0,.17-.06l8.06-6.69,18.18-19.55c1.49-1.6,3.6-2.11,4.8-1.14,1.2.97,1.14,3.09-.23,4.8l-15.15,19.15,22.46-19.95c1.77-1.54,3.83-1.77,4.86-.74l.06.06c1.03,1.14,1.26,2.74-.86,4.86l-20.52,21.09,20.06-13.55c1.71-1.14,3.54-1.26,4.52-.29.11.11.23.23.23.34.86,1.31.11,3.43-1.6,4.8l-21.09,16.75,18.23-9.89c1.77-1.09,3.71-.86,4.4.51.74,1.43-.06,3.49-1.71,4.8l-21.09,14.35-14.75,9.72-5.01,4.85h-20.18s63.4,0,63.4,0v-63.4h-63.4Z"></path><path class="cls-1" d="M230.61,22.2c-2.06,2.08-9.22,4.93-14.89,6.96,0,.01.01.03.02.04-.79-2.36-2.65-4.23-5.02-5.02,2.01-5.68,4.82-12.85,6.88-14.93,3.57-3.59,9.38-3.61,12.97-.04,3.59,3.57,3.61,9.38.04,12.97M230.66,41.08c3.59,3.57,3.61,9.38.04,12.97-3.57,3.59-9.38,3.61-12.97.04-2.08-2.06-4.93-9.22-6.96-14.89-.01,0-.03.01-.04.02,2.36-.79,4.23-2.65,5.02-5.01,5.68,2.01,12.85,4.82,14.93,6.88M198.83,54.14c-3.57,3.59-9.38,3.61-12.97.04-3.59-3.57-3.61-9.38-.04-12.97,2.06-2.08,9.22-4.93,14.89-6.96,0-.01-.01-.03-.02-.04.79,2.36,2.65,4.23,5.02,5.02-2.01,5.68-4.82,12.85-6.88,14.93M185.77,22.32c-3.59-3.57-3.61-9.38-.04-12.97,3.57-3.59,9.38-3.61,12.97-.04,2.08,2.06,4.93,9.22,6.96,14.89.01,0,.03-.01.04-.02-2.36.79-4.23,2.65-5.02,5.01-5.68-2.01-12.85-4.82-14.93-6.88M208.22,0c3.8,0,6.88,3.08,6.88,6.88,0,2.29-2.5,10.84-4.49,17.26-.76-.24-1.56-.37-2.4-.37s-1.64.13-2.4.37c-1.99-6.43-4.49-14.97-4.49-17.26,0-3.8,3.08-6.88,6.88-6.88h-31.7v31.7c0-3.8,3.08-6.88,6.88-6.88,2.29,0,10.84,2.5,17.26,4.49-.24.76-.37,1.56-.37,2.4s.13,1.64.37,2.4c-6.43,1.99-14.97,4.49-17.26,4.49-3.8,0-6.88-3.08-6.88-6.88v31.7h31.7c-3.8,0-6.88-3.08-6.88-6.88,0-2.29,2.5-10.84,4.49-17.27.76.24,1.56.37,2.4.37s1.64-.13,2.4-.37c1.99,6.43,4.49,14.97,4.49,17.27,0,3.8-3.08,6.88-6.88,6.88h31.7v-31.7c0,3.8-3.08,6.88-6.88,6.88-2.29,0-10.84-2.5-17.26-4.49.24-.76.37-1.56.37-2.4s-.13-1.64-.37-2.4c6.43-1.99,14.97-4.49,17.26-4.49,3.8,0,6.88,3.08,6.88,6.88V0h-31.7Z"></path><rect class="cls-1" y=".51" width="63.4" height="63.4"></rect><rect class="cls-1" x="113.35" y="126.63" width="63.4" height="63.4" transform="translate(-13.75 302.88) rotate(-89.81)"></rect></g></g></svg>